<svg width="16" height="20" viewBox="0 0 16 20" fill="none" xmlns="http://www.w3.org/2000/svg">
<path d="M4.768 0.191549C5.7985 0.0505491 6.66451 0.681049 7.0745 1.50055L8.083 3.51705C8.6425 4.63605 8.321 5.94905 7.473 6.77505C6.972 7.26255 6.46851 7.81955 6.17651 8.31105C6.15716 8.34608 6.15113 8.38692 6.1595 8.42605C6.4295 9.88905 7.42101 11.3346 8.3055 12.3711C8.34999 12.4205 8.40805 12.4557 8.47242 12.4723C8.5368 12.4889 8.60465 12.4862 8.6675 12.4646L10.655 11.8436C11.1904 11.6762 11.7653 11.6848 12.2955 11.868C12.8256 12.0512 13.2832 12.3994 13.601 12.8616L15.0395 14.9536C15.4295 15.5216 15.627 16.2916 15.328 17.0321C15.061 17.6936 14.5445 18.6476 13.605 19.2821C12.63 19.9401 11.2945 20.1901 9.547 19.5911C7.59451 18.9211 5.75001 17.2411 4.22051 15.0926C2.68201 12.9306 1.41551 10.2301 0.647505 7.41405C-0.0779945 4.75505 0.360005 2.96505 1.39101 1.81255C2.38551 0.700549 3.8105 0.323049 4.768 0.191549ZM5.9565 2.05955C5.728 1.60305 5.3205 1.37755 4.938 1.43005C4.0875 1.54705 3.02251 1.86355 2.32301 2.64605C1.66001 3.38755 1.20101 4.69355 1.85301 7.08505C2.58551 9.76905 3.79151 12.3341 5.23901 14.3676C6.69551 16.4141 8.35051 17.8591 9.95251 18.4086C11.38 18.8981 12.2975 18.6561 12.9055 18.2461C13.5485 17.8116 13.944 17.121 14.169 16.5641C14.272 16.3091 14.2275 15.9791 14.0095 15.6621L12.571 13.5701C12.4046 13.3279 12.1649 13.1455 11.8873 13.0495C11.6096 12.9535 11.3084 12.949 11.028 13.0366L9.0405 13.6576C8.4465 13.8431 7.7775 13.6776 7.355 13.1826C6.4345 12.1041 5.26151 10.4501 4.93001 8.65255C4.86664 8.31567 4.92776 7.96725 5.10201 7.67205C5.48101 7.03505 6.08101 6.38555 6.6005 5.87955C7.10801 5.38555 7.25201 4.65055 6.965 4.07605L5.9565 2.06005V2.05955Z" fill="white"/>
</svg>
