<svg width="110" height="62" viewBox="0 0 110 62" fill="none" xmlns="http://www.w3.org/2000/svg">
<path d="M62.5525 33.2276C61.323 33.2276 60.1825 33.0011 59.131 32.5482C58.0794 32.0952 57.1492 31.4724 56.3403 30.6797C55.5477 29.8708 54.9248 28.9406 54.4719 27.8891C54.0351 26.8214 53.8167 25.6809 53.8167 24.4676C53.8167 23.2542 54.0351 22.1218 54.4719 21.0703C54.9248 20.0026 55.5477 19.0724 56.3403 18.2797C57.133 17.4708 58.0552 16.8399 59.1067 16.3869C60.1582 15.934 61.2987 15.7075 62.5282 15.7075C63.8871 15.7075 65.1651 15.9663 66.3623 16.484C67.5756 17.0017 68.5866 17.7539 69.3955 18.7408L67.3572 20.585C66.7748 19.8408 66.063 19.2827 65.2217 18.9106C64.3805 18.5224 63.4827 18.3282 62.5282 18.3282C61.7032 18.3282 60.9428 18.4819 60.2472 18.7893C59.5677 19.0967 58.9692 19.5334 58.4515 20.0997C57.9338 20.6497 57.5294 21.2968 57.2382 22.0409C56.947 22.7851 56.8014 23.594 56.8014 24.4676C56.8014 25.3411 56.947 26.1581 57.2382 26.9184C57.5294 27.6626 57.9338 28.3097 58.4515 28.8597C58.9854 29.4098 59.6001 29.8465 60.2957 30.1701C60.9914 30.4775 61.7598 30.6311 62.601 30.6311C63.5069 30.6311 64.3239 30.4451 65.0519 30.073C65.7799 29.6848 66.3784 29.1509 66.8476 28.4715C67.3329 27.792 67.6322 27.0317 67.7454 26.1904H62.6981V23.691H70.8272V24.6374C70.8272 25.8669 70.6169 26.9993 70.1963 28.0347C69.7919 29.07 69.2176 29.9841 68.4734 30.7767C67.7292 31.5533 66.8557 32.1599 65.8527 32.5967C64.8497 33.0173 63.7496 33.2276 62.5525 33.2276ZM79.7513 33.2276C78.4247 33.2276 77.171 33.0011 75.99 32.5482C74.8252 32.079 73.7009 31.3915 72.617 30.4856L74.1943 28.3501C75.2944 29.2399 76.2731 29.8708 77.1305 30.2429C78.0041 30.615 78.9343 30.801 79.9211 30.801C80.6653 30.801 81.3205 30.6878 81.8867 30.4613C82.4691 30.2348 82.914 29.9193 83.2213 29.5149C83.5449 29.1105 83.7066 28.6413 83.7066 28.1075C83.7066 27.4118 83.4721 26.8861 83.0029 26.5302C82.55 26.1581 81.7573 25.875 80.6248 25.6809L77.4945 25.147C76.0224 24.8882 74.9223 24.3948 74.1943 23.6668C73.4825 22.9226 73.1266 21.9762 73.1266 20.8276C73.1266 19.8085 73.3855 18.9187 73.9031 18.1584C74.4208 17.3819 75.1407 16.7833 76.0628 16.3627C77.0011 15.9259 78.1093 15.7075 79.3873 15.7075C80.6653 15.7075 81.8786 15.8935 83.0272 16.2656C84.1758 16.6377 85.2354 17.1796 86.2061 17.8914L84.7258 20.0754C83.8684 19.4283 82.9867 18.943 82.0808 18.6194C81.1749 18.2797 80.2447 18.1098 79.2902 18.1098C78.6108 18.1098 78.0122 18.215 77.4945 18.4253C76.993 18.6356 76.5967 18.9268 76.3055 19.2989C76.0305 19.671 75.893 20.0835 75.893 20.5364C75.893 21.1512 76.0952 21.6284 76.4996 21.9681C76.9202 22.2917 77.5916 22.5344 78.5137 22.6961L81.547 23.2057C83.2618 23.5131 84.5236 24.0469 85.3325 24.8073C86.1575 25.5676 86.57 26.5949 86.57 27.8891C86.57 28.9244 86.2789 29.8465 85.6965 30.6554C85.1303 31.4643 84.3376 32.0952 83.3184 32.5482C82.2992 33.0011 81.1102 33.2276 79.7513 33.2276ZM89.4024 32.9607V15.9744H92.3143V32.9607H89.4024Z" fill="white"/>
<path d="M58.7712 48.4915C58.0197 48.4915 57.3184 48.3562 56.6671 48.0857C56.0258 47.8052 55.4597 47.4194 54.9688 46.9284C54.4778 46.4275 54.0971 45.8513 53.8265 45.2001C53.556 44.5388 53.4207 43.8274 53.4207 43.0659C53.4207 42.3044 53.556 41.598 53.8265 40.9468C54.0971 40.2855 54.4778 39.7094 54.9688 39.2184C55.4597 38.7174 56.0258 38.3317 56.6671 38.0611C57.3184 37.7806 58.0197 37.6403 58.7712 37.6403C59.2922 37.6403 59.7882 37.7105 60.2591 37.8507C60.74 37.981 61.1909 38.1764 61.6117 38.4369C62.0326 38.6874 62.4083 38.998 62.7389 39.3687L61.9724 40.1652C61.5817 39.6943 61.1007 39.3336 60.5296 39.0831C59.9685 38.8226 59.3824 38.6924 58.7712 38.6924C58.18 38.6924 57.629 38.8026 57.118 39.023C56.607 39.2434 56.1611 39.5541 55.7803 39.9548C55.4096 40.3556 55.1191 40.8215 54.9086 41.3526C54.6982 41.8736 54.593 42.4447 54.593 43.0659C54.593 43.6771 54.6982 44.2482 54.9086 44.7792C55.1191 45.3103 55.4096 45.7762 55.7803 46.177C56.1611 46.5778 56.607 46.8884 57.118 47.1088C57.629 47.3292 58.18 47.4394 58.7712 47.4394C59.3824 47.4394 59.9685 47.3092 60.5296 47.0487C61.1007 46.7882 61.5817 46.4275 61.9724 45.9666L62.7389 46.7631C62.4083 47.1338 62.0326 47.4495 61.6117 47.71C61.1909 47.9605 60.74 48.1558 60.2591 48.2961C59.7882 48.4264 59.2922 48.4915 58.7712 48.4915ZM67.6376 48.4464C66.9562 48.4464 66.345 48.2811 65.804 47.9504C65.2629 47.6198 64.8371 47.1689 64.5265 46.5978C64.2159 46.0267 64.0606 45.3804 64.0606 44.659C64.0606 43.9376 64.2159 43.2913 64.5265 42.7202C64.8371 42.1491 65.2629 41.6982 65.804 41.3676C66.345 41.0369 66.9562 40.8716 67.6376 40.8716C68.3089 40.8716 68.91 41.0369 69.4411 41.3676C69.9821 41.6982 70.408 42.1491 70.7186 42.7202C71.0292 43.2913 71.1845 43.9376 71.1845 44.659C71.1845 45.3804 71.0292 46.0267 70.7186 46.5978C70.408 47.1689 69.9821 47.6198 69.4411 47.9504C68.91 48.2811 68.3089 48.4464 67.6376 48.4464ZM67.6225 47.4845C68.1035 47.4845 68.5293 47.3643 68.9 47.1238C69.2707 46.8733 69.5613 46.5327 69.7717 46.1018C69.9921 45.671 70.1024 45.1901 70.1024 44.659C70.1024 44.118 69.9921 43.637 69.7717 43.2162C69.5613 42.7854 69.2707 42.4497 68.9 42.2092C68.5293 41.9587 68.1035 41.8335 67.6225 41.8335C67.1416 41.8335 66.7158 41.9587 66.345 42.2092C65.9743 42.4497 65.6787 42.7854 65.4583 43.2162C65.2479 43.637 65.1427 44.118 65.1427 44.659C65.1427 45.1901 65.2479 45.671 65.4583 46.1018C65.6787 46.5327 65.9743 46.8733 66.345 47.1238C66.7158 47.3643 67.1416 47.4845 67.6225 47.4845ZM73.1094 48.3262V40.9919H74.2065V42.1792C74.4871 41.7383 74.8227 41.4127 75.2135 41.2023C75.6043 40.9818 76.0451 40.8716 76.5361 40.8716C77.0671 40.8716 77.528 40.9868 77.9188 41.2173C78.3196 41.4377 78.6302 41.7533 78.8506 42.1641C79.0811 42.5649 79.1963 43.0358 79.1963 43.5769V48.3262H78.0991V43.8925C78.0991 43.2412 77.9188 42.7303 77.5581 42.3595C77.2074 41.9788 76.7315 41.7884 76.1303 41.7884C75.7295 41.7884 75.3638 41.8836 75.0332 42.074C74.7025 42.2643 74.427 42.5449 74.2065 42.9156V48.3262H73.1094ZM83.6714 48.4765C83.0702 48.4765 82.5141 48.3863 82.0031 48.2059C81.4921 48.0156 81.0563 47.745 80.6956 47.3944L81.2817 46.6729C81.7226 46.9936 82.1284 47.229 82.4991 47.3793C82.8698 47.5196 83.2506 47.5897 83.6413 47.5897C84.1724 47.5897 84.6132 47.4645 84.9639 47.214C85.3146 46.9635 85.4899 46.6429 85.4899 46.2521C85.4899 45.9515 85.3847 45.7161 85.1743 45.5457C84.9739 45.3754 84.6383 45.2452 84.1674 45.155L82.965 44.9446C82.2536 44.8143 81.7276 44.5939 81.3869 44.2833C81.0563 43.9727 80.891 43.5519 80.891 43.0208C80.891 42.6 81.0012 42.2293 81.2216 41.9086C81.4521 41.588 81.7677 41.3375 82.1684 41.1572C82.5692 40.9668 83.0251 40.8716 83.5361 40.8716C84.0371 40.8716 84.513 40.9468 84.9639 41.0971C85.4148 41.2373 85.8707 41.4678 86.3316 41.7884L85.7905 42.5549C85.4098 42.2844 85.029 42.089 84.6483 41.9688C84.2675 41.8385 83.8818 41.7734 83.491 41.7734C83.0101 41.7734 82.6243 41.8786 82.3338 42.089C82.0432 42.2994 81.8979 42.585 81.8979 42.9457C81.8979 43.2463 81.9881 43.4767 82.1684 43.637C82.3588 43.7973 82.6895 43.9176 83.1604 43.9977L84.3928 44.2232C85.1342 44.3534 85.6753 44.5789 86.016 44.8995C86.3566 45.2201 86.527 45.651 86.527 46.192C86.527 46.6228 86.4017 47.0136 86.1512 47.3643C85.9007 47.705 85.5601 47.9755 85.1292 48.1759C84.6984 48.3763 84.2124 48.4765 83.6714 48.4765ZM90.8125 48.4464C90.2915 48.4464 89.8306 48.3312 89.4298 48.1007C89.0291 47.8703 88.7135 47.5497 88.483 47.1389C88.2626 46.7281 88.1524 46.2571 88.1524 45.7261V40.9919H89.2645V45.4105C89.2645 46.0618 89.4399 46.5778 89.7906 46.9585C90.1412 47.3392 90.6172 47.5296 91.2183 47.5296C91.6291 47.5296 91.9949 47.4344 92.3155 47.2441C92.6461 47.0537 92.9217 46.7782 93.1421 46.4174V40.9919H94.2392V48.3262H93.1421V47.1389C92.8615 47.5697 92.5259 47.8953 92.1351 48.1158C91.7544 48.3362 91.3135 48.4464 90.8125 48.4464ZM96.49 48.3262V37.475L97.5871 37.2496V48.3262H96.49ZM102.632 48.4765C102.001 48.4765 101.52 48.3262 101.189 48.0256C100.868 47.715 100.708 47.2691 100.708 46.688V41.8936H99.1901V40.9919H100.708V38.9779L101.805 38.7224V40.9919H103.909V41.8936H101.805V46.4024C101.805 46.7932 101.885 47.0737 102.046 47.2441C102.216 47.4144 102.492 47.4996 102.872 47.4996C103.063 47.4996 103.233 47.4845 103.383 47.4545C103.534 47.4244 103.709 47.3743 103.909 47.3042V48.2811C103.709 48.3512 103.499 48.4013 103.278 48.4314C103.058 48.4614 102.842 48.4765 102.632 48.4765Z" fill="white"/>
<g clip-path="url(#clip0_0_40120)">
<mask id="mask0_0_40120" style="mask-type:alpha" maskUnits="userSpaceOnUse" x="5" y="10" width="44" height="42">
<path d="M13.7498 34.4684L5.82959 36.6227V51.636H47.1161L48.1397 12.0555L48.2121 11.3962L48.1397 10.52L13.7498 34.4684Z" fill="black"/>
</mask>
<g mask="url(#mask0_0_40120)">
<path fill-rule="evenodd" clip-rule="evenodd" d="M39.8542 25.9508C39.9363 35.9045 38.3376 46.6927 33.0391 53.5361L31.1168 52.0477C35.888 45.8854 37.5044 35.813 37.4231 25.9709C37.3422 16.1664 35.5831 6.96027 33.9328 2.76916L36.1948 1.87842C37.9888 6.43433 39.7717 15.9594 39.8542 25.9508ZM24.5253 56.6979C30.2704 50.2248 32.5881 39.5679 33.1729 29.6311C33.7598 19.6565 32.619 10.0335 31.1342 5.36763L28.8175 6.10485C30.1834 10.3971 31.3219 19.7004 30.7459 29.4882C30.1678 39.3138 27.8804 49.2552 22.7071 55.0841L24.5253 56.6979ZM26.3224 36.7386C25.0373 45.2338 22.155 54.3045 16.5426 59.6761L14.8616 57.9197C19.8715 53.1249 22.6539 44.7355 23.9186 36.375C25.1793 28.0407 24.8821 20.0826 24.0109 16.4097L26.3764 15.8486C27.3431 19.9242 27.6113 28.2173 26.3224 36.7386ZM18.1662 45.6335C15.3678 53.7568 10.8944 62.1577 4.40392 66.4271L3.06787 64.396C8.86148 60.585 13.1136 52.8362 15.8677 44.8417C18.6131 36.8722 19.7584 28.9914 19.5649 25.2215L21.9929 25.0969C22.2075 29.2801 20.9733 37.4853 18.1662 45.6335ZM39.1748 53.5753C44.4733 46.732 46.0721 35.9438 45.9899 25.9901C45.9075 15.9986 44.1246 6.4736 42.3306 1.91769L40.0685 2.80843C41.7189 6.99954 43.478 16.2057 43.5589 26.0101C43.6401 35.8523 42.0238 45.9246 37.2525 52.087L39.1748 53.5753Z" fill="url(#paint0_linear_0_40120)"/>
</g>
</g>
<defs>
<linearGradient id="paint0_linear_0_40120" x1="34.8322" y1="17.1744" x2="11.9974" y2="50.5316" gradientUnits="userSpaceOnUse">
<stop stop-color="white"/>
<stop offset="1" stop-color="white" stop-opacity="0"/>
</linearGradient>
<clipPath id="clip0_0_40120">
<rect width="41.3292" height="38.898" fill="white" transform="translate(5.78906 12.3962)"/>
</clipPath>
</defs>
</svg>
