<svg width="119" height="67" viewBox="0 0 119 67" fill="none" xmlns="http://www.w3.org/2000/svg">
<path d="M67.6683 35.9006C66.3382 35.9006 65.1044 35.6556 63.9668 35.1655C62.8293 34.6755 61.8229 34.0017 60.9479 33.1442C60.0903 32.2691 59.4166 31.2628 58.9265 30.1252C58.454 28.9702 58.2177 27.7364 58.2177 26.4238C58.2177 25.1112 58.454 23.8861 58.9265 22.7486C59.4166 21.5935 60.0903 20.5872 60.9479 19.7296C61.8054 18.8546 62.803 18.1721 63.9406 17.682C65.0781 17.192 66.312 16.947 67.642 16.947C69.1121 16.947 70.4947 17.227 71.7898 17.787C73.1023 18.3471 74.1962 19.1609 75.0712 20.2284L72.8661 22.2235C72.236 21.4185 71.466 20.8147 70.5559 20.4122C69.6459 19.9922 68.6746 19.7821 67.642 19.7821C66.7495 19.7821 65.9269 19.9484 65.1744 20.2809C64.4393 20.6134 63.7918 21.086 63.2318 21.6985C62.6717 22.2935 62.2342 22.9936 61.9192 23.7986C61.6042 24.6037 61.4467 25.4787 61.4467 26.4238C61.4467 27.3688 61.6042 28.2526 61.9192 29.0752C62.2342 29.8802 62.6717 30.5803 63.2318 31.1753C63.8093 31.7703 64.4743 32.2429 65.2269 32.5929C65.9794 32.9254 66.8107 33.0917 67.7208 33.0917C68.7008 33.0917 69.5846 32.8904 70.3722 32.4879C71.1597 32.0679 71.8073 31.4903 72.3148 30.7553C72.8398 30.0202 73.1636 29.1977 73.2861 28.2876H67.8258V25.5837H76.6201V26.6075C76.6201 27.9376 76.3925 29.1627 75.9375 30.2828C75.5 31.4028 74.8787 32.3916 74.0737 33.2492C73.2686 34.0892 72.3236 34.7455 71.2385 35.218C70.1534 35.6731 68.9634 35.9006 67.6683 35.9006ZM86.2743 35.9006C84.8392 35.9006 83.4828 35.6556 82.2053 35.1655C80.9452 34.658 79.7289 33.9142 78.5563 32.9342L80.2627 30.624C81.4527 31.5866 82.5115 32.2691 83.4391 32.6716C84.3841 33.0742 85.3904 33.2754 86.458 33.2754C87.2631 33.2754 87.9718 33.1529 88.5844 32.9079C89.2144 32.6629 89.6957 32.3216 90.0282 31.8841C90.3782 31.4466 90.5532 30.939 90.5532 30.3615C90.5532 29.609 90.2995 29.0402 89.792 28.6552C89.3019 28.2526 88.4444 27.9464 87.2193 27.7364L83.8329 27.1588C82.2403 26.8788 81.0502 26.345 80.2627 25.5575C79.4926 24.7524 79.1076 23.7286 79.1076 22.4861C79.1076 21.3835 79.3876 20.4209 79.9476 19.5984C80.5077 18.7583 81.2865 18.1108 82.284 17.6558C83.2991 17.1832 84.4979 16.947 85.8805 16.947C87.2631 16.947 88.5756 17.1482 89.8182 17.5508C91.0608 17.9533 92.2071 18.5396 93.2572 19.3096L91.6558 21.6723C90.7283 20.9722 89.7745 20.4472 88.7944 20.0972C87.8143 19.7296 86.808 19.5459 85.7755 19.5459C85.0404 19.5459 84.3929 19.6596 83.8329 19.8872C83.2903 20.1147 82.8616 20.4297 82.5465 20.8322C82.249 21.2347 82.1003 21.681 82.1003 22.171C82.1003 22.8361 82.319 23.3524 82.7565 23.7199C83.2116 24.0699 83.9379 24.3324 84.9354 24.5074L88.2169 25.0587C90.072 25.3912 91.4371 25.9688 92.3121 26.7913C93.2047 27.6139 93.6509 28.7252 93.6509 30.1252C93.6509 31.2453 93.3359 32.2429 92.7059 33.1179C92.0933 33.993 91.2358 34.6755 90.1332 35.1655C89.0307 35.6556 87.7443 35.9006 86.2743 35.9006ZM96.715 35.6118V17.2358H99.8652V35.6118H96.715Z" fill="white"/>
<path d="M63.5776 53.2316C62.7647 53.2316 62.0059 53.0853 61.3014 52.7926C60.6076 52.4891 59.9952 52.0718 59.4641 51.5406C58.933 50.9987 58.5211 50.3754 58.2284 49.6709C57.9357 48.9555 57.7894 48.1859 57.7894 47.3621C57.7894 46.5383 57.9357 45.7741 58.2284 45.0696C58.5211 44.3542 58.933 43.7309 59.4641 43.1998C59.9952 42.6578 60.6076 42.2405 61.3014 41.9478C62.0059 41.6443 62.7647 41.4926 63.5776 41.4926C64.1413 41.4926 64.6778 41.5685 65.1873 41.7202C65.7075 41.8611 66.1953 42.0725 66.6506 42.3543C67.1058 42.6253 67.5123 42.9613 67.87 43.3624L67.0408 44.2241C66.6181 43.7146 66.0978 43.3244 65.4799 43.0534C64.8729 42.7716 64.2388 42.6307 63.5776 42.6307C62.9381 42.6307 62.3419 42.7499 61.7891 42.9884C61.2363 43.2269 60.754 43.5629 60.3421 43.9965C59.941 44.43 59.6267 44.9341 59.3991 45.5086C59.1714 46.0722 59.0576 46.69 59.0576 47.3621C59.0576 48.0233 59.1714 48.6411 59.3991 49.2156C59.6267 49.7901 59.941 50.2941 60.3421 50.7277C60.754 51.1613 61.2363 51.4973 61.7891 51.7358C62.3419 51.9742 62.9381 52.0935 63.5776 52.0935C64.2388 52.0935 64.8729 51.9525 65.4799 51.6707C66.0978 51.3889 66.6181 50.9987 67.0408 50.5001L67.87 51.3618C67.5123 51.7629 67.1058 52.1043 66.6506 52.3861C66.1953 52.6571 65.7075 52.8685 65.1873 53.0202C64.6778 53.1611 64.1413 53.2316 63.5776 53.2316ZM73.1694 53.1828C72.4323 53.1828 71.7711 53.004 71.1858 52.6463C70.6005 52.2886 70.1398 51.8008 69.8038 51.1829C69.4678 50.5651 69.2998 49.866 69.2998 49.0855C69.2998 48.3051 69.4678 47.606 69.8038 46.9881C70.1398 46.3703 70.6005 45.8825 71.1858 45.5248C71.7711 45.1671 72.4323 44.9883 73.1694 44.9883C73.8956 44.9883 74.546 45.1671 75.1205 45.5248C75.7058 45.8825 76.1665 46.3703 76.5025 46.9881C76.8385 47.606 77.0065 48.3051 77.0065 49.0855C77.0065 49.866 76.8385 50.5651 76.5025 51.1829C76.1665 51.8008 75.7058 52.2886 75.1205 52.6463C74.546 53.004 73.8956 53.1828 73.1694 53.1828ZM73.1532 52.1422C73.6734 52.1422 74.1341 52.0122 74.5352 51.752C74.9362 51.481 75.2506 51.1125 75.4782 50.6464C75.7167 50.1803 75.8359 49.66 75.8359 49.0855C75.8359 48.5002 75.7167 47.9799 75.4782 47.5247C75.2506 47.0586 74.9362 46.6955 74.5352 46.4353C74.1341 46.1643 73.6734 46.0288 73.1532 46.0288C72.6329 46.0288 72.1722 46.1643 71.7711 46.4353C71.3701 46.6955 71.0503 47.0586 70.8119 47.5247C70.5842 47.9799 70.4704 48.5002 70.4704 49.0855C70.4704 49.66 70.5842 50.1803 70.8119 50.6464C71.0503 51.1125 71.3701 51.481 71.7711 51.752C72.1722 52.0122 72.6329 52.1422 73.1532 52.1422ZM79.089 53.0527V45.1183H80.2759V46.4028C80.5794 45.9259 80.9425 45.5736 81.3652 45.346C81.788 45.1075 82.2649 44.9883 82.796 44.9883C83.3705 44.9883 83.8691 45.1129 84.2918 45.3622C84.7254 45.6007 85.0614 45.9421 85.2999 46.3865C85.5492 46.8201 85.6739 47.3296 85.6739 47.9149V53.0527H84.487V48.2563C84.487 47.5518 84.2918 46.999 83.9016 46.5979C83.5222 46.186 83.0074 45.9801 82.357 45.9801C81.9234 45.9801 81.5278 46.083 81.1701 46.289C80.8124 46.4949 80.5143 46.7984 80.2759 47.1995V53.0527H79.089ZM90.5151 53.2153C89.8647 53.2153 89.2632 53.1178 88.7104 52.9227C88.1575 52.7167 87.686 52.4241 87.2958 52.0447L87.9299 51.2642C88.4069 51.6111 88.8458 51.8658 89.2469 52.0284C89.648 52.1802 90.0599 52.256 90.4826 52.256C91.0571 52.256 91.534 52.1206 91.9134 51.8496C92.2928 51.5786 92.4824 51.2317 92.4824 50.809C92.4824 50.4838 92.3686 50.2291 92.141 50.0448C91.9242 49.8605 91.5611 49.7196 91.0517 49.6221L89.7509 49.3945C88.9813 49.2535 88.4123 49.0151 88.0437 48.6791C87.686 48.343 87.5072 47.8878 87.5072 47.3133C87.5072 46.8581 87.6264 46.457 87.8649 46.1101C88.1142 45.7633 88.4556 45.4923 88.8892 45.2972C89.3228 45.0912 89.816 44.9883 90.3688 44.9883C90.9107 44.9883 91.4256 45.0696 91.9134 45.2322C92.4011 45.3839 92.8943 45.6332 93.3929 45.9801L92.8076 46.8093C92.3957 46.5166 91.9838 46.3052 91.5719 46.1752C91.16 46.0343 90.7427 45.9638 90.32 45.9638C89.7997 45.9638 89.3824 46.0776 89.0681 46.3052C88.7537 46.5329 88.5965 46.8418 88.5965 47.232C88.5965 47.5572 88.6941 47.8065 88.8892 47.9799C89.0952 48.1534 89.4528 48.2834 89.9623 48.3701L91.2955 48.614C92.0976 48.7549 92.683 48.9988 93.0515 49.3457C93.42 49.6925 93.6043 50.1586 93.6043 50.744C93.6043 51.21 93.4688 51.6328 93.1978 52.0122C92.9269 52.3807 92.5583 52.6734 92.0922 52.8901C91.6261 53.1069 91.1004 53.2153 90.5151 53.2153ZM98.2405 53.1828C97.6769 53.1828 97.1783 53.0582 96.7447 52.8088C96.3111 52.5595 95.9697 52.2127 95.7204 51.7683C95.4819 51.3239 95.3627 50.8144 95.3627 50.2399V45.1183H96.5659V49.8985C96.5659 50.603 96.7556 51.1613 97.1349 51.5732C97.5143 51.9851 98.0292 52.191 98.6795 52.191C99.1239 52.191 99.5196 52.088 99.8664 51.8821C100.224 51.6761 100.522 51.3781 100.761 50.9878V45.1183H101.948V53.0527H100.761V51.7683C100.457 52.2344 100.094 52.5866 99.6713 52.8251C99.2594 53.0636 98.7825 53.1828 98.2405 53.1828ZM104.383 53.0527V41.3137L105.569 41.0698V53.0527H104.383ZM111.027 53.2153C110.344 53.2153 109.824 53.0527 109.466 52.7276C109.119 52.3915 108.946 51.9092 108.946 51.2805V46.0939H107.304V45.1183H108.946V42.9396L110.133 42.6632V45.1183H112.409V46.0939H110.133V50.9716C110.133 51.3943 110.219 51.6978 110.393 51.8821C110.577 52.0664 110.875 52.1585 111.287 52.1585C111.493 52.1585 111.677 52.1422 111.84 52.1097C112.002 52.0772 112.192 52.023 112.409 51.9471V53.004C112.192 53.0798 111.964 53.134 111.726 53.1665C111.488 53.1991 111.254 53.2153 111.027 53.2153Z" fill="white"/>
<g clip-path="url(#clip0_0_77336)">
<mask id="mask0_0_77336" style="mask-type:alpha" maskUnits="userSpaceOnUse" x="6" y="11" width="47" height="45">
<path d="M14.8793 37.2891L6.31104 39.6197V55.8613H50.9755L52.0829 13.0425L52.1612 12.3292L52.0829 11.3813L14.8793 37.2891Z" fill="black"/>
</mask>
<g mask="url(#mask0_0_77336)">
<path fill-rule="evenodd" clip-rule="evenodd" d="M43.1179 28.0742C43.2068 38.8422 41.4773 50.5131 35.7452 57.9164L33.6656 56.3063C38.8273 49.6397 40.5759 38.7433 40.488 28.0959C40.4004 17.4893 38.4974 7.52986 36.7121 2.99585L39.1592 2.03223C41.1 6.9609 43.0287 17.2652 43.1179 28.0742ZM26.5376 61.3381C32.7526 54.3354 35.26 42.8065 35.8926 32.0567C36.5276 21.2661 35.2934 10.8557 33.6871 5.80806L31.1809 6.6056C32.6586 11.249 33.8902 21.3135 33.2671 31.9022C32.6416 42.5316 30.1671 53.2864 24.5705 59.5923L26.5376 61.3381ZM28.4823 39.7454C27.0921 48.9357 23.9739 58.7485 17.9023 64.5596L16.0838 62.6595C21.5036 57.4724 24.5137 48.3966 25.8818 39.3521C27.2457 30.3358 26.9242 21.7266 25.9817 17.7532L28.5407 17.1462C29.5865 21.5553 29.8767 30.5269 28.4823 39.7454ZM19.6584 49.3677C16.631 58.1557 11.7915 67.2439 4.77007 71.8626L3.32471 69.6653C9.59234 65.5425 14.1924 57.1597 17.1718 48.5111C20.1419 39.8895 21.3808 31.3639 21.1715 27.2856L23.7981 27.1508C24.0303 31.6763 22.6951 40.5528 19.6584 49.3677ZM42.3845 57.9592C48.1166 50.556 49.8462 38.8851 49.7573 28.117C49.668 17.3081 47.7393 7.00371 45.7985 2.07504L43.3514 3.03866C45.1367 7.57268 47.0398 17.5321 47.1273 28.1387C47.2152 38.7861 45.4666 49.6826 40.305 56.3491L42.3845 57.9592Z" fill="url(#paint0_linear_0_77336)"/>
</g>
</g>
<defs>
<linearGradient id="paint0_linear_0_77336" x1="37.687" y1="18.5798" x2="12.9834" y2="54.6657" gradientUnits="userSpaceOnUse">
<stop stop-color="white"/>
<stop offset="1" stop-color="white" stop-opacity="0"/>
</linearGradient>
<clipPath id="clip0_0_77336">
<rect width="44.7106" height="42.0806" fill="white" transform="translate(6.26318 13.4111)"/>
</clipPath>
</defs>
</svg>
