<svg width="21" height="21" viewBox="0 0 21 21" fill="none" xmlns="http://www.w3.org/2000/svg">
<path d="M10.4986 0C16.2994 0 21 4.70159 21 10.4996C21 16.2986 16.2994 21 10.4986 21C4.70065 21 0 16.2984 0 10.4996C0 4.70159 4.70065 0 10.4986 0ZM10.4986 0.811344C5.14738 0.811344 0.811331 5.14828 0.811331 10.4998C0.811331 15.8508 5.14738 20.1887 10.4986 20.1887C15.8511 20.1887 20.188 15.8508 20.188 10.4996C20.188 5.14828 15.8511 0.811344 10.4986 0.811344ZM11.1681 2.95597C11.1681 2.95597 11.4097 3.39609 12.5365 3.19528C13.4684 3.02859 13.9842 3.27184 13.9842 3.58356C13.9842 3.58356 14.6472 3.66297 14.9428 3.85481C15.2392 4.04666 14.9251 4.52594 14.9251 4.52594C14.8799 4.43778 14.8169 4.38594 14.6376 4.34656C14.6376 4.34656 13.9211 4.16216 13.6716 4.62897C13.127 4.67556 12.6564 5.00172 12.4352 5.44534C12.4231 5.47137 12.2158 5.88175 12.3447 6.71016C12.412 7.14503 12.627 7.51384 12.9321 7.82797C13.0654 7.96578 13.2314 8.05394 13.433 8.03097C13.7515 7.994 14.0161 7.84131 14.2435 7.61622C14.368 7.49241 14.4065 7.35153 14.3108 7.18944C14.2983 7.168 14.2909 7.1435 14.2819 7.119C14.0004 6.43737 14.2361 5.83428 14.7145 5.47728C15.0664 5.21566 15.4725 5.18459 15.8852 5.24322C18.6062 5.62691 18.6973 8.37922 18.6973 9.22819V9.45481C18.6995 11.7364 18.7344 13.344 18.7515 13.6616C18.7788 14.1595 18.9522 14.264 19.0625 14.3426C18.8893 14.4627 17.4727 14.0166 17.1327 13.5936C17.1098 13.5653 17.0631 13.5535 17.0275 13.5439C16.1838 13.3475 16.182 12.4653 16.1659 12.1977C15.4598 12.1977 15.1866 11.4264 15.1116 11.2256C15.0475 11.0456 15.0047 10.8587 14.9843 10.6687C14.9843 11.0443 14.4294 11.3665 13.8322 10.7677C13.8322 11.3835 13.0995 11.2746 12.7351 10.9099C12.7032 11.0346 12.5009 11.3518 12.5009 11.3518C12.9195 11.4279 13.1078 11.5198 13.3055 11.6931C13.7692 12.1006 13.8219 12.7807 13.8219 13.132C13.8219 13.132 14.4604 13.7557 14.7132 13.9869C14.7879 14.0567 14.8702 14.1172 14.9524 14.1794C15.6073 13.4461 15.8251 13.732 15.8244 13.7342C16.309 13.5387 16.577 13.8847 16.4711 14.061C16.3579 13.9328 16.1748 13.9707 16.0645 14.0698C16.7186 14.1803 16.5659 14.6604 16.3896 14.761C16.3896 14.6232 16.3468 14.4701 16.1405 14.4559C16.151 14.6678 16.0082 14.7048 15.8725 14.7101C15.5481 14.7241 15.0066 14.7389 14.8414 14.9004C14.7464 14.9922 14.7925 15.262 14.6909 15.3538C14.6064 15.4293 14.5168 15.4206 14.4694 15.4212C14.4539 15.5205 14.4834 15.6323 14.6094 15.7642C14.1382 15.8027 13.7856 15.388 14.0189 15.1664C14.1168 15.0738 14.4456 14.7617 14.4626 14.6256C14.4842 14.4812 14.3315 14.3187 14.2256 14.2247C14.0887 14.1042 13.9478 13.9885 13.8031 13.8777L13.5137 13.6542C13.4396 13.5983 13.3614 13.5483 13.2797 13.5045C13.2433 13.4845 13.2034 13.4719 13.1621 13.4675C13.1209 13.4631 13.0792 13.4669 13.0394 13.4787C12.8587 13.5349 12.8609 13.5306 12.8144 13.4995C12.6366 13.3825 12.315 13.1187 11.6461 13.0445C11.6905 13.0727 11.7217 13.1023 11.7475 13.137C11.7831 13.1873 11.8091 13.2475 11.8469 13.3291C11.8906 13.4216 11.9238 13.5166 11.9631 13.6091C12.3956 14.6328 12.8238 15.6382 13.2552 16.6622C13.3981 17.0008 13.2705 17.2972 12.9219 17.4602C12.6676 17.5788 12.3779 17.5149 12.2075 17.269C12.2565 17.4379 12.2796 17.584 12.2106 17.7247C12.1424 17.8653 12.0321 17.9662 11.8875 18.0276C11.7483 18.0891 11.5838 18.1107 11.432 18.0801C11.2769 18.0491 11.1743 17.9467 11.095 17.7964C11.0814 18.1307 10.8614 18.375 10.4986 18.375C10.1355 18.375 9.91531 18.1307 9.90221 17.7964C9.82291 17.9469 9.7198 18.0491 9.56492 18.0801C9.41128 18.109 9.2525 18.0907 9.10944 18.0276C8.96483 17.9662 8.85451 17.8653 8.78636 17.7247C8.71754 17.5838 8.74048 17.4385 8.78941 17.269C8.61902 17.5149 8.32935 17.5788 8.07507 17.4602C7.72621 17.2972 7.59885 17.0008 7.74172 16.6622C8.17294 15.6384 8.60111 14.6328 9.03386 13.6091C9.07318 13.5166 9.10639 13.4216 9.15008 13.3291C9.18787 13.2468 9.21321 13.1869 9.2486 13.137C9.27459 13.1023 9.30561 13.0727 9.35083 13.0445C8.68193 13.1178 8.35972 13.3825 8.18255 13.4995C8.13602 13.5306 8.13821 13.5349 7.95755 13.4787C7.91779 13.4668 7.87606 13.463 7.83481 13.4674C7.79355 13.4719 7.75359 13.4845 7.71725 13.5045C7.63642 13.5492 7.55363 13.5986 7.48329 13.6542C7.24255 13.8416 6.99789 14.0232 6.77114 14.2247C6.66541 14.3187 6.51271 14.481 6.53433 14.6256C6.5505 14.7613 6.88014 15.0738 6.97779 15.1664C7.21153 15.388 6.85873 15.8036 6.38753 15.7642C6.51358 15.6323 6.54242 15.5205 6.52691 15.4212C6.48016 15.4206 6.39059 15.4293 6.30605 15.3538C6.20382 15.262 6.24969 14.9922 6.15576 14.9004C5.98973 14.7389 5.44797 14.7241 5.12444 14.7101C4.98901 14.7048 4.84592 14.6678 4.85619 14.4559C4.64953 14.4692 4.60715 14.6226 4.60715 14.761C4.4302 14.6604 4.27838 14.1796 4.93264 14.0698C4.82211 13.9707 4.63839 13.9328 4.52589 14.061C4.41994 13.8847 4.68798 13.5387 5.1725 13.7342C5.17098 13.732 5.38965 13.4468 6.04456 14.1796C6.1267 14.1172 6.20906 14.0567 6.28377 13.9871C6.53652 13.7565 7.17505 13.1318 7.17505 13.1318C7.17505 12.7816 7.22748 12.1015 7.6906 11.6933C7.88939 11.5198 8.07726 11.4279 8.49603 11.3516C8.49603 11.3516 8.29375 11.0344 8.26185 10.9102C7.89747 11.2755 7.16479 11.3835 7.16479 10.768C6.56754 11.3658 6.01267 11.0443 6.01267 10.6687C5.99224 10.8587 5.94949 11.0456 5.88531 11.2256C5.81038 11.4264 5.5371 12.1977 4.83106 12.1977C4.81468 12.4653 4.81315 13.3468 3.96949 13.5439C3.93388 13.5527 3.88713 13.5653 3.8642 13.5936C3.52341 14.0173 2.10784 14.4627 1.93352 14.3426C2.04405 14.2632 2.21751 14.1595 2.24481 13.6616C2.26251 13.3335 2.29877 11.6294 2.29877 9.22819L2.29899 9.17219C2.30379 8.26437 2.44797 5.61881 5.11178 5.24322C5.52465 5.18459 5.93053 5.21566 6.28224 5.47728C6.76087 5.83428 6.99658 6.43759 6.71499 7.119C6.70625 7.1435 6.69861 7.168 6.68616 7.18944C6.59048 7.35175 6.62914 7.49241 6.75344 7.616C6.98085 7.84131 7.24539 7.994 7.5639 8.03097C7.76553 8.05394 7.93155 7.96578 8.06481 7.82797C8.36998 7.51384 8.57751 7.14416 8.65244 6.71016C8.79378 5.88547 8.5738 5.47137 8.562 5.44534C8.34049 5.00172 7.86995 4.67556 7.32557 4.62897C7.07588 4.16216 6.35935 4.34678 6.35935 4.34678C6.18022 4.38616 6.11709 4.43778 6.071 4.52616C6.071 4.52616 5.75774 4.04666 6.05352 3.85459C6.34974 3.66297 7.01274 3.58356 7.01274 3.58356C7.01274 3.27163 7.52829 3.02859 8.45977 3.19528C9.58654 3.39609 9.82881 2.95597 9.82881 2.95597C9.87534 3.49541 9.46356 3.77322 9.33161 3.84891C9.75912 4.31266 10.3561 5.2395 10.4986 6.55441C10.6406 5.2395 11.2378 4.31266 11.6651 3.84891C11.5327 3.77322 11.1216 3.49541 11.1681 2.95597Z" fill="#D9D9D9"/>
</svg>
