<svg width="15" height="17" viewBox="0 0 15 17" fill="none" xmlns="http://www.w3.org/2000/svg">
<path fill-rule="evenodd" clip-rule="evenodd" d="M13.9104 1.23257C13.65 1.3996 13.4434 1.55248 13.4511 1.57258C13.4706 1.62378 13.5893 2.57502 13.6485 3.15515C13.7317 3.97035 13.7694 4.56933 13.7981 5.53486C13.935 10.1323 13.0858 13.8868 11.3933 16.1677L11.2302 16.3875H11.8622H12.4941L12.6429 16.1526C13.7006 14.483 14.4049 12.2364 14.6991 9.59405C14.8271 8.44464 14.8511 7.94275 14.8506 6.42914C14.8501 4.98474 14.8277 4.4622 14.7161 3.29157C14.6294 2.38228 14.4444 0.991595 14.4047 0.950791C14.3931 0.938847 14.1707 1.06565 13.9104 1.23257ZM11.4741 2.78531C10.9202 3.13903 10.974 2.99958 11.0484 3.88853C11.1705 5.34627 11.1772 7.39348 11.0643 8.71384C10.7973 11.8354 10.0309 14.3266 8.81416 16.0272L8.56724 16.3724L9.18914 16.3806C9.74746 16.3881 9.81465 16.3836 9.84614 16.3367C10.0585 16.0213 10.4317 15.3575 10.6133 14.9722C11.5022 13.0863 12.0181 10.737 12.1699 7.88424C12.2124 7.08557 12.1924 5.0383 12.1347 4.2768C12.0819 3.57995 11.9955 2.68097 11.9713 2.57596L11.9495 2.48177L11.4741 2.78531ZM8.81823 4.48163L8.32406 4.79478L8.31131 5.76355C8.25604 9.96889 7.53233 13.3555 6.15902 15.8351C5.99543 16.1304 5.86157 16.3756 5.86157 16.3798C5.86157 16.3841 6.12413 16.3875 6.44504 16.3875H7.02851L7.19297 16.0897C8.39134 13.9195 9.14034 10.7625 9.33021 7.0809C9.36801 6.34796 9.37215 4.30584 9.33599 4.22265C9.31577 4.17618 9.24228 4.21295 8.81823 4.48163ZM6.15345 6.1795L5.62806 6.51708V6.8071C5.62806 8.03479 5.3322 10.3273 4.97456 11.8706C4.60769 13.4539 4.00036 15.142 3.425 16.1778C3.37072 16.2755 3.32632 16.3627 3.32632 16.3715C3.32632 16.3803 3.58688 16.3875 3.90532 16.3875H4.48433L4.6234 16.1005C5.68286 13.9138 6.37989 11.0637 6.62914 7.8994C6.66614 7.42965 6.71511 5.8367 6.69243 5.83994C6.68495 5.841 6.4424 5.99382 6.15345 6.1795ZM3.82093 7.66686C3.53338 7.85311 3.28866 8.01417 3.27712 8.02478C3.26558 8.03536 3.21837 8.27409 3.17224 8.55529C2.77274 10.99 1.86329 13.8331 0.817164 15.9176C0.708382 16.1344 0.611375 16.3288 0.601601 16.3496C0.587724 16.3791 0.713085 16.3875 1.16646 16.3875H1.74913L1.95305 15.955C3.17221 13.3687 4.05667 10.2927 4.38035 7.51289C4.39249 7.40855 4.38922 7.32448 4.37308 7.32582C4.35697 7.32712 4.10848 7.48057 3.82093 7.66686Z" fill="white"/>
</svg>
