<svg width="38" height="38" viewBox="0 0 38 38" fill="none" xmlns="http://www.w3.org/2000/svg">
<mask id="mask0_3_126005" style="mask-type:alpha" maskUnits="userSpaceOnUse" x="-5" y="-1" width="43" height="41">
<path d="M3.49446 22.688L-4.24292 24.7926V39.4593H36.0904L37.0904 0.792582L37.1611 0.148474L37.0904 -0.707458L3.49446 22.688Z" fill="black"/>
</mask>
<g mask="url(#mask0_3_126005)">
<path fill-rule="evenodd" clip-rule="evenodd" d="M28.996 14.3676C29.0763 24.0915 27.5144 34.6306 22.3382 41.316L20.4603 39.862C25.1214 33.8419 26.7005 24.0021 26.6211 14.3872C26.542 4.80911 24.8235 -4.18452 23.2113 -8.27887L25.4211 -9.14905C27.1737 -4.69832 28.9154 4.60681 28.996 14.3676ZM14.0234 44.4061C19.6358 38.0825 21.9001 27.6716 22.4713 17.9642C23.0447 8.21997 21.9302 -1.18092 20.4796 -5.73905L18.2165 -5.01884C19.5508 -0.825701 20.663 8.26284 20.1004 17.8247C19.5356 27.4234 17.301 37.1353 12.2471 42.8296L14.0234 44.4061ZM15.782 24.9068C14.5266 33.2058 11.7108 42.0671 6.22796 47.3147L4.58581 45.5989C9.48003 40.9147 12.1982 32.719 13.4337 24.5516C14.6653 16.4096 14.375 8.63529 13.5239 5.04716L15.8347 4.49901C16.7792 8.48055 17.0412 16.5822 15.782 24.9068ZM7.81057 33.5976C5.07673 41.5334 0.706583 49.7403 -5.63401 53.9111L-6.93921 51.9269C-1.27936 48.2038 2.87459 40.634 5.56508 32.824C8.24716 25.0385 9.36596 17.3396 9.177 13.6568L11.5489 13.5351C11.7586 17.6217 10.5528 25.6374 7.81057 33.5976ZM28.3373 41.3554C33.5135 34.67 35.0754 24.1309 34.9951 14.407C34.9145 4.64623 33.1728 -4.65889 31.4202 -9.10962L29.2104 -8.23944C30.8226 -4.1451 32.5411 4.84853 32.6202 14.4266C32.6995 24.0416 31.1205 33.8813 26.4594 39.9014L28.3373 41.3554Z" fill="white"/>
</g>
</svg>
