<svg width="23" height="23" viewBox="0 0 23 23" fill="none" xmlns="http://www.w3.org/2000/svg">
<g clip-path="url(#clip0_24_199188)">
<rect width="22.5" height="22.5" rx="3.75" fill="#5D5E60"/>
<path d="M16.9894 4.90576H6.08556C5.46587 4.90576 4.87157 5.15649 4.43338 5.60279C3.99519 6.04909 3.74902 6.6544 3.74902 7.28557V15.2183C3.74902 15.8494 3.99519 16.4547 4.43338 16.901C4.87157 17.3473 5.46587 17.5981 6.08556 17.5981H16.9894C17.6091 17.5981 18.2034 17.3473 18.6416 16.901C19.0798 16.4547 19.3259 15.8494 19.3259 15.2183V7.28557C19.3259 6.6544 19.0798 6.04909 18.6416 5.60279C18.2034 5.15649 17.6091 4.90576 16.9894 4.90576ZM16.4676 6.4923L11.5375 10.2603L6.60739 6.4923H16.4676ZM16.9894 16.0115H6.08556C5.879 16.0115 5.6809 15.928 5.53483 15.7792C5.38877 15.6304 5.30672 15.4286 5.30672 15.2183V7.48389L11.0702 11.8865C11.205 11.9895 11.369 12.0452 11.5375 12.0452C11.706 12.0452 11.87 11.9895 12.0048 11.8865L17.7683 7.48389V15.2183C17.7683 15.4286 17.6862 15.6304 17.5401 15.7792C17.3941 15.928 17.196 16.0115 16.9894 16.0115Z" fill="white"/>
</g>
<defs>
<clipPath id="clip0_24_199188">
<rect width="22.5" height="22.5" rx="3.75" fill="white"/>
</clipPath>
</defs>
</svg>
