<svg width="23" height="23" viewBox="0 0 23 23" fill="none" xmlns="http://www.w3.org/2000/svg">
<g clip-path="url(#clip0_0_40140)">
<rect width="22.5" height="22.5" rx="3.75" fill="#5D5E60"/>
<path d="M16.251 17.7834H16.1643C6.14782 17.2074 4.72563 8.75581 4.52683 6.17651C4.51081 5.97596 4.53452 5.77423 4.5966 5.58286C4.65868 5.3915 4.75791 5.21426 4.8886 5.06131C5.0193 4.90836 5.17889 4.7827 5.35823 4.69154C5.53757 4.60037 5.73314 4.54549 5.93372 4.53003H8.74242C8.9466 4.52983 9.14614 4.59095 9.31518 4.70546C9.48423 4.81998 9.615 4.98262 9.69054 5.17231L10.4654 7.07875C10.54 7.26407 10.5585 7.46722 10.5186 7.66297C10.4787 7.85872 10.3822 8.03844 10.2411 8.1798L9.15531 9.27575C9.32491 10.2396 9.78647 11.128 10.4775 11.8209C11.1686 12.5138 12.0558 12.9777 13.0192 13.1498L14.1253 12.0539C14.2688 11.9143 14.4502 11.82 14.6469 11.7829C14.8436 11.7457 15.0469 11.7673 15.2315 11.8449L17.1532 12.6146C17.34 12.6925 17.4994 12.8243 17.6111 12.9932C17.7228 13.162 17.7816 13.3603 17.7802 13.5627V16.2542C17.7802 16.6597 17.6191 17.0487 17.3323 17.3355C17.0455 17.6223 16.6565 17.7834 16.251 17.7834ZM6.05606 5.54952C5.92087 5.54952 5.79121 5.60322 5.69562 5.69882C5.60002 5.79442 5.54632 5.92407 5.54632 6.05926V6.10004C5.7808 9.11773 7.28455 16.2542 16.2204 16.7639C16.2873 16.768 16.3545 16.7589 16.4179 16.7371C16.4813 16.7152 16.5398 16.681 16.59 16.6365C16.6402 16.592 16.6811 16.538 16.7104 16.4776C16.7397 16.4173 16.7568 16.3517 16.7607 16.2847V13.5627L14.839 12.793L13.376 14.2458L13.1313 14.2152C8.69654 13.6596 8.09504 9.22478 8.09504 9.1789L8.06446 8.93422L9.51213 7.47126L8.74751 5.54952H6.05606Z" fill="white"/>
</g>
<defs>
<clipPath id="clip0_0_40140">
<rect width="22.5" height="22.5" rx="3.75" fill="white"/>
</clipPath>
</defs>
</svg>
