<svg width="200" height="200" viewBox="0 0 200 200" fill="none" xmlns="http://www.w3.org/2000/svg">
<rect width="200" height="200" rx="31" fill="#1EC677"/>
<path fill-rule="evenodd" clip-rule="evenodd" d="M58.9883 117.5H66.4883V94.9999C70.1549 93.3333 77.6883 91.4 78.4883 97L78.9883 117.5H85.9883V97C85.9883 87.5 74.4883 83.9 66.4883 89.5V73H58.9883V117.5ZM54.4851 87.9999V94.9999C52.488 94.9999 50.25 94.4823 48.0106 93.9645C41.8398 92.5375 35.659 91.1081 34.4851 100.5C33.6102 107.5 38.4851 117.5 54.4851 107.5V114.5C50.9851 117.5 37.7851 121.1 30.9851 113.5C24.9853 106.794 24.4882 89.4999 38.4851 86.4999C42.4883 85.642 50.4825 87.1999 54.4851 87.9999ZM89.9883 117.5V87H97.4883V117.5H89.9883ZM93.9883 73.5C88.4883 73.5 87.9883 82.5 93.9883 82.5C100.988 82.5 98.9883 73.5 93.9883 73.5ZM109.488 117.5H101.988C98.9883 84.5 109.488 82.5 121.488 90.5C135.488 81.5 144.488 88 140.988 117.5H133.488C135.488 105.5 133.488 88 126.488 95C139.988 118.5 103.488 117.5 116.988 94.5C108.588 87.7 108.488 105.5 109.488 117.5ZM150.988 103.5C151.488 108.5 156.488 116.5 172.488 108.5V115.5C164.655 119 148.188 122.2 144.988 107C141.788 91.8 151.988 87 157.488 86.5C164.988 85.8182 177.288 90.6 170.488 101C168.155 103.333 160.988 107.1 150.988 103.5ZM151.988 98C153.988 92 163.788 89.9999 164.988 95.9999C164.188 99.9999 155.988 98.9999 151.988 98ZM121.488 96.5C119.655 100 117.088 107 121.488 107C125.888 107 123.321 100 121.488 96.5Z" fill="white"/>
</svg>
