<svg width="200" height="200" viewBox="0 0 200 200" fill="none" xmlns="http://www.w3.org/2000/svg">
<rect width="200" height="200" rx="31" fill="#FE1251"/>
<path fill-rule="evenodd" clip-rule="evenodd" d="M110.528 40.0208C110.489 40.0587 109.246 40.1323 107.766 40.1841C106.285 40.2361 104.755 40.3111 104.366 40.3507C97.5643 41.0443 91.7043 42.0456 87.7351 43.1924C77.1021 46.2645 68.0529 52.743 59.4642 63.4322C55.1411 68.8127 50.1478 76.5773 47.1195 82.628C45.315 86.2337 44.7207 87.5805 43.5835 90.6417C39.9372 100.457 39.1203 108.576 40.9196 117.118C42.5583 124.898 46.977 133.323 52.9711 140.096C61.1828 149.374 69.8042 155.342 79.432 158.414C82.7138 159.461 85.7499 160.023 89.4906 160.277C100.309 161.011 113.565 156.598 127.375 147.665C138.21 140.657 145.79 133.693 150.828 126.12C156.155 118.111 158.502 110.497 159.909 96.653C160.213 93.6663 160.339 85.1014 160.124 81.9858C159.232 69.0089 156.371 58.9358 151.838 52.8102C149.221 49.2744 145.565 46.6784 140.201 44.5467C134.872 42.429 126.209 40.69 118.603 40.2113C116.65 40.0885 110.605 39.9458 110.528 40.0208ZM104.862 60.957C108.375 61.2233 111.71 61.8875 114.495 62.8754C125.89 66.9179 134.449 75.8637 137.939 87.3788C139.927 93.9366 139.944 101.742 137.985 108.337C135.439 116.906 129.942 124.205 122.298 129.165C120.565 130.29 117.197 131.969 115.241 132.684C110.608 134.377 106.648 134.997 101.337 134.861C96.1471 134.728 92.3959 133.919 87.7909 131.937C79.7808 128.49 73.2089 122.302 69.3306 114.555C66.9768 109.853 65.6801 104.857 65.4008 99.4155C65.1816 95.1465 66.0564 89.4032 67.5457 85.334C68.3151 83.2317 70.3206 79.2629 71.4812 77.5454C76.1982 70.5657 82.167 65.899 90.1927 62.916C92.5822 62.0278 96.7119 61.1842 99.7617 60.9611C101.985 60.7986 102.763 60.7979 104.862 60.957Z" fill="white"/>
</svg>
