<svg width="200" height="200" viewBox="0 0 200 200" fill="none" xmlns="http://www.w3.org/2000/svg">
<rect width="200" height="200" rx="31" fill="#232323"/>
<path fill-rule="evenodd" clip-rule="evenodd" d="M91.8836 50.7392C87.74 52.0746 86.6141 52.9121 78.9049 60.3919C76.1318 63.0825 71.4183 67.6325 68.4304 70.5033C47.9619 90.1676 34.4407 103.133 29.1208 108.196C26.4376 110.75 24.1346 113.058 24.003 113.323C23.8121 113.708 32.6864 113.807 67.7245 113.807H111.686L111.42 111.583C111.274 110.36 111.033 109.228 110.885 109.066C110.737 108.905 93.7692 108.818 73.1788 108.873C52.5884 108.928 35.742 108.868 35.742 108.74C35.742 108.611 36.7437 107.576 37.9683 106.44C39.193 105.303 44.8118 99.924 50.455 94.4851C56.0982 89.0467 65.1583 80.3428 70.5885 75.1429C76.0188 69.943 82.2563 63.9455 84.4501 61.8144C90.7724 55.6726 93.2283 54.4122 98.2466 54.7339C104.242 55.1182 109.396 59.135 110.819 64.5336C111.047 65.3969 111.838 70.5295 112.578 75.9394C113.317 81.3492 114.372 88.9941 114.921 92.9282C115.47 96.8622 116.428 103.822 117.048 108.394C121.222 139.148 121.459 140.714 122.197 142.479C122.985 144.362 124.973 146.516 127.038 147.725C128.436 148.543 129.422 148.782 131.94 148.914C137.393 149.2 136.421 149.964 157.924 128.478C168.345 118.065 176.929 109.374 176.999 109.163C177.084 108.913 168.652 108.78 152.704 108.78H128.279L128.283 109.844C128.285 110.428 128.395 111.557 128.527 112.353L128.766 113.799L147.069 113.899L165.371 114L150.794 128.783C142.514 137.18 135.745 143.736 135.126 143.958C132.602 144.867 130.015 144.27 127.981 142.311C126.499 140.883 126.211 139.931 125.386 133.718C125.047 131.167 124.253 125.338 123.62 120.766C122.986 116.194 122.123 109.931 121.701 106.847C121.279 103.764 120.139 95.4993 119.168 88.4818C118.196 81.4644 117.05 73.1293 116.62 69.9593C115.8 63.9107 115.18 61.5321 113.84 59.2908C111.43 55.2617 108.141 52.549 103.725 50.9483C100.476 49.7706 95.1797 49.6771 91.8836 50.7392ZM142.422 71.1799C142.059 73.2534 141.254 77.8006 140.634 81.285C140.014 84.7698 139.507 87.7708 139.507 87.9545C139.507 88.1381 140.367 88.2885 141.417 88.2885C143.669 88.2885 143.379 88.9106 144.742 81.1404C145.3 77.953 145.804 75.2983 145.862 75.2411C145.919 75.1835 147.202 78.0523 148.713 81.616L151.46 88.0952H153.303H155.146L156.761 78.9273C157.65 73.8848 158.482 69.2304 158.612 68.5848L158.847 67.4102H156.769H154.69L154.299 69.6333C154.084 70.8559 153.591 73.727 153.204 76.0128C152.817 78.2986 152.39 80.1692 152.253 80.1692C152.117 80.1692 150.816 77.2984 149.363 73.7897L146.72 67.4102H144.902H143.083L142.422 71.1799Z" fill="white"/>
</svg>
