<svg width="200" height="200" viewBox="0 0 200 200" fill="none" xmlns="http://www.w3.org/2000/svg">
<rect width="200" height="200" rx="31" fill="#E1FF57"/>
<path fill-rule="evenodd" clip-rule="evenodd" d="M81.3661 51.5053C79.1197 57.7684 73.143 64.2769 66.9359 67.22C62.2418 69.4453 58.8067 70.2063 53.565 70.1827L49.2955 70.1632L45.4278 81.2054C42.8861 88.4629 41.7295 92.417 42.0532 92.7416C42.9301 93.6208 59.7875 93.3899 64.6151 92.4325C75.6866 90.2368 83.4851 86.1189 90.9762 78.5128C94.2124 75.2269 99.1523 68.2851 101.352 63.9322C103.152 60.3714 107.049 50.6908 107.049 49.7815C107.049 49.0947 105.552 49 94.6571 49H82.2644L81.3661 51.5053ZM110.994 50.3776C110.399 51.9316 90.4191 108.447 81.8158 132.911C78.715 141.728 76.0174 149.336 75.8215 149.819C75.4873 150.64 76.2832 150.696 88.509 150.696C95.6833 150.696 101.553 150.62 101.553 150.528C101.553 150.436 106.517 136.29 112.583 119.093C118.649 101.895 123.953 86.8353 124.368 85.6259C124.783 84.4166 127.802 75.8637 131.075 66.6199C134.349 57.3761 137.028 49.6302 137.028 49.4063C137.028 49.1829 131.289 49 124.274 49H111.521L110.994 50.3776ZM130.739 111.031C115.635 116.266 111.325 135.272 122.778 146.134C131.145 154.068 143.595 153.94 151.889 145.834C158.624 139.252 159.988 127.985 154.999 120.137C153.318 117.492 149.99 114.204 147.52 112.747C143.067 110.121 135.575 109.355 130.739 111.031Z" fill="#1A1A1A"/>
</svg>
