<svg width="36" height="36" viewBox="0 0 36 36" fill="none" xmlns="http://www.w3.org/2000/svg">
<rect width="36" height="36" rx="8" fill="#2081E2"/>
<path d="M14.1271 9.64936C16.0777 12.6251 17.5406 18.8247 14.1271 21.8004H16.8091V23.7843C12.9082 23.7843 12.6642 23.5363 12.6642 21.8004H7.05639C6.66628 24.3794 8.27528 28 12.6642 28H20.954C24.2699 28 25.0989 24.5283 27.2933 22.7924L28.7562 22.0485L29 20.5606L22.9046 22.2964C22.1243 23.4867 21.1166 23.7843 20.7102 23.7843H18.7596V21.8004H20.4664C23.7823 19.2214 25.8304 15.105 18.7596 10.6413V9.1534C18.7596 7.56632 16.8091 7.66555 16.8091 9.1534V10.1453L14.1271 9.64936Z" fill="white"/>
<path d="M13.3955 19.5686H8.27528L13.1516 11.8812C14.1269 13.8651 15.1022 17.8328 13.3955 19.5686Z" fill="white"/>
</svg>
