<svg width="200" height="200" viewBox="0 0 200 200" fill="none" xmlns="http://www.w3.org/2000/svg">
<rect width="200" height="200" rx="31" fill="#FCED48"/>
<path fill-rule="evenodd" clip-rule="evenodd" d="M67.9667 56.8167V61.6333H92.9C106.613 61.6333 117.833 61.7574 117.833 61.9087C117.833 62.06 106.62 78.316 92.9147 98.0337L67.9961 133.883L67.9814 137.073C67.9729 138.964 68.2574 140.503 68.6812 140.854C69.0745 141.18 72.3255 142.332 75.9062 143.414C93.2865 148.661 109.672 148.579 125.023 143.165C129.046 141.747 135.04 139.122 135.841 138.427C135.96 138.323 131.716 130.449 131.181 129.785C131.123 129.713 129.433 130.525 127.426 131.591C122.036 134.453 114.256 136.874 107.965 137.648C101.63 138.426 91.1547 137.706 83.954 135.997L79.8247 135.017L105.346 97.4138L130.867 59.8109V55.9055V52H99.4167H67.9667V56.8167ZM67.608 91.0535C65.1214 92.5694 64 94.3935 64 96.9208C64 101.17 66.7727 104.18 70.7365 104.235C75.0211 104.294 78.1769 101.311 78.1582 97.22C78.1468 94.6689 77.0962 92.7955 74.8165 91.2587C72.479 89.6839 69.971 89.6125 67.608 91.0535ZM125.408 91.0535C122.921 92.5694 121.8 94.3935 121.8 96.9208C121.8 101.17 124.573 104.18 128.537 104.235C132.821 104.294 135.977 101.311 135.958 97.22C135.947 94.6689 134.896 92.7955 132.617 91.2587C130.279 89.6839 127.771 89.6125 125.408 91.0535Z" fill="#012149"/>
</svg>
