<svg width="250" height="115" viewBox="0 0 250 115" fill="none" xmlns="http://www.w3.org/2000/svg">
<g clip-path="url(#clip0_570_199)">
<path d="M21 77.8152H235" stroke="#B9C1D9" stroke-width="0.396012" stroke-dasharray="1.98 1.98"/>
<path d="M21 51.8411H235" stroke="#B9C1D9" stroke-width="0.396012" stroke-dasharray="1.98 1.98"/>
<path d="M21 29.9428H235" stroke="#B9C1D9" stroke-width="0.396012" stroke-dasharray="1.98 1.98"/>
<path d="M50 101.5V85.5" stroke="white" stroke-opacity="0.5" stroke-linecap="square" stroke-linejoin="round"/>
<path d="M235.005 100.5L22.9951 100.5" stroke="white" stroke-opacity="0.5" stroke-width="0.5" stroke-linecap="square" stroke-linejoin="round"/>
<path d="M115 101.5V62.5" stroke="white" stroke-opacity="0.5" stroke-linecap="square" stroke-linejoin="round"/>
<path d="M153 101V42" stroke="white" stroke-opacity="0.5" stroke-linecap="square" stroke-linejoin="round"/>
<rect x="42.4004" y="95.1949" width="16.8143" height="10.3051" rx="1.2291" fill="white"/>
<rect x="106.6" y="95.1949" width="16.8143" height="10.3051" rx="1.2291" fill="white"/>
<rect x="144.814" y="95.1949" width="16.8143" height="10.3051" rx="1.2291" fill="white"/>
<path d="M52.3951 103.5L51.8573 101.911H49.6165L49.0787 103.5H48.1294L50.252 97.6208H51.238L53.3607 103.5H52.3951ZM50.7247 98.5986L49.8487 101.178H51.625L50.7491 98.5986H50.7247Z" fill="black"/>
<path d="M115.016 103.5H112.448V97.2518H115.007C115.559 97.2518 116.002 97.3947 116.337 97.6805C116.671 97.9633 116.839 98.3401 116.839 98.8106C116.839 99.1425 116.732 99.4399 116.518 99.7025C116.305 99.9623 116.042 100.118 115.73 100.17V100.205C116.155 100.254 116.497 100.418 116.757 100.698C117.019 100.976 117.151 101.32 117.151 101.733C117.151 102.285 116.961 102.718 116.583 103.032C116.205 103.344 115.683 103.5 115.016 103.5ZM113.418 98.0442V99.9104H114.566C114.987 99.9104 115.31 99.8267 115.535 99.6592C115.761 99.4918 115.873 99.2537 115.873 98.9448C115.873 98.6561 115.777 98.4339 115.583 98.278C115.393 98.1221 115.121 98.0442 114.769 98.0442H113.418ZM113.418 102.707H114.821C115.257 102.707 115.589 102.619 115.817 102.443C116.045 102.267 116.159 102.01 116.159 101.673C116.159 101.335 116.041 101.081 115.804 100.911C115.57 100.737 115.224 100.651 114.765 100.651H113.418V102.707Z" fill="black"/>
<path d="M153.175 103.613C152.224 103.613 151.468 103.298 150.908 102.669C150.351 102.04 150.072 101.187 150.072 100.111C150.072 99.0404 150.352 98.1908 150.913 97.5618C151.473 96.9296 152.227 96.6135 153.175 96.6135C153.945 96.6135 154.594 96.831 155.123 97.266C155.652 97.6979 155.96 98.2659 156.048 98.97H155.006C154.912 98.535 154.698 98.1876 154.363 97.9279C154.031 97.665 153.635 97.5336 153.175 97.5336C152.559 97.5336 152.066 97.7683 151.696 98.2377C151.33 98.704 151.147 99.3283 151.147 100.111C151.147 100.902 151.33 101.531 151.696 101.998C152.063 102.461 152.557 102.692 153.18 102.692C153.649 102.692 154.044 102.578 154.363 102.35C154.685 102.121 154.899 101.802 155.006 101.392H156.053C155.924 102.093 155.607 102.639 155.1 103.03C154.596 103.419 153.954 103.613 153.175 103.613Z" fill="black"/>
<path d="M210.186 101.5L210 26.4999" stroke="white" stroke-opacity="0.5" stroke-linecap="square" stroke-linejoin="round"/>
<rect x="202" y="95.195" width="16.8143" height="10.3051" rx="1.2291" fill="white"/>
<path d="M207.525 96.7263H209.952C210.963 96.7263 211.75 97.022 212.313 97.6135C212.877 98.2049 213.158 99.0342 213.158 100.101C213.158 101.172 212.877 102.006 212.313 102.603C211.75 103.201 210.963 103.5 209.952 103.5H207.525V96.7263ZM208.577 97.6322V102.589H209.854C210.573 102.589 211.126 102.376 211.511 101.951C211.896 101.522 212.088 100.909 212.088 100.111C212.088 99.3128 211.896 98.7009 211.511 98.2753C211.126 97.8466 210.573 97.6322 209.854 97.6322H208.577Z" fill="black"/>
<g filter="url(#filter0_d_570_199)">
<path d="M17 93.5L34.5 88.5L47.7078 86.5671C52.5371 85.8604 57.2193 84.3728 61.5708 82.1624L80.7226 72.4346C84.5544 70.4882 88.6454 69.1009 92.8707 68.3148L108 65.5L116.308 62.7308C120.742 61.2526 124.919 59.0925 128.689 56.3283L137.244 50.0543C142.679 46.069 148.939 43.3552 155.563 42.1133L177.5 38L198 31.5L233 16.5" stroke="url(#paint0_linear_570_199)" stroke-width="3" shape-rendering="crispEdges"/>
</g>
</g>
<defs>
<filter id="filter0_d_570_199" x="-8.41211" y="-9.87872" width="267.003" height="129.821" filterUnits="userSpaceOnUse" color-interpolation-filters="sRGB">
<feFlood flood-opacity="0" result="BackgroundImageFix"/>
<feColorMatrix in="SourceAlpha" type="matrix" values="0 0 0 0 0 0 0 0 0 0 0 0 0 0 0 0 0 0 127 0" result="hardAlpha"/>
<feOffset/>
<feGaussianBlur stdDeviation="12.5"/>
<feComposite in2="hardAlpha" operator="out"/>
<feColorMatrix type="matrix" values="0 0 0 0 1 0 0 0 0 1 0 0 0 0 1 0 0 0 0.33 0"/>
<feBlend mode="normal" in2="BackgroundImageFix" result="effect1_dropShadow_570_199"/>
<feBlend mode="normal" in="SourceGraphic" in2="effect1_dropShadow_570_199" result="shape"/>
</filter>
<linearGradient id="paint0_linear_570_199" x1="20.777" y1="93.5001" x2="248.437" y2="60.3191" gradientUnits="userSpaceOnUse">
<stop stop-color="#84D5BE" stop-opacity="0"/>
<stop offset="0.208661" stop-color="#16FF85"/>
<stop offset="0.505208" stop-color="#16FF85"/>
<stop offset="0.838542" stop-color="#16FF85"/>
<stop offset="1" stop-color="#84D5BE" stop-opacity="0"/>
</linearGradient>
<clipPath id="clip0_570_199">
<rect width="250" height="115" fill="white"/>
</clipPath>
</defs>
</svg>
