<svg width="250" height="115" viewBox="0 0 250 115" fill="none" xmlns="http://www.w3.org/2000/svg">
<g clip-path="url(#clip0_570_159)">
<path d="M15 76.8152H229" stroke="#B9C1D9" stroke-width="0.396012" stroke-dasharray="1.98 1.98"/>
<path d="M15 50.8411H229" stroke="#B9C1D9" stroke-width="0.396012" stroke-dasharray="1.98 1.98"/>
<path d="M15 28.9428H229" stroke="#B9C1D9" stroke-width="0.396012" stroke-dasharray="1.98 1.98"/>
<path d="M44 100.5V77.5" stroke="white" stroke-opacity="0.5" stroke-linecap="square" stroke-linejoin="round"/>
<path d="M229.005 99.4999L16.9951 99.4999" stroke="white" stroke-opacity="0.5" stroke-width="0.5" stroke-linecap="square" stroke-linejoin="round"/>
<path d="M109 100.5V61.5" stroke="white" stroke-opacity="0.5" stroke-linecap="square" stroke-linejoin="round"/>
<path d="M147 100.5V37.4999" stroke="white" stroke-opacity="0.5" stroke-linecap="square" stroke-linejoin="round"/>
<rect x="36.4004" y="94.1949" width="16.8143" height="10.3051" rx="1.2291" fill="white"/>
<rect x="100.6" y="94.1949" width="16.8143" height="10.3051" rx="1.2291" fill="white"/>
<rect x="138.814" y="94.1949" width="16.8143" height="10.3051" rx="1.2291" fill="white"/>
<path d="M46.3951 102.5L45.8573 100.911H43.6165L43.0787 102.5H42.1294L44.252 96.6208H45.238L47.3607 102.5H46.3951ZM44.7247 97.5986L43.8487 100.178H45.625L44.7491 97.5986H44.7247Z" fill="black"/>
<path d="M109.016 102.5H106.448V96.2518H109.007C109.559 96.2518 110.002 96.3947 110.337 96.6805C110.671 96.9633 110.839 97.3401 110.839 97.8106C110.839 98.1425 110.732 98.4399 110.518 98.7025C110.305 98.9623 110.042 99.1182 109.73 99.1702V99.2048C110.155 99.2539 110.497 99.4184 110.757 99.6984C111.019 99.9755 111.151 100.32 111.151 100.733C111.151 101.285 110.961 101.718 110.583 102.032C110.205 102.344 109.683 102.5 109.016 102.5ZM107.418 97.0442V98.9104H108.566C108.987 98.9104 109.31 98.8267 109.535 98.6592C109.761 98.4918 109.873 98.2537 109.873 97.9448C109.873 97.6561 109.777 97.4339 109.583 97.278C109.393 97.1221 109.121 97.0442 108.769 97.0442H107.418ZM107.418 101.707H108.821C109.257 101.707 109.589 101.619 109.817 101.443C110.045 101.267 110.159 101.01 110.159 100.673C110.159 100.335 110.041 100.081 109.804 99.9106C109.57 99.7374 109.224 99.6508 108.765 99.6508H107.418V101.707Z" fill="black"/>
<path d="M147.175 102.613C146.224 102.613 145.468 102.298 144.908 101.669C144.351 101.04 144.072 100.187 144.072 99.1107C144.072 98.0404 144.352 97.1908 144.913 96.5618C145.473 95.9296 146.227 95.6135 147.175 95.6135C147.945 95.6135 148.594 95.831 149.123 96.266C149.652 96.6979 149.96 97.2659 150.048 97.97H149.006C148.912 97.535 148.698 97.1876 148.363 96.9279C148.031 96.665 147.635 96.5336 147.175 96.5336C146.559 96.5336 146.066 96.7683 145.696 97.2377C145.33 97.704 145.147 98.3283 145.147 99.1107C145.147 99.9024 145.33 100.531 145.696 100.998C146.063 101.461 146.557 101.692 147.18 101.692C147.649 101.692 148.044 101.578 148.363 101.35C148.685 101.121 148.899 100.802 149.006 100.392H150.053C149.924 101.093 149.607 101.639 149.1 102.03C148.596 102.419 147.954 102.613 147.175 102.613Z" fill="black"/>
<path d="M204.186 100.5L204 25.4999" stroke="white" stroke-opacity="0.5" stroke-linecap="square" stroke-linejoin="round"/>
<rect x="196" y="94.195" width="16.8143" height="10.3051" rx="1.2291" fill="white"/>
<path d="M201.525 95.7263H203.952C204.963 95.7263 205.75 96.022 206.313 96.6135C206.877 97.2049 207.158 98.0342 207.158 99.1014C207.158 100.172 206.877 101.006 206.313 101.603C205.75 102.201 204.963 102.5 203.952 102.5H201.525V95.7263ZM202.577 96.6322V101.589H203.854C204.573 101.589 205.126 101.376 205.511 100.951C205.896 100.522 206.088 99.9088 206.088 99.1108C206.088 98.3128 205.896 97.7009 205.511 97.2753C205.126 96.8466 204.573 96.6322 203.854 96.6322H202.577Z" fill="black"/>
<g filter="url(#filter0_d_570_159)">
<path d="M4 82.5L32.2356 80.6424C38.67 80.2191 44.9383 78.4178 50.6159 75.3607L51.9109 74.6634C53.9672 73.5561 56.1065 72.6107 58.3096 71.8355L74.6357 66.0911C79.4548 64.3955 84.6437 64.0395 89.6492 65.0611V65.0611C99.9983 67.1731 110.661 63.3307 117.283 55.1024L120.082 51.6257C122.019 49.2188 124.262 47.0748 126.753 45.2477L131.461 41.7953C140.129 35.4385 151.558 34.2677 161.335 38.7346V38.7346C171.95 43.5844 184.423 41.7603 193.204 34.0738L198.886 29.101C201.617 26.7107 204.65 24.6904 207.909 23.092L229.5 12.5" stroke="url(#paint0_linear_570_159)" stroke-width="3" shape-rendering="crispEdges"/>
</g>
</g>
<defs>
<filter id="filter0_d_570_159" x="-21.0986" y="-13.8467" width="276.259" height="122.843" filterUnits="userSpaceOnUse" color-interpolation-filters="sRGB">
<feFlood flood-opacity="0" result="BackgroundImageFix"/>
<feColorMatrix in="SourceAlpha" type="matrix" values="0 0 0 0 0 0 0 0 0 0 0 0 0 0 0 0 0 0 127 0" result="hardAlpha"/>
<feOffset/>
<feGaussianBlur stdDeviation="12.5"/>
<feComposite in2="hardAlpha" operator="out"/>
<feColorMatrix type="matrix" values="0 0 0 0 1 0 0 0 0 1 0 0 0 0 1 0 0 0 0.33 0"/>
<feBlend mode="normal" in2="BackgroundImageFix" result="effect1_dropShadow_570_159"/>
<feBlend mode="normal" in="SourceGraphic" in2="effect1_dropShadow_570_159" result="shape"/>
</filter>
<linearGradient id="paint0_linear_570_159" x1="7.94316" y1="82.5001" x2="244.05" y2="42.9818" gradientUnits="userSpaceOnUse">
<stop stop-color="#84D5BE" stop-opacity="0"/>
<stop offset="0.208661" stop-color="#16FF85"/>
<stop offset="0.505208" stop-color="#16FF85"/>
<stop offset="0.838542" stop-color="#16FF85"/>
<stop offset="1" stop-color="#84D5BE" stop-opacity="0"/>
</linearGradient>
<clipPath id="clip0_570_159">
<rect width="250" height="115" fill="white"/>
</clipPath>
</defs>
</svg>
