<svg width="43" height="23" viewBox="0 0 43 23" fill="none" xmlns="http://www.w3.org/2000/svg">
<rect x="20" width="23" height="23" rx="5" fill="#FFF332"/>
<path d="M26.5 15.5V13L30.1877 14.639C30.7049 14.8688 31.2951 14.8688 31.8123 14.639L35.5 13V15.5L31.9713 17.4604C31.3672 17.796 30.6328 17.796 30.0287 17.4604L26.5 15.5Z" fill="white"/>
<path d="M30.5326 12.7663L26.5413 10.7706C25.8545 10.4272 25.7949 9.47006 26.4338 9.04415L30.4971 6.33528C30.8063 6.12913 31.2044 6.11147 31.5306 6.28944L36.5 9C37.1129 9.30643 37.5 9.93283 37.5 10.618V14.5H36.5V10L31.4587 12.7498C31.1713 12.9065 30.8254 12.9127 30.5326 12.7663Z" fill="white"/>
<rect width="23" height="23" rx="5" fill="#FC080F"/>
<path d="M6.5 15.5V13L10.1877 14.639C10.7049 14.8688 11.2951 14.8688 11.8123 14.639L15.5 13V15.5L11.9713 17.4604C11.3672 17.796 10.6328 17.796 10.0287 17.4604L6.5 15.5Z" fill="white"/>
<path d="M10.5326 12.7663L6.54126 10.7706C5.8545 10.4272 5.7949 9.47006 6.43377 9.04415L10.4971 6.33528C10.8063 6.12913 11.2044 6.11147 11.5306 6.28944L16.5 9C17.1129 9.30643 17.5 9.93283 17.5 10.618V14.5H16.5V10L11.4587 12.7498C11.1713 12.9065 10.8254 12.9127 10.5326 12.7663Z" fill="white"/>
</svg>
