<svg width="23" height="23" viewBox="0 0 23 23" fill="none" xmlns="http://www.w3.org/2000/svg">
<path d="M14.375 7.90625V6.10938C14.375 5.63281 14.1857 5.17577 13.8487 4.83879C13.5117 4.50181 13.0547 4.3125 12.5781 4.3125H3.95312C3.47656 4.3125 3.01952 4.50181 2.68254 4.83879C2.34556 5.17577 2.15625 5.63281 2.15625 6.10938V16.8906C2.15625 17.3672 2.34556 17.8242 2.68254 18.1612C3.01952 18.4982 3.47656 18.6875 3.95312 18.6875H12.5781C13.0547 18.6875 13.5117 18.4982 13.8487 18.1612C14.1857 17.8242 14.375 17.3672 14.375 16.8906V15.0938M17.25 7.90625L20.8438 11.5M20.8438 11.5L17.25 15.0938M20.8438 11.5H8.58008" stroke="white" stroke-width="1.4375" stroke-linecap="round" stroke-linejoin="round"/>
</svg>
