<svg width="16" height="14" viewBox="0 0 16 14" fill="none" xmlns="http://www.w3.org/2000/svg">
<path d="M15.3994 13.1249C14.3363 11.3305 12.6347 9.9837 10.6208 9.34274C11.5861 8.78028 12.3362 7.92281 12.756 6.90208C13.1757 5.88135 13.2419 4.75381 12.9442 3.69269C12.6465 2.63156 12.0016 1.69554 11.1083 1.02843C10.2151 0.361311 9.1231 0 8 0C6.8769 0 5.78486 0.361311 4.89165 1.02843C3.99844 1.69554 3.35346 2.63156 3.0558 3.69269C2.75814 4.75381 2.82427 5.88135 3.24402 6.90208C3.66377 7.92281 4.41393 8.78028 5.37925 9.34274C3.36532 9.9837 1.66371 11.3305 0.600643 13.1249C0.556054 13.1883 0.525326 13.26 0.51039 13.3356C0.495454 13.4112 0.496633 13.489 0.513852 13.5641C0.531071 13.6392 0.563958 13.71 0.610447 13.7721C0.656936 13.8341 0.716022 13.8861 0.783993 13.9247C0.851963 13.9633 0.927348 13.9877 1.00541 13.9964C1.08348 14.0051 1.16253 13.9979 1.23761 13.9752C1.31268 13.9525 1.38216 13.9149 1.44168 13.8646C1.50119 13.8144 1.54945 13.7526 1.58343 13.6832C2.23461 12.5806 3.17025 11.6652 4.29648 11.0288C5.42271 10.3924 6.69993 10.0575 8 10.0575C9.30007 10.0575 10.5773 10.3924 11.7035 11.0288C12.8297 11.6652 13.7654 12.5806 14.4166 13.6832C14.4506 13.7526 14.4988 13.8144 14.5583 13.8646C14.6178 13.9149 14.6873 13.9525 14.7624 13.9752C14.8375 13.9979 14.9165 14.0051 14.9946 13.9964C15.0727 13.9877 15.148 13.9633 15.216 13.9247C15.284 13.8861 15.3431 13.8341 15.3896 13.7721C15.436 13.71 15.4689 13.6392 15.4861 13.5641C15.5034 13.489 15.5045 13.4112 15.4896 13.3356C15.4747 13.26 15.4439 13.1883 15.3994 13.1249ZM4.0119 5.03023C4.0119 4.25734 4.24579 3.50181 4.68401 2.85918C5.12223 2.21655 5.74509 1.71568 6.47382 1.41991C7.20255 1.12414 8.00442 1.04675 8.77804 1.19753C9.55166 1.34831 10.2623 1.72049 10.82 2.26701C11.3778 2.81352 11.7576 3.50982 11.9115 4.26786C12.0654 5.02589 11.9864 5.81162 11.6845 6.52567C11.3827 7.23972 10.8715 7.85004 10.2157 8.27943C9.55983 8.70882 8.78877 8.93801 8 8.93801C6.94229 8.93801 5.9279 8.5263 5.17999 7.79344C4.43207 7.06059 4.0119 6.06663 4.0119 5.03023Z" fill="white"/>
</svg>
