<svg width="21" height="17" viewBox="0 0 21 17" fill="none" xmlns="http://www.w3.org/2000/svg">
<path d="M13.375 4.90625V3.10938C13.375 2.63281 13.1857 2.17577 12.8487 1.83879C12.5117 1.50181 12.0547 1.3125 11.5781 1.3125H2.95312C2.47656 1.3125 2.01952 1.50181 1.68254 1.83879C1.34556 2.17577 1.15625 2.63281 1.15625 3.10938V13.8906C1.15625 14.3672 1.34556 14.8242 1.68254 15.1612C2.01952 15.4982 2.47656 15.6875 2.95312 15.6875H11.5781C12.0547 15.6875 12.5117 15.4982 12.8487 15.1612C13.1857 14.8242 13.375 14.3672 13.375 13.8906V12.0938M16.25 4.90625L19.8438 8.5M19.8438 8.5L16.25 12.0938M19.8438 8.5H7.58008" stroke="white" stroke-width="1.4375" stroke-linecap="round" stroke-linejoin="round"/>
</svg>
