<svg width="156" height="132" viewBox="0 0 156 132" fill="none" xmlns="http://www.w3.org/2000/svg">
<path d="M131.698 65.9526C131.698 102.19 102.322 131.566 66.0847 131.566C29.8474 131.566 0.471191 102.19 0.471191 65.9526C0.471191 29.7152 29.8474 0.33905 66.0847 0.33905C102.322 0.33905 131.698 29.7152 131.698 65.9526Z" fill="#48C784"/>
<path d="M101.022 81.879V87.8706H100.296V82.6396H100.261L98.7981 83.6109V82.8737L100.296 81.879H101.022ZM104.699 87.9525C104.258 87.9525 103.883 87.8326 103.573 87.5927C103.263 87.3508 103.026 87.0007 102.862 86.5424C102.698 86.0821 102.616 85.5262 102.616 84.8748C102.616 84.2273 102.698 83.6743 102.862 83.216C103.028 82.7557 103.266 82.4046 103.576 82.1628C103.888 81.919 104.262 81.7971 104.699 81.7971C105.136 81.7971 105.509 81.919 105.82 82.1628C106.132 82.4046 106.37 82.7557 106.533 83.216C106.699 83.6743 106.782 84.2273 106.782 84.8748C106.782 85.5262 106.7 86.0821 106.536 86.5424C106.372 87.0007 106.136 87.3508 105.825 87.5927C105.515 87.8326 105.14 87.9525 104.699 87.9525ZM104.699 87.3089C105.136 87.3089 105.475 87.0982 105.717 86.677C105.959 86.2557 106.08 85.655 106.08 84.8748C106.08 84.356 106.024 83.9142 105.913 83.5495C105.804 83.1848 105.646 82.9068 105.439 82.7157C105.234 82.5246 104.988 82.429 104.699 82.429C104.266 82.429 103.928 82.6426 103.684 83.0697C103.44 83.4949 103.318 84.0966 103.318 84.8748C103.318 85.3936 103.373 85.8344 103.482 86.1972C103.591 86.5599 103.748 86.8359 103.953 87.0251C104.16 87.2143 104.408 87.3089 104.699 87.3089ZM110.948 86.7472V86.4312C110.948 86.2128 110.993 86.0129 111.083 85.8315C111.174 85.6481 111.307 85.5018 111.481 85.3926C111.656 85.2815 111.869 85.2259 112.118 85.2259C112.372 85.2259 112.584 85.2815 112.756 85.3926C112.928 85.5018 113.057 85.6481 113.145 85.8315C113.233 86.0129 113.277 86.2128 113.277 86.4312V86.7472C113.277 86.9656 113.232 87.1665 113.142 87.3498C113.055 87.5312 112.924 87.6775 112.75 87.7887C112.579 87.8979 112.368 87.9525 112.118 87.9525C111.865 87.9525 111.651 87.8979 111.478 87.7887C111.304 87.6775 111.172 87.5312 111.083 87.3498C110.993 87.1665 110.948 86.9656 110.948 86.7472ZM111.545 86.4312V86.7472C111.545 86.9286 111.588 87.0914 111.674 87.2358C111.759 87.3781 111.908 87.4493 112.118 87.4493C112.323 87.4493 112.467 87.3781 112.551 87.2358C112.637 87.0914 112.68 86.9286 112.68 86.7472V86.4312C112.68 86.2498 112.639 86.0879 112.557 85.9456C112.475 85.8012 112.329 85.7291 112.118 85.7291C111.914 85.7291 111.766 85.8012 111.677 85.9456C111.589 86.0879 111.545 86.2498 111.545 86.4312ZM107.964 83.3184V83.0024C107.964 82.784 108.009 82.5841 108.099 82.4027C108.19 82.2193 108.323 82.0731 108.496 81.9638C108.672 81.8527 108.885 81.7971 109.134 81.7971C109.388 81.7971 109.6 81.8527 109.772 81.9638C109.944 82.0731 110.073 82.2193 110.161 82.4027C110.249 82.5841 110.293 82.784 110.293 83.0024V83.3184C110.293 83.5368 110.248 83.7377 110.158 83.9211C110.07 84.1024 109.94 84.2487 109.766 84.3599C109.595 84.4691 109.384 84.5237 109.134 84.5237C108.881 84.5237 108.667 84.4691 108.494 84.3599C108.32 84.2487 108.188 84.1024 108.099 83.9211C108.009 83.7377 107.964 83.5368 107.964 83.3184ZM108.561 83.0024V83.3184C108.561 83.4998 108.604 83.6626 108.69 83.807C108.775 83.9493 108.924 84.0205 109.134 84.0205C109.339 84.0205 109.483 83.9493 109.567 83.807C109.653 83.6626 109.696 83.4998 109.696 83.3184V83.0024C109.696 82.821 109.655 82.6591 109.573 82.5168C109.491 82.3724 109.345 82.3003 109.134 82.3003C108.929 82.3003 108.782 82.3724 108.692 82.5168C108.605 82.6591 108.561 82.821 108.561 83.0024ZM108.186 87.8706L112.306 81.879H112.973L108.853 87.8706H108.186Z" fill="white"/>
<path d="M1.39949 76.9506C-0.336108 66.7426 0.368858 56.2688 3.45675 46.3855C6.54465 36.5021 11.9278 27.4899 19.1661 20.0857C26.4043 12.6814 35.2922 7.09536 45.103 3.78423C54.9138 0.473104 65.369 -0.469092 75.6137 1.03468L66.0847 65.9526L1.39949 76.9506Z" fill="#E3EFF5"/>
<path d="M28.5656 44.3172C28.1795 44.3172 27.8352 44.2509 27.5329 44.1182C27.2325 43.9856 26.9936 43.8013 26.8161 43.5653C26.6406 43.3274 26.545 43.0514 26.5294 42.7374H27.2667C27.2823 42.9304 27.3486 43.0972 27.4656 43.2376C27.5826 43.3761 27.7357 43.4834 27.9249 43.5594C28.1141 43.6355 28.3238 43.6735 28.5539 43.6735C28.8114 43.6735 29.0396 43.6287 29.2385 43.539C29.4375 43.4493 29.5935 43.3244 29.7066 43.1645C29.8197 43.0046 29.8763 42.8193 29.8763 42.6086C29.8763 42.3882 29.8217 42.1942 29.7125 42.0264C29.6032 41.8568 29.4433 41.7241 29.2327 41.6286C29.022 41.533 28.7646 41.4852 28.4603 41.4852H27.9805V40.8416H28.4603C28.6983 40.8416 28.907 40.7987 29.0864 40.7128C29.2678 40.627 29.4092 40.5061 29.5106 40.3501C29.614 40.194 29.6657 40.0107 29.6657 39.8001C29.6657 39.5972 29.6208 39.4207 29.5311 39.2705C29.4414 39.1203 29.3146 39.0033 29.1508 38.9195C28.9889 38.8356 28.7977 38.7937 28.5773 38.7937C28.3706 38.7937 28.1756 38.8317 27.9922 38.9078C27.8108 38.9819 27.6626 39.0901 27.5475 39.2325C27.4325 39.3729 27.37 39.5426 27.3603 39.7415H26.6581C26.6699 39.4275 26.7644 39.1525 26.9419 38.9165C27.1194 38.6786 27.3515 38.4933 27.6382 38.3607C27.9269 38.228 28.2438 38.1617 28.589 38.1617C28.9596 38.1617 29.2775 38.2368 29.5428 38.387C29.808 38.5352 30.0119 38.7312 30.1542 38.975C30.2966 39.2188 30.3678 39.4821 30.3678 39.765C30.3678 40.1024 30.2791 40.3901 30.1016 40.628C29.926 40.866 29.6871 41.0308 29.3848 41.1224V41.1692C29.7632 41.2317 30.0587 41.3926 30.2713 41.652C30.4838 41.9094 30.5901 42.2283 30.5901 42.6086C30.5901 42.9343 30.5014 43.2269 30.3239 43.4863C30.1484 43.7438 29.9085 43.9466 29.6042 44.0948C29.3 44.2431 28.9538 44.3172 28.5656 44.3172ZM33.741 44.3172C33.3002 44.3172 32.9248 44.1972 32.6147 43.9573C32.3045 43.7155 32.0676 43.3654 31.9037 42.907C31.7399 42.4467 31.658 41.8909 31.658 41.2395C31.658 40.5919 31.7399 40.039 31.9037 39.5806C32.0695 39.1203 32.3075 38.7693 32.6176 38.5274C32.9296 38.2836 33.3041 38.1617 33.741 38.1617C34.1779 38.1617 34.5514 38.2836 34.8615 38.5274C35.1736 38.7693 35.4115 39.1203 35.5754 39.5806C35.7411 40.039 35.824 40.5919 35.824 41.2395C35.824 41.8909 35.7421 42.4467 35.5783 42.907C35.4145 43.3654 35.1775 43.7155 34.8674 43.9573C34.5573 44.1972 34.1818 44.3172 33.741 44.3172ZM33.741 43.6735C34.1779 43.6735 34.5173 43.4629 34.7591 43.0416C35.001 42.6203 35.1219 42.0196 35.1219 41.2395C35.1219 40.7206 35.0663 40.2789 34.9551 39.9142C34.8459 39.5494 34.6879 39.2715 34.4812 39.0804C34.2764 38.8892 34.0297 38.7937 33.741 38.7937C33.308 38.7937 32.9696 39.0072 32.7258 39.4344C32.482 39.8595 32.3601 40.4612 32.3601 41.2395C32.3601 41.7583 32.4147 42.199 32.524 42.5618C32.6332 42.9246 32.7902 43.2006 32.995 43.3898C33.2017 43.579 33.4504 43.6735 33.741 43.6735ZM39.9901 43.1118V42.7959C39.9901 42.5774 40.0349 42.3775 40.1247 42.1961C40.2163 42.0128 40.349 41.8665 40.5225 41.7573C40.6981 41.6461 40.9107 41.5905 41.1603 41.5905C41.4139 41.5905 41.6265 41.6461 41.7981 41.7573C41.9697 41.8665 42.0994 42.0128 42.1872 42.1961C42.275 42.3775 42.3189 42.5774 42.3189 42.7959V43.1118C42.3189 43.3303 42.274 43.5312 42.1843 43.7145C42.0965 43.8959 41.9658 44.0422 41.7922 44.1533C41.6206 44.2626 41.41 44.3172 41.1603 44.3172C40.9068 44.3172 40.6932 44.2626 40.5196 44.1533C40.346 44.0422 40.2144 43.8959 40.1247 43.7145C40.0349 43.5312 39.9901 43.3303 39.9901 43.1118ZM40.5869 42.7959V43.1118C40.5869 43.2932 40.6298 43.4561 40.7156 43.6004C40.8014 43.7428 40.9497 43.814 41.1603 43.814C41.3651 43.814 41.5094 43.7428 41.5933 43.6004C41.6791 43.4561 41.722 43.2932 41.722 43.1118V42.7959C41.722 42.6145 41.6811 42.4526 41.5992 42.3102C41.5172 42.1659 41.371 42.0937 41.1603 42.0937C40.9555 42.0937 40.8083 42.1659 40.7186 42.3102C40.6308 42.4526 40.5869 42.6145 40.5869 42.7959ZM37.006 39.683V39.3671C37.006 39.1486 37.0508 38.9487 37.1406 38.7673C37.2322 38.584 37.3648 38.4377 37.5384 38.3285C37.714 38.2173 37.9266 38.1617 38.1762 38.1617C38.4298 38.1617 38.6424 38.2173 38.814 38.3285C38.9856 38.4377 39.1153 38.584 39.2031 38.7673C39.2909 38.9487 39.3347 39.1486 39.3347 39.3671V39.683C39.3347 39.9015 39.2899 40.1024 39.2002 40.2857C39.1124 40.4671 38.9817 40.6134 38.8081 40.7245C38.6365 40.8338 38.4259 40.8884 38.1762 40.8884C37.9227 40.8884 37.7091 40.8338 37.5355 40.7245C37.3619 40.6134 37.2303 40.4671 37.1406 40.2857C37.0508 40.1024 37.006 39.9015 37.006 39.683ZM37.6028 39.3671V39.683C37.6028 39.8644 37.6457 40.0273 37.7315 40.1716C37.8173 40.314 37.9656 40.3852 38.1762 40.3852C38.381 40.3852 38.5253 40.314 38.6092 40.1716C38.695 40.0273 38.7379 39.8644 38.7379 39.683V39.3671C38.7379 39.1857 38.697 39.0238 38.615 38.8814C38.5331 38.7371 38.3869 38.6649 38.1762 38.6649C37.9714 38.6649 37.8242 38.7371 37.7344 38.8814C37.6467 39.0238 37.6028 39.1857 37.6028 39.3671ZM37.2283 44.2353L41.3476 38.2436H42.0146L37.8954 44.2353H37.2283Z" fill="#5B5B5B"/>
<path d="M112.481 112.348C103.924 120.905 93.1682 126.928 81.4019 129.753C69.6356 132.578 57.3174 132.094 45.809 128.355C34.3006 124.615 24.0505 117.767 16.1918 108.565C8.33306 99.3638 3.17193 88.1684 1.27899 76.2167L66.0847 65.9526L112.481 112.348Z" fill="#10AF76"/>
<path d="M45.2673 103.064C44.8811 103.064 44.5369 102.997 44.2346 102.865C43.9342 102.732 43.6953 102.548 43.5178 102.312C43.3423 102.074 43.2467 101.798 43.2311 101.484H43.9683C43.9839 101.677 44.0502 101.844 44.1673 101.984C44.2843 102.122 44.4374 102.23 44.6266 102.306C44.8158 102.382 45.0254 102.42 45.2556 102.42C45.513 102.42 45.7412 102.375 45.9402 102.285C46.1391 102.196 46.2952 102.071 46.4083 101.911C46.5214 101.751 46.578 101.566 46.578 101.355C46.578 101.135 46.5234 100.941 46.4141 100.773C46.3049 100.603 46.145 100.47 45.9343 100.375C45.7237 100.279 45.4662 100.232 45.162 100.232H44.6822V99.5879H45.162C45.3999 99.5879 45.6086 99.545 45.7881 99.4592C45.9694 99.3734 46.1108 99.2525 46.2123 99.0964C46.3156 98.9404 46.3673 98.7571 46.3673 98.5464C46.3673 98.3436 46.3225 98.1671 46.2327 98.0169C46.143 97.8667 46.0162 97.7497 45.8524 97.6658C45.6905 97.582 45.4994 97.54 45.279 97.54C45.0723 97.54 44.8772 97.5781 44.6939 97.6541C44.5125 97.7282 44.3643 97.8365 44.2492 97.9789C44.1341 98.1193 44.0717 98.289 44.062 98.4879H43.3598C43.3715 98.1739 43.4661 97.8989 43.6436 97.6629C43.8211 97.425 44.0532 97.2397 44.3399 97.107C44.6285 96.9744 44.9455 96.9081 45.2907 96.9081C45.6613 96.9081 45.9792 96.9832 46.2444 97.1334C46.5097 97.2816 46.7135 97.4776 46.8559 97.7214C46.9983 97.9652 47.0695 98.2285 47.0695 98.5113C47.0695 98.8487 46.9807 99.1364 46.8032 99.3744C46.6277 99.6123 46.3888 99.7771 46.0865 99.8688V99.9156C46.4648 99.978 46.7603 100.139 46.9729 100.398C47.1855 100.656 47.2918 100.975 47.2918 101.355C47.2918 101.681 47.2031 101.973 47.0256 102.233C46.85 102.49 46.6101 102.693 46.3059 102.841C46.0016 102.989 45.6554 103.064 45.2673 103.064ZM50.3608 103.064C50.0175 103.064 49.7083 102.995 49.4333 102.859C49.1583 102.722 48.9379 102.535 48.7722 102.297C48.6064 102.059 48.5157 101.788 48.5001 101.484H49.2022C49.2295 101.755 49.3524 101.979 49.5708 102.157C49.7912 102.332 50.0545 102.42 50.3608 102.42C50.6065 102.42 50.8249 102.362 51.0161 102.247C51.2092 102.132 51.3603 101.974 51.4696 101.773C51.5807 101.571 51.6363 101.341 51.6363 101.086C51.6363 100.824 51.5788 100.591 51.4637 100.387C51.3506 100.18 51.1945 100.017 50.9956 99.8981C50.7967 99.7791 50.5694 99.7186 50.3139 99.7167C50.1306 99.7147 49.9424 99.743 49.7493 99.8015C49.5562 99.8581 49.3973 99.9312 49.2724 100.021L48.5937 99.939L48.9565 96.99H52.0693V97.6336H49.565L49.3544 99.4007H49.3895C49.5123 99.3032 49.6664 99.2222 49.8517 99.1579C50.037 99.0935 50.2301 99.0613 50.431 99.0613C50.7976 99.0613 51.1243 99.1491 51.411 99.3246C51.6997 99.4982 51.9259 99.7362 52.0898 100.038C52.2556 100.341 52.3385 100.686 52.3385 101.074C52.3385 101.456 52.2526 101.798 52.081 102.098C51.9113 102.397 51.6773 102.633 51.3789 102.806C51.0805 102.978 50.7411 103.064 50.3608 103.064ZM56.555 101.858V101.542C56.555 101.324 56.5998 101.124 56.6895 100.942C56.7812 100.759 56.9138 100.613 57.0874 100.504C57.263 100.392 57.4756 100.337 57.7252 100.337C57.9788 100.337 58.1913 100.392 58.363 100.504C58.5346 100.613 58.6643 100.759 58.7521 100.942C58.8399 101.124 58.8837 101.324 58.8837 101.542V101.858C58.8837 102.077 58.8389 102.278 58.7492 102.461C58.6614 102.642 58.5307 102.789 58.3571 102.9C58.1855 103.009 57.9749 103.064 57.7252 103.064C57.4717 103.064 57.2581 103.009 57.0845 102.9C56.9109 102.789 56.7793 102.642 56.6895 102.461C56.5998 102.278 56.555 102.077 56.555 101.858ZM57.1518 101.542V101.858C57.1518 102.04 57.1947 102.202 57.2805 102.347C57.3663 102.489 57.5146 102.56 57.7252 102.56C57.93 102.56 58.0743 102.489 58.1582 102.347C58.244 102.202 58.2869 102.04 58.2869 101.858V101.542C58.2869 101.361 58.246 101.199 58.164 101.057C58.0821 100.912 57.9358 100.84 57.7252 100.84C57.5204 100.84 57.3732 100.912 57.2834 101.057C57.1957 101.199 57.1518 101.361 57.1518 101.542ZM53.5709 98.4294V98.1134C53.5709 97.895 53.6157 97.6951 53.7054 97.5137C53.7971 97.3304 53.9297 97.1841 54.1033 97.0749C54.2789 96.9637 54.4914 96.9081 54.7411 96.9081C54.9947 96.9081 55.2072 96.9637 55.3789 97.0749C55.5505 97.1841 55.6802 97.3304 55.768 97.5137C55.8558 97.6951 55.8996 97.895 55.8996 98.1134V98.4294C55.8996 98.6478 55.8548 98.8487 55.7651 99.0321C55.6773 99.2135 55.5466 99.3597 55.373 99.4709C55.2014 99.5801 54.9907 99.6347 54.7411 99.6347C54.4875 99.6347 54.274 99.5801 54.1004 99.4709C53.9268 99.3597 53.7952 99.2135 53.7054 99.0321C53.6157 98.8487 53.5709 98.6478 53.5709 98.4294ZM54.1677 98.1134V98.4294C54.1677 98.6108 54.2106 98.7736 54.2964 98.918C54.3822 99.0604 54.5305 99.1315 54.7411 99.1315C54.9459 99.1315 55.0902 99.0604 55.1741 98.918C55.2599 98.7736 55.3028 98.6108 55.3028 98.4294V98.1134C55.3028 97.9321 55.2619 97.7702 55.1799 97.6278C55.098 97.4835 54.9517 97.4113 54.7411 97.4113C54.5363 97.4113 54.3891 97.4835 54.2993 97.6278C54.2116 97.7702 54.1677 97.9321 54.1677 98.1134ZM53.7932 102.982L57.9124 96.99H58.5795L54.4602 102.982H53.7932Z" fill="white"/>
<path d="M75.8817 1.07459C84.5593 2.38496 92.8859 5.42283 100.369 10.0084C107.851 14.5939 114.338 20.634 119.445 27.7711C124.552 34.9081 128.175 42.9972 130.1 51.5594C132.025 60.1216 132.213 68.983 130.653 77.6192L66.0847 65.9526L75.8817 1.07459Z" fill="#A4DDBF"/>
<path d="M91.3116 44.2353V43.7087L93.2893 41.5437C93.5214 41.2902 93.7126 41.0698 93.8627 40.8825C94.0129 40.6933 94.1241 40.5159 94.1963 40.3501C94.2704 40.1823 94.3074 40.0068 94.3074 39.8235C94.3074 39.6128 94.2567 39.4305 94.1553 39.2764C94.0558 39.1223 93.9193 39.0033 93.7457 38.9195C93.5721 38.8356 93.3771 38.7937 93.1606 38.7937C92.9305 38.7937 92.7296 38.8414 92.5579 38.937C92.3883 39.0306 92.2566 39.1623 92.163 39.332C92.0713 39.5016 92.0255 39.7006 92.0255 39.9288H91.335C91.335 39.5777 91.416 39.2696 91.5779 39.0043C91.7397 38.739 91.9601 38.5323 92.239 38.3841C92.5199 38.2358 92.8349 38.1617 93.184 38.1617C93.5351 38.1617 93.8462 38.2358 94.1173 38.3841C94.3884 38.5323 94.601 38.7322 94.7551 38.9838C94.9091 39.2354 94.9862 39.5153 94.9862 39.8235C94.9862 40.0439 94.9462 40.2594 94.8662 40.47C94.7882 40.6787 94.6517 40.9118 94.4566 41.1692C94.2636 41.4247 93.9954 41.7368 93.6521 42.1054L92.3063 43.5448V43.5916H95.0915V44.2353H91.3116ZM98.1721 44.3172C97.8289 44.3172 97.5197 44.2489 97.2447 44.1124C96.9697 43.9759 96.7493 43.7886 96.5836 43.5507C96.4178 43.3127 96.3271 43.0416 96.3115 42.7374H97.0136C97.0409 43.0085 97.1638 43.2328 97.3822 43.4102C97.6026 43.5858 97.8659 43.6735 98.1721 43.6735C98.4179 43.6735 98.6363 43.616 98.8275 43.5009C99.0206 43.3859 99.1717 43.2279 99.2809 43.027C99.3921 42.8241 99.4477 42.595 99.4477 42.3395C99.4477 42.0781 99.3902 41.845 99.2751 41.6403C99.162 41.4335 99.0059 41.2707 98.807 41.1517C98.6081 41.0327 98.3808 40.9722 98.1253 40.9703C97.942 40.9683 97.7538 40.9966 97.5607 41.0551C97.3676 41.1117 97.2087 41.1848 97.0838 41.2746L96.4051 41.1926L96.7679 38.2436H99.8807V38.8873H97.3764L97.1657 40.6543H97.2009C97.3237 40.5568 97.4778 40.4759 97.6631 40.4115C97.8484 40.3471 98.0415 40.315 98.2424 40.315C98.609 40.315 98.9357 40.4027 99.2224 40.5783C99.5111 40.7519 99.7373 40.9898 99.9012 41.2921C100.067 41.5944 100.15 41.9396 100.15 42.3278C100.15 42.7101 100.064 43.0514 99.8924 43.3517C99.7227 43.6501 99.4887 43.8861 99.1903 44.0597C98.8918 44.2314 98.5525 44.3172 98.1721 44.3172ZM104.366 43.1118V42.7959C104.366 42.5774 104.411 42.3775 104.501 42.1961C104.593 42.0128 104.725 41.8665 104.899 41.7573C105.074 41.6461 105.287 41.5905 105.537 41.5905C105.79 41.5905 106.003 41.6461 106.174 41.7573C106.346 41.8665 106.476 42.0128 106.563 42.1961C106.651 42.3775 106.695 42.5774 106.695 42.7959V43.1118C106.695 43.3303 106.65 43.5312 106.561 43.7145C106.473 43.8959 106.342 44.0422 106.169 44.1533C105.997 44.2626 105.786 44.3172 105.537 44.3172C105.283 44.3172 105.069 44.2626 104.896 44.1533C104.722 44.0422 104.591 43.8959 104.501 43.7145C104.411 43.5312 104.366 43.3303 104.366 43.1118ZM104.963 42.7959V43.1118C104.963 43.2932 105.006 43.4561 105.092 43.6004C105.178 43.7428 105.326 43.814 105.537 43.814C105.741 43.814 105.886 43.7428 105.97 43.6004C106.055 43.4561 106.098 43.2932 106.098 43.1118V42.7959C106.098 42.6145 106.057 42.4526 105.975 42.3102C105.894 42.1659 105.747 42.0937 105.537 42.0937C105.332 42.0937 105.185 42.1659 105.095 42.3102C105.007 42.4526 104.963 42.6145 104.963 42.7959ZM101.382 39.683V39.3671C101.382 39.1486 101.427 38.9487 101.517 38.7673C101.609 38.584 101.741 38.4377 101.915 38.3285C102.09 38.2173 102.303 38.1617 102.552 38.1617C102.806 38.1617 103.019 38.2173 103.19 38.3285C103.362 38.4377 103.492 38.584 103.579 38.7673C103.667 38.9487 103.711 39.1486 103.711 39.3671V39.683C103.711 39.9015 103.666 40.1024 103.576 40.2857C103.489 40.4671 103.358 40.6134 103.184 40.7245C103.013 40.8338 102.802 40.8884 102.552 40.8884C102.299 40.8884 102.085 40.8338 101.912 40.7245C101.738 40.6134 101.607 40.4671 101.517 40.2857C101.427 40.1024 101.382 39.9015 101.382 39.683ZM101.979 39.3671V39.683C101.979 39.8644 102.022 40.0273 102.108 40.1716C102.194 40.314 102.342 40.3852 102.552 40.3852C102.757 40.3852 102.902 40.314 102.985 40.1716C103.071 40.0273 103.114 39.8644 103.114 39.683V39.3671C103.114 39.1857 103.073 39.0238 102.991 38.8814C102.909 38.7371 102.763 38.6649 102.552 38.6649C102.348 38.6649 102.2 38.7371 102.111 38.8814C102.023 39.0238 101.979 39.1857 101.979 39.3671ZM101.605 44.2353L105.724 38.2436H106.391L102.272 44.2353H101.605Z" fill="#5B5B5B"/>
<g filter="url(#filter0_d_3_125982)">
<rect x="98.8003" y="13.9017" width="49.7297" height="15.8231" rx="1.76539" fill="white" shape-rendering="crispEdges"/>
<path d="M102.514 21.3664V20.9318L106.013 19.1497V19.8451L103.329 21.1382L103.351 21.0948V21.2034L103.329 21.16L106.013 22.4531V23.1485L102.514 21.3664ZM110.284 18.2804V23.844H109.611V18.2804H110.284ZM111.331 18.878V18.2804H115.504V18.878H113.754V23.844H113.081V18.878H111.331ZM121.738 19.6713C121.705 19.396 121.573 19.1823 121.341 19.0301C121.109 18.878 120.825 18.8019 120.488 18.8019C120.242 18.8019 120.026 18.8418 119.841 18.9215C119.659 19.0012 119.516 19.1107 119.412 19.2502C119.311 19.3896 119.26 19.5481 119.26 19.7256C119.26 19.8741 119.295 20.0018 119.366 20.1086C119.439 20.2137 119.531 20.3015 119.643 20.3722C119.755 20.441 119.873 20.498 119.996 20.5433C120.119 20.5868 120.233 20.6221 120.336 20.6492L120.901 20.8014C121.046 20.8394 121.207 20.8919 121.385 20.9589C121.564 21.026 121.735 21.1174 121.898 21.2333C122.063 21.3474 122.199 21.4941 122.305 21.6734C122.412 21.8527 122.466 22.0728 122.466 22.3336C122.466 22.6342 122.387 22.9059 122.229 23.1485C122.074 23.3912 121.845 23.5841 121.545 23.7272C121.246 23.8703 120.883 23.9418 120.455 23.9418C120.057 23.9418 119.712 23.8775 119.42 23.7489C119.131 23.6203 118.902 23.441 118.736 23.211C118.571 22.981 118.478 22.7139 118.456 22.4096H119.151C119.17 22.6197 119.24 22.7936 119.363 22.9312C119.488 23.067 119.646 23.1685 119.836 23.2355C120.028 23.3007 120.235 23.3333 120.455 23.3333C120.713 23.3333 120.944 23.2916 121.148 23.2083C121.353 23.1232 121.515 23.0055 121.634 22.8551C121.754 22.703 121.814 22.5255 121.814 22.3227C121.814 22.138 121.762 21.9876 121.659 21.8717C121.556 21.7558 121.42 21.6616 121.251 21.5892C121.083 21.5168 120.901 21.4534 120.705 21.399L120.021 21.2034C119.586 21.0785 119.242 20.9001 118.988 20.6683C118.735 20.4364 118.608 20.1331 118.608 19.7582C118.608 19.4467 118.692 19.175 118.861 18.9432C119.031 18.7096 119.259 18.5285 119.545 18.3999C119.833 18.2695 120.155 18.2043 120.51 18.2043C120.868 18.2043 121.187 18.2686 121.466 18.3972C121.745 18.5239 121.966 18.6978 122.129 18.9188C122.294 19.1397 122.381 19.3905 122.39 19.6713H121.738ZM125.236 23.9309C124.834 23.9309 124.487 23.8422 124.196 23.6647C123.906 23.4854 123.682 23.2355 123.525 22.9149C123.369 22.5925 123.291 22.2176 123.291 21.7902C123.291 21.3628 123.369 20.9861 123.525 20.6601C123.682 20.3323 123.901 20.0769 124.182 19.894C124.465 19.7093 124.794 19.6169 125.171 19.6169C125.388 19.6169 125.603 19.6532 125.815 19.7256C126.027 19.798 126.219 19.9158 126.393 20.0788C126.567 20.2399 126.706 20.4536 126.809 20.7199C126.912 20.9861 126.964 21.3139 126.964 21.7033V21.975H123.747V21.4208H126.312C126.312 21.1853 126.265 20.9752 126.171 20.7905C126.078 20.6058 125.946 20.46 125.774 20.3531C125.604 20.2463 125.403 20.1929 125.171 20.1929C124.915 20.1929 124.695 20.2562 124.508 20.383C124.323 20.508 124.181 20.671 124.081 20.872C123.982 21.073 123.932 21.2886 123.932 21.5186V21.888C123.932 22.2032 123.986 22.4703 124.095 22.6894C124.206 22.9068 124.359 23.0725 124.554 23.1866C124.75 23.2989 124.977 23.355 125.236 23.355C125.404 23.355 125.557 23.3315 125.692 23.2844C125.83 23.2355 125.949 23.163 126.048 23.067C126.148 22.9692 126.225 22.8479 126.279 22.703L126.899 22.8769C126.833 23.087 126.724 23.2717 126.57 23.4311C126.416 23.5886 126.226 23.7118 125.999 23.8005C125.773 23.8875 125.519 23.9309 125.236 23.9309ZM129.634 23.9309C129.243 23.9309 128.906 23.8386 128.624 23.6538C128.341 23.4691 128.124 23.2146 127.972 22.8905C127.82 22.5663 127.743 22.1959 127.743 21.7794C127.743 21.3556 127.821 20.9816 127.977 20.6574C128.135 20.3314 128.354 20.0769 128.635 19.894C128.917 19.7093 129.247 19.6169 129.623 19.6169C129.917 19.6169 130.181 19.6713 130.417 19.7799C130.652 19.8886 130.845 20.0407 130.995 20.2363C131.146 20.4319 131.239 20.6601 131.275 20.9209H130.634C130.585 20.7307 130.476 20.5623 130.308 20.4156C130.141 20.2671 129.917 20.1929 129.634 20.1929C129.384 20.1929 129.165 20.2581 128.977 20.3885C128.79 20.517 128.644 20.6991 128.539 20.9345C128.436 21.1681 128.385 21.4425 128.385 21.7576C128.385 22.08 128.435 22.3607 128.537 22.5998C128.64 22.8388 128.785 23.0245 128.971 23.1567C129.16 23.2889 129.381 23.355 129.634 23.355C129.801 23.355 129.952 23.326 130.088 23.2681C130.224 23.2101 130.339 23.1268 130.433 23.0181C130.527 22.9095 130.594 22.7791 130.634 22.6269H131.275C131.239 22.8733 131.149 23.0951 131.006 23.2925C130.865 23.4881 130.677 23.6439 130.444 23.7598C130.212 23.8739 129.942 23.9309 129.634 23.9309ZM134.027 19.6713V20.2146H131.865V19.6713H134.027ZM132.495 18.6715H133.136V22.6487C133.136 22.8298 133.162 22.9656 133.215 23.0562C133.269 23.1449 133.338 23.2047 133.421 23.2355C133.506 23.2644 133.596 23.2789 133.69 23.2789C133.761 23.2789 133.819 23.2753 133.864 23.2681C133.909 23.259 133.946 23.2518 133.973 23.2463L134.103 23.8223C134.06 23.8386 133.999 23.8549 133.921 23.8712C133.843 23.8893 133.744 23.8983 133.625 23.8983C133.444 23.8983 133.266 23.8594 133.093 23.7815C132.92 23.7036 132.777 23.585 132.663 23.4256C132.551 23.2663 132.495 23.0652 132.495 22.8225V18.6715ZM136.642 23.9309C136.265 23.9309 135.935 23.8413 135.65 23.662C135.368 23.4827 135.147 23.2318 134.987 22.9095C134.83 22.5871 134.751 22.2104 134.751 21.7794C134.751 21.3447 134.83 20.9653 134.987 20.6411C135.147 20.3169 135.368 20.0652 135.65 19.8859C135.935 19.7066 136.265 19.6169 136.642 19.6169C137.018 19.6169 137.348 19.7066 137.631 19.8859C137.915 20.0652 138.136 20.3169 138.293 20.6411C138.453 20.9653 138.533 21.3447 138.533 21.7794C138.533 22.2104 138.453 22.5871 138.293 22.9095C138.136 23.2318 137.915 23.4827 137.631 23.662C137.348 23.8413 137.018 23.9309 136.642 23.9309ZM136.642 23.355C136.928 23.355 137.163 23.2817 137.348 23.135C137.533 22.9883 137.67 22.7954 137.758 22.5563C137.847 22.3173 137.891 22.0583 137.891 21.7794C137.891 21.5005 137.847 21.2406 137.758 20.9997C137.67 20.7588 137.533 20.5641 137.348 20.4156C137.163 20.2671 136.928 20.1929 136.642 20.1929C136.356 20.1929 136.12 20.2671 135.935 20.4156C135.751 20.5641 135.614 20.7588 135.525 20.9997C135.436 21.2406 135.392 21.5005 135.392 21.7794C135.392 22.0583 135.436 22.3173 135.525 22.5563C135.614 22.7954 135.751 22.9883 135.935 23.135C136.12 23.2817 136.356 23.355 136.642 23.355ZM139.511 23.844V19.6713H140.131V20.3015H140.174C140.25 20.0951 140.388 19.9275 140.587 19.7989C140.786 19.6704 141.011 19.6061 141.261 19.6061C141.308 19.6061 141.367 19.607 141.437 19.6088C141.508 19.6106 141.561 19.6133 141.598 19.6169V20.2689C141.576 20.2635 141.526 20.2553 141.448 20.2445C141.372 20.2318 141.291 20.2255 141.206 20.2255C141.004 20.2255 140.822 20.268 140.663 20.3531C140.505 20.4364 140.381 20.5524 140.288 20.7009C140.198 20.8476 140.152 21.0151 140.152 21.2034V23.844H139.511Z" fill="#5B5B5B"/>
</g>
<defs>
<filter id="filter0_d_3_125982" x="91.7387" y="9.19397" width="63.8526" height="29.9462" filterUnits="userSpaceOnUse" color-interpolation-filters="sRGB">
<feFlood flood-opacity="0" result="BackgroundImageFix"/>
<feColorMatrix in="SourceAlpha" type="matrix" values="0 0 0 0 0 0 0 0 0 0 0 0 0 0 0 0 0 0 127 0" result="hardAlpha"/>
<feOffset dy="2.35385"/>
<feGaussianBlur stdDeviation="3.53077"/>
<feComposite in2="hardAlpha" operator="out"/>
<feColorMatrix type="matrix" values="0 0 0 0 0.429167 0 0 0 0 0.429167 0 0 0 0 0.429167 0 0 0 0.15 0"/>
<feBlend mode="normal" in2="BackgroundImageFix" result="effect1_dropShadow_3_125982"/>
<feBlend mode="normal" in="SourceGraphic" in2="effect1_dropShadow_3_125982" result="shape"/>
</filter>
</defs>
</svg>
