<svg width="250" height="154" viewBox="0 0 250 154" fill="none" xmlns="http://www.w3.org/2000/svg">
<path d="M15 121.315H229" stroke="#B9C1D9" stroke-width="0.396012" stroke-dasharray="1.98 1.98"/>
<path d="M15 95.3411H229" stroke="#B9C1D9" stroke-width="0.396012" stroke-dasharray="1.98 1.98"/>
<path d="M15 73.4428H229" stroke="#B9C1D9" stroke-width="0.396012" stroke-dasharray="1.98 1.98"/>
<path d="M44 145V112" stroke="white" stroke-opacity="0.5" stroke-linecap="square" stroke-linejoin="round"/>
<path d="M229.005 144L16.9951 144" stroke="white" stroke-opacity="0.5" stroke-width="0.5" stroke-linecap="square" stroke-linejoin="round"/>
<path d="M109 145V104" stroke="white" stroke-opacity="0.5" stroke-linecap="square" stroke-linejoin="round"/>
<path d="M147 145V81.9999" stroke="white" stroke-opacity="0.5" stroke-linecap="square" stroke-linejoin="round"/>
<rect x="36.4004" y="138.695" width="16.8143" height="10.3051" rx="1.2291" fill="white"/>
<rect x="100.6" y="138.695" width="16.8143" height="10.3051" rx="1.2291" fill="white"/>
<rect x="138.814" y="138.695" width="16.8143" height="10.3051" rx="1.2291" fill="white"/>
<path d="M45.0955 147H42.6795V141.121H45.0873C45.6061 141.121 46.0231 141.255 46.3381 141.524C46.6532 141.79 46.8107 142.145 46.8107 142.588C46.8107 142.9 46.7102 143.18 46.5092 143.427C46.3082 143.671 46.0611 143.818 45.7677 143.867V143.899C46.167 143.946 46.4889 144.1 46.7333 144.364C46.9805 144.625 47.1041 144.949 47.1041 145.338C47.1041 145.856 46.9262 146.264 46.5704 146.56C46.2145 146.853 45.7229 147 45.0955 147ZM43.5921 141.866V143.622H44.6718C45.0683 143.622 45.3725 143.544 45.5844 143.386C45.7963 143.229 45.9022 143.004 45.9022 142.714C45.9022 142.442 45.8112 142.233 45.6292 142.086C45.45 141.94 45.1946 141.866 44.8633 141.866H43.5921ZM43.5921 146.254H44.9122C45.3223 146.254 45.6346 146.171 45.8492 146.006C46.0638 145.84 46.1711 145.598 46.1711 145.281C46.1711 144.963 46.0597 144.724 45.837 144.563C45.617 144.401 45.2911 144.319 44.8592 144.319H43.5921V146.254Z" fill="black"/>
<path d="M108.773 147.104C107.896 147.104 107.199 146.814 106.682 146.233C106.168 145.653 105.911 144.867 105.911 143.874C105.911 142.886 106.17 142.103 106.686 141.523C107.203 140.939 107.899 140.648 108.773 140.648C109.484 140.648 110.083 140.848 110.57 141.25C111.058 141.648 111.343 142.172 111.423 142.821H110.462C110.376 142.42 110.178 142.1 109.869 141.86C109.563 141.618 109.198 141.497 108.773 141.497C108.205 141.497 107.75 141.713 107.41 142.146C107.072 142.576 106.903 143.152 106.903 143.874C106.903 144.604 107.072 145.184 107.41 145.614C107.747 146.042 108.203 146.255 108.778 146.255C109.211 146.255 109.574 146.15 109.869 145.939C110.166 145.728 110.364 145.434 110.462 145.056H111.428C111.309 145.702 111.016 146.206 110.549 146.567C110.084 146.925 109.492 147.104 108.773 147.104Z" fill="black"/>
<path d="M144.34 140.226H146.767C147.777 140.226 148.564 140.522 149.128 141.113C149.691 141.705 149.973 142.534 149.973 143.601C149.973 144.672 149.691 145.506 149.128 146.103C148.564 146.701 147.777 147 146.767 147H144.34V140.226ZM145.391 141.132V146.089H146.668C147.388 146.089 147.94 145.876 148.325 145.451C148.71 145.022 148.902 144.409 148.902 143.611C148.902 142.813 148.71 142.201 148.325 141.775C147.94 141.347 147.388 141.132 146.668 141.132H145.391Z" fill="black"/>
<path d="M204.186 145L204 69.9999" stroke="white" stroke-opacity="0.5" stroke-linecap="square" stroke-linejoin="round"/>
<rect x="196" y="138.695" width="16.8143" height="10.3051" rx="1.2291" fill="white"/>
<path d="M206.454 146.089V147H202.154V140.226H206.454V141.132H203.206V143.113H206.28V143.986H203.206V146.089H206.454Z" fill="black"/>
<g filter="url(#filter0_d_543_92)">
<path d="M4 127L24.2157 111.403C29.2225 107.541 36.0453 107.021 41.5795 110.08V110.08C49.0636 114.218 58.4806 111.678 62.8686 104.338L63.1616 103.848C68.1016 95.5841 79.0501 93.3093 86.873 98.9209L90.605 101.598C99.5226 107.995 111.884 106.311 118.765 97.7613L120.994 94.9919C122.326 93.3377 123.867 91.8641 125.58 90.6083L132.255 85.7127C140.433 79.7157 151.242 78.6234 160.466 82.8376V82.8376C171.382 87.8249 184.298 85.287 192.487 76.5136V76.5136C197.014 71.6639 203.12 68.586 209.712 67.8323L230.95 65.4036V65.4036C242.349 65.4036 252.62 " stroke="url(#paint0_linear_543_92)" stroke-width="3" shape-rendering="crispEdges"/>
</g>
<defs>
<filter id="filter0_d_543_92" x="-21.9165" y="0.429321" width="314.304" height="152.758" filterUnits="userSpaceOnUse" color-interpolation-filters="sRGB">
<feFlood flood-opacity="0" result="BackgroundImageFix"/>
<feColorMatrix in="SourceAlpha" type="matrix" values="0 0 0 0 0 0 0 0 0 0 0 0 0 0 0 0 0 0 127 0" result="hardAlpha"/>
<feOffset/>
<feGaussianBlur stdDeviation="12.5"/>
<feComposite in2="hardAlpha" operator="out"/>
<feColorMatrix type="matrix" values="0 0 0 0 1 0 0 0 0 1 0 0 0 0 1 0 0 0 0.33 0"/>
<feBlend mode="normal" in2="BackgroundImageFix" result="effect1_dropShadow_543_92"/>
<feBlend mode="normal" in="SourceGraphic" in2="effect1_dropShadow_543_92" result="shape"/>
</filter>
<linearGradient id="paint0_linear_543_92" x1="7.94315" y1="127" x2="244.05" y2="87.4818" gradientUnits="userSpaceOnUse">
<stop stop-color="#84D5BE" stop-opacity="0"/>
<stop offset="0.208661" stop-color="#16FF85"/>
<stop offset="0.505208" stop-color="#16FF85"/>
<stop offset="0.880321" stop-color="#16FF85"/>
<stop offset="1" stop-color="#B9C1D9" stop-opacity="0"/>
<stop offset="1" stop-color="#ABAEB6"/>
<stop offset="1" stop-color="#ABAEB6"/>
</linearGradient>
</defs>
</svg>
