<svg width="80" height="89" viewBox="0 0 80 89" fill="none" xmlns="http://www.w3.org/2000/svg">
<path fill-rule="evenodd" clip-rule="evenodd" d="M39.5637 0.603283L39.6108 1.20657L39.3389 1.17154C39.1894 1.15228 38.9471 1.12113 38.8004 1.10228L38.5336 1.06805V1.54377V2.0195L39.0711 1.97184L39.6086 1.9241L39.5621 2.49971L39.5155 3.07525H39.9993H40.4831L40.4351 2.49777L40.3871 1.92029L40.9273 1.96756L41.4675 2.01476V1.54143V1.06805L41.2008 1.10228C41.0541 1.12113 40.8117 1.15228 40.6622 1.17154L40.3904 1.20657L40.4374 0.603283L40.4845 0H40.0006H39.5166L39.5637 0.603283ZM39.6285 4.07036C39.0144 4.44587 39.2797 5.41511 39.9967 5.41511C40.7068 5.41511 40.9847 4.44453 40.3804 4.0751C40.1125 3.91138 39.8909 3.90998 39.6285 4.07036ZM39.3338 6.49018C39.1688 6.56505 38.9485 6.70731 38.8444 6.80626C38.4232 7.20657 38.3868 7.50126 38.599 8.7912C38.8726 10.4538 39.4354 12.0788 39.8266 12.3358C39.9872 12.4412 40.0132 12.4418 40.1642 12.3426C40.618 12.0445 41.1599 10.4622 41.4319 8.64124C41.6066 7.47138 41.565 7.19427 41.1567 6.80626C40.8653 6.52935 40.4171 6.354 40.0006 6.354C39.7743 6.354 39.519 6.40614 39.3338 6.49018ZM36.9667 7.31829C35.7809 7.57761 34.7575 8.26794 34.3264 9.09926C33.8939 9.93332 34.2366 12.0482 35.0756 13.7216L35.2683 14.106H40.0058H44.7434L45.0022 13.5523C45.5885 12.298 45.903 10.9738 45.8553 9.96113C45.8331 9.49142 45.7948 9.3311 45.6348 9.03661C45.1633 8.16886 43.9799 7.45233 42.6892 7.25304L42.4107 7.21005L42.3746 7.49919C42.3547 7.65824 42.3046 8.05915 42.2632 8.39008C41.9875 10.5925 41.2621 12.7214 40.569 13.3619C40.3222 13.5901 40.2237 13.6381 40.0022 13.6381C39.6349 13.6381 39.2904 13.3156 38.9467 12.65C38.3149 11.4263 37.9265 9.9168 37.6314 7.5377C37.5869 7.17896 37.5936 7.18117 36.9667 7.31829ZM28.4192 10.5722L28.459 11.0496L27.9954 11.0107L27.5317 10.9717V11.3451V11.7185L27.9946 11.6754L28.4575 11.6323L28.4184 12.1003L28.3792 12.5684H28.7319H29.0847L29.0453 12.0968L29.0058 11.625L29.469 11.6708L29.9322 11.7166V11.3441V10.9717L29.4737 11.0103L29.0152 11.0488L29.0492 10.5718L29.0833 10.0948H28.7312H28.3792L28.4192 10.5722ZM50.9519 10.5718L50.9859 11.0488L50.5275 11.0103L50.069 10.9717V11.3451V11.7185L50.5319 11.6754L50.9947 11.6323L50.9556 12.1003L50.9165 12.5684H51.2692H51.6219L51.5825 12.0968L51.543 11.625L52.0063 11.6708L52.4694 11.7166V11.3441V10.9717L52.0057 11.0107L51.5421 11.0496L51.582 10.5722L51.6219 10.0948H51.2699H50.9179L50.9519 10.5718ZM28.5986 13.3517C28.1934 13.4975 28.0694 13.9826 28.3622 14.2762C28.7009 14.6158 29.2654 14.3724 29.2654 13.8867C29.2654 13.5552 28.8838 13.249 28.5986 13.3517ZM51.1358 13.3517C50.7306 13.4975 50.6066 13.9826 50.8995 14.2762C51.2382 14.6158 51.8026 14.3724 51.8026 13.8867C51.8026 13.5552 51.421 13.249 51.1358 13.3517ZM18.4302 13.464C18.3201 13.5125 17.8905 13.9166 17.4755 14.3619C16.276 15.6491 15.6175 16.0749 14.0961 16.5465C13.1617 16.8362 12.8184 17.0105 12.6893 17.2608C12.5447 17.541 12.5767 17.5601 12.8125 17.3345C13.1742 16.9885 13.5225 16.914 14.7819 16.9129C16.5259 16.9113 16.9858 16.7503 18.2333 15.7048C19.4846 14.656 20.0803 14.2962 20.8135 14.1462L21.2083 14.0654L20.6861 13.8206C19.808 13.4091 18.8857 13.2633 18.4302 13.464ZM60.1624 13.5029C59.9012 13.5715 59.4835 13.7308 59.2343 13.8568L58.7812 14.0858L59.1121 14.1298C59.7775 14.2183 60.5685 14.6866 61.7404 15.6858C62.0536 15.9528 62.4887 16.2794 62.7072 16.4113C63.3678 16.8101 63.6197 16.8609 65.1716 16.9085C66.6794 16.9547 66.8126 16.9846 67.222 17.3685C67.4263 17.5602 67.451 17.5306 67.3118 17.2608C67.1828 17.0105 66.8394 16.8362 65.9051 16.5465C64.3835 16.0748 63.725 15.6491 62.5256 14.3619C62.1106 13.9164 61.6745 13.5112 61.5564 13.4613C61.2634 13.3375 60.7313 13.3533 60.1624 13.5029ZM20.8297 14.6909C20.4224 14.8362 20.0335 15.0611 19.4698 15.4773L19.0425 15.7927L19.4873 16.0281C20.0287 16.3147 20.648 16.9543 20.9341 17.5224C21.0453 17.7435 21.2659 18.2969 21.4242 18.7522C21.7741 19.7587 22.1808 20.4348 22.7672 20.9848C23.388 21.567 24.1438 21.919 24.9813 22.016C25.2441 22.0464 25.2647 22.0374 25.2647 21.8906C25.2647 21.7645 25.214 21.7187 25.0146 21.6644C24.3791 21.4914 23.6728 20.7855 23.2387 19.8896C22.9101 19.2113 22.7418 18.5788 22.5973 17.48C22.5271 16.9465 22.4202 16.3076 22.3596 16.0601C22.2376 15.5618 21.9197 14.8372 21.7675 14.7106C21.6019 14.5728 21.185 14.564 20.8297 14.6909ZM58.3371 14.6566C58.1217 14.7705 57.7942 15.4298 57.6448 16.0504C57.5806 16.3171 57.4715 16.9661 57.4022 17.4926C57.2594 18.5792 57.0901 19.2131 56.7624 19.8896C56.3283 20.7855 55.6221 21.4914 54.9865 21.6644C54.7871 21.7187 54.7365 21.7645 54.7365 21.8906C54.7365 22.0374 54.7571 22.0464 55.0198 22.016C55.8573 21.919 56.6131 21.567 57.2339 20.9848C57.8203 20.4348 58.227 19.7587 58.5769 18.7522C58.7352 18.2969 58.9558 17.7435 59.0671 17.5224C59.3531 16.9542 59.9724 16.3147 60.514 16.028L60.959 15.7925L60.4982 15.4492C59.5919 14.7742 58.7198 14.4543 58.3371 14.6566ZM35.9261 14.7317C35.7443 14.8221 35.6714 15.1877 35.8034 15.3472C35.909 15.4746 36.2308 15.4694 36.3619 15.3381C36.5542 15.1452 36.4594 14.7814 36.1928 14.6894C36.1339 14.6691 36.0139 14.6881 35.9261 14.7317ZM37.8627 14.7303C37.678 14.822 37.604 15.1862 37.7371 15.3472C37.8427 15.4746 38.1645 15.4694 38.2955 15.3381C38.5884 15.0444 38.2334 14.546 37.8627 14.7303ZM39.8192 14.7136C39.638 14.7811 39.5578 15.062 39.6573 15.2809C39.7532 15.492 40.1581 15.5139 40.2649 15.3138C40.4675 14.9343 40.1986 14.5722 39.8192 14.7136ZM41.7635 14.7257C41.5952 14.8179 41.5364 14.9096 41.5352 15.0817C41.5331 15.3674 41.9877 15.5633 42.1876 15.3629C42.2927 15.2575 42.2905 14.8755 42.1843 14.7931C42.0333 14.6759 41.8947 14.6538 41.7635 14.7257ZM43.7346 14.6918C43.3179 14.8221 43.421 15.4431 43.8593 15.4431C44.0982 15.4431 44.2013 15.3307 44.2013 15.0702C44.2013 14.7975 43.9773 14.6159 43.7346 14.6918ZM28.2969 15.2841C28.2077 15.3805 28.1149 15.5659 28.0906 15.6961C27.9837 16.2669 28.2209 18.0295 28.4921 18.6802C28.5746 18.8782 28.6268 18.9247 28.7472 18.9076C28.8692 18.8902 28.9283 18.7969 29.0513 18.4277C29.3663 17.4825 29.5022 15.8377 29.298 15.4418C29.1013 15.0604 28.5796 14.9783 28.2969 15.2841ZM50.9191 15.181C50.8549 15.2185 50.7574 15.3365 50.7024 15.4431C50.4013 16.0269 50.842 18.8487 51.2433 18.9062C51.3483 18.9212 51.4125 18.8662 51.496 18.6898C51.7665 18.1183 52.0206 16.2838 51.9106 15.6961C51.8442 15.3409 51.5972 15.1084 51.2891 15.1108C51.1498 15.112 50.9833 15.1435 50.9191 15.181ZM26.9055 15.6117C26.0159 15.8566 25.3158 16.3854 25.0042 17.0476C24.8518 17.3715 24.8321 17.4947 24.8383 18.0838C24.8449 18.7126 25.0423 19.774 25.258 20.3401L25.328 20.5239H28.7275H32.1269L32.2578 20.0727C32.799 18.2075 32.7532 17.2563 32.0868 16.513C31.6672 16.0451 31.0947 15.7337 30.3187 15.5513C30.1137 15.5032 30.1342 15.4357 29.9974 16.613C29.91 17.3659 29.612 18.5933 29.4015 19.0669C28.7487 20.5363 27.9919 19.715 27.5261 17.0318C27.4559 16.6271 27.3984 16.1667 27.3984 16.0087C27.3984 15.7084 27.3474 15.5057 27.2746 15.5159C27.251 15.5192 27.0849 15.5623 26.9055 15.6117ZM49.4427 15.6117C48.5093 15.8687 47.7332 16.4992 47.4911 17.1972C47.2771 17.8147 47.3917 19.0247 47.7761 20.2064L47.8793 20.5239H51.2762H54.6731L54.7315 20.3699C54.9531 19.7855 55.1582 18.7009 55.1638 18.0838C55.1691 17.4958 55.149 17.3709 54.9969 17.0476C54.6799 16.3737 53.9783 15.8506 53.069 15.6101C52.6427 15.4974 52.6053 15.5276 52.6038 15.9859C52.6032 16.1557 52.557 16.5618 52.5011 16.8884C52.0223 19.6867 51.262 20.5578 50.5996 19.0669C50.4034 18.6253 50.098 17.3937 50.0076 16.6799C49.9657 16.349 49.9156 15.9504 49.8961 15.7941C49.8767 15.6378 49.8401 15.5126 49.8149 15.5159C49.7896 15.5192 49.6222 15.5623 49.4427 15.6117ZM35.6665 16.1168C35.6665 16.1563 35.7542 16.2767 35.8614 16.3842L36.0563 16.5796H40.0006H43.9449L44.1398 16.3842C44.247 16.2767 44.3347 16.1563 44.3347 16.1168C44.3347 16.0661 43.0519 16.0448 40.0006 16.0448C36.9492 16.0448 35.6665 16.0661 35.6665 16.1168ZM36.4319 17.5991C36.348 18.1131 36.0051 19.078 35.7312 19.5712C35.414 20.1423 34.7961 20.8276 34.3253 21.1305C33.8608 21.4294 33.2143 21.6519 32.6607 21.7035C32.3028 21.7369 32.1779 21.776 32.1273 21.8709C32.0657 21.9861 32.0947 21.9947 32.5469 21.9943C34.4929 21.9927 36.4634 21.2135 37.5038 20.0341C38.0526 19.4121 38.5903 18.3448 38.7644 17.5323L38.811 17.315H37.6446H36.4784L36.4319 17.5991ZM41.2367 17.5323C41.4108 18.3448 41.9486 19.4121 42.4973 20.0341C43.5378 21.2135 45.5083 21.9927 47.4542 21.9943C47.9065 21.9947 47.9354 21.9861 47.8739 21.8709C47.8233 21.776 47.6983 21.7369 47.3404 21.7035C45.7055 21.5511 44.3727 20.3205 43.7823 18.4181C43.691 18.1239 43.5953 17.7553 43.5695 17.5991L43.5228 17.315H42.3565H41.1902L41.2367 17.5323ZM13.5574 17.5086C13.1562 17.6913 12.9955 17.9307 12.9973 18.3435C12.9991 18.7488 13.1158 19.0238 13.6141 19.7966C14.3763 20.9786 14.7298 21.8845 14.7291 22.6535C14.7287 23.191 14.6486 23.503 14.4272 23.8302L14.2601 24.077L14.4115 24.0317C14.7384 23.9338 15.1411 23.6457 15.3113 23.3877L15.4902 23.1168L15.6196 23.2745C15.9245 23.6455 16.1439 24.2496 16.3813 25.3708L16.4379 25.6382L16.6338 25.07C16.8163 24.5411 16.8297 24.4345 16.8277 23.5323C16.8257 22.6348 16.812 22.5283 16.6418 22.095C16.5407 21.8376 16.2354 21.234 15.9635 20.7537C15.061 19.1596 14.9003 18.7017 15.0582 18.1736C15.1016 18.028 15.2555 17.7904 15.4001 17.6454L15.663 17.3818L14.7462 17.3833C13.9983 17.3845 13.7793 17.4076 13.5574 17.5086ZM64.601 17.6454C64.7456 17.7904 64.8995 18.028 64.943 18.1736C65.1008 18.7017 64.9401 19.1596 64.0376 20.7537C63.7657 21.234 63.4658 21.8339 63.3713 22.0867C63.0406 22.9712 63.044 24.0887 63.3806 25.0929L63.5633 25.6382L63.6199 25.3708C63.8572 24.2496 64.0767 23.6455 64.3815 23.2745L64.511 23.1168L64.6898 23.3877C64.86 23.6457 65.2627 23.9338 65.5897 24.0317L65.741 24.077L65.5739 23.8302C65.3525 23.503 65.2724 23.191 65.272 22.6535C65.2714 21.8845 65.6249 20.9786 66.3871 19.7966C66.8853 19.0238 67.0021 18.7488 67.0038 18.3435C67.0056 17.9307 66.845 17.6913 66.4438 17.5086C66.2219 17.4076 66.0029 17.3845 65.255 17.3833L64.3381 17.3818L64.601 17.6454ZM4.58655 18.5685C3.17937 20.0437 2.51332 22.1265 2.81751 24.1006C3.26199 26.9858 5.32081 29.6524 9.60589 32.8931C10.9978 33.9459 10.9879 33.9412 10.7269 33.4227C10.4244 32.822 10.0034 31.5109 9.91274 30.8874L9.83426 30.3475L9.16468 29.8033C8.79642 29.504 8.01475 28.7753 7.42758 28.184C5.4707 26.2133 4.77532 24.9038 5.15558 23.9054C5.35528 23.3812 5.40509 23.3985 5.76042 24.1162C6.13922 24.8812 7.09245 26.3221 7.83425 27.2508C8.41508 27.978 9.66857 29.2817 9.78699 29.2817C9.83306 29.2817 9.862 29.1458 9.862 28.929C9.862 28.424 9.97989 27.5364 10.1365 26.8618L10.2715 26.2802L9.69751 25.5958C8.05842 23.6418 6.02027 20.5595 5.22786 18.8363C5.08117 18.5173 4.94501 18.2551 4.92528 18.2536C4.90561 18.2521 4.75318 18.3938 4.58655 18.5685ZM74.7733 18.8363C73.9836 20.5535 71.9361 23.6497 70.3017 25.5982L69.7257 26.2848L69.8352 26.7217C69.981 27.3036 70.1364 28.4206 70.1379 28.8973C70.1387 29.1354 70.1675 29.2817 70.2137 29.2817C70.332 29.2817 71.5204 28.0451 72.137 27.2805C72.9106 26.321 73.8684 24.8767 74.2429 24.1049C74.5894 23.3908 74.6428 23.3731 74.8456 23.9054C75.2258 24.9038 74.5304 26.2133 72.5736 28.184C71.9864 28.7753 71.2047 29.504 70.8365 29.8033L70.1669 30.3475L70.0884 30.8874C69.9977 31.5109 69.5768 32.822 69.2743 33.4227C69.0133 33.941 69.0029 33.9459 70.3952 32.894C74.4671 29.818 76.489 27.2989 77.1189 24.5167C77.2918 23.7529 77.2731 22.3798 77.0796 21.6306C76.7671 20.4206 76.218 19.4108 75.4146 18.5685C75.248 18.3938 75.0955 18.2521 75.0759 18.2536C75.0561 18.2551 74.92 18.5173 74.7733 18.8363ZM25.6223 21.3468C25.6435 21.4317 25.7072 21.6122 25.7637 21.7479L25.8666 21.9947H28.7281H31.5895L31.7277 21.6245C31.8037 21.4209 31.8658 21.2404 31.8658 21.2234C31.8658 21.2064 30.4523 21.1925 28.7247 21.1925H25.5836L25.6223 21.3468ZM48.1353 21.2234C48.1353 21.2404 48.1975 21.4209 48.2735 21.6245L48.4116 21.9947H51.2731H54.1346L54.2374 21.7479C54.294 21.6122 54.3577 21.4317 54.3789 21.3468L54.4175 21.1925H51.2764C49.5488 21.1925 48.1353 21.2064 48.1353 21.2234ZM37.4001 21.7739C36.2625 22.2306 34.9529 22.5208 33.3994 22.6606C32.9777 22.6986 31.1679 22.7298 29.3777 22.7299C27.2619 22.73 26.0776 22.7543 25.9937 22.7993C25.7974 22.9047 25.8311 23.2642 26.1009 23.9403C26.7373 25.5352 27.5606 26.5312 29.4654 28.0108C29.9605 28.3954 30.5545 28.8975 30.7855 29.1266C31.0165 29.3557 31.2165 29.5069 31.23 29.4626C31.2435 29.4183 31.2727 29.2917 31.2949 29.1814C31.317 29.0711 31.4285 28.7334 31.5426 28.4311L31.7502 27.8813L32.0649 28.2974C32.4551 28.8133 33.2245 29.5467 33.5324 29.6963C33.6594 29.7579 33.7736 29.7979 33.7862 29.7852C33.7989 29.7726 33.7747 29.6466 33.7324 29.5053C33.6902 29.3639 33.6388 28.8 33.6182 28.2521L33.5807 27.2559L34.0068 27.56C34.4961 27.9092 35.0718 28.2085 35.5998 28.3881C36.1574 28.5778 37.3212 28.5648 37.7551 28.3641C38.08 28.2137 38.1204 28.0783 37.8403 28.0783C37.4941 28.0783 36.8383 27.6572 36.2166 27.0356C35.8774 26.6965 35.5999 26.3938 35.5999 26.3629C35.5999 26.332 35.9225 26.3067 36.3167 26.3067C36.97 26.3067 37.6722 26.1889 37.6635 26.0808C37.6616 26.058 37.4891 25.9574 37.2801 25.8571C36.9156 25.6824 36.2666 25.1818 36.2666 25.0754C36.2666 25.0474 36.4258 24.9887 36.6204 24.945C37.1132 24.8344 37.7356 24.5264 38.0599 24.2327C38.2105 24.0963 38.3336 23.9622 38.3336 23.9347C38.3336 23.9071 38.131 23.869 37.8835 23.85C37.636 23.831 37.2635 23.7506 37.0557 23.6712L36.6781 23.527L37.014 23.2121C37.535 22.7239 38.2015 21.7147 38.1204 21.537C38.1093 21.5127 37.7852 21.6193 37.4001 21.7739ZM41.8997 21.652C41.9778 21.9753 42.3634 22.5486 42.8358 23.0436L43.3039 23.5342L42.9358 23.6749C42.7333 23.7522 42.3651 23.831 42.1176 23.85C41.8701 23.869 41.6675 23.9071 41.6675 23.9347C41.6675 23.9622 41.7913 24.0969 41.9427 24.234C42.2598 24.5212 42.887 24.8329 43.388 24.9522C43.5786 24.9976 43.7346 25.0554 43.7346 25.0806C43.7346 25.1826 43.0768 25.6865 42.721 25.8571C42.512 25.9574 42.3395 26.0586 42.3376 26.082C42.3284 26.2008 43.201 26.3495 43.7847 26.3287C44.124 26.3166 44.4016 26.332 44.4015 26.3629C44.4014 26.3938 44.1237 26.6948 43.7846 27.0318C43.1626 27.6499 42.4983 28.0783 42.1622 28.0783C41.8808 28.0783 41.9205 28.2134 42.246 28.3641C42.5217 28.4916 42.6772 28.5124 43.3345 28.5089C44.0039 28.5055 44.1632 28.4816 44.5892 28.3204C45.1281 28.1164 45.6972 27.7998 46.0942 27.483C46.2367 27.3692 46.3683 27.2761 46.3865 27.2761C46.4496 27.2761 46.3453 29.2489 46.2687 29.5053C46.2264 29.6466 46.2022 29.7726 46.2149 29.7852C46.3411 29.9118 47.4237 28.977 47.9347 28.3001L48.2509 27.8813L48.4585 28.4311C48.5727 28.7334 48.6841 29.0711 48.7063 29.1814C48.7284 29.2917 48.7566 29.4157 48.769 29.457C48.7813 29.4982 48.9813 29.3475 49.2134 29.1221C49.4456 28.8966 50.0406 28.397 50.5357 28.0119C52.4431 26.528 53.2641 25.5345 53.9002 23.9403C54.17 23.2642 54.2038 22.9047 54.0074 22.7993C53.9235 22.7543 52.7392 22.73 50.6235 22.7299C48.8332 22.7298 47.0235 22.6986 46.6017 22.6606C45.039 22.52 43.7375 22.2306 42.5792 21.766L41.8573 21.4765L41.8997 21.652ZM24.0311 23.7409C22.4471 23.9476 21.3148 24.5761 20.8609 25.5005C20.6845 25.8597 20.6542 25.9956 20.6564 26.4166C20.6599 27.0934 20.9646 27.8769 21.4557 28.4723L21.6429 28.6992L21.7901 28.3942C21.8712 28.2265 22.0683 27.9683 22.2281 27.8206C23.1701 26.95 24.8061 26.7352 26.8536 27.2133C27.159 27.2846 27.4263 27.343 27.4475 27.343C27.4688 27.343 27.3066 27.155 27.0869 26.9251C26.3337 26.1369 25.7582 25.2442 25.352 24.2343L25.1369 23.6995L24.8174 23.6898C24.6416 23.6844 24.2878 23.7074 24.0311 23.7409ZM54.8238 23.783C54.385 25.0114 53.7965 25.9862 52.9512 26.8845C52.714 27.1367 52.5362 27.343 52.5561 27.343C52.576 27.343 52.8421 27.2846 53.1476 27.2133C55.1951 26.7352 56.831 26.95 57.773 27.8206C57.9329 27.9683 58.13 28.2265 58.211 28.3942L58.3582 28.6992L58.5454 28.4723C59.0365 27.8769 59.3413 27.0934 59.3447 26.4166C59.3469 25.9952 59.3167 25.8598 59.1394 25.4987C58.6751 24.5534 57.5377 23.9395 55.8717 23.7353C55.0611 23.636 54.8734 23.6445 54.8238 23.783ZM30.6491 23.9502C30.6339 23.9962 30.4138 24.1188 30.1601 24.2229C29.3186 24.5678 28.902 24.7795 28.5861 25.0226L28.2736 25.2632L27.9693 24.7428C27.6366 24.1739 27.6057 24.0416 27.7818 23.9388C27.9633 23.8328 30.6844 23.8435 30.6491 23.9502ZM52.2071 23.9358C52.3969 24.0377 52.3689 24.1663 52.0318 24.7428L51.7275 25.2632L51.415 25.0226C51.0992 24.7795 50.6826 24.5678 49.841 24.2229C49.0617 23.9034 49.1506 23.8666 50.7012 23.8666C51.5228 23.8666 52.1301 23.8945 52.2071 23.9358ZM24.8022 24.5938L24.9324 24.8863L24.7234 24.8445Àþ‘9)V  Àþ‘9)V                  €Y‚9)V          €xƒ9)V  (ÿ‘9)V          àþ‘9)V   @      àþ‘9)V          24.5299 24.2494 24.2584 24.4849 24.2822C24.6342 24.2973 24.6983 24.3602 24.8022 24.5938ZM56.0059 24.4181C56.1695 24.5009 56.3125 24.6182 56.3237 24.6787C56.341 24.7732 56.255 24.7928 55.7236 24.816C55.3824 24.8309 55.1001 24.8414 55.0963 24.8395C55.0925 24.8376 55.1462 24.7081 55.2155 24.5518C55.3662 24.2122 55.5403 24.1827 56.0059 24.4181ZM11.1433 26.7259C10.9465 27.5277 10.9307 27.6247 10.8664 28.4311C10.7541 29.8373 10.9941 31.4416 11.4948 32.6319C11.8219 33.4096 12.3858 34.2142 13.002 34.7827L13.5382 35.2774L12.717 35.3197C11.3801 35.3884 8.9069 35.7592 8.33774 35.9762L8.17444 36.0384L8.36807 36.2455C9.01765 36.9402 10.9004 38.2967 12.1592 38.9771L12.7988 39.3229L11.8139 39.8065C10.5074 40.448 8.99518 41.3962 8.99518 41.5738C8.99518 41.644 10.0026 42.1191 10.7622 42.4071C11.4363 42.6626 12.805 43.0909 13.1624 43.1581L13.3973 43.2023L12.8132 43.8166C11.9154 44.7609 10.9345 46.0168 11.0431 46.0829C11.2317 46.1974 13.1846 46.5139 14.4498 46.6349C14.8631 46.6745 14.93 46.6979 14.8912 46.7896C14.5279 47.6481 14.0641 49.2401 14.0632 49.6323L14.0627 49.8266L15.0796 49.7844C15.992 49.7466 16.8441 49.6641 17.3398 49.5656L17.5164 49.5306L17.5399 50.9328C17.5528 51.704 17.5825 52.3541 17.6059 52.3776C17.6664 52.4382 19.1066 52.1067 19.9077 51.8476L20.5852 51.6286L20.7336 52.0709C20.9172 52.6181 21.4399 53.8622 21.5752 54.0739C21.661 54.208 21.7101 54.2242 21.915 54.1857C22.281 54.1168 23.3251 53.7546 23.6877 53.5707C23.8656 53.4805 24.0159 53.4162 24.0219 53.4279C24.0279 53.4396 24.178 53.7508 24.3554 54.1195C24.8395 55.1255 24.7731 55.0843 25.2852 54.6956C25.8044 54.3016 26.3415 54.0868 26.9316 54.0373C28.4739 53.9078 30.0155 55.1 30.258 56.6099C30.425 57.6492 29.961 58.1166 28.1626 58.7205C27.5772 58.9171 26.9658 59.1458 26.8037 59.2289C26.2515 59.5119 25.8967 59.9646 25.3652 61.0643C24.7619 62.3126 24.5759 62.5739 24.1325 62.7953L23.7883 62.9674L23.9861 63.0699C24.513 63.3431 24.9896 63.2511 25.7074 62.7376C26.1665 62.4091 26.6981 62.1465 27.0523 62.0731L27.273 62.0274L27.219 62.4514C27.1435 63.044 27.1551 65.2995 27.2339 65.3756C27.2742 65.4144 27.4591 65.3396 27.726 65.1768C28.2094 64.8819 28.735 64.6695 29.1438 64.604C29.3985 64.5631 29.4165 64.5698 29.3665 64.6869C29.2901 64.8653 29.2416 66.9219 29.3096 67.0998C29.3643 67.2433 29.3741 67.2405 29.827 66.9544C30.7919 66.3447 32.0621 66.0972 33.4873 66.241C33.934 66.286 34.4646 66.3621 34.6663 66.41L35.033 66.497L34.633 66.5457C33.515 66.6819 32.9638 66.8727 32.895 67.1476C32.8707 67.2445 32.8999 67.4555 32.9627 67.6371C33.1343 68.1332 33.1626 68.7561 33.0378 69.2883C32.9103 69.8319 32.9292 69.8591 33.4373 69.8606C34.1307 69.8627 34.973 69.5005 35.4741 68.9846C35.771 68.679 35.7987 68.6649 35.8634 68.7863C35.952 68.9521 35.9533 69.6863 35.8655 70.0029C35.7774 70.3212 35.4699 70.7737 35.2273 70.9423L35.033 71.0773L35.3779 71.0415C35.9983 70.977 36.7074 70.5176 37.0703 69.945L37.2504 69.6606L37.5632 70.2194C37.7352 70.5267 38.0038 70.9238 38.1598 71.1017L38.4438 71.4251L38.6696 71.3313C38.9645 71.2088 39.5965 70.5618 39.8037 70.1703C39.8935 70.0005 39.9821 69.8616 40.0006 69.8616C40.019 69.8616 40.1077 70.0005 40.1975 70.1703C40.4046 70.5618 41.0366 71.2088 41.3315 71.3313L41.5574 71.4251L41.8413 71.1017C41.9974 70.9238 42.2659 70.5267 42.4379 70.2194L42.7507 69.6606L42.9309 69.945C43.2934 70.517 44.0017 70.9762 44.6232 71.0423L44.9681 71.0789L44.7328 70.9125C44.3483 70.6404 44.1142 70.1291 44.0807 69.4883C44.0635 69.1594 44.0817 68.891 44.1272 68.8058C44.1992 68.6709 44.2147 68.6781 44.5264 68.9906C45.04 69.5055 45.8763 69.8627 46.5638 69.8606C47.0719 69.8591 47.0909 69.8319 46.9634 69.2883C46.8385 68.7561 46.8668 68.1332 47.0384 67.6371C47.1012 67.4555 47.1304 67.2445 47.1061 67.1476C47.0373 66.8727 46.4861 66.6819 45.3682 66.5457L44.9681 66.497L45.3348 66.41C45.5365 66.3621 46.0671 66.286 46.5138 66.241C47.9391 66.0972 49.2092 66.3447 50.1741 66.9544C50.627 67.2405 50.6368 67.2433 50.6916 67.0998C50.7595 66.9219 50.711 64.8653 50.6347 64.6869C50.5846 64.5698 50.6026 64.5631 50.8573 64.604C51.2661 64.6695 51.7917 64.8819 52.2751 65.1768C52.5401 65.3384 52.7271 65.4143 52.7668 65.376C52.8445 65.3009 52.8573 63.1264 52.7837 62.4851L52.7312 62.0281L52.9504 62.0735C53.3031 62.1465 53.8353 62.4095 54.2938 62.7376C55.0116 63.2511 55.4881 63.3431 56.0151 63.0699L56.2129 62.9674L55.8762 62.7992C55.4211 62.5718 55.238 62.3176 54.6504 61.0977C54.1035 59.9624 53.7557 59.5149 53.1974 59.2289C53.0354 59.1458 52.4239 58.9171 51.8386 58.7205C50.0402 58.1166 49.5762 57.6492 49.7431 56.6099C49.9856 55.1 51.5272 53.9078 53.0696 54.0373C53.6596 54.0868 54.1967 54.3016 54.7159 54.6956C55.2281 55.0843 55.1617 55.1255 55.6458 54.1195C55.8232 53.7508 55.9732 53.4396 55.9792 53.4279C55.9852 53.4162 56.1356 53.4805 56.3135 53.5707C56.676 53.7546 57.7201 54.1168 58.0861 54.1857C58.2911 54.2242 58.3402 54.208 58.4259 54.0739C58.5612 53.8622 59.0839 52.6181 59.2675 52.0709L59.4159 51.6286L60.0934 51.8476C60.8887 52.1048 62.3346 52.4384 62.3943 52.3786C62.4171 52.3557 62.4472 51.7056 62.4611 50.9339L62.4864 49.5309L62.6621 49.5658C63.1574 49.6642 64.0098 49.7466 64.9216 49.7844L65.9384 49.8266V49.6229C65.9384 49.252 65.4701 47.6516 65.1094 46.7896C65.0711 46.698 65.1384 46.6744 65.5513 46.6349C66.812 46.5143 68.7692 46.1975 68.9567 46.0836C69.0718 46.0137 67.6626 44.2479 66.9156 43.5262L66.6092 43.2301L67.4858 42.9777C68.9453 42.5575 71.006 41.7363 71.006 41.5748C71.006 41.3962 69.4973 40.4498 68.1873 39.8065L67.2023 39.3229L67.8419 38.9771C69.1008 38.2967 70.9835 36.9402 71.6331 36.2455L71.8267 36.0384L71.6639 35.9764C71.1038 35.7629 68.5985 35.3872 67.2842 35.3196L66.4629 35.2774L66.9991 34.7827C67.924 33.9295 68.5313 32.8571 68.907 31.4144C69.0601 30.8264 69.0932 30.5363 69.1217 29.5359C69.1576 28.2734 69.0966 27.6151 68.8612 26.7246C68.7194 26.1877 68.6478 26.0953 68.5809 26.3625C68.5177 26.6151 67.722 27.8877 67.1186 28.7012C66.5195 29.509 65.3321 30.9493 65.0459 31.2154C64.8861 31.364 64.8716 31.4217 64.8716 31.9088C64.8716 32.9871 64.5092 34.7709 64.0767 35.8211L63.8752 36.3103L64.2234 36.4542C65.2025 36.8588 66.7045 37.6883 66.8316 37.8944C66.9024 38.0095 65.6602 39.2621 64.6153 40.1293L64.393 40.3138L64.9402 40.9315C65.781 41.8808 66.5481 42.8574 66.5202 42.943C66.4812 43.0624 65.2597 43.6813 64.3715 44.0318C63.9314 44.2054 63.5639 44.3521 63.5548 44.3578C63.5457 44.3634 63.6543 44.6363 63.7961 44.9643C64.1069 45.6827 64.5094 46.915 64.5718 47.3386L64.617 47.6461L63.9275 47.7258C63.5482 47.7698 62.7845 47.8239 62.2304 47.8463L61.2229 47.8869L61.1856 48.863C61.1361 50.158 61.0096 51.1448 60.8871 51.192C60.667 51.2766 58.9353 50.8427 58.1132 50.497C57.8983 50.4066 57.7158 50.3419 57.7077 50.3533C57.6996 50.3646 57.6096 50.6146 57.5079 50.9087C57.4061 51.2029 57.1431 51.798 56.9234 52.2311L56.524 53.0187L56.0797 52.5988C55.5459 52.0944 55.006 51.7267 54.4488 51.4879C54.0831 51.3312 53.9493 51.3111 53.2695 51.3105C52.5491 51.3099 52.4765 51.3223 52.0693 51.517C50.7404 52.1523 49.7305 53.7332 49.4743 55.5793C49.4314 55.8891 49.4022 57.3118 49.4022 59.0972C49.4022 62.3611 49.3645 62.8089 49.0323 63.4895C48.8244 63.9157 48.3345 64.3691 47.8955 64.5415C47.6058 64.6553 47.3099 64.6753 45.3015 64.7168C42.7788 64.769 42.4065 64.8237 41.5825 65.2638C41.0946 65.5244 40.4809 66.0767 40.2211 66.4891C40.1181 66.6524 40.0189 66.7861 40.0006 66.7861C39.9822 66.7861 39.883 66.6524 39.7801 66.4891C39.5202 66.0767 38.9065 65.5244 38.4186 65.2638C37.5947 64.8237 37.2224 64.769 34.6996 64.7168C32.6912 64.6753 32.3953 64.6553 32.1057 64.5415C31.6667 64.3691 31.1768 63.9157 30.9688 63.4895C30.6366 62.8089 30.5989 62.3611 30.5989 59.0972C30.5989 57.3118 30.5697 55.8891 30.5268 55.5793C30.2705 53.7323 29.2568 52.1461 27.9318 51.5191C27.3354 51.2369 26.4477 51.1906 25.7981 51.4079C25.1781 51.6153 24.5602 52.0017 23.9801 52.5449L23.4761 53.0168L23.0772 52.2302C22.8579 51.7975 22.5951 51.2029 22.4933 50.9087C22.3915 50.6146 22.3016 50.3646 22.2934 50.3533C22.2853 50.3419 22.1028 50.4066 21.888 50.497C21.0619 50.8444 19.3339 51.2765 19.1121 51.1912C18.9851 51.1424 18.8652 50.214 18.8156 48.8964L18.7775 47.8869L17.7704 47.8462C17.2164 47.8239 16.4522 47.7697 16.0721 47.7257L15.381 47.6457L15.42 47.3599C15.4736 46.9681 15.8918 45.687 16.2027 44.9625C16.3439 44.6335 16.4527 44.3614 16.4445 44.3577C16.4365 44.354 16.0697 44.2088 15.6297 44.035C14.7449 43.6856 13.5202 43.0631 13.481 42.943C13.453 42.8574 14.2202 41.8808 15.061 40.9315L15.6081 40.3138L15.3858 40.1293C14.341 39.2621 13.0987 38.0095 13.1696 37.8944C13.2965 37.6884 14.7987 36.8588 15.7765 36.4547L16.1234 36.3114L15.8977 35.7504C15.4786 34.7083 15.2095 33.4364 15.1512 32.2232L15.1111 31.3876L14.8025 31.0533C13.5662 29.7144 12.2247 27.8947 11.5632 26.6591L11.2866 26.1423L11.1433 26.7259ZM0.708744 27.9948C0.111573 29.3456 -0.0875282 30.9954 0.186186 32.3247C0.412692 33.4252 0.944384 34.448 1.75526 35.3433C3.11409 36.8435 5.97026 38.129 9.51914 38.8375C9.89901 38.9134 10.2265 38.9754 10.247 38.9754C10.2675 38.9754 10.1066 38.8509 9.88974 38.6987C8.83576 37.9593 8.15117 37.3659 7.50572 36.632C7.10439 36.1757 7.0085 36.1055 6.51142 35.9034C5.65407 35.5549 4.41572 34.9195 3.80715 34.5158C3.21951 34.126 2.79084 33.6546 2.65848 33.2527C2.5814 33.0185 2.59767 32.3979 2.68309 32.3123C2.70596 32.2893 2.85285 32.3806 3.00948 32.5149C4.11974 33.4679 5.53218 34.4277 6.71399 35.032L7.36157 35.3631L7.99501 35.1626C8.53177 34.9926 9.46053 34.7917 10.6288 34.5927C10.8872 34.5487 10.8903 34.5451 10.7288 34.4769C7.15313 32.9663 3.39221 30.4135 1.45814 28.1844C1.18443 27.8689 0.942051 27.6107 0.91958 27.6106C0.897043 27.6104 0.80216 27.7833 0.708744 27.9948ZM78.543 28.1844C76.8354 30.1525 73.3264 32.6389 70.3392 33.9974C69.8441 34.2226 69.364 34.4384 69.2723 34.477C69.1109 34.5451 69.114 34.5487 69.3723 34.5927C70.5406 34.7917 71.4694 34.9926 72.0061 35.1626L72.6396 35.3631L73.3008 35.025C74.471 34.4265 75.7578 33.5516 76.9684 32.5314C77.1382 32.3883 77.2956 32.2898 77.3184 32.3126C77.4035 32.398 77.4195 33.0189 77.3427 33.2527C77.2103 33.6546 76.7816 34.126 76.194 34.5158C75.5854 34.9195 74.3471 35.5549 73.4897 35.9034C73.0002 36.1024 72.8936 36.1792 72.5229 36.5999C71.8543 37.3584 71.1576 37.9648 70.1114 38.6987C69.8945 38.8509 69.7337 38.9754 69.7541 38.9754C69.8941 38.9754 71.3216 38.663 72.0395 38.4753C73.9287 37.9812 75.8137 37.1977 76.9737 36.4245C78.0421 35.7122 79.0182 34.5478 79.4809 33.4332C80.0403 32.0859 80.0847 30.4272 79.6036 28.8441C79.4448 28.3216 79.1438 27.6102 79.0816 27.6106C79.0591 27.6107 78.8167 27.8689 78.543 28.1844ZM27.365 27.9098C26.3228 28.2197 25.4037 28.6624 23.8149 29.6198C23.2141 29.9818 22.5519 30.3429 22.3434 30.4222C21.7551 30.6457 21.1996 30.724 20.8198 30.6368C20.6425 30.5962 20.4875 30.5728 20.4754 30.5849C20.4634 30.597 20.5683 30.7346 20.7087 30.8907C21.1917 31.4278 21.8493 31.6042 22.5698 31.3897C22.7512 31.3356 23.5144 30.927 24.2656 30.4817C25.0168 30.0363 25.6783 29.6462 25.7357 29.6148C25.8273 29.5646 25.8321 29.5958 25.7755 29.873C25.7401 30.0464 25.7328 30.304 25.7592 30.4455L25.8073 30.7027L26.0861 30.4193C26.4591 30.0401 26.8204 29.7968 27.4811 29.4802C28.0461 29.2094 28.9265 28.9493 29.2927 28.945L29.4987 28.9426L29.2987 28.7728C28.9386 28.4671 27.9791 27.744 27.9383 27.7476C27.9164 27.7496 27.6584 27.8226 27.365 27.9098ZM51.4614 28.1745C51.154 28.4101 50.8124 28.6794 50.7024 28.7728L50.5024 28.9426L50.7084 28.945C51.5055 28.9543 53.08 29.6477 53.7666 30.2917L54.1954 30.6938L54.2428 30.4411C54.2688 30.302 54.2607 30.0447 54.2248 29.8692L54.1597 29.5501L54.4314 29.7113C57.3182 31.424 57.4502 31.4885 58.0658 31.4872C58.474 31.4863 58.9767 31.2419 59.2925 30.8907C59.4328 30.7346 59.5378 30.597 59.5257 30.5849C59.5136 30.5728 59.3587 30.5962 59.1814 30.6368C58.8015 30.724 58.2461 30.6457 57.6578 30.4222C57.4492 30.3429 56.7741 29.9734 56.1575 29.6013C54.8706 28.8243 53.809 28.2993 52.9608 28.0204C51.9936 27.7023 52.0905 27.6923 51.4614 28.1745ZM34.4061 28.9435C34.4811 29.2782 34.7393 29.9706 34.9254 30.3364C35.003 30.4888 35.0664 30.6492 35.0664 30.6928C35.0664 30.8173 33.9733 30.7179 33.481 30.5486C33.0314 30.394 32.3225 29.9137 32.197 29.6787C32.0837 29.4665 32.0116 29.5912 31.9352 30.1318C31.8516 30.7225 31.896 31.0875 32.1417 31.8318C32.4354 32.7216 32.6064 33.8464 32.6204 34.9808C32.6272 35.5231 32.6373 35.9669 32.643 35.9669C32.6486 35.967 32.7888 35.7339 32.9545 35.4489C33.3432 34.7805 33.6762 33.9645 33.93 33.0582C34.0414 32.6605 34.144 32.3235 34.1581 32.3093C34.1894 32.2781 35.0805 33.2562 35.4762 33.7561L35.7636 34.1191L35.9164 33.1879C36.0005 32.6757 36.0826 32.2194 36.0988 32.174C36.1178 32.1211 36.2877 32.2121 36.5703 32.4266C37.351 33.0191 38.9322 33.8515 39.0508 33.7326C39.1728 33.6102 38.373 31.3331 37.8149 30.2137L37.4335 29.4488L36.8667 29.4325C35.9412 29.4058 35.1087 29.1834 34.5562 28.8153L34.346 28.6752L34.4061 28.9435ZM45.3962 28.841C44.8863 29.1884 44.0585 29.4057 43.1428 29.4325L42.5845 29.4488L42.2945 29.9837C41.7785 30.9356 40.8198 33.6018 40.9476 33.7298C41.0687 33.8513 42.6406 33.0263 43.4308 32.4266C43.7134 32.2121 43.8834 32.1211 43.9023 32.174C43.9185 32.2194 43.9999 32.6701 44.0832 33.1754L44.2346 34.0941L44.8138 33.4094C45.1324 33.0328 45.4978 32.6231 45.6258 32.4989L45.8586 32.2733L45.9342 32.5658C46.2491 33.7846 46.5913 34.6732 47.0437 35.4469C47.211 35.733 47.3525 35.967 47.3582 35.967C47.3638 35.9669 47.3736 35.5231 47.3797 34.9809C47.3926 33.8484 47.563 32.7299 47.8595 31.8318C48.1028 31.0944 48.1425 30.7707 48.065 30.1543C47.9949 29.5976 47.9201 29.4613 47.8041 29.6787C47.6786 29.9137 46.9698 30.394 46.5202 30.5486C46.0278 30.7179 44.9348 30.8173 44.9348 30.6928C44.9348 30.6492 44.9982 30.4888 45.0757 30.3364C45.3144 29.8673 45.7212 28.68 45.6433 28.68C45.6373 28.68 45.5262 28.7524 45.3962 28.841ZM16.2254 31.1198C16.199 31.2613 16.1968 31.7404 16.2206 32.1845C16.3053 33.7671 16.5887 34.9821 17.1232 36.0547L17.4501 36.7108L17.2734 36.7772C16.8003 36.9551 15.8298 37.4255 15.245 37.7604L14.5937 38.1334L14.9783 38.5267C15.3244 38.8807 16.3142 39.7166 16.827 40.0879L17.0242 40.2307L16.2566 41.034C15.3126 42.0219 14.8835 42.5661 14.9756 42.6584C15.0812 42.7643 16.1942 43.2297 17.0454 43.524C17.4731 43.6718 17.8323 43.8023 17.844 43.8139C17.8556 43.8256 17.6531 44.2444 17.394 44.7446C16.9848 45.5348 16.5298 46.6131 16.5298 46.7929C16.5298 46.8679 17.4793 46.9345 18.7873 46.9513L19.8112 46.9644L19.8009 47.9208C19.7953 48.4468 19.8113 49.1312 19.8364 49.4417C19.8904 50.1092 19.8463 50.0911 20.7972 49.8358C21.3186 49.6958 21.8324 49.5089 22.8476 49.0903C22.8941 49.0711 22.9309 49.1039 22.9309 49.1646C22.9309 49.3351 23.3926 50.7289 23.6066 51.2043L23.7998 51.6337L23.9821 51.4623C24.1859 51.2706 24.792 50.8828 25.098 50.7482C25.8183 50.4314 26.7181 50.3348 27.4146 50.4994C28.6406 50.7892 29.634 51.6099 30.2977 52.8809L30.5945 53.4491L30.5967 49.0836C30.5991 44.2765 30.5877 44.4106 31.0069 44.264C31.3073 44.1591 48.6938 44.1591 48.9942 44.264C49.4134 44.4106 49.402 44.2765 49.4044 49.0836L49.4066 53.4491L49.7034 52.8809C50.3756 51.5937 51.3452 50.7929 52.5872 50.4993C53.2831 50.3348 54.1831 50.4315 54.9032 50.7482C55.2091 50.8828 55.8152 51.2706 56.019 51.4623L56.2013 51.6337L56.3946 51.2043C56.6085 50.7289 57.0702 49.3351 57.0702 49.1646C57.0702 49.1039 57.107 49.0711 57.1535 49.0903C58.1687 49.5089 58.6825 49.6958 59.2039 49.8358C60.1549 50.0911 60.1107 50.1092 60.1647 49.4417C60.1899 49.1312 60.2059 48.45 60.2003 47.9278L60.1902 46.9784L61.2011 46.9925C62.221 47.0066 63.4713 46.8957 63.4713 46.7909C63.4713 46.6129 63.0144 45.5309 62.6071 44.7446C62.348 44.2444 62.1439 43.8299 62.1535 43.8235C62.1632 43.8171 62.5462 43.6826 63.0046 43.5246C63.9175 43.2099 65.0716 42.6954 65.0716 42.6031C65.0716 42.5043 64.3453 41.652 63.6415 40.9251L62.9726 40.2339L63.1719 40.0895C63.6872 39.7163 64.6762 38.8812 65.0234 38.5261L65.4087 38.1321L64.7567 37.7617C64.1647 37.4254 63.1775 36.9464 62.7278 36.7772L62.5511 36.7108L62.8779 36.0547C63.4124 34.9821 63.6958 33.7671 63.7806 32.1845C63.8044 31.7404 63.8022 31.2613 63.7757 31.1198L63.7276 30.8628L63.435 31.4119C62.3803 33.3909 60.418 35.4164 57.8269 37.2005C56.8728 37.8574 56.7069 38.0966 56.7556 38.7452C56.7799 39.0689 56.8677 39.317 57.193 39.982C57.6621 40.941 57.8187 41.5247 57.8152 42.302C57.8015 45.3627 54.1399 47.1121 50.7403 45.6821L50.3114 45.5016L50.6403 45.4258C51.2823 45.2778 51.823 44.9082 52.1472 44.3955C52.4Àþ‘9)V  Àþ‘9)V                  €Y‚9)V          €xƒ9)V  (ÿ‘9)V          àþ‘9)V   @      àþ‘9)V          58 50.5706 43.5531 50.6936 43.4691C50.9053 43.3246 51.1992 42.8942 51.1322 42.827C51.1151 42.8098 50.9363 42.8528 50.735 42.9224C50.3135 43.0683 49.5818 43.0928 49.187 42.9742C49.0417 42.9305 48.8346 42.8121 48.7266 42.7109C48.5731 42.5672 48.4204 42.5103 48.0276 42.4506C46.6476 42.2409 45.2256 41.3664 44.5184 40.2924L44.3511 40.0382L44.2111 40.5598C44.0801 41.0478 43.9313 41.7526 43.8358 42.3366L43.7945 42.5891L43.3886 42.2697C42.7043 41.7314 41.8692 40.6945 41.6052 40.0556C41.5572 39.9395 41.4976 39.8445 41.4727 39.8445C41.3255 39.8445 40.3859 41.6774 40.1618 42.4016C40.0964 42.6131 40.0258 42.786 40.0048 42.786C39.9839 42.786 39.8964 42.583 39.8105 42.3348C39.5204 41.4972 38.6734 39.8445 38.5342 39.8445C38.5125 39.8445 38.417 40.0034 38.322 40.1976C38.0408 40.7726 37.3511 41.631 36.7731 42.1255L36.2332 42.5873L36.1874 42.4026C36.1622 42.301 36.0948 41.9647 36.0377 41.6554C35.9806 41.346 35.87 40.8556 35.792 40.5656L35.6501 40.0382L35.4827 40.2924C34.7755 41.3664 33.3535 42.2409 31.9735 42.4506C31.5807 42.5103 31.428 42.5672 31.2746 42.7109C31.1666 42.8121 30.9594 42.9305 30.8142 42.9742C30.4193 43.0928 29.6876 43.0683 29.2661 42.9224C29.0648 42.8528 28.886 42.8098 28.869 42.827C28.8019 42.8942 29.0959 43.3246 29.3076 43.4691C29.4305 43.5531 29.5313 43.6458 29.5316 43.6753C29.5331 43.8523 28.4669 44.0658 27.9635 43.9891C27.6051 43.9346 27.5923 43.9819 27.8539 44.3955C28.1782 44.9082 28.7188 45.2778 29.3609 45.4258L29.6897 45.5016L29.2608 45.6821C27.7843 46.3031 26.0252 46.3442 24.6939 45.7885C23.0969 45.1219 22.1717 43.82 22.18 42.2512C22.1841 41.4841 22.3283 40.9689 22.8161 39.9782C23.2004 39.1978 23.2277 39.1116 23.2293 38.6746C23.2317 38.0077 23.1007 37.8269 22.1414 37.1739C19.6166 35.4551 17.6201 33.3895 16.5589 31.3982L16.2735 30.8628L16.2254 31.1198ZM36.6128 34.1787C36.5722 34.4821 36.5215 34.9559 36.5004 35.2316C36.4792 35.5074 36.4455 35.8929 36.4256 36.0882L36.3893 36.4434L36.063 35.9684C35.6262 35.3327 35.2112 34.7958 34.8456 34.3936C34.5742 34.0949 34.5392 34.0751 34.4959 34.1954C34.3189 34.6875 33.9316 35.4937 33.5826 36.0969C33.2015 36.7555 33.1752 36.8276 33.1903 37.1748C33.2113 37.659 33.0864 38.8789 32.9599 39.4262C32.8273 39.9991 32.5651 40.6891 32.3631 40.9963C32.273 41.1334 32.1992 41.2651 32.1992 41.2889C32.1992 41.3785 32.781 41.2363 33.1841 41.0482C34.2076 40.5705 35.1781 39.4956 35.5686 38.4072C35.6345 38.2233 35.7114 38.0465 35.7394 38.0143C35.818 37.9235 36.6467 39.6831 36.7883 40.2414L36.9144 40.7386L37.1302 40.442C37.4075 40.0607 37.9419 38.9419 38.134 38.3403C38.2162 38.0829 38.3022 37.8515 38.3252 37.8259C38.3967 37.7465 39.6202 39.5735 39.9664 40.2764C39.9882 40.3207 40.0146 40.3158 40.0393 40.2629C40.3196 39.6618 41.6053 37.7474 41.6759 37.8259C41.6989 37.8515 41.7849 38.0829 41.8672 38.3403C42.0593 38.9419 42.5936 40.0607 42.8709 40.442L43.0867 40.7386L43.2128 40.2414C43.3544 39.6831 44.1832 37.9235 44.2618 38.0143C44.2897 38.0465 44.3666 38.2233 44.4325 38.4072C44.823 39.4956 45.7936 40.5705 46.8171 41.0482C47.2201 41.2363 47.8019 41.3785 47.8019 41.2889C47.8019 41.2651 47.7271 41.1322 47.6358 40.9938C47.1915 40.3207 46.8842 39.0328 46.8305 37.6182L46.798 36.7625L46.404 36.0767C46.0668 35.4897 45.6784 34.6768 45.5052 34.1954C45.4619 34.0751 45.427 34.0949 45.1555 34.3936C44.7899 34.7958 44.3749 35.3327 43.9381 35.9684L43.6118 36.4434L43.5777 36.0882C43.4714 34.9813 43.3245 33.6617 43.3055 33.6426C43.2933 33.6305 43.1674 33.7001 43.0256 33.7974C42.6228 34.0735 41.885 34.4317 41.3008 34.6345C40.8844 34.7791 40.7344 34.8671 40.6173 35.0357C40.4606 35.2611 40.0672 36.4058 40.0672 36.6364C40.0672 36.7094 40.0372 36.7693 40.0006 36.7693C39.9639 36.7693 39.9339 36.7094 39.9339 36.6364C39.9339 36.4058 39.5405 35.2611 39.3839 35.0357C39.2664 34.8667 39.1171 34.7794 38.6969 34.6339C38.0822 34.4212 37.2654 34.0249 36.9545 33.7885C36.8378 33.6998 36.7298 33.6272 36.7145 33.6272C36.6993 33.6272 36.6536 33.8753 36.6128 34.1787ZM0.0213574 37.4264C-0.00418035 37.6309 -0.00724756 38.1006 0.0144896 38.4703C0.109773 40.0919 0.711611 41.3498 1.83794 42.2812C2.98694 43.2315 4.44259 43.617 7.19487 43.6997C8.45442 43.7375 10.0498 43.6636 10.827 43.5314L11.0917 43.4863L10.3269 43.1929C9.90614 43.0315 9.21689 42.7265 8.79515 42.515L8.02835 42.1304L6.85101 42.0575C5.02449 41.9444 4.22689 41.7201 3.79855 41.1991C3.63012 40.9942 3.42121 40.3968 3.49289 40.325C3.5053 40.3125 3.81075 40.3973 4.17161 40.5134C5.21166 40.848 7.1954 41.2493 7.80351 41.2481C7.89913 41.248 8.17271 41.0749 8.4951 40.8107C8.78848 40.5703 9.2653 40.217 9.55475 40.0255L10.081 39.6774L9.55475 39.6284C9.2653 39.6016 8.69846 39.5479 8.29506 39.5092C6.18376 39.3067 3.13296 38.4516 0.914113 37.4404L0.0676321 37.0546L0.0213574 37.4264ZM79.2284 37.3794C76.6479 38.5901 73.6962 39.351 70.5126 39.6261L69.9193 39.6774L70.4459 40.0255C70.7356 40.217 71.2127 40.5703 71.506 40.8107C71.8284 41.0749 72.102 41.248 72.1976 41.2481C72.8057 41.2493 74.7895 40.848 75.8295 40.5134C76.1904 40.3973 76.4958 40.3125 76.5082 40.325C76.5799 40.3968 76.371 40.9942 76.2026 41.1991C75.7743 41.7201 74.9766 41.9444 73.1501 42.0575L71.9728 42.1304L71.206 42.515C70.7842 42.7265 70.095 43.0315 69.6743 43.1929L68.9094 43.4863L69.1742 43.5314C69.9514 43.6636 71.5467 43.7375 72.8063 43.6997C74.9044 43.6366 76.1763 43.4083 77.1792 42.9146C78.4997 42.2647 79.4361 41.1117 79.8117 39.6735C79.9654 39.0849 80.0545 37.6896 79.9632 37.2994L79.9075 37.0607L79.2284 37.3794ZM10.7523 44.2611C10.0659 44.4258 8.98198 44.5735 7.79497 44.6643C6.60083 44.7556 3.98098 44.7015 2.99414 44.5651C2.64575 44.5169 2.35203 44.4843 2.34136 44.4924C2.27562 44.543 2.5546 45.5205 2.7531 45.9348C3.39721 47.2793 4.55061 48.255 5.86231 48.565C7.1508 48.8694 9.4844 48.5307 12.3958 47.6165C13.2599 47.3452 13.2701 47.3649 12.1624 47.1647C11.8323 47.105 11.2674 46.9826 10.9069 46.8926C10.5464 46.8027 10.23 46.7424 10.2037 46.7587C10.1086 46.8176 8.81335 47.0552 8.17524 47.1307C7.14973 47.2522 6.5709 47.0677 6.26491 46.5219C6.18963 46.3876 6.12802 46.2639 6.12802 46.2471C6.12802 46.2303 6.65258 46.1968 7.29369 46.1725C7.9348 46.1482 8.79748 46.0824 9.21069 46.0262C9.83553 45.9413 9.98189 45.8991 10.0799 45.7757C10.3594 45.4239 11.2648 44.1708 11.2476 44.1593C11.2374 44.1524 11.0144 44.1982 10.7523 44.2611ZM68.7389 44.1597C68.7389 44.1795 69.7377 45.5447 69.9212 45.7757C70.0192 45.8991 70.1656 45.9413 70.7904 46.0262C71.2037 46.0824 72.0663 46.1482 72.7074 46.1725C73.3486 46.1968 73.8731 46.2303 73.8731 46.2471C73.8731 46.2639 73.8115 46.3876 73.7362 46.5219C73.4302 47.0677 72.8514 47.2522 71.8259 47.1307C71.1878 47.0552 69.8925 46.8176 69.7974 46.7587C69.7711 46.7424 69.4548 46.8033 69.0942 46.8941C68.7338 46.9848 68.0963 47.1205 67.6777 47.1955C67.2591 47.2705 66.904 47.3444 66.8886 47.3599C66.8166 47.4321 69.2337 48.1153 70.4392 48.3634C72.2079 48.7274 73.6226 48.7664 74.4732 48.4745C75.4523 48.1386 76.3179 47.45 76.9049 46.5401C77.234 46.03 77.5581 45.2281 77.6324 44.74C77.6736 44.4686 77.6683 44.456 77.5247 44.4886C76.6682 44.6832 73.7298 44.7803 72.2062 44.6644C71.0102 44.5734 69.99 44.4345 69.2556 44.2628C68.9714 44.1963 68.7389 44.1499 68.7389 44.1597ZM31.5511 44.9931C31.4697 45.0262 31.3862 45.1222 31.3656 45.2066C31.345 45.2909 31.3366 49.2257 31.3469 53.9505C31.364 61.7484 31.3759 62.5677 31.4759 62.829C31.644 63.2681 31.9048 63.6037 32.2168 63.7824C32.4954 63.9418 32.5299 63.9446 34.733 63.9863C36.0051 64.0104 37.1389 64.0629 37.3668 64.1081C38.3807 64.3098 39.1648 64.6889 39.6654 65.2197L40.0044 65.5791L40.2525 65.3027C40.7283 64.7729 41.5538 64.3558 42.56 64.1372C42.9024 64.0628 43.6561 64.0212 45.2682 63.9876C47.6942 63.9371 47.6913 63.9375 48.0934 63.5343C48.3391 63.288 48.501 62.9601 48.5939 62.5212C48.647 62.2697 48.6687 59.707 48.6687 53.6926C48.6687 46.4796 48.6547 45.199 48.5741 45.0885C48.4814 44.9614 48.3099 44.9585 40.0893 44.9459C35.2425 44.9385 31.6366 44.9584 31.5511 44.9931ZM36.0695 46.189C36.2789 46.536 36.5238 46.857 36.6164 46.9056C36.8401 47.0231 37.0825 47.5118 36.9968 47.6724C36.9619 47.7377 36.9334 47.8455 36.9334 47.9118C36.9334 47.978 37.9742 49.7722 39.2462 51.8989C41.0888 54.9794 41.5396 55.7778 41.4633 55.8257C41.206 55.9869 40.0245 56.153 39.1004 56.1578L38.367 56.1617L38.1464 56.5436L37.9259 56.9255L38.1911 56.6664C38.4524 56.4112 38.4618 56.4081 38.8284 56.454C39.033 56.4796 39.2004 56.515 39.2004 56.5325C39.2004 56.6412 38.9433 57.0189 38.5675 57.4622C38.3288 57.7438 38.1336 58.0095 38.1336 58.0527C38.1336 58.138 38.352 58.4752 38.7434 58.9935C38.9553 59.2744 39.0449 59.3368 39.3464 59.4132C39.5778 59.4719 39.7434 59.5609 39.8241 59.6702C39.9944 59.9004 40.2795 60.0353 40.5807 60.0282L40.834 60.0221L40.6007 59.9558C40.4723 59.9194 40.2994 59.8263 40.2165 59.749C39.9285 59.4804 39.8771 58.863 40.1067 58.4297L40.1953 58.2626L40.1979 58.4421C40.2016 58.6876 40.315 58.9681 40.4834 59.1484C40.7048 59.3853 40.7297 59.3257 40.5533 58.9812C40.3488 58.5817 40.3656 58.0257 40.5972 57.5272L40.7526 57.1929L40.8648 57.6609C40.9986 58.219 41.152 58.5325 41.3409 58.6339C41.47 58.7031 41.4676 58.6877 41.3068 58.4126C41.0387 57.954 40.9628 57.4583 41.0922 57.012C41.1506 56.8106 41.2645 56.5615 41.3452 56.4586L41.4921 56.2714L41.5739 56.6736C41.6944 57.2658 41.8304 57.4798 42.5751 58.2491C43.3094 59.0078 43.5331 59.3827 43.6702 60.0843C43.7634 60.561 43.8864 60.6234 44.171 60.338C44.2958 60.2129 44.3347 60.1032 44.3347 59.876C44.3347 59.5665 44.2918 59.5109 43.7696 59.1434C43.6743 59.0764 43.5072 58.8322 43.3982 58.6008C43.2346 58.2537 43.1476 58.1524 42.9005 58.021C42.5802 57.8506 42.543 57.7978 42.7008 57.7371C42.7775 57.7076 42.6629 57.4863 42.2048 56.7792C41.7734 56.1135 41.6278 55.8371 41.6771 55.7774C41.7265 55.7177 41.1333 54.6731 39.5119 51.9649L37.2785 48.2346L37.5372 48.2141C37.6795 48.2029 37.9077 48.2246 38.0443 48.2625C38.181 48.3003 38.3031 48.3209 38.3157 48.3083C38.3283 48.2956 38.3038 48.2088 38.2613 48.1153C38.1918 47.9623 38.21 47.9139 38.4422 47.633C38.7561 47.2535 38.9737 47.1315 39.3371 47.1315C39.5629 47.1315 39.6556 47.1734 39.8405 47.3588C40.1485 47.6676 40.1417 47.8944 39.8116 48.3121C39.671 48.4901 39.5063 48.6768 39.4455 48.727C39.3461 48.8091 39.3793 48.8594 39.7801 49.2326L40.2251 49.6472L40.1129 50.0483C39.9978 50.4594 39.9598 51.1427 40.052 51.1427C40.0804 51.1427 40.1412 50.9435 40.1873 50.7001C40.3534 49.8219 40.8954 49.0279 41.5603 48.6885C42.0191 48.4542 42.7076 48.4056 43.2307 48.5706C43.5294 48.6648 43.7233 48.7976 44.1706 49.2141C44.5206 49.54 44.7899 49.7388 44.8813 49.7388C45.016 49.7388 45.0078 49.76 44.7852 49.9895C44.6313 50.1481 44.5186 50.3451 44.4784 50.5256C44.4435 50.6827 44.3593 50.8933 44.2914 50.9936C44.2235 51.094 44.059 51.477 43.9258 51.8447C43.6617 52.5737 43.537 52.6828 43.2719 52.417C43.1667 52.3116 43.1344 52.1937 43.1344 51.9148C43.1344 51.5925 42.986 50.8379 42.9071 50.7588C42.8331 50.6846 42.5795 50.8405 42.4633 51.0317C42.2802 51.3328 42.3006 51.4879 42.5949 52.0316C42.7382 52.2965 42.9089 52.6865 42.9741 52.8985C43.1257 53.3911 43.0738 53.4512 42.5042 53.4431C41.739 53.4322 40.8663 52.8982 40.3897 52.1491C40.201 51.8526 40.2006 51.8523 40.2006 52.0524C40.2006 52.3461 40.5017 52.9029 40.813 53.1849C41.1756 53.5134 41.5495 53.6697 42.1898 53.7605C42.6306 53.8229 42.7358 53.8617 42.8022 53.9861C42.8921 54.1546 43.1756 54.3085 43.2785 54.2448C43.3165 54.2212 43.3363 54.0157 43.3238 53.7733C43.2993 53.2962 43.3516 53.2188 43.7012 53.215C43.8112 53.2138 44.1106 53.1684 44.3665 53.114C44.6224 53.0597 44.8837 53.0318 44.9473 53.052C45.0109 53.0722 45.1673 53.2601 45.2948 53.4695C45.4223 53.6789 45.6959 54.0157 45.9027 54.2179C46.4051 54.7094 46.4684 54.8472 46.4684 55.4514V55.9561H46.2832C46.1813 55.9561 46.0325 55.9102 45.9527 55.8541C45.8259 55.7651 45.8091 55.6968 45.8211 55.3203L45.8349 54.8886L45.3866 54.4387C44.9709 54.0215 44.9186 53.9896 44.6666 53.9997C44.4297 54.0092 43.6679 54.2939 43.6679 54.373C43.6679 54.3888 43.9305 54.3868 44.2513 54.3686C45.0402 54.324 45.0875 54.3654 45.3013 55.2876C45.3908 55.6737 45.5235 56.2075 45.5962 56.4738L45.7283 56.9581L45.5253 57.3931C45.4136 57.6323 45.2992 57.828 45.271 57.828C45.1893 57.828 44.8765 57.4921 44.8345 57.3592C44.8134 57.2927 44.8572 57.1378 44.9319 57.015C45.1033 56.7332 45.1033 56.4855 44.932 55.9295C44.7438 55.3186 44.616 55.2393 44.0493 55.3817C43.8165 55.4403 43.3614 55.4882 43.0379 55.4882C42.4541 55.4882 41.9342 55.5889 41.9342 55.702C41.9342 55.7653 43.0673 57.5606 43.1072 57.5606C43.1476 57.5606 42.9981 57.2029 42.9164 57.1043C42.8564 57.0318 42.8673 56.9908 42.9664 56.9183C43.1628 56.7742 43.2493 56.8026 43.5907 57.1227C43.7652 57.2863 44.0415 57.4787 44.2046 57.5503C44.3679 57.6218 44.6514 57.8374 44.8347 58.0293C45.1563 58.3658 45.8336 58.7638 46.085 58.7639C46.1491 58.764 46.2016 58.7906 46.2016 58.823C46.2016 58.9101 45.9449 58.9621 45.7083 58.9229L45.5015 58.8887L45.7349 59.0999L45.9683 59.311L45.5515 59.2649C45.195 59.2255 45.1348 59.2342 45.1348 59.3257C45.1348 59.4035 45.1991 59.4325 45.3719 59.4325C45.5897 59.4325 45.6201 59.4576 45.7452 59.7411C45.8913 60.0722 45.9379 60.6937 45.8484 61.119C45.8196 61.2561 45.6896 61.508 45.5595 61.679L45.3228 61.9898L45.685 61.9444C46.041 61.8998 46.0502 61.9031 46.2244 62.1321C46.4369 62.4114 46.4411 62.4409 46.2683 62.4409C46.1784 62.4409 46.135 62.4855 46.135 62.5776C46.135 62.695 46.1043 62.709 45.9183 62.677C45.5171 62.6078 44.971 62.6142 44.5393 62.6932C43.9068 62.8089 43.6325 62.6901 43.8015 62.3736C43.838 62.3051 43.8679 62.2321 43.8679 62.2113C43.8679 62.1905 43.5604 62.181 43.1845 62.1902C42.5334 62.2061 42.5021 62.2006 42.5237 62.0732C42.6382 61.3989 42.5848 61.1391 42.283 60.901C42.027 60.6992 42.007 60.7405 42.1855 61.1022C42.3824 61.5011 42.3529 61.8023 42.0913 62.0646L41.9182 62.2383L42.1262 62.4213C42.3638 62.6303 42.4168 62.8241 42.2053 62.7106C42.0092 62.6054 41.881 62.6273 41.8346 62.774C41.7959 62.8964 41.7808 62.8988 41.6383 62.8051C41.5218 62.7286 41.3303 62.7084 40.8589 62.7227C40.3394 62.7385 40.2339 62.7248 40.2339 62.6415C40.2339 62.5863 40.3308 62.496 40.4492 62.4409C40.663 62.3413 40.7354 62.2403 40.5929 62.2403C40.552 62.2403 40.1809 61.9099 39.7682 61.506C38.754 60.5132 38.2683 60.2927 37.6025 60.5226C37.3288 60.6171 37.0667 60.9742 37.0667 61.2526C37.0667 61.6623 37.6368 61.9936 37.8955 61.7342C38.0474 61.5818 38.0264 61.4862 37.8607 61.5751C37.6545 61.6857 37.4096 61.5995 37.3593 61.3987C37.2908 61.1249 37.4267 60.9192 37.7306 60.8372C38.5553 60.6145 39.3012 61.511 38.8746 62.2123C38.6883 62.5186 38.3207 62.6715 37.7668 62.6733C37.3662 62.6747 37.2481 62.6455 36.9334 62.4672C36.4089 62.1703 36.1761 61.7769 36.1437 61.1326C36.1302 60.8656 36.1532 60.5436 36.1948 60.4172C36.3641 59.9032 36.9547 59.4242 37.6513 59.2361C37.8065 59.1942 37.9335 59.1211 37.9335 59.0737C37.9335 58.9605 37.5378 58.3628 37.4629 58.3628C37.4309 58.3628 37.373 58.3032 37.334 58.2303C37.2784 58.126 37.2992 58.0269 37.4317 57.7646C37.6977 57.2384 37.6572 57.1923 37.1931 57.493C36.8318 57.7271 36.1622 58.0286 36.0033 58.0286C35.9713 58.0286 35.87 58.118 35.7783 58.2273C35.6464 58.3844 35.6015 58.5331 35.5637 58.938C35.518 59.427 35.5256 59.4703 35.7342 59.9026C36.0096 60.4735 35.9791 60.5836 35.5529 60.556C35.2628 60.5372 35.2347 60.5197 35.1967 60.335C35.1739 60.2247 35.1091 60.0442 35.0524 59.9339C34.9704 59.7739 34.9524 59.5181 34.9638 58.6689L34.978 57.6045L35.3388 57.3282C35.9994 56.8221 36.1376 56.423 35.8694 55.7956C35.7976 55.6277 35.7044 55.3018 35.6623 55.0715C35.6203 54.841 35.5739 54.5868 35.5593 54.5066C35.5274 54.3308 35.2976 54.2425 35.1632 54.3543C35.0226 54.4713 35.0438 54.7437 35.2331 55.2478C35.4432 55.8076 35.4458 56.2218 35.2419 56.6608C35.0042 57.1726 34.4919 57.5418 33.8662 57.6521C33.6346 57.693 33.6339 57.6924 33.7794 57.5768C34.1367 57.2929 34.1128 56.9238 33.6673 55.8507C33.3207 55.0155 33.2245 54.5419 33.326 54.1708C33.586 53.2208 34.6952 52.9897 35.6666 53.6832L35.8571 53.8192L36.0361 53.6528C36.2547 53.4498 36.778 53.2472 37.363 53.1391C37.7993 53.0585 37.8002 53.0578 37.8002 52.8325C37.8002 52.7084 37.8469 52.5162 37.904 52.4055C37.9882 52.2422 37.9935 52.1607 37.9322 51.9743C37.8906 51.8478 37.8315 51.7444 37.801 51.7444C37.712 51.7444 37.4571 52.3239 37.4182 52.6146C37.3832 52.8763 37.3779 52.8809 37.1079 52.8801C36.7187 52.8789 36.2126 52.731 35.7577 52.4852C35.0505 52.1032 35.072 52.1554 35.3906 51.5961L35.6678 51.1093L35.417 51.3767C3Àþ‘9)V  Àþ‘9)V                  €Y‚9)V          €xƒ9)V  (ÿ‘9)V          àþ‘9)V   @      àþ‘9)V          11 34.4671 51.5709C34.4657 51.4534 34.972 50.7019 35.2733 50.3742C35.7395 49.867 35.3628 50.0401 34.7797 50.601C34.6038 50.7702 34.3681 51.0516 34.256 51.2263C34.0637 51.526 34.0358 51.5438 33.7592 51.5438C33.4848 51.5438 33.3828 51.4697 33.5308 51.378C33.5663 51.3559 33.7366 51.0758 33.9092 50.7556C34.7086 49.2719 35.1523 48.779 35.9678 48.4681L36.1312 48.4058L36.09 48.894C36.0054 49.8974 36.5136 50.593 37.2169 50.4365L37.4335 50.3884L37.1737 50.2977C36.8375 50.1804 36.7531 50.1058 36.5835 49.7767C36.461 49.539 36.4448 49.4004 36.4544 48.6736C36.464 47.9515 36.448 47.8127 36.3327 47.6168C36.2597 47.4928 36.1999 47.3154 36.1999 47.2228C36.1999 47.1301 36.0176 46.7416 35.7948 46.3594C35.5719 45.9772 35.4097 45.6319 35.4342 45.592C35.5349 45.4287 35.71 45.5932 36.0695 46.189ZM12.6625 48.3009C10.8322 49.1451 8.04802 49.8685 6.17803 49.9857C5.76622 50.0115 5.52791 50.0539 5.52791 50.1014C5.52791 50.3182 6.10215 51.1127 6.69478 51.7158C7.98354 53.0275 9.18021 53.4415 10.7348 53.1136C12.028 52.8408 13.9951 51.9769 15.4096 51.0603L16.0563 50.6413L14.8354 50.6571L13.6146 50.6729L13.0552 50.9689C12.7475 51.1319 12.3328 51.3128 12.1336 51.371C11.6169 51.5222 10.9215 51.51 10.5972 51.3441C10.2073 51.1447 9.97209 50.7417 10.2454 50.7415C10.512 50.7413 11.7893 50.3876 12.429 50.1368L13.1164 49.8673L13.1932 49.4187C13.2612 49.0214 13.4052 48.3873 13.504 48.0507C13.5502 47.8932 13.5395 47.8964 12.6625 48.3009ZM66.494 48.0406C66.5943 48.3805 66.7389 49.0151 66.808 49.4187L66.8847 49.8673L67.5722 50.1368C68.2118 50.3876 69.4892 50.7413 69.7557 50.7415C70.0291 50.7417 69.7938 51.1447 69.4039 51.3441C69.0797 51.51 68.3842 51.5222 67.8675 51.371C67.6683 51.3128 67.2536 51.1319 66.946 50.9689L66.3866 50.6729L65.1657 50.6571L63.9449 50.6413L64.5916 51.0603C65.9955 51.9701 68.0082 52.8555 69.26 53.1143C70.8296 53.4388 72.0165 53.0286 73.3064 51.7158C73.899 51.1127 74.4732 50.3182 74.4732 50.1014C74.4732 50.0539 74.2349 50.0115 73.8231 49.9857C71.9811 49.8702 69.2188 49.1578 67.372 48.3219C66.9686 48.1393 66.5976 47.9727 66.5475 47.9517C66.483 47.9247 66.4674 47.9506 66.494 48.0406ZM16.3965 51.1779C16.0933 51.5066 15.1216 52.2316 14.4035 52.6651C13.1688 53.4102 11.7675 54.015 10.7288 54.251C10.0012 54.4162 10.044 54.3934 10.1368 54.5679C10.2587 54.7971 10.9917 55.5442 11.3133 55.7669C13.2732 57.1245 15.4248 56.7228 18 54.5188C18.5074 54.0846 19.5613 52.9565 19.5088 52.9039C19.4961 52.8911 19.2576 52.9392 18.9787 53.0107C18.6998 53.0822 18.2851 53.1619 18.0572 53.1877C17.6663 53.2321 17.6165 53.2587 17.1868 53.6541C16.9362 53.8848 16.6222 54.1094 16.4893 54.1535C16.1329 54.2714 15.7447 54.197 15.515 53.9667L15.3213 53.7725L15.7436 53.5249C15.9759 53.3886 16.3086 53.1549 16.483 53.0055C16.7792 52.7517 16.7971 52.7182 16.7558 52.4971C16.7315 52.367 16.6781 51.9763 16.6373 51.6289L16.5632 50.9972L16.3965 51.1779ZM63.373 51.5272C63.347 51.8121 63.2971 52.1956 63.262 52.3795L63.1982 52.7137L63.5074 52.9901C63.6775 53.142 64.0109 53.3802 64.2482 53.5194L64.6799 53.7725L64.4861 53.9667C64.2564 54.197 63.8682 54.2714 63.5118 54.1535C63.3789 54.1094 63.065 53.8848 62.8143 53.6541C62.3847 53.2587 62.3348 53.2321 61.944 53.1877C61.716 53.1619 61.3013 53.0822 61.0224 53.0107C60.7436 52.9392 60.505 52.8911 60.4923 52.9039C60.4796 52.9166 60.6908 53.1799 60.9617 53.4889C62.1713 54.8687 63.8983 56.0439 65.2703 56.4208C66.8452 56.8534 68.5579 56.2233 69.6839 54.7968C69.8243 54.6187 69.925 54.4497 69.9074 54.4211C69.8898 54.3926 69.7472 54.3492 69.5905 54.3247C68.0095 54.0777 65.1729 52.6252 63.8008 51.36L63.4203 51.0091L63.373 51.5272ZM19.9213 54.0861C19.3224 55.2129 18.0018 56.7392 17.1695 57.2665C17.0012 57.3731 16.8733 57.4904 16.8852 57.5272C16.9364 57.6844 17.5023 58.0353 17.9065 58.1605C18.2185 58.2571 18.5296 58.296 18.9899 58.296C20.3896 58.296 21.335 57.8066 22.111 56.6802C22.4668 56.1637 23.1652 54.8986 23.1197 54.8529C23.105 54.8382 22.854 54.897 22.5619 54.9838C22.2698 55.0705 21.9554 55.158 21.8634 55.1784C21.7713 55.1986 21.6408 55.3091 21.5732 55.4236C21.412 55.6973 21.0894 55.8887 20.7887 55.889C20.4538 55.8893 20.3324 55.7347 20.5119 55.5364C20.895 55.1129 20.8949 55.1179 20.537 54.293L20.2108 53.5413L19.9213 54.0861ZM59.6767 53.7935C59.626 53.935 59.484 54.2589 59.3609 54.5131C59.2379 54.7674 59.1372 54.9983 59.1372 55.0261C59.1372 55.054 59.2439 55.2169 59.3743 55.3881C59.6514 55.7522 59.6071 55.8894 59.2124 55.889C58.9117 55.8887 58.5891 55.6973 58.4279 55.4236C58.3604 55.3091 58.2298 55.1986 58.1377 55.1784C58.0457 55.158 57.7314 55.0705 57.4393 54.9838C57.1471 54.897 56.8961 54.8382 56.8814 54.8529C56.8359 54.8986 57.5343 56.1637 57.8901 56.6802C58.6661 57.8066 59.6116 58.296 61.0112 58.296C61.4715 58.296 61.7827 58.2571 62.0946 58.1605C62.4988 58.0353 63.0647 57.6844 63.1159 57.5272C63.1278 57.4904 63 57.3731 62.8316 57.2665C62.0335 56.7608 60.7988 55.3589 60.1757 54.2507C60.0106 53.957 59.8514 53.676 59.8221 53.6264C59.7848 53.5632 59.7413 53.6131 59.6767 53.7935ZM5.6308 55.1614C5.75309 55.5438 5.79169 55.8245 5.79516 56.3573C5.79769 56.7485 5.82937 56.9659 5.89678 57.0553C6.14609 57.3858 5.8481 57.9558 5.47457 57.8629C5.13558 57.7785 4.8468 57.4107 4.76325 56.9566C4.73104 56.7816 4.76145 56.6445 4.88767 56.3958C4.97955 56.2148 5.03943 56.0418 5.02069 56.0114C4.95548 55.9056 4.70557 55.9572 4.49187 56.1207L4.2767 56.2852L4.23776 56.0901C4.17535 55.7774 3.88203 55.666 3.23252 55.7081C2.43058 55.7601 2.22134 55.8413 2.11539 56.1418C2.06638 56.2808 2.02757 56.6725 2.02751 57.0287C2.02724 57.7901 2.13239 58.0286 2.46818 58.0286H2.67262L2.49999 58.2343C2.32529 58.4425 2.26828 58.7863 2.39537 58.8651C2.43284 58.8883 2.55513 58.8299 2.66722 58.7354C3.03948 58.4213 3.64932 58.5259 4.01972 58.9673C4.2849 59.2833 4.24676 59.5679 3.91623 59.7393C3.72047 59.8408 3.51276 59.8189 3.33807 59.6785C3.28559 59.6363 3.00961 59.6134 2.67128 59.6232C2.29555 59.6342 1.97756 59.604 1.76059 59.537C1.57723 59.4803 1.4156 59.4336 1.40146 59.4332C1.31892 59.4309 1.48815 60.1003 1.64151 60.3828C1.95896 60.9677 2.57127 61.3798 3.33413 61.5221C3.64619 61.5802 3.80155 61.5719 4.19662 61.4756C4.73051 61.3455 4.82646 61.3841 4.76771 61.7055C4.6911 62.1248 4.69217 62.1302 4.86113 62.174C5.09417 62.2344 5.36535 62.1279 5.49891 61.9234C5.58866 61.7862 5.60426 61.6569 5.57439 61.2997C5.53418 60.8187 5.62146 60.6359 5.89111 60.6359C5.9996 60.6359 6.00653 60.6861 5.96759 61.1874C5.92205 61.7732 5.94025 61.8397 6.18056 61.9666C6.36806 62.0656 6.52782 62.0184 6.97703 61.7312C7.16893 61.6085 7.40151 61.489 7.49379 61.4658C7.58607 61.4426 7.66162 61.3867 7.66162 61.3417C7.66162 61.2967 7.78337 61.0281 7.9322 60.7449C8.13597 60.3571 8.19771 60.1688 8.18224 59.9821C8.15344 59.6349 7.97 59.5595 7.37817 59.6518C7.13059 59.6904 6.90742 59.7014 6.88235 59.6762C6.85721 59.651 6.86575 59.5483 6.90129 59.4479C6.9633 59.2727 6.98443 59.2654 7.43278 59.2654C7.77004 59.2654 7.95073 59.2319 8.08362 59.1449C8.31533 58.9932 8.41895 58.7339 8.34007 58.5032C8.27979 58.3267 8.24945 58.3191 7.89499 58.3921C7.5772 58.4576 7.48852 58.3584 7.5828 58.0428C7.70889 57.6209 7.68115 56.8826 7.52339 56.4599C7.23334 55.6826 6.57263 55.0974 5.91351 55.0339C5.58659 55.0024 5.58079 55.005 5.6308 55.1614ZM26.3363 55.1249C26.2104 55.1796 25.8588 55.3904 25.5548 55.5932L25.002 55.9619L24.9199 56.3601C24.8494 56.7028 24.8172 56.7584 24.6893 56.7584C24.6076 56.7584 24.4936 56.7111 24.4359 56.6533C24.3336 56.5507 24.3239 56.5038 24.3064 56.023C24.2983 55.8012 23.9514 55.09 23.8504 55.088C23.7653 55.0863 23.5907 55.7777 23.5507 56.2745C23.453 57.4899 24.0484 58.3288 25.148 58.5249L25.398 58.5695V58.1291C25.398 57.163 25.8148 55.9452 26.3648 55.3043C26.4989 55.1481 26.5988 55.0214 26.5868 55.0228C26.5748 55.0243 26.462 55.0702 26.3363 55.1249ZM53.6323 55.2995C54.1862 55.9451 54.6031 57.1601 54.6031 58.1291V58.5695L54.8531 58.5254C55.5273 58.4064 56.0258 58.0375 56.2815 57.4682C56.4852 57.0149 56.4994 56.0473 56.3109 55.4714C56.2417 55.26 56.1667 55.0882 56.1442 55.0895C56.0413 55.0959 55.6634 55.8706 55.673 56.0556C55.6994 56.5633 55.5991 56.7584 55.3118 56.7584C55.1841 56.7584 55.1518 56.7029 55.0821 56.3647L55.001 55.9709L54.4463 55.597C54.1412 55.3914 53.7774 55.1753 53.6379 55.1169L53.3844 55.0106L53.6323 55.2995ZM3.84035 56.9068C3.9219 57.0303 4.31264 57.9919 4.29137 58.0171C4.28116 58.0291 4.02265 57.9389 3.71687 57.8165C3.20238 57.6107 3.15937 57.5787 3.1409 57.3892C3.10556 57.0268 3.66479 56.6412 3.84035 56.9068ZM6.45994 59.2639C6.45914 59.3382 6.40013 59.528 6.32885 59.6855C6.2299 59.9041 6.13162 60.0026 5.91358 60.1018C5.75649 60.1733 5.58679 60.2325 5.53645 60.2333C5.48611 60.2341 5.19492 59.9901 4.88934 59.691L4.33377 59.1473L4.84379 58.5856L5.35375 58.0239L5.90758 58.5763C6.24217 58.91 6.46081 59.1822 6.45994 59.2639ZM5.11044 58.8581L4.86473 59.1528L5.13398 59.3967C5.35755 59.5992 5.4449 59.6371 5.6484 59.6201C5.91218 59.5981 5.97426 59.4928 5.89958 59.1944C5.85944 59.0341 5.48817 58.5634 5.40176 58.5634C5.37669 58.5634 5.24553 58.696 5.11044 58.8581ZM35.1349 60.9161C35.2622 60.986 35.4472 61.0322 35.546 61.0188C35.7098 60.9965 35.7294 61.0182 35.7704 61.2664C35.7951 61.416 35.8429 61.5911 35.8766 61.6554C35.9315 61.7602 35.899 61.7724 35.5644 61.7724C34.7789 61.7724 34.3575 61.2619 34.5407 60.5324L34.6186 60.2222L34.7609 60.5056C34.8461 60.6754 34.9961 60.84 35.1349 60.9161ZM8.06169 61.7724C7.89286 61.9416 7.89239 62.175 8.06015 62.5048C8.22998 62.8385 8.5329 63.052 8.89457 63.0928C9.14848 63.1215 9.19502 63.105 9.29597 62.9505C9.45073 62.7137 9.38058 62.3712 9.11534 62.0684C8.74061 61.6405 8.31306 61.5203 8.06169 61.7724ZM62.0955 63.4182L62.1397 63.9944L61.6387 63.9474L61.1376 63.9002V64.5489V65.1976L61.6373 65.1507L62.1371 65.1037L62.0939 65.7136L62.0507 66.3235L62.711 66.3042L63.3713 66.285L63.3524 65.9507C63.342 65.7668 63.3163 65.5008 63.2954 65.3594L63.2574 65.1023L63.7644 65.1499L64.2715 65.1976V64.5518V63.9061L63.7734 63.9513L63.2754 63.9966L63.3093 63.6366C63.328 63.4385 63.3552 63.1788 63.3698 63.0593L63.3962 62.842H62.7238H62.0514L62.0955 63.4182ZM26.122 63.3015C25.6947 63.5734 25.429 64.1257 25.33 64.9479C25.113 66.7474 25.0499 67.0182 24.779 67.3087C24.5738 67.5288 24.4215 67.6038 23.9978 67.6931L23.6311 67.7704L23.9024 68.033C24.2898 68.4079 24.5927 68.4808 25.5299 68.4243C26.4559 68.3686 26.7493 68.4319 27.0617 68.7551C27.2472 68.9469 27.2923 69.0515 27.3166 69.346C27.3442 69.6802 27.3326 69.7152 27.1399 69.8778C26.5889 70.3427 24.0941 70.965 22.4586 71.0456C21.1784 71.1086 20.7074 70.9367 19.9257 70.121C19.4997 69.6765 19.3872 69.5942 19.2056 69.5942C18.6427 69.5942 18.3296 70.0505 18.3309 70.8688C18.3322 71.6562 18.5521 72.3187 18.9046 72.5967C19.1303 72.7747 19.3421 72.7743 19.5033 72.5954C19.611 72.476 19.6304 72.3491 19.6304 71.7628V71.071L19.8304 71.2595C19.9404 71.3631 20.5343 71.9033 21.15 72.4598C22.3996 73.5891 22.3958 73.5875 23.0063 73.3073C23.9519 72.8732 25.7049 72.6128 28.1318 72.546C30.3836 72.4838 30.3465 72.5075 30.1957 71.2319C30.0485 69.9862 30.2241 68.7168 30.6634 67.8499C30.7931 67.5941 30.834 67.4549 30.7797 67.4549C30.6381 67.4549 29.6558 68.0438 29.3108 68.3354C29.0577 68.5494 28.9726 68.5904 28.9288 68.5193C28.7702 68.2621 28.5337 66.7793 28.5324 66.0342C28.532 65.8131 28.5047 65.7167 28.4422 65.7167C28.3231 65.7167 27.5871 66.1968 27.1852 66.5365C27.0086 66.6858 26.8477 66.7913 26.8274 66.771C26.7046 66.6478 26.5146 65.2928 26.4754 64.2601L26.4315 63.1044L26.122 63.3015ZM53.5154 64.2974C53.4791 65.3561 53.302 66.6423 53.1751 66.7696C53.1559 66.7889 52.9367 66.6395 52.688 66.4376C52.2188 66.0564 51.681 65.7167 51.5467 65.7167C51.4988 65.7167 51.469 65.8379 51.4687 66.0342C51.4674 66.7793 51.2309 68.2621 51.0724 68.5193C51.0285 68.5904 50.9434 68.5494 50.6903 68.3354C50.3364 68.0363 49.3616 67.4549 49.2138 67.4549C49.1448 67.4549 49.1556 67.5113 49.2578 67.6851C49.4838 68.0692 49.7207 68.8068 49.8061 69.3924C49.8825 69.9163 49.8661 70.7611 49.7605 71.7461C49.7229 72.0968 49.7334 72.139 49.8954 72.2894C50.1275 72.5052 50.3152 72.5357 51.4073 72.5357C53.7991 72.5357 56.3339 72.9296 57.3901 73.4653C57.9131 73.7305 58.0708 73.8955 58.3575 74.4773C58.5821 74.9331 59.1435 75.6778 59.2624 75.6778C59.289 75.6778 59.3736 75.55 59.4504 75.3937C59.7431 74.7986 60.3682 74.2365 60.9222 74.0701C61.1756 73.9939 61.2183 73.9983 61.3465 74.113C61.425 74.1831 61.5278 74.3307 61.5749 74.441L61.6607 74.6416L61.7259 74.4745C61.8482 74.1609 62.1885 73.7619 62.4326 73.6458C62.6332 73.5503 62.7164 73.5431 62.9037 73.6051C63.1795 73.6964 63.5098 74.0595 63.6915 74.4711L63.8259 74.7753L63.8987 74.5747C64.0463 74.1675 64.1326 74.0733 64.3571 74.074C64.8825 74.0756 65.7444 74.7471 65.9489 75.3141C65.9946 75.4406 66.0556 75.5441 66.0846 75.5441C66.153 75.5441 66.7703 74.6573 67.0809 74.1128C67.3092 73.7125 67.6054 73.0093 67.6054 72.8675C67.6054 72.8269 65.8028 72.8031 62.7123 72.8031H57.8193L57.7777 72.3185C57.7547 72.0519 57.7591 71.6833 57.7873 71.4995L57.8386 71.1652L59.8548 71.1475L61.871 71.1299V69.0584C61.871 67.919 61.8592 66.9869 61.8447 66.9869C61.7127 66.9869 60.8139 67.3153 60.4675 67.4902C59.3367 68.0607 58.3876 69.2044 58.0004 70.4633C57.8151 71.0656 57.5866 71.1067 55.9601 70.8304C54.4381 70.5719 53.2147 70.215 52.8417 69.9209C52.4743 69.6311 52.7258 68.8177 53.2695 68.5364C53.5531 68.3898 53.616 68.3837 54.4103 68.425C55.4199 68.4775 55.7087 68.4105 56.0988 68.033L56.3701 67.7704L55.9849 67.6913C55.1199 67.5134 54.9172 67.1409 54.71 65.349C54.6548 64.871 54.5785 64.3736 54.5405 64.2436C54.4271 63.8555 54.1096 63.4202 53.8239 63.2612L53.5562 63.1121L53.5154 64.2974ZM9.82839 63.5273C9.4706 63.8358 9.67644 64.2114 11.0319 65.7235C12.3631 67.2085 13.9676 68.6582 14.2797 68.6582C14.4107 68.6582 14.4117 68.6639 14.3008 68.7867C14.1899 68.9096 14.192 68.9198 14.3482 69.0225C14.4701 69.1026 14.5539 69.1136 14.6792 69.0658C14.835 69.0064 14.8495 69.0181 14.8837 69.2293C14.962 69.7124 15.7564 70.5258 16.0425 70.4157C16.1301 70.382 16.1293 70.404 16.0365 70.5839C15.9018 70.8449 15.9008 71.0245 16.0334 71.1348C16.1197 71.2067 16.1568 71.1997 16.2553 71.0929C16.3203 71.0224 16.6187 70.7038 16.9183 70.3848C17.2875 69.9917 17.4501 69.771 17.4227 69.6995C17.3717 69.5662 17.1143 69.5643 16.8617 69.6953C16.7165 69.7705 16.6752 69.7744 16.6997 69.7104C16.8011 69.4452 15.9913 68.6405 15.5295 68.5479C15.3474 68.5114 15.3275 68.4856 15.3616 68.3304C15.3848 68.2244 15.3611 68.1015 15.3023 68.0219C15.2204 67.9111 15.1829 67.9025 15.0733 67.9696C14.9578 68.0402 14.9369 68.0284 14.8974 67.8704C14.8727 67.7718 14.6877 67.489 14.4862 67.2422C14.0288 66.6815 12.295 64.9861 11.4709 64.2935C10.3858 63.3813 10.1338 63.2638 9.82839 63.5273ZM63.538 69.0549V71.1318H65.5657H67.5936L67.5003 70.7312C67.2301 69.5697 66.3689 68.3684 65.3278 67.7006C64.945 67.4552 64.3074 67.1695 63.9714 67.0929C63.8614 67.0679 63.7188 67.0318 63.6547 67.0126C63.5453 66.9801 63.538 67.1081 63.538 69.0549ZM62.4984 67.453C62.4217 67.4841 62.3228 67.597 62.2787 67.7039C62.1372 68.0464 62.3667 68.3908 62.7365 68.3908C62.9315 68.3908 63.2046 68.0983 63.2046 67.8894C63.2046 67.6887 62.9325 67.3861 62.7575 67.3922C62.6917 67.3946 62.5751 67.4219 62.4984 67.453ZM62.3925 69.5959C62.2308 69.758 62.1994 69.8343 62.2338 69.9803C62.3319 70.3961 62.8185 70.5363 63.0664 70.2203C63.2911 69.9338 63.2393 69.6502 62.9331 69.4914C62.6718 69.3559 62.6223 69.3655 62.3925 69.5959ZM17.1785 70.6687C16.897 70.9013 16.8565 71.0645 17.0799 71.0659C17.1625 71.0664 17.2974 71.0849 17.38 71.1071C17.5213 71.145 17.53 71.1275 17.53 70.8054C17.53 70.6172 17.5069 70.4633 17.4785 70.4633C17.4502 70.4633 17.3152 70.5557 17.1785 70.6687ZM36.8484 71.4664C36.3266 72.1224 35.4715 72.7122 34.8663 72.8333C34.4255 72.9215 34.3867 72.9411 34.4649 73.0354C34.6952 73.3138 35.5823 73.4969 36.1159 73.3764L36.332 73.3276L36.2847 73.5501C36.2218 73.846 36.2203 74.7173 36.2826 74.7801C36.3268 74.8245 37.0696 74.7382 37.5501 74.6328C37.7097 74.5978 37.7336 74.6131 37.7342 74.7508C37.735 74.9468 38.0194 75.5693 38.2414 75.8612C38.3563 76.0122 38.4622 76.0789 38.5871 76.0789C38.7796 76.0788 39.4921 75.7643 39.8037 75.5418L39.9926 75.407L40.3466 75.6312C40.7666 75.897 41.2076 76.0789 41.4321 76.0789C41.5366 76.0789 41.6529 76.0016 41.7597 75.8612C41.9815 75.5697 42.2662 74.9469 42.267 74.7514C42.2676 74.612 42.289 74.5994 42.451 74.6431C42.8376 74.7474 43.1782 74.8031 43.4482 74.8058C43.7167 74.8086 43.7303 74.7988 43.7724 74.5739C43.8142 74.3507 43.768 73.7139 43.6906 73.4482C43.6588 73.3388 43.6805 73.3303 43.8779 73.3748C44.2597 73.461 44.7857 73.4153 45.132 73.266C45.5791 73.0731 45.6735 72.9554 45.424 72.9014C44.4462 72.69 43.5935 72.1138 42.9533 71.2321L42.8077 71.0315L42.691 71.1987C42.456 71.5357 41.772 72.2062 41.6257 72.243C41.4039 72.2988 40.8334 71.9665 40.3792 71.517L39.991 71.1329L39.679 71.4659C39.3486 71.8187 38.6595 72.2683 38.4493 72.2683C38.3075 72.2683 37.6233 71.6399 37.3882 71.2937C37.303 71.1684 37.2184 71.0659 37.2001 71.066C37.1817 71.066 37.0234 71.2462 36.8484 71.4664ZM58.4038 71.5998C58.2052 71.7989 58.2259 72.1567 58.4461 72.3303C58.5427 72.4065 58.6791 72.4689 58.7492 72.4689C58.9329 72.4689 59.2039 72.17 59.2039 71.9675C59.2039 71.7459 58.9266 71.4661 58.7068 71.4661C58.6135 71.4661 58.4771 71.5262 58.4038 71.5998ZM60.4266 71.5648C60.2326 71.701 60.1803 71.9615 60.3002 72.1939C60.4662 72.5157 60.7829 72.5631 61.0406 72.3047C61.1306 72.2145 61.2043 72.0627 61.2043 71.9675C61.2043 71.7522 60.9291 71.4661 60.722 71.4661C60.6368 71.4661 60.5039 71.5105 60.4266 71.5648ZM62.4269 71.5648C62.233 71.701 62.1806 71.9615 62.3006 72.1939C62.4665 72.5157 62.7833 72.5631 63.0409 72.3047C63.1309 72.2145 63.2046 72.0627 63.2046 71.9675C63.2046 71.7522 62.9294 71.4661 62.7224 71.4661C62.6372 71.4661 62.5042 71.5105 62.4269 71.5648ZM64.4351 71.6302C64.3451 71.7204 64.2715 71.8722 64.2715 71.9675C64.2715 72.0627 64.3451 72.2145 64.4351 72.3047C64.6928 72.5631 65.0095 72.5157 65.1755 72.1939C65.4403 71.6806 64.8403 71.2239 64.4351 71.6302ZM66.4834 71.6208C66.2783 71.8397 66.2919 72.1551 66.5142 72.3303C66.6108 72.4065 66.7417 72.4689 66.8052 72.4689C67.0255 72.4689 67.272 72.2076 67.272 71.9743C67.272 71.5353 66.7731 71.3116 66.4834 71.6208ZM16.3777 71.8701C15.6028 72.0628 15.1242 72.7128 15.4218 73.1682C15.7276 73.6361 16.4091 73.6528 17.2919 73.2143C17.5885 73.0669 17.9041 72.8686 17.9931 72.7737L18.1549 72.6009L18.0194 72.4179C17.689 71.9718 16.9546 71.7267 16.3777 71.8701ZM20.3638 73.0035C20.3262 73.2275 20.35 73.3223 20.5114 73.5885C20.93 74.2792 21.0265 74.5942 21.039 75.3101L21.0507 75.9787L21.2578 75.9997C21.3895 76.013 21.5378 75.9686 21.6654 75.8774C21.9562 75.6698 22.3308 75.1509 22.3308 74.9556C22.3308 74.8632 22.2153 74.6343 22.0742 74.4471C21.7666 74.0392 20.5395 72.7363 20.4629 72.7363C20.4332 72.7363 20.3886 72.8566 20.3638 73.0035ZM18.2949 73.4304C17.4481 73.8422 16.9154 74.46 16.9028 75.0448C16.8906 75.6074 17.4258 75.991 17.9874 75.8222C18.4164 75.6933 18.6443 75.4557 18.7878 74.9876C19.0205 74.2289 19.0499 73.2043 18.8392 73.2043C18.7955 73.2043 18.5506 73.306 18.2949 73.4304ZM33.4328 74.223C30.7712 75.3517 29.3731 75.5899 28.2379 75.1078C28.1239 75.0593 28.1151 75.0758 28.1532 75.2665C28.2357 75.6805 28.5592 76.249 28.9056 76.589L29.2549 76.932L29.018 77.1573C28.4829 77.6662 28.2055 78.2334 27.797 79.6532C27.5408 80.5438 27.3484 80.9388 27.0374 81.2127C26.7649 81.4525 26.5078 81.5158 25.9369 81.4836C25.4659 81.457 25.4675 81.4423 25.8758 82.0451C26.235 82.5755 26.9199 83.2622 27.4489 83.6224C28.2387 84.16 29.393 84.6496 30.2245 84.7995C30.4722 84.8441 30.4816 84.8394 30.4388 84.691C30.4142 84.6057 30.3601 84.2802 30.3185 83.9676C30.1381 82.6102 30.7513 80.4804 31.7526 78.9871C32.5375 77.8164 33.7706 76.6764 34.8581 76.1159C35.0532 76.0154 35.0165 76.0752 34.5831 76.5635C32.3437 79.0872 31.3023 81.9196 31.8117 84.1013C31.9159 84.5477 32.287 85.2968 32.5979 85.6882C33.3047 86.5783 34.6895 87.2696 36.0223 87.3979C36.3265 87.4271 36.3425 87.4207 36.303 87.286C36.1156 86.6465 35.9207 85.5919 35.8536 84.8534C35.6422 82.5281 36.2883 79.9772 37.5427 78.1848C37.9471 77.607 38.3032 77.1962 38.2381 77.3826C38.0954 77.7909 37.7232 79.212 37.6078 79.7893C36.9824 82.9176 37.0997 85.4856 37.9429 87.1247C38.3108 87.8398 38.9244 88.4712 39.5505 88.7788L40.0006 89L40.4506 88.7788C42.6985 87.6743 43.3885 84.0285 42.2594 79.221C42.0829 78.4691 41.8586 77.649 41.7497 77.3573C41.6811 77.1735 42.2748 77.8925 42.5709 78.352C43.773 80.2172 44.3468 82.586 44.1453 84.8528C44.0797 85.5916 43.8862 86.6444 43.6981 87.286C43.6587 87.4207 43.6747 87.4271 43.9788 87.3979C45.4709 87.2543 46.8749 86.4819 47.5887 85.4119C48.4387 84.1377 48.5405 82.5592 47.8966 80.6361C47.4777 79.3848 46.5604 77.8612 45.5028 76.6598C45.024 76.1158 44.9632 76.0233 45.1468 76.118C46.0772 76.5983 47.5555 77.9466 48.1829 78.8873C49.4462 80.7815 49.9971 83.0966 49.562 84.6832C49.5242 84.821 49.5384 84.828 49.7786 84.7912C50.5605 84.6714 51.7399 84.1754 52.5433 83.6285C53.0804 83.2627 53.764 82.5786 54.1254 82.0451C54.5336 81.4423 54.5352 81.457 54.0643 81.4836C53.4933 81.5158 53.2363 81.4525 52.9638 81.2127C52.6432 80.9305 52.4691 80.5578 52.1425 79.455C51.7959 78.2851 51.5535 77.7804 51.1072 77.2998L50.7565 76.9219L51.1007 76.584C51.4434 76.2476 51.7437 75.7163 51.8359 75.2834C51.8794 75.0789 51.8718 75.0614 51.7601 75.1089C50.6374 75.5868 49.164 75.3387 46.6165 74.2425L45.6572 73.8297L45.3514 73.985C45.1831 74.0703 44.9846 74.1402 44.9102 74.1402C44.7171 74.1402 44.8445 74.2313 45.2348 74.3723C45.8697 74.6018 47.3051 75.3551 48.038 75.8434C49.2486 76.6501 49.8632 77.3455 49.8675 77.913C49.869 78.1184 49.6277 78.6862 49.5388 78.6862C49.5106 78.6862 49.3177 78.4641 49.1103 78.1926C48.2092 77.0131 46.6912 75.8169 45.2348 75.1387C44.3828 74.7419 44.412 74.7413 44.3883 75.1564L44.368 75.5107H43.6246H42.8812L43.3976 76.0499C46.0063 78.7739 47.1846 81.7271 45.9511 82.4495C45.6924 82.6009 45.6019 82.5561 45.6004 82.2756C45.5954 81.3584 44.894 79.5138 44.0577 78.2182C43.6884 77.6463 42.7163 76.3882 42.5178 76.2253C42.4258 76.1499 42.3719 76.1804 42.1268 76.447C41.9705 76.6171 41.7914 76.7836 41.7289 76.8171C41.6024 76.885 40.8101 76.6438 40.5084 76.4456C40.297 76.3067 40.3046 76.1109 40.4438 78.13C40.5057 79.0272 40.5566 80.6418 40.5605 81.8283C40.5672 83.901 40.5649 83.9397 40.4112 84.2804C40.3252 84.4708 40.1977 84.6785 40.1278 84.7421C40.0073 84.8514 39.9938 84.8514 39.8733 84.7421C39.8034 84.6785 39.6759 84.4708 39.59 84.2804C39.4363 83.9397 39.4339 83.9005 39.4402 81.8283C39.4459 79.9611 39.4915 78.8544 39.644 76.8834L39.6878 76.3174L39.5031 76.4387C39.1928 76.6426 38.4007 76.8861 38.2722 76.8171C38.2097 76.7836 38.0275 76.6136 37.8673 76.4393L37.576 76.1225L37.2786 76.4517C36.2214 77.6215 35.2021 79.3018 34.7779 80.5737C34.5834 81.1569 34.3996 81.9906 34.3996 82.2895C34.3996 82.556 34.3056 82.5991 34.0501 82.4495C33.7 82.2444 33.5656 81.9396 33.5697 81.3604C33.5791 80.0465 34.7293 78.0262 36.5751 76.0816L37.117 75.5107H36.3751H35.6331L35.6129 75.1564C35.5882 74.7253 35.6263 74.721 34.4996 75.2822C33.1341 75.9624 31.7681 77.0599 30.9175 78.16C30.6938 78.4494 30.4861 78.6862 30.4562 78.6862C30.3579 78.6862 30.1322 78.1617 30.1337 77.9368C30.136 77.586 30.3684 77.1645 30.784 76.7575C31.6408 75.9184 33.5269 74.819 35.0997 74.2422C35.2107 74.2015 35.1851 74.1786 34.948 74.1064C34.7911 74.0586 34.5961 73.9762 34.5145 73.9233C34.3783 73.8348 34.2908 73.8591 33.4328 74.223ZM19.6386 74.231C19.3585 74.9031 19.2888 75.7362 19.4871 76.0397C19.6471 76.2846 20.0782 76.2878 20.2367 76.0454C20.448 75.722 20.2266 74.5729 19.8671 74.1278L19.7448 73.9763L19.6386 74.231ZM62.4113 74.4539C61.9712 74.9892 61.665 76.1575 61.803 76.7749C61.9525 77.4438 62.2056 77.6834 62.7628 77.6834C63.4907 77.6834 63.8378 76.8286 63.5708 75.6933C63.4079 75.0005 62.9414 74.2071 62.6969 74.2071C62.6514 74.2071 62.5229 74.3181 62.4113 74.4539ZM60.6842 74.8537C60.1709 75.1072 59.7363 75.9298 59.8354 76.4597C59.9006 76.8081 60.1381 77.0149 60.4729 77.0149C61.0165 77.0149 61.3172 76.4598 61.2516 75.5775C61.2153 75.0888 61.1007 74.7408 60.9768 74.7434C60.9369 74.7442 60.8052 74.7938 60.6842 74.8537ZM64.3523 74.8251C64.3117 74.8741 64.2476 75.0485 64.2099 75.2125C63.9903 76.1681 64.3331 77.0149 64.9396 77.0149C65.7718 77.0149 65.8291 75.8142 65.0322 75.0777C64.8722 74.9297 64.7129 74.8087 64.6785 74.8087C64.644 74.8087 64.5731 74.7924 64.521 74.7722C64.4688 74.7522 64.3929 74.776 64.3523 74.8251ZM22.3764 76.0469C21.9797 76.468 21.6739 76.8431 21.6969 76.8803C21.7567 76.9774 22.0404 76.9638 22.2529 76.8536C22.5085 76.7211 23.0536 76.1209 23.1683 75.8457C23.2854 75.5648 23.2863 75.532 23.181 75.392C23.1075 75.2943 23.0121 75.372 22.3764 76.0469ZM23.4415 76.6573C23.3034 76.8356 23.0702 77.0773 22.9233 77.1945L22.6561 77.4076L22.8102 77.5041C23.1725 77.7312 23.7209 77.6848 23.865 77.4151C23.9766 77.206 23.9446 76.6454 23.8118 76.4809L23.6925 76.3331L23.4415 76.6573Z" fill="#1EAC6C"/>
</svg>
