<svg width="62" height="47" viewBox="0 0 62 47" fill="none" xmlns="http://www.w3.org/2000/svg">
<path d="M5.1959 10.2793L0 6.23806L0.421715 1.38721L7.3338 6.88927L5.1959 10.2793Z" fill="#1EAC6C"/>
<path d="M7.57307 31.7582C5.04429 31.7582 3.13481 33.5989 3.13481 36.3169C3.13481 39.0865 5.06149 40.8756 7.64188 40.8756C8.58802 40.8756 9.41375 40.6348 10.1363 40.1531V38.5533H9.94703C9.31053 39.1897 8.57082 39.4994 7.69349 39.4994C5.97323 39.4994 4.64863 38.278 4.64863 36.3169C4.64863 34.373 5.97323 33.1344 7.60748 33.1344C8.39879 33.1344 9.15571 33.4441 9.87822 34.0806H10.033V32.4979C9.29333 31.9991 8.48481 31.7582 7.57307 31.7582ZM16.3952 31.7582C13.832 31.7582 11.8537 33.5817 11.8537 36.3169C11.8537 39.0521 13.832 40.8756 16.3952 40.8756C18.9584 40.8756 20.9367 39.0521 20.9367 36.3169C20.9367 33.5817 18.9584 31.7582 16.3952 31.7582ZM16.3952 39.4994C14.6921 39.4994 13.3675 38.2608 13.3675 36.3169C13.3675 34.373 14.6921 33.1344 16.3952 33.1344C18.0982 33.1344 19.4228 34.373 19.4228 36.3169C19.4228 38.2608 18.0982 39.4994 16.3952 39.4994ZM30.3985 35.1643C30.3985 32.9796 29.0051 31.7582 27.2332 31.7582C25.9946 31.7582 25.0485 32.3603 24.4808 33.3753V31.9991H23.1734V40.6348H24.6528V36.1277C24.6528 34.4074 25.4613 33.1688 26.8891 33.1688C28.1105 33.1688 28.9191 34.0462 28.9191 35.5084V40.6348H30.3985V35.1643ZM32.4321 40.1531C33.1718 40.5832 34.204 40.8756 35.305 40.8756C36.2167 40.8756 36.9908 40.6864 37.6101 40.3079C38.2294 39.9123 38.5391 39.3102 38.5391 38.4672C38.5391 37.1598 37.7477 36.4717 36.7844 36.0073L35.1846 35.2504C34.462 34.9235 34.1008 34.5106 34.1008 34.0462C34.1008 33.4957 34.5653 33.1344 35.5286 33.1344C36.3371 33.1344 37.0596 33.3581 37.8337 33.9086H38.0058V32.4979C37.3005 31.9991 36.4575 31.7582 35.477 31.7582C34.6685 31.7582 33.9804 31.9303 33.4127 32.2915C32.8622 32.6356 32.587 33.2033 32.587 33.9946C32.587 35.0783 33.1546 35.9041 34.3072 36.4545L36.0963 37.2975C36.7156 37.5899 37.0252 37.9856 37.0252 38.4844C37.0252 39.1553 36.4403 39.4994 35.2878 39.4994C34.2556 39.4994 33.3783 39.1897 32.6386 38.5533H32.4321V40.1531ZM46.3864 31.9991V36.3857C46.3864 37.2631 46.1972 37.9856 45.8015 38.5877C45.4058 39.1725 44.8554 39.465 44.15 39.465C42.9287 39.465 42.1201 38.5877 42.1201 37.1254V31.9991H40.6407V37.2975C40.6407 39.5854 42.0513 40.8756 43.806 40.8756C45.0618 40.8756 45.9907 40.2047 46.5584 39.1553V40.6348H47.8658V31.9991H46.3864ZM50.6908 27.6984V40.6348H52.1702V27.6984H50.6908ZM60.0834 33.3065V31.9991H57.4686V29.3155H55.9892V31.9991H53.9593V33.3065H55.9892V38.106C55.9892 39.8262 56.9869 40.6348 58.6556 40.6348H60.0146V39.2242H58.862C58.0191 39.2242 57.4686 38.7769 57.4686 37.8996V33.3065H60.0834Z" fill="white"/>
<path d="M39.8453 27.0558C38.0695 27.0558 36.4713 26.7513 35.0506 26.1425C33.63 25.5083 32.5137 24.6204 31.7019 23.4788C30.8901 22.3372 30.4842 21.0053 30.4842 19.4832H35.1267C35.2282 20.6248 35.6721 21.5634 36.4586 22.2991C37.2704 23.0348 38.3993 23.4027 39.8453 23.4027C41.342 23.4027 42.509 23.0475 43.3462 22.3372C44.1833 21.6015 44.6019 20.6628 44.6019 19.5212C44.6019 18.6333 44.3356 17.9103 43.8028 17.3522C43.2954 16.7941 42.6485 16.3628 41.8621 16.0584C41.101 15.754 40.0356 15.4242 38.6656 15.069C36.9406 14.6124 35.5326 14.1558 34.4418 13.6991C33.3763 13.2171 32.463 12.4814 31.7019 11.492C30.9409 10.5027 30.5603 9.18348 30.5603 7.53452C30.5603 6.01239 30.9409 4.68053 31.7019 3.53894C32.463 2.39735 33.5285 1.52213 34.8984 0.913276C36.2683 0.304425 37.8538 0 39.655 0C42.2173 0 44.3102 0.646903 45.9338 1.94071C47.5828 3.20915 48.496 4.95959 48.6736 7.19204H43.8789C43.8028 6.22803 43.3462 5.40354 42.509 4.71859C41.6718 4.03363 40.5683 3.69115 39.1984 3.69115C37.9553 3.69115 36.9406 4.00826 36.1541 4.64248C35.3677 5.2767 34.9745 6.18997 34.9745 7.3823C34.9745 8.1941 35.2155 8.86638 35.6975 9.39912C36.2049 9.9065 36.8391 10.3124 37.6002 10.6168C38.3612 10.9212 39.4013 11.251 40.7205 11.6062C42.471 12.0882 43.8916 12.5702 44.9825 13.0522C46.0987 13.5342 47.0373 14.2826 47.7984 15.2974C48.5848 16.2867 48.978 17.6186 48.978 19.2929C48.978 20.6375 48.6102 21.9059 47.8745 23.0982C47.1642 24.2906 46.1114 25.2546 44.7161 25.9903C43.3462 26.7006 41.7226 27.0558 39.8453 27.0558Z" fill="white"/>
<path d="M58.4348 0.342479V26.7894H54.0968V0.342479H58.4348Z" fill="white"/>
<path fill-rule="evenodd" clip-rule="evenodd" d="M20.8401 7.9531C20.1552 6.63393 19.2039 5.64455 17.9862 4.98496C16.7685 4.3 15.3605 3.95753 13.7623 3.95753C12.0118 3.95753 10.4517 4.35074 9.08174 5.13717C8.72967 5.33928 8.39687 5.56318 8.08334 5.80886L4.91273 3.14544C5.53888 2.62241 6.21822 2.15741 6.95076 1.75044C9.031 0.583481 11.3015 0 13.7623 0C16.5782 0 19.077 0.697641 21.2587 2.09292C23.4658 3.46283 25.064 5.41623 26.0534 7.9531H20.8401ZM4.88216 11.3702C4.76448 12.0478 4.70563 12.7607 4.70563 13.5089C4.70563 15.4115 5.08616 17.0985 5.84722 18.5699C6.63366 20.0159 7.71183 21.1322 9.08174 21.9186C10.4517 22.705 12.0118 23.0982 13.7623 23.0982C16.1216 23.0982 18.0369 22.4387 19.5083 21.1195C20.9797 19.8003 21.8803 18.0118 22.2101 15.754H12.2782V12.2912H26.8525V15.6779C26.5735 17.7327 25.8378 19.6227 24.6455 21.3478C23.4785 23.0729 21.9437 24.4555 20.041 25.4956C18.1637 26.5103 16.0708 27.0177 13.7623 27.0177C11.2761 27.0177 9.00563 26.4469 6.95076 25.3053C4.8959 24.1384 3.25961 22.5274 2.04191 20.4726C0.849583 18.4177 0.253418 16.0965 0.253418 13.5089C0.253418 11.7742 0.521344 10.1592 1.0572 8.6639L4.88216 11.3702Z" fill="white"/>
</svg>
