<svg width="324" height="346" viewBox="0 0 324 346" fill="none" xmlns="http://www.w3.org/2000/svg">
<g id="gray_folder_anime_svg">
	<path d="M176.418 215.464L29.5233 282.684V108.967L181.345 44.2168V68.1168L179.257 68.0441L176.418 215.464Z" fill="#3E3E3E"/>
	<path d="M42.7736 252.561L175.332 185.97V55.5736L42.7736 122.14V252.561Z" fill="white"/>
	<path d="M201.332 227.959L64.2641 300.143L54.0759 267.937V136.499L64.2641 126.402L201.332 54.2418V227.959Z" fill="#4E5266"/>
	<path d="M29.5235 282.684L64.2637 300.142V126.402L29.5235 108.967V282.684Z" fill="#282D3E"/>
	<path d="M74.8119 253.166C73.8363 255.144 73.4031 257.366 73.5471 259.652C73.6911 261.939 74.4082 264.227 75.6409 266.333C78.1343 270.09 81.7662 270.31 83.7977 266.786C84.7802 264.813 85.2162 262.594 85.07 260.309C84.9238 258.024 84.1996 255.739 82.9566 253.64C80.427 249.834 76.8313 249.662 74.8119 253.166Z" fill="#002E47"/>
	<path d="M74.8823 253.263C73.9176 255.209 73.4888 257.397 73.6308 259.649C73.7728 261.901 74.4814 264.155 75.6995 266.227C76.124 267.134 76.8526 267.915 77.7649 268.441C78.6772 268.966 79.7183 269.206 80.7159 269.118C80.0173 268.869 79.3627 268.497 78.7912 268.023C78.2197 267.55 77.7427 266.985 77.3887 266.362C76.1649 264.29 75.4509 262.035 75.3047 259.78C75.1585 257.525 75.5842 255.334 76.5474 253.384C77.1179 252.204 78.1939 251.338 79.5429 250.974C77.8179 250.455 76.0673 251.207 74.8823 253.263Z" fill="#242424"/>
</g>
<g id="green_folder_anime_svg_wrap">
	<g id="green_folder_anime_svg">
		<path d="M222.784 226.267L82.6419 283.728L77.0277 103.938L222.005 49.4595L222.797 74.1752L220.758 73.9223L222.784 226.267Z" fill="#54AA7D"/>
		<path d="M94.492 253.637L220.758 195.668L216.563 60.6877L90.2966 118.657L94.492 253.637Z" fill="white"/>
		<path d="M247.299 241.262L116.852 304.647L105.948 270.497L101.693 134.448L111.237 124.857L241.685 61.4727L247.299 241.262Z" fill="url(#paint0_linear_43_124866)"/>
		<path d="M82.6414 283.728L116.851 304.647L111.236 124.857L77.0272 103.938L82.6414 283.728Z" fill="#8CFDC2"/>
		<path d="M83.0344 207.178L111.54 224.614L109.134 147.457L80.6284 130.021L83.0344 207.178Z" fill="white"/>
		<path d="M80.629 130.022L109.135 147.458L108.902 140.057L80.3964 122.621L80.629 130.022Z" fill="#002E47"/>
		<path d="M90.0432 240.284C90.2492 242.574 91.0295 244.851 92.3207 246.931C93.6118 249.01 95.3775 250.834 97.4743 252.254C101.502 254.575 104.544 253.254 104.417 249.072C104.214 246.78 103.436 244.501 102.147 242.417C100.858 240.334 99.0939 238.506 96.9976 237.082C93.0305 234.656 89.9155 236.102 90.0432 240.284Z" fill="#002E47"/>
		<path d="M90.14 240.34C90.3486 242.598 91.1209 244.842 92.395 246.892C93.669 248.942 95.409 250.74 97.4748 252.142C99.8865 253.532 101.841 253.653 103.073 252.574C102.371 252.651 101.641 252.593 100.928 252.403C100.215 252.213 99.5337 251.895 98.9236 251.468C96.855 250.069 95.1127 248.271 93.8383 246.22C92.5638 244.17 91.7932 241.924 91.5889 239.666C91.4673 238.308 91.9097 237.022 92.824 236.074C91.8845 236.336 91.1074 236.901 90.6198 237.676C90.1323 238.451 89.9632 239.39 90.14 240.34V240.34Z" fill="#408661"/>
	</g>
</g>
<g id="black_folder_anime_svg">
	<path d="M269.087 254.062L122.192 321.282V147.565L274.014 82.8151V106.691L271.926 106.618L269.087 254.062Z" fill="#222020"/>
	<path d="M135.443 291.135L268.001 224.568V94.1475L135.443 160.738V291.135Z" fill="white"/>
	<path d="M156.932 165L150.196 171.683V317.383L156.932 338.717L294 266.557V92.8398L156.932 165Z" fill="#313131"/>
	<path d="M122.191 321.282L156.932 338.717V165L122.191 147.566V321.282Z" fill="#3E4246"/>
	<path d="M125.087 247.113L154.037 261.641V187.084L125.087 172.555V247.113Z" fill="white"/>
	<path d="M125.087 172.555L154.037 187.084V179.917L125.087 165.388V172.555Z" fill="#002E47"/>
	<path d="M131.267 278.591C131.407 280.789 132.141 282.928 133.408 284.833C134.675 286.739 136.44 288.359 138.56 289.56C142.597 291.594 145.854 289.948 145.854 285.904C145.715 283.702 144.983 281.56 143.716 279.65C142.449 277.74 140.683 276.116 138.56 274.911C134.552 272.901 131.267 274.523 131.267 278.591Z" fill="#002E47"/>
	<path d="M131.378 278.64C131.516 280.807 132.238 282.916 133.485 284.796C134.733 286.676 136.471 288.275 138.56 289.464C139.38 290.037 140.402 290.35 141.455 290.35C142.508 290.35 143.529 290.037 144.35 289.464C143.621 289.607 142.865 289.616 142.132 289.491C141.399 289.366 140.703 289.109 140.091 288.737C137.992 287.556 136.245 285.959 134.992 284.078C133.739 282.197 133.016 280.084 132.881 277.913C132.828 277.269 132.924 276.622 133.164 276.011C133.403 275.4 133.78 274.836 134.273 274.354C132.519 274.741 131.378 276.267 131.378 278.64Z" fill="#7D7B7B"/>
	<path d="M198.66 180.885V236.748L271.981 198.15V142.287L198.66 180.885Z" fill="#EFF6F9"/>
</g>
<defs>
<linearGradient id="paint0_linear_43_124866" x1="146.957" y1="119.27" x2="304.85" y2="246.481" gradientUnits="userSpaceOnUse">
<stop stop-color="#56B181"/>
<stop offset="1" stop-color="#8CFDC2" stop-opacity="0.41"/>
</linearGradient>
</defs>
</svg>
