<svg width="608" height="1440" viewBox="0 0 608 1440" fill="none" xmlns="http://www.w3.org/2000/svg">
<path d="M605.5 0.5V36.6201C605.5 47.6658 596.546 56.6201 585.5 56.6201H434.5H235C223.954 56.6201 215 65.5744 215 76.6201V443.5C215 454.546 223.954 463.5 235 463.5H388.5C399.546 463.5 408.5 472.454 408.5 483.5V719.5V910.5C408.5 921.546 399.546 930.5 388.5 930.5H239C227.954 930.5 219 939.454 219 950.5V1217.5" stroke="url(#paint0_linear_303_3)" stroke-opacity="0.22" stroke-width="4"/>
<g filter="url(#filter0_f_303_3)">
<circle cx="215" cy="251" r="21" fill="white" fill-opacity="0.19"/>
</g>
<circle cx="215" cy="251" r="9" fill="white"/>
<circle cx="215" cy="251" r="6" fill="#3F4550"/>
<g filter="url(#filter1_f_303_3)">
<circle cx="408" cy="691" r="21" fill="white" fill-opacity="0.19"/>
</g>
<circle cx="408" cy="691" r="9" fill="white"/>
<circle cx="408" cy="691" r="6" fill="#3F4550"/>
<g filter="url(#filter2_ddd_303_3)">
<circle cx="221" cy="1219" r="21" fill="#16FF85" fill-opacity="0.19"/>
<circle cx="221" cy="1219" r="9" fill="#00FF79"/>
<circle cx="221" cy="1219" r="6" fill="#ACFFD4"/>
</g>
<defs>
<filter id="filter0_f_303_3" x="184" y="220" width="62" height="62" filterUnits="userSpaceOnUse" color-interpolation-filters="sRGB">
<feFlood flood-opacity="0" result="BackgroundImageFix"/>
<feBlend mode="normal" in="SourceGraphic" in2="BackgroundImageFix" result="shape"/>
<feGaussianBlur stdDeviation="5" result="effect1_foregroundBlur_303_3"/>
</filter>
<filter id="filter1_f_303_3" x="377" y="660" width="62" height="62" filterUnits="userSpaceOnUse" color-interpolation-filters="sRGB">
<feFlood flood-opacity="0" result="BackgroundImageFix"/>
<feBlend mode="normal" in="SourceGraphic" in2="BackgroundImageFix" result="shape"/>
<feGaussianBlur stdDeviation="5" result="effect1_foregroundBlur_303_3"/>
</filter>
<filter id="filter2_ddd_303_3" x="0" y="998" width="442" height="442" filterUnits="userSpaceOnUse" color-interpolation-filters="sRGB">
<feFlood flood-opacity="0" result="BackgroundImageFix"/>
<feColorMatrix in="SourceAlpha" type="matrix" values="0 0 0 0 0 0 0 0 0 0 0 0 0 0 0 0 0 0 127 0" result="hardAlpha"/>
<feOffset/>
<feGaussianBlur stdDeviation="100"/>
<feComposite in2="hardAlpha" operator="out"/>
<feColorMatrix type="matrix" values="0 0 0 0 0.0862745 0 0 0 0 1 0 0 0 0 0.521569 0 0 0 1 0"/>
<feBlend mode="normal" in2="BackgroundImageFix" result="effect1_dropShadow_303_3"/>
<feColorMatrix in="SourceAlpha" type="matrix" values="0 0 0 0 0 0 0 0 0 0 0 0 0 0 0 0 0 0 127 0" result="hardAlpha"/>
<feOffset/>
<feGaussianBlur stdDeviation="100"/>
<feComposite in2="hardAlpha" operator="out"/>
<feColorMatrix type="matrix" values="0 0 0 0 0.0862745 0 0 0 0 1 0 0 0 0 0.521569 0 0 0 1 0"/>
<feBlend mode="normal" in2="effect1_dropShadow_303_3" result="effect2_dropShadow_303_3"/>
<feColorMatrix in="SourceAlpha" type="matrix" values="0 0 0 0 0 0 0 0 0 0 0 0 0 0 0 0 0 0 127 0" result="hardAlpha"/>
<feOffset/>
<feGaussianBlur stdDeviation="75"/>
<feComposite in2="hardAlpha" operator="out"/>
<feColorMatrix type="matrix" values="0 0 0 0 0.0862745 0 0 0 0 1 0 0 0 0 0.521569 0 0 0 1 0"/>
<feBlend mode="normal" in2="effect2_dropShadow_303_3" result="effect3_dropShadow_303_3"/>
<feBlend mode="normal" in="SourceGraphic" in2="effect3_dropShadow_303_3" result="shape"/>
</filter>
<linearGradient id="paint0_linear_303_3" x1="177.75" y1="-139" x2="169" y2="2169" gradientUnits="userSpaceOnUse">
<stop stop-color="#0C1117"/>
<stop offset="0.266818" stop-color="#2C3239"/>
<stop offset="0.893454" stop-color="#2C3239"/>
<stop offset="1" stop-color="#0C1117"/>
</linearGradient>
</defs>
</svg>
