<svg width="55" height="55" viewBox="0 0 55 55" fill="none" xmlns="http://www.w3.org/2000/svg">
<rect width="55" height="55" rx="27.5" fill="#292C3A"/>
<path d="M39.1759 36.844C37.4266 33.8305 34.6265 31.5688 31.3126 30.4924C32.901 29.5478 34.1354 28.1078 34.8261 26.3937C35.5168 24.6795 35.6257 22.786 35.1359 21.004C34.646 19.222 33.5847 17.6501 32.1149 16.5298C30.6451 15.4095 28.8482 14.8027 27.0001 14.8027C25.152 14.8027 23.355 15.4095 21.8852 16.5298C20.4154 17.6501 19.3541 19.222 18.8643 21.004C18.3745 22.786 18.4833 24.6795 19.174 26.3937C19.8647 28.1078 21.0991 29.5478 22.6876 30.4924C19.3736 31.5688 16.5736 33.8305 14.8243 36.844C14.7509 36.9504 14.7004 37.0709 14.6758 37.1978C14.6512 37.3247 14.6532 37.4553 14.6815 37.5815C14.7098 37.7076 14.7639 37.8265 14.8404 37.9308C14.9169 38.035 15.0142 38.1222 15.126 38.1871C15.2379 38.2519 15.3619 38.2929 15.4904 38.3075C15.6188 38.3221 15.7489 38.31 15.8724 38.2719C15.996 38.2338 16.1103 38.1706 16.2082 38.0862C16.3062 38.0018 16.3856 37.898 16.4415 37.7815C17.513 35.9299 19.0526 34.3926 20.9059 33.3239C22.7591 32.2552 24.8608 31.6926 27.0001 31.6926C29.1394 31.6926 31.2411 32.2552 33.0943 33.3239C34.9475 34.3926 36.4871 35.9299 37.5587 37.7815C37.6146 37.898 37.694 38.0018 37.7919 38.0862C37.8899 38.1706 38.0042 38.2338 38.1277 38.2719C38.2513 38.31 38.3814 38.3221 38.5098 38.3075C38.6383 38.2929 38.7623 38.2519 38.8742 38.1871C38.986 38.1222 39.0832 38.035 39.1597 37.9308C39.2362 37.8265 39.2903 37.7076 39.3187 37.5815C39.347 37.4553 39.349 37.3247 39.3244 37.1978C39.2998 37.0709 39.2492 36.9504 39.1759 36.844ZM20.4376 23.2502C20.4376 21.9523 20.8225 20.6835 21.5436 19.6043C22.2647 18.5251 23.2896 17.6839 24.4887 17.1872C25.6879 16.6905 27.0074 16.5606 28.2804 16.8138C29.5534 17.067 30.7227 17.692 31.6405 18.6098C32.5583 19.5276 33.1833 20.6969 33.4365 21.9699C33.6897 23.2429 33.5597 24.5624 33.063 25.7616C32.5663 26.9607 31.7252 27.9856 30.646 28.7067C29.5668 29.4278 28.298 29.8127 27.0001 29.8127C25.2596 29.8127 23.5904 29.1213 22.3597 27.8906C21.129 26.6599 20.4376 24.9907 20.4376 23.2502Z" fill="white"/>
<rect x="0.5" y="0.5" width="54" height="54" rx="27" stroke="white" stroke-opacity="0.26"/>
</svg>
