<svg width="137" height="63" viewBox="0 0 137 63" fill="none" xmlns="http://www.w3.org/2000/svg">
<path d="M78.4354 34.3688C76.7365 34.3688 75.1605 34.0559 73.7075 33.43C72.2545 32.804 70.9691 31.9434 69.8514 30.8481C68.7561 29.7303 67.8954 28.445 67.2695 26.9919C66.6659 25.5166 66.3642 23.9406 66.3642 22.264C66.3642 20.5875 66.6659 19.0227 67.2695 17.5696C67.8954 16.0943 68.7561 14.8089 69.8514 13.7135C70.9468 12.5958 72.221 11.724 73.674 11.0981C75.127 10.4722 76.703 10.1592 78.4019 10.1592C80.2797 10.1592 82.0456 10.5169 83.6999 11.2322C85.3764 11.9475 86.7736 12.987 87.8913 14.3506L85.0746 16.899C84.2699 15.8707 83.2863 15.0995 82.1239 14.5853C80.9615 14.0488 79.7208 13.7806 78.4019 13.7806C77.2618 13.7806 76.2112 13.993 75.25 14.4177C74.3111 14.8424 73.484 15.446 72.7686 16.2284C72.0533 16.9884 71.4944 17.8826 71.0921 18.9109C70.6897 19.9392 70.4885 21.0569 70.4885 22.264C70.4885 23.4712 70.6897 24.6 71.0921 25.6507C71.4944 26.679 72.0533 27.5732 72.7686 28.3332C73.5063 29.0932 74.3558 29.6968 75.317 30.1439C76.2783 30.5686 77.3401 30.781 78.5025 30.781C79.7543 30.781 80.8832 30.5239 81.8892 30.0098C82.8951 29.4733 83.7222 28.7356 84.3705 27.7967C85.0411 26.8578 85.4547 25.8072 85.6111 24.6448H78.6366V21.191H89.8696V22.4987C89.8696 24.1977 89.579 25.7625 88.9978 27.1931C88.439 28.6238 87.6454 29.8868 86.6171 30.9822C85.5888 32.0552 84.3817 32.8935 82.9957 33.497C81.6097 34.0782 80.0897 34.3688 78.4354 34.3688ZM102.201 34.3688C100.368 34.3688 98.6355 34.0559 97.0037 33.43C95.3942 32.7817 93.8406 31.8316 92.3428 30.5798L94.5224 27.629C96.0425 28.8585 97.3949 29.7303 98.5797 30.2445C99.7868 30.7586 101.072 31.0157 102.436 31.0157C103.464 31.0157 104.369 30.8592 105.152 30.5463C105.957 30.2333 106.571 29.7974 106.996 29.2385C107.443 28.6797 107.667 28.0314 107.667 27.2937C107.667 26.3325 107.343 25.606 106.694 25.1142C106.068 24.6 104.973 24.2088 103.408 23.9406L99.0826 23.2029C97.0484 22.8452 95.5283 22.1634 94.5224 21.1575C93.5388 20.1292 93.047 18.8215 93.047 17.2343C93.047 15.826 93.4047 14.5965 94.12 13.5459C94.8353 12.4729 95.8301 11.6458 97.1043 11.0646C98.4008 10.461 99.9321 10.1592 101.698 10.1592C103.464 10.1592 105.141 10.4163 106.728 10.9304C108.315 11.4446 109.779 12.1934 111.12 13.177L109.075 16.1949C107.89 15.3007 106.672 14.6301 105.42 14.183C104.168 13.7135 102.883 13.4788 101.564 13.4788C100.625 13.4788 99.798 13.6241 99.0826 13.9147C98.3896 14.2053 97.842 14.6077 97.4396 15.1218C97.0596 15.636 96.8696 16.206 96.8696 16.8319C96.8696 17.6814 97.149 18.3409 97.7078 18.8103C98.2891 19.2574 99.2168 19.5927 100.491 19.8162L104.682 20.5204C107.052 20.9451 108.796 21.6828 109.913 22.7335C111.053 23.7841 111.623 25.2036 111.623 26.9919C111.623 28.4226 111.221 29.6968 110.416 30.8145C109.634 31.9322 108.538 32.804 107.13 33.43C105.722 34.0559 104.079 34.3688 102.201 34.3688ZM115.537 34V10.5281H119.561V34H115.537Z" fill="white"/>
<path d="M73.2104 56.279C72.172 56.279 71.2028 56.0921 70.3029 55.7183C69.4168 55.3306 68.6345 54.7975 67.9561 54.1191C67.2777 53.4269 66.7516 52.6308 66.3778 51.7308C66.004 50.817 65.817 49.834 65.817 48.7818C65.817 47.7296 66.004 46.7535 66.3778 45.8535C66.7516 44.9398 67.2777 44.1437 67.9561 43.4652C68.6345 42.773 69.4168 42.2399 70.3029 41.8661C71.2028 41.4785 72.172 41.2846 73.2104 41.2846C73.9303 41.2846 74.6157 41.3815 75.2664 41.5754C75.931 41.7554 76.554 42.0253 77.1355 42.3853C77.717 42.7315 78.2362 43.1607 78.6931 43.6729L77.6339 44.7736C77.094 44.1229 76.4294 43.6245 75.6402 43.2783C74.8649 42.9184 74.0549 42.7384 73.2104 42.7384C72.3935 42.7384 71.632 42.8907 70.9259 43.1953C70.2198 43.4999 69.6037 43.9291 69.0776 44.4829C68.5653 45.0367 68.1638 45.6805 67.8731 46.4143C67.5823 47.1342 67.4369 47.9234 67.4369 48.7818C67.4369 49.6264 67.5823 50.4155 67.8731 51.1493C68.1638 51.8831 68.5653 52.5269 69.0776 53.0807C69.6037 53.6345 70.2198 54.0638 70.9259 54.3683C71.632 54.6729 72.3935 54.8252 73.2104 54.8252C74.0549 54.8252 74.8649 54.6452 75.6402 54.2853C76.4294 53.9253 77.094 53.4269 77.6339 52.79L78.6931 53.8907C78.2362 54.403 77.717 54.8391 77.1355 55.1991C76.554 55.5452 75.931 55.8152 75.2664 56.009C74.6157 56.189 73.9303 56.279 73.2104 56.279ZM85.4621 56.2167C84.5206 56.2167 83.6761 55.9882 82.9284 55.5313C82.1808 55.0745 81.5924 54.4514 81.1632 53.6622C80.734 52.8731 80.5194 51.98 80.5194 50.9832C80.5194 49.9863 80.734 49.0933 81.1632 48.3041C81.5924 47.515 82.1808 46.8919 82.9284 46.435C83.6761 45.9782 84.5206 45.7497 85.4621 45.7497C86.3897 45.7497 87.2204 45.9782 87.9542 46.435C88.7019 46.8919 89.2903 47.515 89.7195 48.3041C90.1487 49.0933 90.3633 49.9863 90.3633 50.9832C90.3633 51.98 90.1487 52.8731 89.7195 53.6622C89.2903 54.4514 88.7019 55.0745 87.9542 55.5313C87.2204 55.9882 86.3897 56.2167 85.4621 56.2167ZM85.4413 54.8875C86.1059 54.8875 86.6943 54.7214 87.2066 54.3891C87.7189 54.043 88.1204 53.5722 88.4111 52.9769C88.7157 52.3816 88.868 51.717 88.868 50.9832C88.868 50.2356 88.7157 49.571 88.4111 48.9895C88.1204 48.3941 87.7189 47.9303 87.2066 47.598C86.6943 47.2519 86.1059 47.0788 85.4413 47.0788C84.7768 47.0788 84.1883 47.2519 83.6761 47.598C83.1638 47.9303 82.7554 48.3941 82.4508 48.9895C82.16 49.571 82.0146 50.2356 82.0146 50.9832C82.0146 51.717 82.16 52.3816 82.4508 52.9769C82.7554 53.5722 83.1638 54.043 83.6761 54.3891C84.1883 54.7214 84.7768 54.8875 85.4413 54.8875ZM93.0232 56.0505V45.9158H94.5392V47.5565C94.9269 46.9473 95.3907 46.4973 95.9307 46.2066C96.4707 45.902 97.0798 45.7497 97.7583 45.7497C98.4921 45.7497 99.1289 45.9089 99.6689 46.2274C100.223 46.532 100.652 46.9681 100.957 47.5357C101.275 48.0895 101.434 48.7403 101.434 49.4879V56.0505H99.9181V49.924C99.9181 49.0241 99.6689 48.318 99.1705 47.8057C98.6859 47.2796 98.0282 47.0165 97.1975 47.0165C96.6437 47.0165 96.1384 47.1481 95.6815 47.4111C95.2246 47.6742 94.8438 48.0619 94.5392 48.5741V56.0505H93.0232ZM107.618 56.2582C106.787 56.2582 106.019 56.1336 105.313 55.8844C104.607 55.6213 104.004 55.2475 103.506 54.7629L104.316 53.7661C104.925 54.2091 105.486 54.5345 105.998 54.7422C106.51 54.936 107.036 55.0329 107.576 55.0329C108.31 55.0329 108.919 54.8598 109.404 54.5137C109.889 54.1676 110.131 53.7245 110.131 53.1846C110.131 52.7692 109.985 52.4439 109.695 52.2085C109.418 51.9731 108.954 51.7931 108.303 51.6685L106.642 51.3778C105.659 51.1978 104.932 50.8932 104.461 50.464C104.004 50.0348 103.776 49.4533 103.776 48.7195C103.776 48.138 103.928 47.6257 104.233 47.1827C104.551 46.7396 104.987 46.3935 105.541 46.1443C106.095 45.8812 106.725 45.7497 107.431 45.7497C108.123 45.7497 108.781 45.8535 109.404 46.0612C110.027 46.2551 110.657 46.5735 111.294 47.0165L110.546 48.0757C110.02 47.7019 109.494 47.4319 108.968 47.2658C108.442 47.0858 107.909 46.9958 107.369 46.9958C106.704 46.9958 106.171 47.1411 105.77 47.4319C105.368 47.7226 105.167 48.1172 105.167 48.6157C105.167 49.031 105.292 49.3495 105.541 49.571C105.804 49.7925 106.261 49.9586 106.912 50.0694L108.615 50.3809C109.639 50.5609 110.387 50.8724 110.858 51.3155C111.328 51.7585 111.564 52.3539 111.564 53.1015C111.564 53.6969 111.391 54.2368 111.045 54.7214C110.698 55.1921 110.228 55.566 109.632 55.8429C109.037 56.1198 108.366 56.2582 107.618 56.2582ZM117.486 56.2167C116.766 56.2167 116.129 56.0575 115.575 55.739C115.021 55.4206 114.585 54.9775 114.267 54.4099C113.962 53.8422 113.81 53.1915 113.81 52.4577V45.9158H115.347V52.0216C115.347 52.9215 115.589 53.6345 116.074 54.1607C116.558 54.6868 117.216 54.9498 118.046 54.9498C118.614 54.9498 119.119 54.8183 119.563 54.5553C120.019 54.2922 120.4 53.9115 120.705 53.413V45.9158H122.221V56.0505H120.705V54.4099C120.317 55.0052 119.853 55.4552 119.313 55.7598C118.787 56.0644 118.178 56.2167 117.486 56.2167ZM125.331 56.0505V41.0562L126.847 40.7447V56.0505H125.331ZM133.818 56.2582C132.946 56.2582 132.281 56.0505 131.824 55.6352C131.381 55.206 131.16 54.5899 131.16 53.7868V47.1619H129.062V45.9158H131.16V43.133L132.676 42.7799V45.9158H135.583V47.1619H132.676V53.3923C132.676 53.9322 132.786 54.3199 133.008 54.5553C133.243 54.7906 133.624 54.9083 134.15 54.9083C134.413 54.9083 134.649 54.8875 134.856 54.846C135.064 54.8045 135.306 54.7352 135.583 54.6383V55.9882C135.306 56.0852 135.015 56.1544 134.711 56.1959C134.406 56.2374 134.109 56.2582 133.818 56.2582Z" fill="white"/>
<g clip-path="url(#clip0_495_2)">
<mask id="mask0_495_2" style="mask-type:alpha" maskUnits="userSpaceOnUse" x="0" y="3" width="59" height="58">
<path d="M11.0029 36.6284L0.0585938 39.6053V60.3509H57.109L58.5235 5.6579L58.6235 4.74683L58.5235 3.53613L11.0029 36.6284Z" fill="black"/>
</mask>
<g mask="url(#mask0_495_2)">
<path fill-rule="evenodd" clip-rule="evenodd" d="M47.0734 24.8577C47.1869 38.6118 44.9777 53.5192 37.6561 62.9755L34.9999 60.9188C41.5929 52.4036 43.8264 38.4855 43.7141 24.8854C43.6023 11.3374 41.1715 -1.38382 38.8911 -7.17516L42.0168 -8.40601C44.4958 -2.11056 46.9594 11.0513 47.0734 24.8577ZM25.8936 67.3469C33.8322 58.4023 37.0349 43.6763 37.8429 29.9454C38.654 16.1625 37.0775 2.86514 35.0258 -3.58221L31.8246 -2.5635C33.712 3.36759 35.2852 16.2231 34.4893 29.7481C33.6904 43.3252 30.5296 57.0624 23.3811 65.1169L25.8936 67.3469ZM28.3778 39.766C26.6021 51.5048 22.6193 64.0389 14.8639 71.4614L12.5411 69.0345C19.4639 62.4088 23.3087 50.8162 25.0562 39.2636C26.7983 27.747 26.3876 16.7504 25.1838 11.6751L28.4524 10.8998C29.7883 16.5315 30.159 27.9911 28.3778 39.766ZM17.1071 52.0569C13.2401 63.2819 7.05867 74.8903 -1.90993 80.7898L-3.7561 77.9832C4.24961 72.7171 10.1253 62.0097 13.9309 50.9627C17.7246 39.9503 19.3071 29.0605 19.0399 23.8512L22.3948 23.679C22.6914 29.4595 20.9859 40.7975 17.1071 52.0569ZM46.1372 63.0302C53.4588 53.574 55.668 38.6666 55.5544 24.9124C55.4405 11.1061 52.9769 -2.0558 50.4979 -8.35125L47.3721 -7.1204C49.6526 -1.32906 52.0833 11.3922 52.1952 24.9401C52.3074 38.5402 50.0739 52.4583 43.4809 60.9736L46.1372 63.0302Z" fill="url(#paint0_linear_495_2)"/>
</g>
</g>
<defs>
<linearGradient id="paint0_linear_495_2" x1="40.1366" y1="12.7305" x2="8.58235" y2="58.8245" gradientUnits="userSpaceOnUse">
<stop stop-color="white"/>
<stop offset="1" stop-color="white" stop-opacity="0"/>
</linearGradient>
<clipPath id="clip0_495_2">
<rect width="57.1094" height="53.75" fill="white" transform="translate(0 6.12939)"/>
</clipPath>
</defs>
</svg>
