<svg width="443" height="368" viewBox="0 0 443 368" fill="none" xmlns="http://www.w3.org/2000/svg">
<g clip-path="url(#clip0_194_153483)">
<path style="mix-blend-mode:screen" opacity="0.4" d="M444.685 214.16C445.066 147.399 345.983 92.7683 223.377 92.1392C100.771 91.5101 1.07058 145.121 0.689677 211.882C0.308779 278.643 99.3917 333.274 221.998 333.903C344.603 334.532 444.304 280.921 444.685 214.16Z" fill="url(#paint0_radial_194_153483)" fill-opacity="0.7"/>
<path d="M198.277 37.509C198.277 35.3721 196.777 32.7722 194.926 31.7041C193.075 30.6343 191.573 31.501 191.573 33.6388C191.573 35.7767 193.075 38.3757 194.926 39.4445C196.777 40.5126 198.277 39.6469 198.277 37.509ZM268.037 7.21683C268.037 5.07997 266.536 2.48 264.685 1.412C262.834 0.342208 261.333 1.20885 261.333 3.34663C261.333 5.48399 262.834 8.08339 264.685 9.15239C266.536 10.2204 268.037 9.35419 268.037 7.21683ZM306.526 26.8847C306.526 24.7468 305.025 22.1478 303.174 21.0789C301.323 20.01 299.823 20.8766 299.823 23.0145C299.823 25.1523 301.323 27.7504 303.174 28.8202C305.025 29.8882 306.526 29.0216 306.526 26.8847ZM352.357 14.9923C352.357 12.8545 350.856 10.2554 349.006 9.18656C347.154 8.11772 345.654 8.98428 345.654 11.1221C345.654 13.2599 347.154 15.858 349.006 16.9278C350.856 17.9958 352.357 17.1292 352.357 14.9923Z" fill="#CED3F8"/>
<path d="M213.726 49.8875C213.416 49.8875 213.107 49.8778 212.795 49.858C206.501 49.4568 200.464 44.9161 194.338 35.9765L195.513 35.1713C201.374 43.726 207.058 48.065 212.886 48.437C222.826 49.074 232.512 38.2229 243.711 25.6595C250.098 18.4959 256.701 11.0882 264.225 4.73714C268.705 0.955761 273.36 -0.574717 278.064 0.192245C286.179 1.51274 294.592 9.48992 303.784 24.5792C307.635 30.9008 312.364 34.2208 317.842 34.4478C318.05 34.4561 318.259 34.4607 318.466 34.4607C331.499 34.4607 344.661 17.8103 348.431 12.6378L349.582 13.4764C346.398 17.8443 341.285 24.0765 335.005 28.9628C328.834 33.7646 323.035 36.0868 317.783 35.8705C311.8 35.6229 306.681 32.0731 302.567 25.3198C293.605 10.6074 285.515 2.8475 277.835 1.59791C273.498 0.891427 269.349 2.2759 265.144 5.82535C257.698 12.1114 251.128 19.4805 244.775 26.6072C233.662 39.0723 224.02 49.8872 213.726 49.8875Z" fill="#CED3F8"/>
<path d="M437.12 169.336C437.12 171.685 435.455 172.647 433.42 171.472L348.987 122.724C346.952 121.549 345.287 118.666 345.287 116.316V49.038C345.287 46.6882 346.952 45.7269 348.987 46.9018L433.42 95.6493C435.455 96.8242 437.12 99.708 437.12 102.058V169.336Z" fill="white"/>
<path d="M433.42 95.6493L348.987 46.9018C346.952 45.7269 345.287 46.6882 345.287 49.038V53.1322L437.12 106.152V102.058C437.12 99.708 435.455 96.8242 433.42 95.6493Z" fill="#4AED98"/>
<path d="M349.103 49.47L352.015 51.1515V54.5145L349.103 52.833V49.47Z" fill="white"/>
<path d="M354.806 52.7634L357.719 54.4449V57.8079L354.806 56.1264V52.7634Z" fill="white"/>
<path d="M360.51 56.0564L363.423 57.7379V61.1009L360.51 59.4194V56.0564Z" fill="white"/>
<path d="M436.503 93.8692L352.07 45.1217C351.062 44.5396 350.146 44.4832 349.476 44.8588L349.476 44.8582L349.468 44.8627L349.447 44.875L346.393 46.6383L346.393 46.639C347.062 46.2634 347.979 46.3198 348.987 46.9018L433.42 95.6493C435.455 96.8242 437.12 99.708 437.12 102.058V169.336C437.12 170.46 436.736 171.261 436.116 171.668L438.975 170.017L438.972 170.013C439.725 169.665 440.203 168.811 440.203 167.555V100.278C440.203 97.9278 438.538 95.044 436.503 93.8692Z" fill="url(#paint1_linear_194_153483)"/>
<path d="M369.856 75.7172C369.856 74.859 370.459 74.5108 371.202 74.94C371.593 75.1955 371.92 75.5397 372.153 75.9448C372.387 76.3499 372.522 76.8045 372.548 77.2716C372.548 78.1298 371.946 78.4782 371.202 78.0487C370.81 77.7932 370.484 77.4489 370.25 77.0438C370.016 76.6387 369.881 76.1842 369.856 75.7172ZM362.603 71.5299C362.603 70.6712 363.206 70.3235 363.949 70.7528C364.341 71.0083 364.667 71.3526 364.901 71.7577C365.134 72.1628 365.269 72.6173 365.295 73.0843C365.295 73.9425 364.692 74.2909 363.949 73.8615C363.557 73.6059 363.231 73.2617 362.997 72.8566C362.763 72.4515 362.628 71.997 362.603 71.5299V71.5299ZM379.8 81.4589C379.775 80.9918 379.64 80.5373 379.406 80.1321C379.172 79.727 378.846 79.3828 378.454 79.1274C377.711 78.6985 377.109 79.0464 377.109 79.9046C377.134 80.3716 377.269 80.8262 377.503 81.2313C377.737 81.6364 378.063 81.9806 378.454 82.2361C379.198 82.6654 379.8 82.3177 379.8 81.4589Z" fill="#83FDBD"/>
<path d="M352.411 74.323L390.097 96.0572V98.4821L352.411 76.7479V74.323Z" fill="#BBC0E6"/>
<path d="M352.411 81.1396L390.097 102.874V105.299L352.411 83.5645V81.1396Z" fill="#BBC0E6"/>
<path d="M352.306 87.8723L390.097 109.691V112.115L352.306 90.2972V87.8723Z" fill="#BBC0E6"/>
<path d="M352.306 94.6887L390.097 116.507V118.932L352.306 97.1136V94.6887Z" fill="#BBC0E6"/>
<path d="M352.306 101.505L390.097 123.324V125.749L352.306 103.93V101.505Z" fill="#BBC0E6"/>
<path d="M352.306 112.984L427.035 156.128V158.553L352.306 115.409V112.984Z" fill="#BBC0E6"/>
<path d="M403.086 119.636C404.381 125.329 408.356 131.227 413.062 133.943C416.373 135.855 419.321 135.772 421.23 134.094L425.373 140.274C422.496 142.802 418.052 142.927 413.062 140.046C405.97 135.952 399.978 127.063 398.027 118.483L403.086 119.636Z" fill="#BFFDDC"/>
<path d="M397.355 112.841C397.369 114.741 397.594 116.633 398.027 118.483L403.086 119.636C402.799 118.409 402.65 117.153 402.641 115.893C402.641 109.247 407.307 106.553 413.062 109.876V103.773C404.388 98.7648 397.355 102.825 397.355 112.841Z" fill="#CED2F4"/>
<path d="M413.062 103.773V109.876C418.818 113.199 423.484 121.281 423.484 127.927C423.484 130.749 422.64 132.856 421.231 134.095L425.373 140.274C427.497 138.407 428.769 135.232 428.769 130.978C428.769 120.962 421.737 108.781 413.062 103.773Z" fill="#4AED98"/>
<path d="M123.649 25.6133V66.0819L88.6018 86.3169C88.6018 63.9666 104.293 36.7885 123.649 25.6133Z" fill="#807DF9"/>
<path d="M117.031 21.7927L140.991 35.6255L106.657 96.7407L81.9846 82.4963C81.9846 60.1453 97.6754 32.9678 117.031 21.7927Z" fill="url(#paint2_linear_194_153483)"/>
<path d="M123.649 25.6133V66.0819L88.6018 86.3169C88.6018 63.9666 104.293 36.7885 123.649 25.6133Z" fill="#83FDBD"/>
<path d="M88.6018 86.3168L123.649 66.0818L92.6168 102.804C90.0572 98.6611 88.6018 93.1069 88.6018 86.3168Z" fill="#1EAC6C"/>
<path d="M123.649 66.0818V25.6133C143.005 14.4381 158.695 23.4973 158.695 45.8475C158.695 68.1978 143.005 95.3753 123.649 106.551C110.173 114.33 98.4814 112.294 92.6167 102.804L123.649 66.0818Z" fill="#BCC4E2"/>
<path d="M117.031 21.7929C126.767 16.1723 135.573 15.6745 141.923 19.4072L148.1 22.973L148.095 22.9827C141.78 19.5268 133.16 20.122 123.649 25.6132L117.031 21.7929Z" fill="#F5F5FA"/>
<path d="M91.6236 104.789C89.3344 103.303 87.4116 101.319 85.9995 98.9836L92.6165 102.804C94.0287 105.139 95.9518 107.124 98.2413 108.609L91.6236 104.789Z" fill="#A1A7CE"/>
<path d="M85.9996 98.9836C83.44 94.8411 81.9846 89.2865 81.9846 82.4963L88.6017 86.3166H88.601C88.601 93.1068 90.057 98.661 92.6166 102.804L85.9996 98.9836Z" fill="#188D52"/>
<path style="mix-blend-mode:multiply" d="M105.463 149.363L46.3649 190.726L13.9539 209.438L32.4094 220.094L110.984 214.355L187.541 174.324L183.822 172.176L105.463 149.363Z" fill="url(#paint3_linear_194_153483)"/>
<path d="M0 201.381L32.41 220.094L17.4808 151.962L14.9294 150.489L0 201.381ZM3.23142 200.527L16.2044 156.306L29.1772 215.507L3.23142 200.527Z" fill="#8CFDC2"/>
<path d="M3.23169 200.527L23.3503 188.913L16.2049 156.306L3.23169 200.527Z" fill="#1EAC6C"/>
<path d="M3.23169 200.527L29.1777 215.507L23.3503 188.913L3.23169 200.527Z" fill="#1BD274"/>
<path d="M14.9292 150.489L96.614 103.328L99.1653 104.802L17.4805 151.962L14.9292 150.489Z" fill="#F1F1F6"/>
<path d="M17.4807 151.962C44.712 136.245 71.9403 120.525 99.1656 104.802C104.136 127.513 109.112 150.224 114.093 172.934C86.8666 188.655 59.6388 204.375 32.4099 220.094C27.4296 197.385 22.4532 174.675 17.4807 151.962Z" fill="#F1F3FB"/>
<path d="M19.3743 160.599C46.6207 144.964 73.8673 129.33 101.114 113.696C100.27 109.846 99.8724 108.032 99.1656 104.802C71.9387 120.523 44.7104 136.243 17.4807 151.962C18.1621 155.07 18.5498 156.834 19.3743 160.599Z" fill="#1EAC6C"/>
<path d="M60.7447 129.191C59.1924 130.087 58.4155 130.531 56.8617 131.428C57.233 133.115 57.4268 134.009 57.8323 135.862C59.3862 134.969 60.1646 134.525 61.7168 133.631C61.3113 131.776 61.1144 130.883 60.7447 129.191ZM47.639 136.743C46.0867 137.638 45.3114 138.084 43.7589 138.979C44.1273 140.659 44.3211 141.546 44.7253 143.392C46.2776 142.499 47.0545 142.055 48.6067 141.162C48.2011 139.314 48.0073 138.425 47.639 136.743ZM34.5362 144.296C32.984 145.192 32.2071 145.638 30.6548 146.533C31.0201 148.203 31.214 149.087 31.6181 150.926C33.1704 150.032 33.9442 149.585 35.4966 148.694C35.0939 146.855 34.903 145.969 34.5362 144.296ZM69.9673 123.875C71.5196 122.98 72.2935 122.531 73.8459 121.637C74.2201 123.338 74.4169 124.237 74.8256 126.101C73.2733 126.993 72.4948 127.437 70.9426 128.329C70.534 126.468 70.3386 125.573 69.9673 123.875ZM83.0715 116.322C84.6237 115.426 85.3993 114.982 86.9516 114.085C87.3257 115.796 87.5255 116.698 87.9341 118.569C86.3818 119.461 85.6034 119.906 84.0511 120.797C83.6427 118.93 83.4459 118.03 83.0715 116.322Z" fill="#0E4E14"/>
<path d="M89.6309 135.182C92.0392 133.808 93.244 133.123 95.6522 131.747C95.1139 129.292 94.8484 128.077 94.3311 125.718C91.9213 127.094 90.721 127.785 88.3113 129.161C88.8273 131.519 89.0927 132.729 89.6309 135.182ZM79.7939 140.8C82.2021 139.425 83.4069 138.736 85.8151 137.361C85.2784 134.908 85.0128 133.699 84.4969 131.343C82.0903 132.719 80.8854 133.412 78.4773 134.789C78.9931 137.142 79.2571 138.35 79.7939 140.8Z" fill="#16FF85"/>
<path d="M69.9565 146.416C72.3662 145.042 73.5681 144.353 75.9777 142.978C75.441 140.526 75.174 139.32 74.6596 136.969C72.2513 138.346 71.0465 139.035 68.6399 140.413C69.1543 142.76 69.4212 143.969 69.9565 146.416Z" fill="#CED3F8"/>
<path d="M60.1195 152.034C62.5275 150.659 63.728 149.972 66.1376 148.597C65.6008 146.148 65.3354 144.942 64.821 142.595C62.4127 143.973 61.2125 144.662 58.8043 146.039C59.3172 148.384 59.5825 149.588 60.1195 152.034ZM50.2808 157.651C52.6891 156.276 53.8938 155.587 56.3021 154.212C55.7652 151.767 55.4998 150.565 54.9869 148.222C52.5772 149.599 51.3768 150.289 48.9687 151.666C49.4816 154.005 49.7455 155.207 50.2808 157.651ZM40.4423 163.268C42.8504 161.892 44.0554 161.204 46.4635 159.83C45.9297 157.387 45.6643 156.185 45.1514 153.847C42.7431 155.223 41.5412 155.914 39.1331 157.29C39.6445 159.627 39.907 160.827 40.4423 163.268ZM30.6053 168.885C33.0149 167.509 34.2167 166.823 36.625 165.447C36.0912 163.007 35.8272 161.808 35.3158 159.473C32.9075 160.849 31.7072 161.538 29.2974 162.915C29.8089 165.247 30.0714 166.446 30.6053 168.885Z" fill="#F1F1F6"/>
<path d="M91.8697 145.397C94.2779 144.022 95.4812 143.336 97.8909 141.963C97.3361 139.432 97.0573 138.169 96.5101 135.673C94.1019 137.046 92.9015 137.732 90.4918 139.107C91.039 141.602 91.315 142.866 91.8697 145.397ZM82.0311 151.006C84.4394 149.633 85.6441 148.944 88.0524 147.571C87.4992 145.042 87.2218 143.777 86.6745 141.283C84.2648 142.656 83.063 143.348 80.6533 144.721C81.1991 147.214 81.4779 148.477 82.0311 151.006Z" fill="#16FF85"/>
<path d="M72.1891 156.617C74.5971 155.244 75.8036 154.556 78.2118 153.183C77.6585 150.656 77.3813 149.39 76.8355 146.896C74.4258 148.27 73.2239 148.959 70.8157 150.332C71.3615 152.824 71.6359 154.09 72.1891 156.617ZM62.352 162.23C64.7603 160.855 65.9621 160.168 68.3702 158.793C67.817 156.265 67.5411 155.004 66.9954 152.512C64.5872 153.886 63.3839 154.575 60.9756 155.948C61.5215 158.438 61.7988 159.701 62.352 162.23Z" fill="#CED2F4"/>
<path d="M52.5105 167.838C54.9186 166.465 56.125 165.778 58.5332 164.404C57.98 161.877 57.7027 160.615 57.1569 158.126C54.7486 159.5 53.5453 160.186 51.1372 161.561C51.6829 164.048 51.9573 165.311 52.5105 167.838Z" fill="#16FF85"/>
<path d="M42.6722 173.449C45.082 172.076 46.2852 171.387 48.6951 170.014C48.1403 167.486 47.8659 166.225 47.3202 163.736C44.9119 165.11 43.7057 165.801 41.2974 167.175C41.8433 169.662 42.119 170.922 42.6722 173.449ZM32.8353 179.062C35.2434 177.687 36.4483 177.001 38.8564 175.628C38.3032 173.099 38.0244 171.837 37.4816 169.352C35.072 170.725 33.8701 171.413 31.4604 172.786C32.0047 175.272 32.2805 176.535 32.8353 179.062ZM94.1272 155.699C96.5354 154.324 97.7403 153.638 100.148 152.263C99.6011 149.764 99.3223 148.501 98.7691 145.972C96.3594 147.345 95.1576 148.031 92.7493 149.406C93.3025 151.935 93.58 153.2 94.1272 155.699ZM84.2886 161.313C86.6969 159.938 87.9016 159.248 90.3099 157.874C89.7626 155.375 89.4851 154.111 88.932 151.582C86.5239 152.955 85.319 153.646 82.9109 155.019C83.4641 157.549 83.7413 158.812 84.2886 161.313Z" fill="#16FF85"/>
<path d="M74.4501 166.926C76.8598 165.552 78.0632 164.865 80.4713 163.492C79.9225 160.991 79.6467 159.723 79.0921 157.195C76.6838 158.568 75.479 159.255 73.0707 160.629C73.6254 163.159 73.9014 164.424 74.4501 166.926ZM64.61 172.543C67.0196 171.17 68.2231 170.482 70.6329 169.107C70.084 166.605 69.8066 165.338 69.252 162.807C66.8438 164.181 65.639 164.867 63.2307 166.241C63.7854 168.772 64.0612 170.039 64.61 172.543ZM54.7729 178.156C57.1812 176.782 58.3861 176.092 60.7942 174.718C60.2454 172.212 59.9681 170.949 59.4119 168.417C57.0037 169.79 55.8019 170.478 53.3921 171.851C53.9468 174.383 54.2243 175.649 54.7729 178.156Z" fill="#CED2F4"/>
<path d="M44.9347 183.771C47.3428 182.397 48.5477 181.706 50.9558 180.331C50.4072 177.825 50.1297 176.557 49.575 174.027C47.1654 175.4 45.962 176.089 43.5523 177.462C44.1086 179.994 44.3844 181.262 44.9347 183.771ZM35.0976 189.384C37.5057 188.011 38.709 187.323 41.1173 185.948C40.5671 183.44 40.2913 182.173 39.7365 179.641C37.3269 181.014 36.1249 181.7 33.7168 183.075C34.2715 185.607 34.5473 186.874 35.0976 189.384ZM96.3135 165.672C98.7218 164.296 99.9236 163.605 102.332 162.229C101.814 159.867 101.546 158.652 101.008 156.194C98.5995 157.569 97.3991 158.258 94.9893 159.633C95.529 162.093 95.7962 163.307 96.3135 165.672ZM86.4764 171.298C88.8831 169.922 90.0894 169.231 92.4961 167.853C91.9773 165.487 91.7117 164.27 91.1735 161.81C88.7638 163.185 87.5605 163.875 85.1508 165.25C85.6907 167.712 85.9575 168.928 86.4764 171.298Z" fill="#16FF85"/>
<path d="M76.6402 176.925C79.0485 175.547 80.2532 174.86 82.66 173.482C82.1412 171.111 81.8742 169.892 81.3344 167.428C78.9262 168.803 77.7228 169.494 75.3147 170.868C75.8545 173.333 76.1199 174.553 76.6402 176.925Z" fill="#16FF85"/>
<path d="M66.8044 182.551C69.2112 181.174 70.4145 180.486 72.8227 179.108C72.3022 176.733 72.0354 175.513 71.4941 173.047C69.0859 174.422 67.8855 175.109 65.4773 176.486C66.0186 178.953 66.284 180.175 66.8044 182.551ZM56.9689 188.179C59.3771 186.801 60.5819 186.112 62.9886 184.734C62.4667 182.356 62.1998 181.136 61.6585 178.667C59.2504 180.042 58.047 180.729 55.6387 182.106C56.18 184.576 56.4469 185.796 56.9689 188.179Z" fill="#CED2F4"/>
<path d="M47.134 193.805C49.5436 192.426 50.747 191.737 53.1538 190.359C52.6319 187.976 52.3619 186.753 51.8206 184.281C49.4125 185.657 48.2106 186.345 45.801 187.721C46.3436 190.195 46.6121 191.418 47.134 193.805ZM37.3 199.433C39.708 198.056 40.9115 197.366 43.3197 195.99C42.7963 193.601 42.5278 192.375 41.985 189.9C39.5754 191.276 38.3751 191.964 35.9668 193.338C36.5096 195.815 36.775 197.042 37.3 199.433Z" fill="#16FF85"/>
<path d="M98.3286 174.876C100.735 173.493 101.937 172.802 104.344 171.419C103.88 169.297 103.636 168.19 103.135 165.909C100.728 167.288 99.5261 167.977 97.118 169.356C97.6189 171.641 97.8634 172.75 98.3286 174.876ZM88.4991 180.526C90.9058 179.143 92.1077 178.449 94.5159 177.067C94.0491 174.939 93.8031 173.827 93.3035 171.541C90.8967 172.92 89.692 173.61 87.2853 174.991C87.7862 177.28 88.0309 178.394 88.4991 180.526ZM78.668 186.175C81.0746 184.791 82.278 184.101 84.6848 182.718C84.2179 180.585 83.972 179.468 83.4695 177.177C81.0627 178.557 79.8564 179.246 77.4497 180.625C77.9538 182.92 78.1997 184.035 78.668 186.175Z" fill="#F1F1F6"/>
<path d="M68.8376 191.826C71.2441 190.443 72.4446 189.751 74.8527 188.368C74.3831 186.226 74.1371 185.109 73.633 182.811C71.2263 184.19 70.026 184.881 67.6177 186.26C68.1217 188.561 68.3663 189.681 68.8376 191.826Z" fill="#CED2F4"/>
<path d="M59.0046 197.473C61.4113 196.089 62.6163 195.399 65.0228 194.017C64.5532 191.868 64.3057 190.747 63.8016 188.444C61.395 189.825 60.1901 190.513 57.7834 191.893C58.2874 194.199 58.532 195.322 59.0046 197.473ZM49.1734 203.12C51.5817 201.738 52.7836 201.047 55.1903 199.665C54.7191 197.51 54.4731 196.386 53.9676 194.079C51.5608 195.459 50.3561 196.148 47.9493 197.527C48.4562 199.837 48.7008 200.962 49.1734 203.12ZM39.3454 208.77C41.7521 207.388 42.954 206.696 45.3607 205.314C44.8864 203.151 44.6404 202.026 44.1349 199.713C41.7267 201.094 40.5234 201.781 38.1152 203.162C38.6222 205.478 38.8697 206.605 39.3454 208.77Z" fill="#CED3F8"/>
<path d="M31.7974 147.235L33.2959 146.3C33.1989 146.945 32.4325 147.177 31.7974 147.235Z" fill="#A5ABCC"/>
<path d="M29.8328 137.608C27.6513 136.35 25.8828 137.368 25.8813 139.887C25.93 141.178 26.2946 142.437 26.9431 143.554L25.6249 144.314C24.6442 142.643 24.0948 140.753 24.0264 138.816C24.0279 135.114 26.624 133.614 29.8315 135.466C33.0374 137.316 35.6364 141.816 35.6349 145.519C35.6364 148.187 34.2765 149.687 32.3216 149.636L31.7968 147.235C32.9762 147.129 33.7815 146.136 33.7799 144.447C33.7799 141.928 32.013 138.868 29.8328 137.608Z" fill="#CED3F8"/>
<path d="M28.377 137.097C28.1416 137.58 28.0212 138.111 28.0252 138.648C28.074 139.938 28.4386 141.197 29.0868 142.314L26.9441 143.554C26.2956 142.437 25.931 141.177 25.8823 139.887C25.8838 137.965 26.9188 136.925 28.377 137.097Z" fill="#A5ABCC"/>
<path d="M27.7143 133.948C28.7759 133.227 30.2836 133.25 31.9745 134.226C35.182 136.077 37.7795 140.577 37.7781 144.28C37.7795 146.251 37.0354 147.578 35.8589 148.119V148.124L33.7162 149.363V149.358C34.8911 148.817 35.6367 147.489 35.6352 145.519C35.6367 141.816 33.0378 137.316 29.8318 135.465C28.2661 134.562 26.854 134.468 25.8115 135.026L27.6935 133.937L27.7143 133.948Z" fill="url(#paint4_linear_194_153483)"/>
<path d="M44.9014 139.681L46.3999 138.746C46.303 139.39 45.5365 139.623 44.9014 139.681Z" fill="#A5ABCC"/>
<path d="M42.9377 130.054C40.7561 128.795 38.9876 129.814 38.9862 132.332C39.0348 133.623 39.3993 134.882 40.0479 135.999L38.7297 136.76C37.749 135.088 37.1996 133.199 37.1311 131.262C37.1327 127.559 39.7287 126.059 42.9362 127.911C46.1422 129.762 48.7411 134.262 48.7398 137.965C48.7411 140.632 47.3813 142.132 45.4263 142.082L44.9016 139.681C46.0811 139.575 46.8862 138.582 46.8847 136.892C46.8847 134.374 45.1177 131.314 42.9377 130.054Z" fill="#CED3F8"/>
<path d="M41.481 129.543C41.2456 130.026 41.1251 130.556 41.129 131.093C41.1781 132.384 41.5426 133.643 42.1908 134.76L40.048 135.999C39.3994 134.882 39.0349 133.623 38.9863 132.333C38.9877 130.411 40.0226 129.371 41.481 129.543Z" fill="#A5ABCC"/>
<path d="M40.8189 126.394C41.8806 125.673 43.3881 125.696 45.079 126.672C48.2865 128.523 50.8842 133.023 50.8827 136.726C50.8842 138.697 50.1401 140.024 48.9636 140.565V140.57L46.8207 141.809V141.805C47.9958 141.263 48.7413 139.935 48.7399 137.965C48.7413 134.262 46.1423 129.762 42.9363 127.911C41.3706 127.008 39.9585 126.914 38.9163 127.472L40.798 126.383L40.8189 126.394Z" fill="url(#paint5_linear_194_153483)"/>
<path d="M58.0061 132.127L59.5048 131.192C59.4078 131.836 58.6413 132.069 58.0061 132.127Z" fill="#A5ABCC"/>
<path d="M56.0416 122.5C53.8601 121.242 52.0916 122.26 52.0901 124.779C52.1388 126.069 52.5033 127.328 53.1517 128.445L51.8335 129.206C50.8528 127.534 50.3035 125.645 50.2351 123.708C50.2365 120.005 52.8326 118.505 56.0401 120.357C59.246 122.208 61.8452 126.708 61.8436 130.411C61.8452 133.078 60.4853 134.578 58.5303 134.527L58.0054 132.127C59.1849 132.021 59.9901 131.028 59.9888 129.338C59.9888 126.82 58.2216 123.76 56.0416 122.5Z" fill="#CED3F8"/>
<path d="M54.5848 121.989C54.3494 122.471 54.2289 123.002 54.2329 123.539C54.2819 124.83 54.6464 126.089 55.2945 127.206L53.1518 128.445C52.5033 127.328 52.1388 126.069 52.0901 124.779C52.0916 122.856 53.1264 121.817 54.5848 121.989Z" fill="#A5ABCC"/>
<path d="M53.9229 118.839C54.9846 118.119 56.4921 118.141 58.183 119.118C61.3905 120.969 63.9882 125.469 63.9867 129.171C63.9882 131.143 63.2441 132.47 62.0676 133.011V133.016L59.9249 134.255V134.25C61.0998 133.709 61.8455 132.38 61.8439 130.411C61.8455 126.708 59.2463 122.208 56.0403 120.357C54.4746 119.454 53.0626 119.36 52.0203 119.917L53.9021 118.829L53.9229 118.839Z" fill="url(#paint6_linear_194_153483)"/>
<path d="M71.1101 124.573L72.6086 123.638C72.5117 124.282 71.7453 124.514 71.1101 124.573Z" fill="#A5ABCC"/>
<path d="M69.1464 114.946C66.9648 113.687 65.1964 114.706 65.1948 117.224C65.2435 118.515 65.6081 119.774 66.2565 120.891L64.9385 121.652C63.9577 119.98 63.4083 118.091 63.3398 116.154C63.3414 112.451 65.9375 110.951 69.1448 112.803C72.351 114.654 74.9499 119.154 74.9484 122.856C74.9499 125.524 73.5901 127.024 71.6351 126.974L71.1103 124.573C72.2897 124.467 73.095 123.474 73.0935 121.784C73.0935 119.266 71.3265 116.206 69.1464 114.946Z" fill="#CED3F8"/>
<path d="M67.6888 114.435C67.4535 114.917 67.333 115.448 67.337 115.985C67.3859 117.276 67.7504 118.535 68.3987 119.652L66.2558 120.891C65.6074 119.774 65.2428 118.515 65.1941 117.224C65.1957 115.302 66.2304 114.263 67.6888 114.435Z" fill="#A5ABCC"/>
<path d="M67.0269 111.285C68.0887 110.565 69.5961 110.587 71.2873 111.564C74.4948 113.415 77.0922 117.915 77.0908 121.617C77.0922 123.589 76.3481 124.916 75.1716 125.457V125.461L73.0289 126.701V126.696C74.2039 126.155 74.9495 124.826 74.9479 122.856C74.9495 119.154 72.3505 114.654 69.1443 112.803C67.5788 111.899 66.1667 111.806 65.1243 112.363L67.0062 111.275L67.0269 111.285Z" fill="url(#paint7_linear_194_153483)"/>
<path d="M84.2141 117.018L85.7127 116.083C85.6158 116.728 84.8493 116.96 84.2141 117.018Z" fill="#A5ABCC"/>
<path d="M82.2496 107.392C80.0678 106.133 78.2994 107.152 78.298 109.67C78.3466 110.961 78.7112 112.22 79.3597 113.337L78.0415 114.098C77.0608 112.426 76.5114 110.537 76.4429 108.6C76.4444 104.897 79.0406 103.397 82.248 105.249C85.454 107.1 88.053 111.6 88.0516 115.302C88.053 117.97 86.6931 119.47 84.7382 119.419L84.2133 117.019C85.3929 116.913 86.198 115.92 86.1965 114.23C86.1965 111.712 84.4296 108.652 82.2496 107.392Z" fill="#CED3F8"/>
<path d="M80.7936 106.88C80.5582 107.363 80.4377 107.894 80.4416 108.431C80.4907 109.722 80.8552 110.981 81.5033 112.098L79.3606 113.337C78.712 112.22 78.3475 110.961 78.2988 109.67C78.3003 107.748 79.3352 106.709 80.7936 106.88Z" fill="#A5ABCC"/>
<path d="M80.1308 103.731C81.1924 103.011 82.7 103.033 84.3909 104.01C87.5984 105.86 90.196 110.361 90.1944 114.063C90.196 116.034 89.4519 117.362 88.2752 117.903V117.907L86.1325 119.146V119.142C87.3076 118.601 88.0531 117.272 88.0517 115.302C88.0531 111.6 85.4541 107.1 82.2481 105.249C80.6825 104.345 79.2703 104.251 78.228 104.809L80.1098 103.721L80.1308 103.731Z" fill="url(#paint8_linear_194_153483)"/>
<g style="mix-blend-mode:multiply">
<path d="M381.739 109.361L331.795 80.5264V108.525C331.795 110.875 333.46 113.759 335.495 114.933L386.337 144.287V117.324C386.337 114.405 384.267 110.821 381.739 109.361Z" fill="#DFE4F4"/>
</g>
<path d="M373.646 233.238C373.646 236.158 371.576 237.352 369.048 235.892L214.617 146.732C212.088 145.272 210.02 141.689 210.02 138.77V22.2883C210.02 19.3685 212.088 18.1743 214.617 19.634L369.048 108.794C371.576 110.254 373.646 113.838 373.646 116.757V233.238Z" fill="#4E4E58"/>
<path d="M372.519 106.791L218.088 17.6304C216.807 16.8914 215.646 16.8349 214.81 17.336V17.3334L211.507 19.249L211.516 19.2504C212.335 18.8536 213.423 18.9444 214.618 19.6339L369.049 108.794C371.577 110.254 373.647 113.838 373.647 116.757V233.238C373.647 234.687 373.135 235.711 372.313 236.196V236.198L375.614 234.282L375.605 234.28C376.529 233.843 377.116 232.785 377.116 231.235V114.754C377.116 111.834 375.047 108.251 372.519 106.791Z" fill="url(#paint9_linear_194_153483)"/>
<path d="M369.049 228.756L214.618 139.596V24.9424L369.049 114.103V228.756Z" fill="white"/>
<path d="M264.328 298.371C261.8 299.831 257.662 299.831 255.134 298.371L100.702 209.21C98.1746 207.751 98.1746 205.362 100.702 203.902L205.964 143.129C208.492 141.669 212.63 141.669 215.159 143.129L369.59 232.29C372.119 233.749 372.119 236.137 369.59 237.598L264.328 298.371Z" fill="url(#paint10_linear_194_153483)"/>
<path d="M215.321 155.773L207.769 151.412L211.545 149.233L219.096 153.592L215.321 155.773Z" fill="#E0E5F7"/>
<path d="M228.039 163.118L220.486 158.756L224.262 156.576L231.815 160.936L228.039 163.118Z" fill="#E0E5F7"/>
<path d="M240.76 170.461L233.208 166.1L236.984 163.919L244.537 168.281L240.76 170.461Z" fill="#E0E5F7"/>
<path d="M253.478 177.805L245.927 173.446L249.705 171.264L257.255 175.625L253.478 177.805Z" fill="#E0E5F7"/>
<path d="M266.199 185.148L258.647 180.788L262.424 178.609L269.976 182.97L266.199 185.148Z" fill="#E0E5F7"/>
<path d="M278.92 192.493L271.368 188.132L275.143 185.952L282.697 190.312L278.92 192.493Z" fill="#E0E5F7"/>
<path d="M291.64 199.838L284.089 195.477L287.865 193.296L295.416 197.656L291.64 199.838Z" fill="#E0E5F7"/>
<path d="M304.361 207.18L296.808 202.821L300.585 200.639L308.137 205.001L304.361 207.18Z" fill="#E0E5F7"/>
<path d="M317.081 214.525L309.529 210.165L313.305 207.984L320.858 212.344L317.081 214.525Z" fill="#E0E5F7"/>
<path d="M329.8 221.868L322.248 217.508L326.025 215.328L333.577 219.688L329.8 221.868Z" fill="#E0E5F7"/>
<path d="M342.521 229.213L334.969 224.852L338.745 222.672L346.299 227.032L342.521 229.213Z" fill="#E0E5F7"/>
<path d="M355.242 236.557L347.688 232.195L351.465 230.015L359.018 234.377L355.242 236.557Z" fill="#E0E5F7"/>
<path d="M208.626 166.596L195.048 158.756L202.6 154.396L216.178 162.236L208.626 166.596Z" fill="#E0E5F7"/>
<path d="M201.601 176.618L182.855 165.795L190.41 161.435L209.155 172.259L201.601 176.618Z" fill="#E0E5F7"/>
<path d="M194.048 186.946L170.136 173.139L177.688 168.78L201.599 182.586L194.048 186.946Z" fill="#E0E5F7"/>
<path d="M168.321 189.866L154.743 182.027L164.968 176.123L178.546 183.962L168.321 189.866Z" fill="#E0E5F7"/>
<path d="M187.068 200.689L173.489 192.85L183.713 186.946L197.292 194.785L187.068 200.689Z" fill="#E0E5F7"/>
<path d="M205.813 211.511L192.235 203.673L202.46 197.769L216.038 205.609L205.813 211.511Z" fill="#E0E5F7"/>
<path d="M270.447 248.83L256.87 240.988L267.094 235.086L280.674 242.926L270.447 248.83Z" fill="#E0E5F7"/>
<path d="M302.454 266.998L275.822 251.62L286.047 245.718L312.679 261.094L302.454 266.998Z" fill="#E0E5F7"/>
<path d="M251.733 238.024L210.982 214.496L221.206 208.593L261.959 232.121L251.733 238.024Z" fill="#E0E5F7"/>
<path d="M224.905 175.995L213.793 169.58L221.344 165.219L232.457 171.634L224.905 175.995Z" fill="#E0E5F7"/>
<path d="M217.881 186.018L206.768 179.602L214.321 175.241L225.433 181.656L217.881 186.018Z" fill="#E0E5F7"/>
<path d="M210.677 196.145L199.564 189.729L207.117 185.369L218.23 191.785L210.677 196.145Z" fill="#E0E5F7"/>
<path d="M226.956 205.542L215.844 199.127L223.395 194.767L234.508 201.183L226.956 205.542Z" fill="#E0E5F7"/>
<path d="M243.235 214.941L232.123 208.526L239.675 204.167L250.788 210.582L243.235 214.941Z" fill="#E0E5F7"/>
<path d="M259.516 224.342L248.404 217.927L255.956 213.565L267.067 219.981L259.516 224.342Z" fill="#E0E5F7"/>
<path d="M275.795 233.741L264.684 227.325L272.236 222.964L283.347 229.38L275.795 233.741Z" fill="#E0E5F7"/>
<path d="M292.074 243.139L280.963 236.724L288.515 232.362L299.627 238.779L292.074 243.139Z" fill="#E0E5F7"/>
<path d="M317.957 258.084L297.242 246.122L304.794 241.763L325.509 253.723L317.957 258.084Z" fill="#E0E5F7"/>
<path d="M234.162 195.415L223.05 189.001L230.603 184.641L241.714 191.056L234.162 195.415Z" fill="#E0E5F7"/>
<path d="M250.441 204.816L239.328 198.399L246.881 194.039L257.994 200.455L250.441 204.816Z" fill="#E0E5F7"/>
<path d="M266.719 214.215L255.608 207.8L263.161 203.438L274.273 209.855L266.719 214.215Z" fill="#E0E5F7"/>
<path d="M283 223.614L271.888 217.199L279.441 212.837L290.552 219.252L283 223.614Z" fill="#E0E5F7"/>
<path d="M299.28 233.013L288.167 226.597L295.721 222.236L306.833 228.653L299.28 233.013Z" fill="#E0E5F7"/>
<path d="M330.329 250.94L304.447 235.996L312 231.635L337.883 246.579L330.329 250.94Z" fill="#E0E5F7"/>
<path d="M241.185 185.394L230.072 178.979L237.625 174.619L248.737 181.035L241.185 185.394Z" fill="#E0E5F7"/>
<path d="M257.466 194.792L246.353 188.377L253.905 184.018L265.018 190.432L257.466 194.792Z" fill="#E0E5F7"/>
<path d="M273.742 204.191L262.632 197.776L270.183 193.418L281.295 199.832L273.742 204.191Z" fill="#E0E5F7"/>
<path d="M290.023 213.592L278.91 207.176L286.462 202.815L297.575 209.231L290.023 213.592Z" fill="#E0E5F7"/>
<path d="M306.304 222.99L295.191 216.575L302.743 212.215L313.857 218.629L306.304 222.99Z" fill="#E0E5F7"/>
<path d="M322.583 232.389L311.471 225.974L319.023 221.614L330.136 228.029L322.583 232.389Z" fill="#E0E5F7"/>
<path d="M342.521 243.9L327.752 235.373L335.304 231.012L350.073 239.54L342.521 243.9Z" fill="#E0E5F7"/>
<path d="M349.726 225.054L227.692 154.596L231.358 152.48L353.391 222.937L349.726 225.054Z" fill="#393844"/>
<path d="M251.968 246.955L189.696 211L151 233.342L213.272 269.295L251.968 246.955Z" fill="#E0E5F7"/>
<path d="M369.59 237.598L264.328 298.371C262.32 299.531 259.301 299.766 256.873 299.084C256.856 299.079 255.365 298.505 255.133 298.371L100.702 209.21C100.533 209.113 100.371 209.006 100.214 208.891C100.206 208.885 100.199 208.88 100.191 208.874C100.15 208.843 100.115 208.812 100.076 208.782C99.9867 208.712 99.9005 208.641 99.8213 208.567C99.7805 208.531 99.7422 208.493 99.7036 208.456C99.6103 208.364 99.522 208.268 99.4393 208.167C99.4288 208.155 99.4171 208.142 99.4078 208.131C99.402 208.122 99.395 208.114 99.3892 208.107C99.3019 207.994 99.2222 207.876 99.1504 207.752C98.9495 207.417 98.8339 207.038 98.8138 206.648H98.8057V208.874H98.8231C98.8092 209.845 99.4265 210.818 100.702 211.555L255.133 300.715C258.819 302.543 264.083 302.186 265.651 301.844C267.217 301.5 268.625 301.108 270.269 300.749L369.59 243.407C370.869 242.668 371.499 241.693 371.483 240.719V234.972C371.472 235.924 370.841 236.874 369.59 237.598Z" fill="url(#paint11_linear_194_153483)"/>
<path d="M363.195 200.687L342.094 188.504V180.008L363.195 192.19V200.687Z" stroke="#DFE4F4" stroke-width="1.4241" stroke-linecap="round" stroke-linejoin="round"/>
<path d="M363.195 184.549L342.094 172.366V163.87L363.195 176.052V184.549Z" stroke="#DFE4F4" stroke-width="1.4241" stroke-linecap="round" stroke-linejoin="round"/>
<path d="M363.195 168.411L342.094 156.228V147.731L363.195 159.914V168.411Z" stroke="#DFE4F4" stroke-width="1.4241" stroke-linecap="round" stroke-linejoin="round"/>
<path d="M363.195 154.535C363.07 154.535 362.947 154.502 362.839 154.44L341.738 142.257C341.657 142.21 341.586 142.148 341.529 142.074C341.471 142 341.43 141.915 341.405 141.825C341.381 141.734 341.375 141.64 341.387 141.547C341.399 141.454 341.429 141.365 341.476 141.284C341.523 141.203 341.585 141.132 341.66 141.075C341.734 141.018 341.819 140.976 341.909 140.952C342 140.927 342.094 140.921 342.187 140.934C342.279 140.946 342.369 140.976 342.45 141.023L363.551 153.206C363.687 153.284 363.793 153.405 363.853 153.55C363.913 153.695 363.924 153.856 363.883 154.007C363.842 154.159 363.753 154.293 363.628 154.388C363.504 154.483 363.351 154.535 363.195 154.535V154.535Z" fill="#DFE4F4"/>
<path d="M341.523 121.507C341.523 114.596 346.375 111.795 352.36 115.25C358.344 118.706 363.196 127.109 363.196 134.02C363.196 140.93 358.344 143.732 352.36 140.276C346.375 136.821 341.523 128.418 341.523 121.507Z" stroke="#DFE4F4" stroke-width="1.4241" stroke-linecap="round" stroke-linejoin="round"/>
<path d="M353.977 128.369C354.888 128.199 355.504 127.298 355.504 125.851C355.504 123.651 354.096 121.057 352.358 120.054C350.622 119.051 349.213 120.021 349.213 122.22C349.271 123.769 349.804 125.264 350.741 126.499C348.082 125.999 346.391 127.666 346.391 129.824C346.845 130.084 352.358 133.269 352.358 133.269C352.358 133.269 357.871 136.451 358.326 136.714C358.327 134.558 356.635 130.937 353.977 128.369Z" fill="#DFE4F4"/>
<g style="mix-blend-mode:multiply">
<path d="M329.848 170.097L281.746 142.325V170.55L329.848 198.323V170.097Z" fill="#DFE4F4"/>
</g>
<g style="mix-blend-mode:multiply">
<path d="M272.871 66.0988L224.769 38.3264V66.5517L272.871 94.3244V66.0988Z" fill="#DFE4F4"/>
</g>
<path d="M328.41 163.603L280.307 135.83V107.605L328.41 135.377V163.603Z" fill="#DAE0F5"/>
<path d="M328.41 135.377L280.307 107.605L281.745 106.773L329.848 134.546L328.41 135.377Z" fill="#F6F6FB"/>
<path d="M328.41 163.603V160.783L304.357 131.353L280.307 133.01V135.83L328.41 163.603Z" fill="#D1D7F3"/>
<g style="mix-blend-mode:multiply">
<path d="M280.307 110.425L304.359 142.433L328.41 138.197L280.307 110.425Z" fill="#DAE0F5"/>
</g>
<path d="M280.307 107.605V110.425L304.359 139.855L328.41 138.197V135.377L280.307 107.605Z" fill="#DFE4F4"/>
<path d="M329.849 162.773L328.411 163.603V138.197L329.849 137.366V162.773Z" fill="#C4CAE9"/>
<path d="M329.849 137.366L328.411 138.197V135.377L329.849 134.546V137.366Z" fill="#D1D7F3"/>
<path d="M329.849 162.772L328.411 163.603V160.783L329.849 159.952V162.772Z" fill="#BBC0E6"/>
<path d="M328.41 128.052L280.307 100.279V72.0537L328.41 99.8265V128.052Z" fill="#DAE0F5"/>
<path d="M328.41 99.8264L280.307 72.0536L281.745 71.2227L329.848 98.9954L328.41 99.8264Z" fill="#F6F6FB"/>
<path d="M328.41 128.052V125.232L304.357 95.8015L280.307 97.4592V100.279L328.41 128.052Z" fill="#D1D7F3"/>
<g style="mix-blend-mode:multiply">
<path d="M280.307 74.8733L304.359 106.882L328.41 102.646L280.307 74.8733Z" fill="#DAE0F5"/>
</g>
<path d="M280.307 72.0537V74.8734L304.359 104.304L328.41 102.646V99.8265L280.307 72.0537Z" fill="#DFE4F4"/>
<path d="M329.849 127.222L328.411 128.052V102.646L329.849 101.815V127.222Z" fill="#C4CAE9"/>
<path d="M329.849 101.815L328.411 102.646V99.8263L329.849 98.9954V101.815Z" fill="#D1D7F3"/>
<path d="M329.849 127.221L328.411 128.052V125.232L329.849 124.401V127.221Z" fill="#BBC0E6"/>
<path d="M271.434 130.707L223.331 102.934V74.7083L271.434 102.481V130.707Z" fill="#DAE0F5"/>
<path d="M271.434 102.481L223.331 74.7082L224.769 73.8772L272.872 101.65L271.434 102.481Z" fill="#F6F6FB"/>
<path d="M271.434 130.707V127.887L247.382 98.4565L223.331 100.114V102.934L271.434 130.707Z" fill="#D1D7F3"/>
<g style="mix-blend-mode:multiply">
<path d="M223.331 77.5283L247.384 109.537L271.434 105.301L223.331 77.5283Z" fill="#DAE0F5"/>
</g>
<path d="M223.331 74.7083V77.5283L247.384 106.958L271.434 105.301V102.481L223.331 74.7083Z" fill="#DFE4F4"/>
<path d="M272.871 129.877L271.433 130.707V105.301L272.871 104.47V129.877Z" fill="#C4CAE9"/>
<path d="M272.871 104.47L271.433 105.301V102.481L272.871 101.65V104.47Z" fill="#D1D7F3"/>
<path d="M272.871 129.875L271.433 130.706V127.886L272.871 127.055V129.875Z" fill="#BBC0E6"/>
<path d="M271.434 166.258L223.331 138.485V110.26L271.434 138.032V166.258Z" fill="#DAE0F5"/>
<path d="M271.434 138.032L223.331 110.259L224.769 109.428L272.872 137.201L271.434 138.032Z" fill="#F6F6FB"/>
<path d="M271.434 166.257V163.438L247.382 134.008L223.331 135.665V138.485L271.434 166.257Z" fill="#D1D7F3"/>
<g style="mix-blend-mode:multiply">
<path d="M223.331 113.079L247.384 145.088L271.434 140.852L223.331 113.079Z" fill="#DAE0F5"/>
</g>
<path d="M223.331 110.26V113.079L247.384 142.51L271.434 140.852V138.032L223.331 110.26Z" fill="#DFE4F4"/>
<path d="M272.871 165.427L271.433 166.257V140.852L272.871 140.021V165.427Z" fill="#C4CAE9"/>
<path d="M272.871 140.021L271.433 140.852V138.032L272.871 137.201V140.021Z" fill="#D1D7F3"/>
<path d="M272.871 165.426L271.433 166.257V163.438L272.871 162.607V165.426Z" fill="#BBC0E6"/>
<path d="M267.748 96.6412L219.646 68.8684V40.6428L267.748 68.4156V96.6412Z" fill="#50F09D"/>
<path d="M267.748 68.4155L219.646 40.6427L221.084 39.8118L269.187 67.5845L267.748 68.4155Z" fill="#8BFDC1"/>
<path d="M267.748 96.641V93.8209L243.697 64.3909L219.646 66.0485V68.8682L267.748 96.641Z" fill="#82FDBC"/>
<g style="mix-blend-mode:multiply">
<path d="M219.646 43.4629L243.698 75.4716L267.748 71.2353L219.646 43.4629Z" fill="#DAE0F5"/>
</g>
<path d="M219.646 40.6428V43.4629L243.698 72.8929L267.748 71.2353V68.4156L219.646 40.6428Z" fill="#83FDBD"/>
<path d="M269.187 95.8113L267.749 96.6412V71.2353L269.187 70.4043V95.8113Z" fill="#1EAC6C"/>
<path d="M269.187 70.4042L267.749 71.2352V68.4154L269.187 67.5845V70.4042Z" fill="#50F09D"/>
<path d="M269.187 95.8101L267.749 96.641V93.8209L269.187 92.99V95.8101Z" fill="#86FDBE"/>
<path d="M324.725 200.639L276.623 172.867V144.641L324.725 172.414V200.639Z" fill="#50F09D"/>
<path d="M324.725 172.414L276.623 144.641L278.06 143.81L326.164 171.583L324.725 172.414Z" fill="#8BFDC1"/>
<path d="M324.725 200.639V197.82L300.673 168.39L276.623 170.047V172.867L324.725 200.639Z" fill="#82FDBC"/>
<g style="mix-blend-mode:multiply">
<path d="M276.623 147.461L300.675 179.47L324.725 175.234L276.623 147.461Z" fill="#DAE0F5"/>
</g>
<path d="M276.623 144.641V147.461L300.675 176.891L324.725 175.234V172.414L276.623 144.641Z" fill="#83FDBD"/>
<path d="M326.163 199.81L324.724 200.639V175.234L326.163 174.403V199.81Z" fill="#1EAC6C"/>
<path d="M326.163 174.403L324.724 175.234V172.414L326.163 171.583V174.403Z" fill="#50F09D"/>
<path d="M326.163 199.808L324.724 200.639V197.82L326.163 196.989V199.808Z" fill="#86FDBE"/>
<path style="mix-blend-mode:multiply" d="M403.819 288.894H363.468L377.209 296.827L363.468 304.761H403.819L417.56 296.827L403.819 288.894Z" fill="url(#paint12_linear_194_153483)"/>
<path style="mix-blend-mode:multiply" d="M378.794 304.76H340.761L354.502 312.693L340.761 320.627H378.794L392.535 312.693L378.794 304.76Z" fill="url(#paint13_linear_194_153483)"/>
<path style="mix-blend-mode:multiply" d="M351.966 320.626H318.053L331.795 328.56L318.053 336.494H351.966L365.707 328.56L351.966 320.626Z" fill="url(#paint14_linear_194_153483)"/>
<path d="M349.725 267.936L363.467 275.869V304.76L349.725 296.826V267.936Z" fill="#54B381"/>
<path d="M377.209 267.936L363.467 275.869V304.76L377.209 296.826V267.936Z" fill="#15633A"/>
<path d="M363.467 260.002L349.725 267.936L363.467 275.869L377.208 267.936L363.467 260.002Z" fill="#1EAC6C"/>
<path d="M327.019 291.619L340.761 299.553V320.627L327.019 312.693V291.619Z" fill="#7CD9A8"/>
<path d="M354.501 291.619L340.76 299.553V320.627L354.501 312.693V291.619Z" fill="#58C68C"/>
<path d="M340.761 283.686L327.019 291.619L340.761 299.553L354.502 291.619L340.761 283.686Z" fill="#8CFDC2"/>
<path d="M304.312 312.032L318.053 319.966V336.494L304.312 328.56V312.032Z" fill="#55D190" fill-opacity="0.65"/>
<path d="M331.795 312.032L318.053 319.966V336.494L331.795 328.56V312.032Z" fill="#62BC8D"/>
<path d="M318.053 304.098L304.312 312.032L318.053 319.966L331.795 312.032L318.053 304.098Z" fill="#4AED98"/>
<path d="M182.995 123.934L180.277 120.084C186.535 112.286 188.67 101.803 185.046 96.669L189.739 90.8203C194.865 98.0804 191.845 112.906 182.995 123.934Z" fill="url(#paint15_linear_194_153483)"/>
<path d="M182.995 123.934L180.277 120.084C186.535 112.286 188.67 101.803 185.046 96.669L189.739 90.8203C194.865 98.0804 191.845 112.906 182.995 123.934Z" fill="#1EAC6C"/>
<path d="M185.046 96.669C181.421 91.5354 173.41 93.6953 167.152 101.494C163.303 106.289 161.022 112.097 160.673 117.055C160.454 120.159 160.987 122.932 162.383 124.909C164.701 128.191 168.813 128.479 173.113 126.229C175.537 124.961 178.021 122.896 180.277 120.084L182.995 123.934C179.805 127.91 176.293 130.832 172.864 132.625C166.783 135.806 160.967 135.4 157.689 130.757C155.716 127.962 154.961 124.04 155.271 119.65C155.765 112.638 158.991 104.425 164.433 97.6433C173.284 86.615 184.614 83.5603 189.739 90.8203L185.046 96.669Z" fill="#B9BEE4"/>
<path d="M174.602 110.276C174.602 109.71 174.204 109.48 173.714 109.763C173.455 109.932 173.24 110.159 173.086 110.426C172.931 110.694 172.842 110.993 172.826 111.302C172.826 111.868 173.223 112.097 173.714 111.814C173.972 111.646 174.187 111.419 174.341 111.151C174.496 110.884 174.585 110.584 174.602 110.276V110.276ZM177.7 108.488C177.7 107.921 177.302 107.692 176.812 107.975C176.553 108.143 176.338 108.37 176.184 108.638C176.029 108.905 175.94 109.205 175.924 109.513C175.924 110.079 176.321 110.309 176.812 110.026C177.07 109.857 177.285 109.63 177.439 109.363C177.594 109.095 177.683 108.796 177.7 108.488V108.488ZM169.728 113.09C169.744 112.782 169.833 112.482 169.988 112.215C170.142 111.948 170.357 111.721 170.616 111.552C171.106 111.269 171.504 111.498 171.504 112.065C171.487 112.373 171.398 112.673 171.243 112.94C171.089 113.207 170.874 113.434 170.616 113.603C170.125 113.886 169.728 113.656 169.728 113.09Z" fill="#16FF85"/>
<path d="M425.821 206.827C425.821 212.018 423.994 215.668 421.042 217.361L416.751 219.815C419.705 218.12 421.532 214.473 421.534 209.281C421.532 198.962 414.314 186.46 405.412 181.35C400.984 178.814 396.978 178.577 394.062 180.248L398.351 177.796C401.265 176.124 405.271 176.36 409.698 178.895C418.604 184.003 425.824 196.507 425.821 206.827Z" fill="url(#paint16_linear_194_153483)"/>
<path d="M421.534 209.281C421.533 219.595 414.314 223.821 405.41 218.714C396.503 213.605 389.282 201.097 389.283 190.782C389.281 180.463 396.505 176.245 405.412 181.35C414.314 186.459 421.532 198.962 421.534 209.281Z" fill="white"/>
<path d="M397.201 190.228C397.201 187.621 398.481 186.883 400.757 188.196L409.289 193.123C410.325 193.681 411.186 194.516 411.776 195.534C412.366 196.552 412.662 197.714 412.631 198.891V207.573C412.631 208.702 412.027 209.072 411.013 208.486L408.525 207.05C408.14 206.837 407.817 206.527 407.59 206.15C407.362 205.774 407.237 205.344 407.227 204.904V204.658L406.978 204.515C406.694 205.253 406 205.879 404.472 204.997C402.303 203.744 400.827 200.676 400.827 197.802V197.453C400.827 194.559 402.285 193.205 404.365 194.405C405.589 195.134 406.492 196.301 406.889 197.669L407.138 197.813V196.294L408.755 197.227V204.925C408.742 205.089 408.778 205.253 408.857 205.397C408.936 205.541 409.055 205.659 409.2 205.736L410.356 206.403C410.782 206.649 410.978 206.537 410.978 206.003V197.874C410.991 197.253 410.835 196.641 410.524 196.103C410.214 195.566 409.762 195.124 409.218 194.826L401.023 190.094C399.583 189.263 398.855 189.685 398.855 191.347V201.323C398.827 202.089 399.015 202.848 399.399 203.512C399.782 204.177 400.345 204.72 401.023 205.079L412.365 211.627V213.372L400.757 206.67C399.664 206.065 398.756 205.174 398.13 204.093C397.503 203.012 397.183 201.781 397.201 200.532V190.228ZM404.792 203.416C406.178 204.217 407.12 203.467 407.12 201.374V201.148C407.12 199.055 406.178 197.217 404.792 196.417C403.405 195.616 402.481 196.396 402.481 198.449V198.695C402.481 200.768 403.405 202.616 404.792 203.416V203.416Z" fill="#CED3F8"/>
</g>
<defs>
<radialGradient id="paint0_radial_194_153483" cx="0" cy="0" r="1" gradientUnits="userSpaceOnUse" gradientTransform="translate(222.766 213.167) rotate(28.5173) scale(179.089 150.048)">
<stop stop-color="#16FF85"/>
<stop offset="1"/>
</radialGradient>
<linearGradient id="paint1_linear_194_153483" x1="370.34" y1="32.8124" x2="446.912" y2="165.438" gradientUnits="userSpaceOnUse">
<stop offset="0.551" stop-color="#85FDBE"/>
<stop offset="0.645833" stop-color="#85FDBE"/>
</linearGradient>
<linearGradient id="paint2_linear_194_153483" x1="132.67" y1="14.4313" x2="83.5254" y2="100.119" gradientUnits="userSpaceOnUse">
<stop stop-color="#A2FFCE"/>
<stop offset="0.142" stop-color="#8CFDC2"/>
<stop offset="0.44" stop-color="#68FCAE"/>
<stop offset="0.72" stop-color="#16FF85" stop-opacity="0.79"/>
<stop offset="1" stop-color="#1EAC6C"/>
</linearGradient>
<linearGradient id="paint3_linear_194_153483" x1="13.9542" y1="184.728" x2="187.541" y2="184.728" gradientUnits="userSpaceOnUse">
<stop stop-color="#D1D7F3"/>
<stop offset="1" stop-color="white"/>
</linearGradient>
<linearGradient id="paint4_linear_194_153483" x1="36.9455" y1="147.508" x2="28.7563" y2="133.323" gradientUnits="userSpaceOnUse">
<stop stop-color="#A3A9D0"/>
<stop offset="1" stop-color="white"/>
</linearGradient>
<linearGradient id="paint5_linear_194_153483" x1="50.0501" y1="139.954" x2="41.8609" y2="125.769" gradientUnits="userSpaceOnUse">
<stop stop-color="#A3A9D0"/>
<stop offset="1" stop-color="white"/>
</linearGradient>
<linearGradient id="paint6_linear_194_153483" x1="63.1542" y1="132.399" x2="54.9649" y2="118.215" gradientUnits="userSpaceOnUse">
<stop stop-color="#A3A9D0"/>
<stop offset="1" stop-color="white"/>
</linearGradient>
<linearGradient id="paint7_linear_194_153483" x1="76.2583" y1="124.845" x2="68.069" y2="110.661" gradientUnits="userSpaceOnUse">
<stop stop-color="#A3A9D0"/>
<stop offset="1" stop-color="white"/>
</linearGradient>
<linearGradient id="paint8_linear_194_153483" x1="89.362" y1="117.291" x2="81.1727" y2="103.107" gradientUnits="userSpaceOnUse">
<stop stop-color="#A3A9D0"/>
<stop offset="1" stop-color="white"/>
</linearGradient>
<linearGradient id="paint9_linear_194_153483" x1="253.403" y1="-4.94829" x2="387.55" y2="227.401" gradientUnits="userSpaceOnUse">
<stop offset="0.576" stop-color="#AFAFBB"/>
<stop offset="0.612" stop-color="#33323B"/>
</linearGradient>
<linearGradient id="paint10_linear_194_153483" x1="120.5" y1="203" x2="380" y2="234.5" gradientUnits="userSpaceOnUse">
<stop stop-color="#7D8087"/>
<stop offset="1" stop-color="#BDC1E4"/>
</linearGradient>
<linearGradient id="paint11_linear_194_153483" x1="98.8055" y1="254.385" x2="371.483" y2="254.385" gradientUnits="userSpaceOnUse">
<stop offset="0.562" stop-color="#BFBFCB"/>
<stop offset="0.612" stop-color="#212126"/>
</linearGradient>
<linearGradient id="paint12_linear_194_153483" x1="363.468" y1="296.827" x2="417.56" y2="296.827" gradientUnits="userSpaceOnUse">
<stop stop-color="#C2C7E3"/>
<stop offset="0.253" stop-color="#DDE0EF"/>
<stop offset="0.543" stop-color="#F6F7FB"/>
<stop offset="0.719" stop-color="white"/>
</linearGradient>
<linearGradient id="paint13_linear_194_153483" x1="340.761" y1="312.693" x2="392.535" y2="312.693" gradientUnits="userSpaceOnUse">
<stop stop-color="#C2C7E3"/>
<stop offset="0.253" stop-color="#DDE0EF"/>
<stop offset="0.543" stop-color="#F6F7FB"/>
<stop offset="0.719" stop-color="white"/>
</linearGradient>
<linearGradient id="paint14_linear_194_153483" x1="318.053" y1="328.56" x2="365.707" y2="328.56" gradientUnits="userSpaceOnUse">
<stop stop-color="#C2C7E3"/>
<stop offset="0.253" stop-color="#DDE0EF"/>
<stop offset="0.543" stop-color="#F6F7FB"/>
<stop offset="0.719" stop-color="white"/>
</linearGradient>
<linearGradient id="paint15_linear_194_153483" x1="163.892" y1="137.495" x2="203.527" y2="114.516" gradientUnits="userSpaceOnUse">
<stop stop-color="#87FDBF"/>
<stop offset="1" stop-color="#17C76E"/>
</linearGradient>
<linearGradient id="paint16_linear_194_153483" x1="424.655" y1="215.275" x2="401.838" y2="175.757" gradientUnits="userSpaceOnUse">
<stop stop-color="#15633A"/>
<stop offset="0.449" stop-color="#4AED98"/>
<stop offset="1" stop-color="#83FDBD"/>
</linearGradient>
<clipPath id="clip0_194_153483">
<rect width="443" height="367.684" fill="white"/>
</clipPath>
</defs>
</svg>
