<svg width="649" height="520" viewBox="0 0 649 520" fill="none" xmlns="http://www.w3.org/2000/svg">
<g clip-path="url(#clip0_343_312)">
<path d="M112 346.019H491.404" stroke="#ACACED" stroke-opacity="0.4" stroke-width="0.702097" stroke-dasharray="3.51 3.51"/>
<path d="M112 276.56H491.404" stroke="#ACACED" stroke-opacity="0.4" stroke-width="0.702097" stroke-dasharray="3.51 3.51"/>
<path d="M112 218H491.404" stroke="#ACACED" stroke-opacity="0.4" stroke-width="0.702097" stroke-dasharray="3.51 3.51"/>
<g opacity="0.6" filter="url(#filter0_f_343_312)">
<ellipse cx="302" cy="350.5" rx="211" ry="61.5" fill="#16FF85" fill-opacity="0.13"/>
</g>
<path d="M162.708 409.373V377.984" stroke="#DDDDDD" stroke-opacity="0.44" stroke-width="1.77292" stroke-linecap="square" stroke-linejoin="round"/>
<path d="M491.412 406.683L115.537 406.683" stroke="#DDDDDD" stroke-opacity="0.44" stroke-width="0.886459" stroke-linecap="square" stroke-linejoin="round"/>
<path d="M277.827 409.363V288.994" stroke="#DDDDDD" stroke-opacity="0.44" stroke-width="1.77292" stroke-linecap="square" stroke-linejoin="round"/>
<path d="M227.914 409.363V317" stroke="#DDDDDD" stroke-opacity="0.44" stroke-width="1.77292" stroke-linecap="square" stroke-linejoin="round"/>
<path d="M329.756 409.362V233.997" stroke="#DDDDDD" stroke-opacity="0.44" stroke-width="1.77292" stroke-linecap="square" stroke-linejoin="round"/>
<path d="M395.756 409.399V220.96" stroke="#DDDDDD" stroke-opacity="0.44" stroke-width="1.77292" stroke-linecap="square" stroke-linejoin="round"/>
<path d="M460.845 409.402V198" stroke="#DDDDDD" stroke-opacity="0.44" stroke-width="1.77292" stroke-linecap="square" stroke-linejoin="round"/>
<rect x="137" y="392" width="56" height="28" rx="5" fill="#303855"/>
<path d="M146.556 408.859H148.283C148.345 409.417 148.624 409.865 149.119 410.203C149.613 410.542 150.233 410.711 150.978 410.711C151.686 410.711 152.27 410.547 152.728 410.219C153.192 409.891 153.423 409.474 153.423 408.969C153.423 408.531 153.259 408.174 152.931 407.898C152.603 407.617 152.074 407.388 151.345 407.211L149.884 406.859C148.848 406.609 148.082 406.237 147.587 405.742C147.098 405.247 146.853 404.607 146.853 403.82C146.853 402.852 147.233 402.062 147.994 401.453C148.759 400.844 149.746 400.539 150.955 400.539C152.142 400.539 153.111 400.844 153.861 401.453C154.611 402.057 154.999 402.846 155.025 403.82H153.322C153.27 403.263 153.028 402.823 152.595 402.5C152.168 402.177 151.613 402.016 150.931 402.016C150.254 402.016 149.702 402.172 149.275 402.484C148.853 402.797 148.642 403.203 148.642 403.703C148.642 404.099 148.801 404.424 149.119 404.68C149.436 404.93 149.96 405.146 150.689 405.328L151.931 405.633C153.087 405.904 153.921 406.286 154.431 406.781C154.947 407.271 155.205 407.93 155.205 408.758C155.205 409.81 154.814 410.646 154.033 411.266C153.251 411.88 152.192 412.188 150.853 412.188C149.598 412.188 148.58 411.888 147.798 411.289C147.022 410.685 146.608 409.875 146.556 408.859Z" fill="white"/>
<path d="M160.956 404.789C160.347 404.789 159.839 404.992 159.433 405.398C159.032 405.805 158.808 406.333 158.761 406.984H163.065C163.045 406.323 162.842 405.792 162.456 405.391C162.071 404.99 161.571 404.789 160.956 404.789ZM163.058 409.516H164.675C164.555 410.276 164.157 410.898 163.48 411.383C162.802 411.862 161.987 412.102 161.034 412.102C159.805 412.102 158.831 411.716 158.112 410.945C157.399 410.169 157.042 409.117 157.042 407.789C157.042 406.461 157.399 405.398 158.112 404.602C158.826 403.805 159.776 403.406 160.964 403.406C162.131 403.406 163.055 403.784 163.737 404.539C164.42 405.289 164.761 406.307 164.761 407.594V408.188H158.753V408.289C158.753 409.023 158.964 409.615 159.386 410.062C159.808 410.505 160.368 410.727 161.065 410.727C161.56 410.727 161.987 410.617 162.347 410.398C162.706 410.18 162.943 409.885 163.058 409.516Z" fill="white"/>
<path d="M170.481 404.789C169.872 404.789 169.364 404.992 168.958 405.398C168.557 405.805 168.333 406.333 168.286 406.984H172.59C172.57 406.323 172.366 405.792 171.981 405.391C171.596 404.99 171.096 404.789 170.481 404.789ZM172.583 409.516H174.2C174.08 410.276 173.682 410.898 173.005 411.383C172.327 411.862 171.512 412.102 170.559 412.102C169.33 412.102 168.356 411.716 167.637 410.945C166.924 410.169 166.567 409.117 166.567 407.789C166.567 406.461 166.924 405.398 167.637 404.602C168.351 403.805 169.301 403.406 170.489 403.406C171.656 403.406 172.58 403.784 173.262 404.539C173.945 405.289 174.286 406.307 174.286 407.594V408.188H168.278V408.289C168.278 409.023 168.489 409.615 168.911 410.062C169.333 410.505 169.893 410.727 170.59 410.727C171.085 410.727 171.512 410.617 171.872 410.398C172.231 410.18 172.468 409.885 172.583 409.516Z" fill="white"/>
<path d="M179.67 412.086C178.602 412.086 177.738 411.69 177.076 410.898C176.42 410.107 176.092 409.057 176.092 407.75C176.092 406.453 176.42 405.409 177.076 404.617C177.738 403.826 178.597 403.43 179.654 403.43C180.259 403.43 180.793 403.562 181.256 403.828C181.725 404.089 182.082 404.453 182.326 404.922H182.365V400.219H184.053V412H182.412V410.562H182.381C182.131 411.047 181.769 411.422 181.295 411.688C180.826 411.953 180.285 412.086 179.67 412.086ZM180.1 404.867C179.418 404.867 178.868 405.13 178.451 405.656C178.035 406.182 177.826 406.883 177.826 407.758C177.826 408.638 178.032 409.341 178.444 409.867C178.86 410.388 179.412 410.648 180.1 410.648C180.782 410.648 181.332 410.383 181.748 409.852C182.165 409.32 182.373 408.622 182.373 407.758C182.373 406.893 182.162 406.195 181.74 405.664C181.324 405.133 180.777 404.867 180.1 404.867Z" fill="white"/>
<rect x="313.762" y="392.496" width="29.8103" height="27.5577" rx="5" fill="#303855"/>
<path d="M329.234 412.188C327.651 412.188 326.393 411.664 325.461 410.617C324.534 409.57 324.07 408.151 324.07 406.359C324.07 404.578 324.536 403.164 325.469 402.117C326.401 401.065 327.656 400.539 329.234 400.539C330.516 400.539 331.596 400.901 332.477 401.625C333.357 402.344 333.87 403.289 334.016 404.461H332.281C332.125 403.737 331.768 403.159 331.211 402.727C330.659 402.289 330 402.07 329.234 402.07C328.208 402.07 327.388 402.461 326.773 403.242C326.164 404.018 325.859 405.057 325.859 406.359C325.859 407.677 326.164 408.724 326.773 409.5C327.383 410.271 328.206 410.656 329.242 410.656C330.023 410.656 330.68 410.466 331.211 410.086C331.747 409.706 332.104 409.174 332.281 408.492H334.023C333.81 409.659 333.281 410.568 332.438 411.219C331.599 411.865 330.531 412.188 329.234 412.188Z" fill="white"/>
<rect x="263" y="392" width="29.8103" height="27.5577" rx="5" fill="#303855"/>
<path d="M278.91 411.504H274.277V400.231H278.895C279.889 400.231 280.689 400.488 281.293 401.004C281.897 401.514 282.199 402.194 282.199 403.043C282.199 403.642 282.007 404.179 281.621 404.652C281.236 405.121 280.762 405.402 280.199 405.496V405.559C280.965 405.647 281.582 405.944 282.051 406.449C282.525 406.949 282.762 407.572 282.762 408.317C282.762 409.311 282.421 410.093 281.738 410.66C281.056 411.223 280.113 411.504 278.91 411.504ZM276.027 401.66V405.027H278.098C278.858 405.027 279.441 404.876 279.848 404.574C280.254 404.272 280.457 403.843 280.457 403.285C280.457 402.764 280.283 402.363 279.934 402.082C279.59 401.801 279.1 401.66 278.465 401.66H276.027ZM276.027 410.074H278.559C279.345 410.074 279.944 409.915 280.355 409.598C280.767 409.28 280.973 408.817 280.973 408.207C280.973 407.598 280.759 407.139 280.332 406.832C279.91 406.52 279.285 406.363 278.457 406.363H276.027V410.074Z" fill="white"/>
<rect x="213" y="392" width="29.8103" height="27.5577" rx="5" fill="#303855"/>
<path d="M231.902 411.504L230.871 408.457H226.574L225.543 411.504H223.723L227.793 400.231H229.684L233.754 411.504H231.902ZM228.699 402.106L227.02 407.051H230.426L228.746 402.106H228.699Z" fill="white"/>
<rect x="381.513" y="392.496" width="29.8103" height="27.5577" rx="5" fill="#303855"/>
<path d="M391.516 399.727H395.555C397.237 399.727 398.547 400.219 399.484 401.203C400.422 402.188 400.891 403.568 400.891 405.344C400.891 407.125 400.422 408.513 399.484 409.508C398.547 410.503 397.237 411 395.555 411H391.516V399.727ZM393.266 401.234V409.484H395.391C396.589 409.484 397.508 409.13 398.148 408.422C398.789 407.708 399.109 406.688 399.109 405.359C399.109 404.031 398.789 403.013 398.148 402.305C397.508 401.591 396.589 401.234 395.391 401.234H393.266Z" fill="white"/>
<rect x="446" y="392.496" width="29.8103" height="27.5577" rx="5" fill="#303855"/>
<path d="M464.706 409.484V411H457.55V399.727H464.706V401.234H459.3V404.531H464.417V405.984H459.3V409.484H464.706Z" fill="white"/>
<g filter="url(#filter1_d_343_312)">
<path d="M85 397L143.516 381.702C155.347 378.609 166.308 372.838 175.554 364.834L221.887 324.725C226.283 320.92 231.081 317.606 236.196 314.844L258.974 302.544C271.697 295.673 282.063 285.139 288.726 272.306V272.306C293.785 262.564 301 254.104 309.822 247.571L313.571 244.796C324.031 237.05 336.228 231.981 349.098 230.031L386.729 224.329C392.558 223.446 398.272 221.919 403.765 219.777L495.5 184" stroke="url(#paint0_linear_343_312)" stroke-width="5.31875" shape-rendering="crispEdges"/>
</g>
</g>
<defs>
<filter id="filter0_f_343_312" x="-9" y="189" width="622" height="323" filterUnits="userSpaceOnUse" color-interpolation-filters="sRGB">
<feFlood flood-opacity="0" result="BackgroundImageFix"/>
<feBlend mode="normal" in="SourceGraphic" in2="BackgroundImageFix" result="shape"/>
<feGaussianBlur stdDeviation="50" result="effect1_foregroundBlur_343_312"/>
</filter>
<filter id="filter1_d_343_312" x="64.3271" y="157.522" width="452.139" height="258.051" filterUnits="userSpaceOnUse" color-interpolation-filters="sRGB">
<feFlood flood-opacity="0" result="BackgroundImageFix"/>
<feColorMatrix in="SourceAlpha" type="matrix" values="0 0 0 0 0 0 0 0 0 0 0 0 0 0 0 0 0 0 127 0" result="hardAlpha"/>
<feOffset dy="-4"/>
<feGaussianBlur stdDeviation="10"/>
<feComposite in2="hardAlpha" operator="out"/>
<feColorMatrix type="matrix" values="0 0 0 0 0.0862745 0 0 0 0 1 0 0 0 0 0.521569 0 0 0 0.26 0"/>
<feBlend mode="normal" in2="BackgroundImageFix" result="effect1_dropShadow_343_312"/>
<feBlend mode="normal" in="SourceGraphic" in2="effect1_dropShadow_343_312" result="shape"/>
</filter>
<linearGradient id="paint0_linear_343_312" x1="97.9909" y1="346.065" x2="516.589" y2="276.002" gradientUnits="userSpaceOnUse">
<stop stop-color="#84D5BE" stop-opacity="0"/>
<stop offset="0.208661" stop-color="#16FF85"/>
<stop offset="0.505208" stop-color="#16FF85"/>
<stop offset="0.880321" stop-color="#16FF85"/>
<stop offset="1" stop-color="white" stop-opacity="0"/>
</linearGradient>
<clipPath id="clip0_343_312">
<rect width="649" height="520" fill="white"/>
</clipPath>
</defs>
</svg>
