<svg width="186" height="85" viewBox="0 0 186 85" fill="none" xmlns="http://www.w3.org/2000/svg">
<path fill-rule="evenodd" clip-rule="evenodd" d="M3.89944 2H119.101C119.911 2 120.545 2.18219 120.905 2.37725C120.942 2.39723 120.974 2.4155 121 2.43191V44.5681C120.974 44.5845 120.942 44.6028 120.905 44.6227C120.545 44.8178 119.911 45 119.101 45H3.89944C3.08929 45 2.45484 44.8178 2.09472 44.6227C2.05784 44.6028 2.02649 44.5845 2 44.5681V2.43192C2.02649 2.4155 2.05784 2.39723 2.09472 2.37725C2.45484 2.18219 3.08929 2 3.89944 2ZM121.128 2.5304C121.127 2.53072 121.117 2.52277 121.104 2.50566C121.123 2.52153 121.13 2.53009 121.128 2.5304ZM121.128 44.4696C121.13 44.4699 121.123 44.4785 121.104 44.4943C121.117 44.4772 121.127 44.4693 121.128 44.4696ZM1.87182 44.4696C1.87322 44.4693 1.88251 44.4772 1.8955 44.4943C1.87692 44.4785 1.87042 44.4699 1.87182 44.4696ZM1.87182 2.5304C1.87042 2.53009 1.87693 2.52152 1.89553 2.50564C1.88252 2.52278 1.87322 2.53072 1.87182 2.5304ZM3.89944 0H119.101C121.254 0 123 0.945717 123 2.11216V44.8878C123 46.0543 121.254 47 119.101 47H3.89944C1.74597 47 0 46.0543 0 44.8878V2.11216C0 0.945717 1.74597 0 3.89944 0ZM11 14C11 11.7909 12.7909 10 15 10H33C35.2091 10 37 11.7909 37 14V32C37 34.2091 35.2091 36 33 36H15C12.7909 36 11 34.2091 11 32V14ZM15 8C11.6863 8 9 10.6863 9 14V32C9 35.3137 11.6863 38 15 38H33C36.3137 38 39 35.3137 39 32V14C39 10.6863 36.3137 8 33 8H15ZM51 14.25C51 13.5596 51.5596 13 52.25 13H85.75C86.4404 13 87 13.5596 87 14.25C87 14.9404 86.4404 15.5 85.75 15.5H52.25C51.5596 15.5 51 14.9404 51 14.25ZM52.25 11C50.4551 11 49 12.4551 49 14.25C49 16.0449 50.4551 17.5 52.25 17.5H85.75C87.5449 17.5 89 16.0449 89 14.25C89 12.4551 87.5449 11 85.75 11H52.25ZM51 24.75C51 23.7835 51.7835 23 52.75 23H75.75C76.7165 23 77.5 23.7835 77.5 24.75C77.5 25.7165 76.7165 26.5 75.75 26.5H52.75C51.7835 26.5 51 25.7165 51 24.75ZM52.75 21C50.6789 21 49 22.6789 49 24.75C49 26.8211 50.6789 28.5 52.75 28.5H75.75C77.8211 28.5 79.5 26.8211 79.5 24.75C79.5 22.6789 77.8211 21 75.75 21H52.75ZM78.5557 56H2.57197C2.34119 56 2.14858 56.0275 2 56.0631V82.9369C2.14858 82.9725 2.34119 83 2.57197 83H78.5557C78.7865 83 78.9791 82.9725 79.1277 82.9369V56.0631C78.9791 56.0275 78.7865 56 78.5557 56ZM1.68089 56.1816C1.68088 56.1816 1.68092 56.1816 1.68102 56.1815L1.68476 56.1789C1.68228 56.1808 1.68094 56.1816 1.68089 56.1816ZM78.5557 54H2.57197C1.1516 54 0 54.6238 0 55.3931V83.6069C0 84.3762 1.1516 85 2.57197 85H78.5557C79.9761 85 81.1277 84.3762 81.1277 83.6069V55.3931C81.1277 54.6238 79.9761 54 78.5557 54ZM7.59574 64.9362C7.59574 62.727 9.38661 60.9362 11.5957 60.9362H20.0638C22.273 60.9362 24.0638 62.727 24.0638 64.9362V73.4043C24.0638 75.6134 22.273 77.4043 20.0638 77.4043H11.5957C9.38661 77.4043 7.59574 75.6134 7.59574 73.4043V64.9362ZM11.5957 58.9362C8.28204 58.9362 5.59574 61.6225 5.59574 64.9362V73.4043C5.59574 76.718 8.28204 79.4043 11.5957 79.4043H20.0638C23.3775 79.4043 26.0638 76.718 26.0638 73.4043V64.9362C26.0638 61.6225 23.3775 58.9362 20.0638 58.9362H11.5957ZM33.9787 63.3989C33.9787 63.1316 34.1954 62.9149 34.4628 62.9149H56.5585C56.8258 62.9149 57.0426 63.1316 57.0426 63.3989C57.0426 63.6663 56.8258 63.883 56.5585 63.883H34.4628C34.1954 63.883 33.9787 63.6663 33.9787 63.3989ZM34.4628 60.9149C33.0909 60.9149 31.9787 62.027 31.9787 63.3989C31.9787 64.7708 33.0909 65.883 34.4628 65.883H56.5585C57.9304 65.883 59.0426 64.7708 59.0426 63.3989C59.0426 62.027 57.9304 60.9149 56.5585 60.9149H34.4628ZM33.9787 70.3245C33.9787 69.875 34.3431 69.5106 34.7926 69.5106H49.9628C50.4122 69.5106 50.7766 69.875 50.7766 70.3245C50.7766 70.7739 50.4122 71.1383 49.9628 71.1383H34.7926C34.3431 71.1383 33.9787 70.7739 33.9787 70.3245ZM34.7926 67.5106C33.2385 67.5106 31.9787 68.7704 31.9787 70.3245C31.9787 71.8785 33.2385 73.1383 34.7926 73.1383H49.9628C51.5168 73.1383 52.7766 71.8785 52.7766 70.3245C52.7766 68.7704 51.5168 67.5106 49.9628 67.5106H34.7926ZM182.893 56H91.1069C90.6485 56 90.2701 56.0614 90 56.1373V82.8627C90.2701 82.9386 90.6485 83 91.1069 83H182.893C183.351 83 183.73 82.9386 184 82.8627V56.1374C183.73 56.0614 183.351 56 182.893 56ZM182.893 54H91.1069C89.3911 54 88 54.6238 88 55.3931V83.6069C88 84.3762 89.3911 85 91.1069 85H182.893C184.609 85 186 84.3762 186 83.6069V55.3931C186 54.6238 184.609 54 182.893 54ZM95.5957 64.9362C95.5957 62.727 97.3866 60.9362 99.5957 60.9362H108.064C110.273 60.9362 112.064 62.727 112.064 64.9362V73.4043C112.064 75.6134 110.273 77.4043 108.064 77.4043H99.5957C97.3866 77.4043 95.5957 75.6134 95.5957 73.4043V64.9362ZM99.5957 58.9362C96.282 58.9362 93.5957 61.6225 93.5957 64.9362V73.4043C93.5957 76.718 96.282 79.4043 99.5957 79.4043H108.064C111.378 79.4043 114.064 76.718 114.064 73.4043V64.9362C114.064 61.6225 111.378 58.9362 108.064 58.9362H99.5957ZM121.979 63.3989C121.979 63.1316 122.195 62.9149 122.463 62.9149H144.559C144.826 62.9149 145.043 63.1316 145.043 63.3989C145.043 63.6663 144.826 63.883 144.559 63.883H122.463C122.195 63.883 121.979 63.6663 121.979 63.3989ZM122.463 60.9149C121.091 60.9149 119.979 62.027 119.979 63.3989C119.979 64.7708 121.091 65.883 122.463 65.883H144.559C145.93 65.883 147.043 64.7708 147.043 63.3989C147.043 62.027 145.93 60.9149 144.559 60.9149H122.463ZM169.5 62.7023V67.5106H164.5V69.5106H169.5V74.319H171.5V69.5106H175.5V67.5106H171.5V62.7023H169.5ZM121.979 70.3245C121.979 69.875 122.343 69.5106 122.793 69.5106H137.963C138.412 69.5106 138.777 69.875 138.777 70.3245C138.777 70.7739 138.412 71.1383 137.963 71.1383H122.793C122.343 71.1383 121.979 70.7739 121.979 70.3245ZM122.793 67.5106C121.239 67.5106 119.979 68.7704 119.979 70.3245C119.979 71.8785 121.239 73.1383 122.793 73.1383H137.963C139.517 73.1383 140.777 71.8785 140.777 70.3245C140.777 68.7704 139.517 67.5106 137.963 67.5106H122.793Z" fill="url(#paint0_linear_3_11450)" fill-opacity="0.8"/>
<defs>
<linearGradient id="paint0_linear_3_11450" x1="-9.4955e-06" y1="-48.5" x2="-9.54599" y2="90.3149" gradientUnits="userSpaceOnUse">
<stop stop-color="#16FF85" stop-opacity="0.79"/>
<stop offset="1" stop-color="white" stop-opacity="0.5"/>
</linearGradient>
</defs>
</svg>
