<svg width="93" height="68" viewBox="0 0 93 68" fill="none" xmlns="http://www.w3.org/2000/svg">
<path d="M15.9133 34.4547H13.64M5.99333 14.7513V34.4547H13.64M0 10.236H13.02M13.02 5.72061H0M0 1H5.99333M56.42 30.5551V25.8345M74.4 15.1618H56.42V25.8345M79.98 20.2929H93M79.98 15.7776H93M79.98 11.2622H86.3867M13.64 34.4547C14.6733 26.4502 23.7667 11.8779 40.92 11.2622V18.8562M13.64 34.4547C12.6067 38.9701 13.02 47.3851 15.9133 51.2847C25.0067 71.3986 56.0067 72.6301 65.72 52.5162C68.2 48.6166 70.68 39.4216 69.0267 35.481H61.38M61.38 35.481C60.9667 32.6075 58.404 26.6555 56.42 25.8345M61.38 35.481C62.059 37.5883 61.9502 40.395 61.38 43.1532M56.42 25.8345L50.22 30.9656C53.1893 34.3259 54.0821 37.8467 53.6383 41.0225M40.92 51.9005C22.5267 50.5639 26.66 27.2712 40.92 26.4502V18.8562M40.92 51.9005C46.5621 52.3105 52.754 47.3514 53.6383 41.0225M40.92 51.9005V59.7693M40.92 18.8562C28.52 17.4195 11.9867 35.481 24.18 51.2847C27.676 56.9267 34.233 59.8155 40.92 59.7693M53.6383 41.0225L61.38 43.1532M61.38 43.1532C60.5618 47.1106 58.7937 50.968 57.04 52.5162C52.9485 57.3534 46.8826 59.7282 40.92 59.7693" stroke="white" stroke-opacity="0.29" stroke-width="2"/>
<path d="M15.9133 34.4547H13.64M5.99333 14.7513V34.4547H13.64M0 10.236H13.02M13.02 5.72061H0M0 1H5.99333M56.42 30.5551V25.8345M74.4 15.1618H56.42V25.8345M79.98 20.2929H93M79.98 15.7776H93M79.98 11.2622H86.3867M13.64 34.4547C14.6733 26.4502 23.7667 11.8779 40.92 11.2622V18.8562M13.64 34.4547C12.6067 38.9701 13.02 47.3851 15.9133 51.2847C25.0067 71.3986 56.0067 72.6301 65.72 52.5162C68.2 48.6166 70.68 39.4216 69.0267 35.481H61.38M61.38 35.481C60.9667 32.6075 58.404 26.6555 56.42 25.8345M61.38 35.481C62.059 37.5883 61.9502 40.395 61.38 43.1532M56.42 25.8345L50.22 30.9656C53.1893 34.3259 54.0821 37.8467 53.6383 41.0225M40.92 51.9005C22.5267 50.5639 26.66 27.2712 40.92 26.4502V18.8562M40.92 51.9005C46.5621 52.3105 52.754 47.3514 53.6383 41.0225M40.92 51.9005V59.7693M40.92 18.8562C28.52 17.4195 11.9867 35.481 24.18 51.2847C27.676 56.9267 34.233 59.8155 40.92 59.7693M53.6383 41.0225L61.38 43.1532M61.38 43.1532C60.5618 47.1106 58.7937 50.968 57.04 52.5162C52.9485 57.3534 46.8826 59.7282 40.92 59.7693" stroke="url(#paint0_linear_3_11433)" stroke-width="2"/>
<defs>
<linearGradient id="paint0_linear_3_11433" x1="29.6096" y1="-4.11628" x2="37.4151" y2="62.4716" gradientUnits="userSpaceOnUse">
<stop stop-color="#16FF85" stop-opacity="0.79"/>
<stop offset="1" stop-color="white" stop-opacity="0"/>
</linearGradient>
</defs>
</svg>
