<svg width="81" height="67" viewBox="0 0 81 67" fill="none" xmlns="http://www.w3.org/2000/svg">
<path d="M65.3785 19.6613V6.74535C63.993 2.42092 61.3988 0.89139 58.8595 1.00594M65.3785 19.6613H79.8706C80.2492 25.4201 77.0437 28.5973 73.5522 29.0007M65.3785 19.6613C65.3785 26.429 69.6445 29.4522 73.5522 29.0007M52.0899 29.2721V55.2567C52.8369 61.5339 49.0126 65.3637 45.27 65.3212M52.0899 29.2721V6.74535C52.6982 3.77285 55.7375 1.14677 58.8595 1.00594M52.0899 29.2721L73.5522 29.0007M58.8595 1.00594H22.4537C18.6426 1.00594 13.8888 3.31799 14.1295 8.72848V55.2567M14.1295 55.2567H1.04147C0.757315 58.3247 1.80369 64.5928 8.26246 65.1216L45.27 65.3212M14.1295 55.2567H38.7511C38.7511 62.252 41.9789 65.2839 45.27 65.3212M19.3948 12.0846L20.7488 13.6101L23.6572 9.54208M22.9665 23.7294H23.1558V27.8991H18.4421V23.7294H22.9665ZM22.9665 23.7294L20.7488 26.8312L19.3948 25.3057M22.9665 23.7294L23.6572 22.7632M27.6689 36.9505H39.4531M27.6689 41.1202H46.4234M27.6689 23.7294H39.4531M27.6689 27.8991H46.4234M27.6689 10.5082H39.4531M27.6689 14.678H46.4234M18.4421 14.678H23.1558V10.5082H18.4421V14.678ZM18.4421 41.1202H23.1558V36.9505H22.9665H18.4421V41.1202Z" stroke="white" stroke-opacity="0.2" stroke-width="2"/>
<path d="M65.3785 19.6613V6.74535C63.993 2.42092 61.3988 0.89139 58.8595 1.00594M65.3785 19.6613H79.8706C80.2492 25.4201 77.0437 28.5973 73.5522 29.0007M65.3785 19.6613C65.3785 26.429 69.6445 29.4522 73.5522 29.0007M52.0899 29.2721V55.2567C52.8369 61.5339 49.0126 65.3637 45.27 65.3212M52.0899 29.2721V6.74535C52.6982 3.77285 55.7375 1.14677 58.8595 1.00594M52.0899 29.2721L73.5522 29.0007M58.8595 1.00594H22.4537C18.6426 1.00594 13.8888 3.31799 14.1295 8.72848V55.2567M14.1295 55.2567H1.04147C0.757315 58.3247 1.80369 64.5928 8.26246 65.1216L45.27 65.3212M14.1295 55.2567H38.7511C38.7511 62.252 41.9789 65.2839 45.27 65.3212M19.3948 12.0846L20.7488 13.6101L23.6572 9.54208M22.9665 23.7294H23.1558V27.8991H18.4421V23.7294H22.9665ZM22.9665 23.7294L20.7488 26.8312L19.3948 25.3057M22.9665 23.7294L23.6572 22.7632M27.6689 36.9505H39.4531M27.6689 41.1202H46.4234M27.6689 23.7294H39.4531M27.6689 27.8991H46.4234M27.6689 10.5082H39.4531M27.6689 14.678H46.4234M18.4421 14.678H23.1558V10.5082H18.4421V14.678ZM18.4421 41.1202H23.1558V36.9505H22.9665H18.4421V41.1202Z" stroke="url(#paint0_linear_3_11446)" stroke-width="2"/>
<defs>
<linearGradient id="paint0_linear_3_11446" x1="12.5" y1="-11" x2="38.5868" y2="65.7488" gradientUnits="userSpaceOnUse">
<stop stop-color="#16FF85" stop-opacity="0.79"/>
<stop offset="1" stop-color="white" stop-opacity="0"/>
</linearGradient>
</defs>
</svg>
