<svg width="744" height="339" viewBox="0 0 744 339" fill="none" xmlns="http://www.w3.org/2000/svg">
<ellipse cx="463.337" cy="257.764" rx="18.2813" ry="18.6731" fill="#16FF85" fill-opacity="0.19"/>
<ellipse cx="462.902" cy="258.209" rx="8.27012" ry="8.44735" fill="#16FF85"/>
<ellipse cx="31.3283" cy="52.3173" rx="7.45919" ry="7.61905" fill="#16FF85" fill-opacity="0.19"/>
<ellipse cx="31.0795" cy="52.0633" rx="3.23232" ry="3.30159" fill="#16FF85"/>
<ellipse cx="21.1349" cy="20.5714" rx="20.1398" ry="20.5714" fill="#16FF85" fill-opacity="0.19"/>
<ellipse cx="21.3836" cy="20.8257" rx="9.94559" ry="10.1587" fill="#16FF85"/>
<ellipse cx="9.94559" cy="53.8413" rx="9.94559" ry="10.1587" fill="#16FF85" fill-opacity="0.19"/>
<ellipse cx="9.94594" cy="53.8416" rx="4.9728" ry="5.07936" fill="#16FF85"/>
<ellipse cx="437.22" cy="231.088" rx="8.70539" ry="8.89195" fill="#16FF85" fill-opacity="0.19"/>
<ellipse cx="437.22" cy="231.088" rx="3.48216" ry="3.55678" fill="#16FF85"/>
<ellipse cx="351.909" cy="36.3548" rx="8.70539" ry="8.89195" fill="#16FF85" fill-opacity="0.19"/>
<ellipse cx="351.909" cy="36.3546" rx="3.48216" ry="3.55678" fill="#16FF85"/>
<ellipse cx="450.279" cy="215.971" rx="4.35269" ry="4.44597" fill="#16FF85" fill-opacity="0.19"/>
<ellipse cx="450.28" cy="215.971" rx="1.24363" ry="1.27028" fill="#16FF85"/>
<ellipse cx="475.705" cy="329.892" rx="8.70539" ry="8.89195" fill="#16FF85" fill-opacity="0.19"/>
<ellipse cx="475.705" cy="329.892" rx="2.48725" ry="2.54056" fill="#16FF85"/>
<ellipse cx="570.971" cy="40.3432" rx="9.76051" ry="9.96968" fill="#16FF85" fill-opacity="0.19"/>
<ellipse cx="570.971" cy="40.3436" rx="2.78872" ry="2.84848" fill="#16FF85"/>
<ellipse cx="536.809" cy="47.2272" rx="18.8238" ry="19.2272" fill="#16FF85" fill-opacity="0.19"/>
<ellipse cx="537.042" cy="47.4647" rx="9.29572" ry="9.49493" fill="#16FF85"/>
<ellipse cx="507.296" cy="57.909" rx="9.29572" ry="9.49493" fill="#16FF85" fill-opacity="0.19"/>
<ellipse cx="507.296" cy="57.9091" rx="2.65592" ry="2.71284" fill="#16FF85"/>
<ellipse cx="520.774" cy="70.2523" rx="4.64786" ry="4.74747" fill="#16FF85" fill-opacity="0.19"/>
<ellipse cx="520.774" cy="70.2524" rx="1.32796" ry="1.35642" fill="#16FF85"/>
<ellipse cx="738.553" cy="156.719" rx="5.25678" ry="5.36944" fill="#16FF85" fill-opacity="0.19"/>
<ellipse cx="738.552" cy="156.719" rx="1.50194" ry="1.53412" fill="#16FF85"/>
<ellipse cx="736.45" cy="144.369" rx="5.25678" ry="5.36944" fill="#16FF85" fill-opacity="0.19"/>
<ellipse cx="736.45" cy="144.37" rx="1.50194" ry="1.53412" fill="#16FF85"/>
<ellipse cx="724.097" cy="154.84" rx="7.09666" ry="7.24874" fill="#16FF85" fill-opacity="0.19"/>
<ellipse cx="724.097" cy="154.84" rx="2.02762" ry="2.07107" fill="#16FF85"/>
<ellipse cx="107.287" cy="273.77" rx="13.0581" ry="13.3379" fill="#16FF85" fill-opacity="0.19"/>
<ellipse cx="106.976" cy="274.087" rx="5.90723" ry="6.03382" fill="#16FF85"/>
</svg>
