<svg width="432" height="239" viewBox="0 0 432 239" fill="none" xmlns="http://www.w3.org/2000/svg">
<path d="M8.536 203.736L8.528 205H1.464V193.536H8.528V194.8H3.016V198.608H7.48V199.824H3.016V203.736H8.536ZM14.6606 201.352C14.0046 201.373 13.4446 201.427 12.9806 201.512C12.522 201.592 12.146 201.699 11.8526 201.832C11.5646 201.965 11.354 202.123 11.2206 202.304C11.0926 202.485 11.0286 202.688 11.0286 202.912C11.0286 203.125 11.0633 203.309 11.1326 203.464C11.202 203.619 11.2953 203.747 11.4126 203.848C11.5353 203.944 11.6766 204.016 11.8366 204.064C12.002 204.107 12.178 204.128 12.3646 204.128C12.6153 204.128 12.8446 204.104 13.0526 204.056C13.2606 204.003 13.4553 203.928 13.6366 203.832C13.8233 203.736 13.9993 203.621 14.1646 203.488C14.3353 203.355 14.5006 203.203 14.6606 203.032V201.352ZM10.0606 198.04C10.5086 197.608 10.9913 197.285 11.5086 197.072C12.026 196.859 12.5993 196.752 13.2286 196.752C13.682 196.752 14.0846 196.827 14.4366 196.976C14.7886 197.125 15.0846 197.333 15.3246 197.6C15.5646 197.867 15.746 198.189 15.8686 198.568C15.9913 198.947 16.0526 199.363 16.0526 199.816V205H15.4206C15.282 205 15.1753 204.979 15.1006 204.936C15.026 204.888 14.9673 204.797 14.9246 204.664L14.7646 203.896C14.5513 204.093 14.3433 204.269 14.1406 204.424C13.938 204.573 13.7246 204.701 13.5006 204.808C13.2766 204.909 13.0366 204.987 12.7806 205.04C12.53 205.099 12.25 205.128 11.9406 205.128C11.626 205.128 11.33 205.085 11.0526 205C10.7753 204.909 10.5326 204.776 10.3246 204.6C10.122 204.424 9.95929 204.203 9.83663 203.936C9.71929 203.664 9.66063 203.344 9.66063 202.976C9.66063 202.656 9.74863 202.349 9.92463 202.056C10.1006 201.757 10.386 201.493 10.7806 201.264C11.1753 201.035 11.69 200.848 12.3246 200.704C12.9593 200.555 13.738 200.469 14.6606 200.448V199.816C14.6606 199.187 14.5246 198.712 14.2526 198.392C13.9806 198.067 13.5833 197.904 13.0606 197.904C12.7086 197.904 12.4126 197.949 12.1726 198.04C11.938 198.125 11.7326 198.224 11.5566 198.336C11.386 198.443 11.2366 198.541 11.1086 198.632C10.986 198.717 10.8633 198.76 10.7406 198.76C10.6446 198.76 10.562 198.736 10.4926 198.688C10.4233 198.635 10.3646 198.571 10.3166 198.496L10.0606 198.04ZM19.5738 198.52C19.8298 197.965 20.1444 197.533 20.5178 197.224C20.8911 196.909 21.3471 196.752 21.8858 196.752C22.0564 196.752 22.2191 196.771 22.3738 196.808C22.5338 196.845 22.6751 196.904 22.7978 196.984L22.6938 198.048C22.6618 198.181 22.5818 198.248 22.4538 198.248C22.3791 198.248 22.2698 198.232 22.1258 198.2C21.9818 198.168 21.8191 198.152 21.6378 198.152C21.3818 198.152 21.1524 198.189 20.9498 198.264C20.7524 198.339 20.5738 198.451 20.4138 198.6C20.2591 198.744 20.1178 198.925 19.9898 199.144C19.8671 199.357 19.7551 199.603 19.6538 199.88V205H18.2218V196.896H19.0378C19.1924 196.896 19.2991 196.925 19.3578 196.984C19.4164 197.043 19.4564 197.144 19.4778 197.288L19.5738 198.52ZM25.5219 193.216V205H24.0979V193.216H25.5219ZM34.8231 196.896L30.3031 207.392C30.2551 207.499 30.1938 207.584 30.1191 207.648C30.0498 207.712 29.9405 207.744 29.7911 207.744H28.7351L30.2151 204.528L26.8711 196.896H28.1031C28.2258 196.896 28.3218 196.928 28.3911 196.992C28.4658 197.051 28.5165 197.117 28.5431 197.192L30.7111 202.296C30.7965 202.52 30.8685 202.755 30.9271 203C31.0018 202.749 31.0818 202.512 31.1671 202.288L33.2711 197.192C33.3031 197.107 33.3565 197.037 33.4311 196.984C33.5111 196.925 33.5991 196.896 33.6951 196.896H34.8231ZM48.8621 193.536L44.1901 205H42.7981L38.1261 193.536H39.3661C39.5048 193.536 39.6168 193.571 39.7021 193.64C39.7875 193.709 39.8515 193.797 39.8941 193.904L43.1261 201.992C43.1955 202.173 43.2621 202.371 43.3261 202.584C43.3955 202.797 43.4568 203.021 43.5101 203.256C43.5635 203.021 43.6195 202.797 43.6781 202.584C43.7368 202.371 43.8008 202.173 43.8701 201.992L47.0941 193.904C47.1261 193.813 47.1875 193.731 47.2781 193.656C47.3741 193.576 47.4888 193.536 47.6221 193.536H48.8621ZM58.1058 202.632C58.1911 202.632 58.2658 202.667 58.3298 202.736L58.9458 203.4C58.4764 203.944 57.9058 204.368 57.2338 204.672C56.5671 204.976 55.7591 205.128 54.8098 205.128C53.9884 205.128 53.2418 204.987 52.5698 204.704C51.8978 204.416 51.3244 204.016 50.8498 203.504C50.3751 202.987 50.0071 202.368 49.7458 201.648C49.4844 200.928 49.3538 200.136 49.3538 199.272C49.3538 198.408 49.4898 197.616 49.7618 196.896C50.0338 196.176 50.4151 195.557 50.9058 195.04C51.4018 194.523 51.9938 194.123 52.6818 193.84C53.3698 193.552 54.1298 193.408 54.9618 193.408C55.7778 193.408 56.4978 193.539 57.1218 193.8C57.7458 194.061 58.2951 194.416 58.7698 194.864L58.2578 195.576C58.2258 195.629 58.1831 195.675 58.1298 195.712C58.0818 195.744 58.0151 195.76 57.9298 195.76C57.8338 195.76 57.7164 195.709 57.5778 195.608C57.4391 195.501 57.2578 195.384 57.0338 195.256C56.8098 195.128 56.5298 195.013 56.1938 194.912C55.8578 194.805 55.4444 194.752 54.9538 194.752C54.3618 194.752 53.8204 194.856 53.3298 195.064C52.8391 195.267 52.4151 195.563 52.0578 195.952C51.7058 196.341 51.4311 196.816 51.2338 197.376C51.0364 197.936 50.9378 198.568 50.9378 199.272C50.9378 199.987 51.0391 200.624 51.2418 201.184C51.4498 201.744 51.7298 202.219 52.0818 202.608C52.4391 202.992 52.8578 203.285 53.3378 203.488C53.8231 203.691 54.3458 203.792 54.9058 203.792C55.2471 203.792 55.5538 203.773 55.8258 203.736C56.1031 203.693 56.3564 203.629 56.5858 203.544C56.8204 203.459 57.0364 203.352 57.2338 203.224C57.4364 203.091 57.6364 202.933 57.8338 202.752C57.9244 202.672 58.0151 202.632 58.1058 202.632ZM65.335 199.968C65.335 201.109 65.479 202.219 65.767 203.296C66.0603 204.373 66.487 205.397 67.047 206.368C67.1323 206.533 67.1537 206.659 67.111 206.744C67.0683 206.835 67.007 206.907 66.927 206.96L66.295 207.344C65.895 206.731 65.5537 206.123 65.271 205.52C64.9937 204.917 64.767 204.312 64.591 203.704C64.4203 203.096 64.295 202.485 64.215 201.872C64.135 201.253 64.095 200.619 64.095 199.968C64.095 199.323 64.135 198.691 64.215 198.072C64.295 197.453 64.4203 196.843 64.591 196.24C64.767 195.632 64.9937 195.027 65.271 194.424C65.5537 193.821 65.895 193.211 66.295 192.592L66.927 192.984C67.007 193.037 67.0683 193.109 67.111 193.2C67.1537 193.285 67.1323 193.408 67.047 193.568C66.487 194.539 66.0603 195.563 65.767 196.64C65.479 197.717 65.335 198.827 65.335 199.968ZM74.9686 195.328C74.9206 195.408 74.8673 195.469 74.8086 195.512C74.7553 195.549 74.6886 195.568 74.6086 195.568C74.518 195.568 74.4113 195.523 74.2886 195.432C74.166 195.341 74.0113 195.243 73.8246 195.136C73.6433 195.024 73.422 194.923 73.1606 194.832C72.9046 194.741 72.5926 194.696 72.2246 194.696C71.878 194.696 71.5713 194.744 71.3046 194.84C71.0433 194.931 70.822 195.056 70.6406 195.216C70.4646 195.376 70.3313 195.565 70.2406 195.784C70.15 195.997 70.1046 196.229 70.1046 196.48C70.1046 196.8 70.182 197.067 70.3366 197.28C70.4966 197.488 70.7046 197.667 70.9606 197.816C71.222 197.965 71.5153 198.096 71.8406 198.208C72.1713 198.315 72.5073 198.427 72.8486 198.544C73.1953 198.661 73.5313 198.795 73.8566 198.944C74.1873 199.088 74.4806 199.272 74.7366 199.496C74.998 199.72 75.206 199.995 75.3606 200.32C75.5206 200.645 75.6006 201.045 75.6006 201.52C75.6006 202.021 75.5153 202.493 75.3446 202.936C75.174 203.373 74.9233 203.755 74.5926 204.08C74.2673 204.405 73.8646 204.661 73.3846 204.848C72.91 205.035 72.3686 205.128 71.7606 205.128C71.014 205.128 70.3366 204.995 69.7286 204.728C69.1206 204.456 68.6006 204.091 68.1686 203.632L68.6166 202.896C68.6593 202.837 68.71 202.789 68.7686 202.752C68.8326 202.709 68.902 202.688 68.9766 202.688C69.046 202.688 69.1233 202.717 69.2086 202.776C69.2993 202.829 69.4006 202.899 69.5126 202.984C69.6246 203.069 69.7526 203.163 69.8966 203.264C70.0406 203.365 70.2033 203.459 70.3846 203.544C70.5713 203.629 70.782 203.701 71.0166 203.76C71.2513 203.813 71.5153 203.84 71.8086 203.84C72.1766 203.84 72.5046 203.789 72.7926 203.688C73.0806 203.587 73.3233 203.445 73.5206 203.264C73.7233 203.077 73.878 202.856 73.9846 202.6C74.0913 202.344 74.1446 202.059 74.1446 201.744C74.1446 201.397 74.0646 201.115 73.9046 200.896C73.75 200.672 73.5446 200.485 73.2886 200.336C73.0326 200.187 72.7393 200.061 72.4086 199.96C72.078 199.853 71.742 199.747 71.4006 199.64C71.0593 199.528 70.7233 199.4 70.3926 199.256C70.062 199.112 69.7686 198.925 69.5126 198.696C69.2566 198.467 69.0486 198.181 68.8886 197.84C68.734 197.493 68.6566 197.067 68.6566 196.56C68.6566 196.155 68.734 195.763 68.8886 195.384C69.0486 195.005 69.278 194.669 69.5766 194.376C69.8806 194.083 70.2513 193.848 70.6886 193.672C71.1313 193.496 71.638 193.408 72.2086 193.408C72.8486 193.408 73.43 193.509 73.9526 193.712C74.4806 193.915 74.9446 194.208 75.3446 194.592L74.9686 195.328ZM82.8333 200.064C82.8333 199.733 82.7853 199.432 82.6893 199.16C82.5986 198.883 82.4626 198.645 82.2813 198.448C82.1053 198.245 81.8893 198.091 81.6333 197.984C81.3773 197.872 81.0866 197.816 80.7613 197.816C80.0786 197.816 79.5373 198.016 79.1373 198.416C78.7426 198.811 78.4973 199.36 78.4013 200.064H82.8333ZM83.9853 203.864C83.8093 204.077 83.5986 204.264 83.3533 204.424C83.1079 204.579 82.8439 204.707 82.5613 204.808C82.2839 204.909 81.9959 204.984 81.6973 205.032C81.3986 205.085 81.1026 205.112 80.8093 205.112C80.2493 205.112 79.7319 205.019 79.2573 204.832C78.7879 204.64 78.3799 204.363 78.0333 204C77.6919 203.632 77.4253 203.179 77.2333 202.64C77.0413 202.101 76.9453 201.483 76.9453 200.784C76.9453 200.219 77.0306 199.691 77.2013 199.2C77.3773 198.709 77.6279 198.285 77.9533 197.928C78.2786 197.565 78.6759 197.283 79.1453 197.08C79.6146 196.872 80.1426 196.768 80.7293 196.768C81.2146 196.768 81.6626 196.851 82.0733 197.016C82.4893 197.176 82.8466 197.411 83.1453 197.72C83.4493 198.024 83.6866 198.403 83.8573 198.856C84.0279 199.304 84.1133 199.816 84.1133 200.392C84.1133 200.616 84.0893 200.765 84.0413 200.84C83.9933 200.915 83.9026 200.952 83.7693 200.952H78.3533C78.3693 201.464 78.4386 201.909 78.5613 202.288C78.6893 202.667 78.8653 202.984 79.0893 203.24C79.3133 203.491 79.5799 203.68 79.8893 203.808C80.1986 203.931 80.5453 203.992 80.9293 203.992C81.2866 203.992 81.5933 203.952 81.8493 203.872C82.1106 203.787 82.3346 203.696 82.5213 203.6C82.7079 203.504 82.8626 203.416 82.9853 203.336C83.1133 203.251 83.2226 203.208 83.3133 203.208C83.4306 203.208 83.5213 203.253 83.5853 203.344L83.9853 203.864ZM87.2144 198.52C87.4704 197.965 87.785 197.533 88.1584 197.224C88.5317 196.909 88.9877 196.752 89.5264 196.752C89.697 196.752 89.8597 196.771 90.0144 196.808C90.1744 196.845 90.3157 196.904 90.4384 196.984L90.3344 198.048C90.3024 198.181 90.2224 198.248 90.0944 198.248C90.0197 198.248 89.9104 198.232 89.7664 198.2C89.6224 198.168 89.4597 198.152 89.2784 198.152C89.0224 198.152 88.793 198.189 88.5904 198.264C88.393 198.339 88.2144 198.451 88.0544 198.6C87.8997 198.744 87.7584 198.925 87.6304 199.144C87.5077 199.357 87.3957 199.603 87.2944 199.88V205H85.8624V196.896H86.6784C86.833 196.896 86.9397 196.925 86.9984 196.984C87.057 197.043 87.097 197.144 87.1184 197.288L87.2144 198.52ZM93.1945 196.896V205H91.7705V196.896H93.1945ZM93.4985 194.352C93.4985 194.491 93.4692 194.621 93.4105 194.744C93.3572 194.861 93.2825 194.968 93.1865 195.064C93.0958 195.155 92.9865 195.227 92.8585 195.28C92.7358 195.333 92.6052 195.36 92.4665 195.36C92.3278 195.36 92.1972 195.333 92.0745 195.28C91.9572 195.227 91.8532 195.155 91.7625 195.064C91.6718 194.968 91.5998 194.861 91.5465 194.744C91.4932 194.621 91.4665 194.491 91.4665 194.352C91.4665 194.213 91.4932 194.083 91.5465 193.96C91.5998 193.832 91.6718 193.723 91.7625 193.632C91.8532 193.536 91.9572 193.461 92.0745 193.408C92.1972 193.355 92.3278 193.328 92.4665 193.328C92.6052 193.328 92.7358 193.355 92.8585 193.408C92.9865 193.461 93.0958 193.536 93.1865 193.632C93.2825 193.723 93.3572 193.832 93.4105 193.96C93.4692 194.083 93.4985 194.213 93.4985 194.352ZM100.958 200.064C100.958 199.733 100.91 199.432 100.814 199.16C100.724 198.883 100.588 198.645 100.406 198.448C100.23 198.245 100.014 198.091 99.7583 197.984C99.5023 197.872 99.2116 197.816 98.8863 197.816C98.2036 197.816 97.6623 198.016 97.2623 198.416C96.8676 198.811 96.6223 199.36 96.5263 200.064H100.958ZM102.11 203.864C101.934 204.077 101.724 204.264 101.478 204.424C101.233 204.579 100.969 204.707 100.686 204.808C100.409 204.909 100.121 204.984 99.8223 205.032C99.5236 205.085 99.2276 205.112 98.9343 205.112C98.3743 205.112 97.8569 205.019 97.3823 204.832C96.9129 204.64 96.5049 204.363 96.1583 204C95.8169 203.632 95.5503 203.179 95.3583 202.64C95.1663 202.101 95.0703 201.483 95.0703 200.784C95.0703 200.219 95.1556 199.691 95.3263 199.2C95.5023 198.709 95.7529 198.285 96.0783 197.928C96.4036 197.565 96.8009 197.283 97.2703 197.08C97.7396 196.872 98.2676 196.768 98.8543 196.768C99.3396 196.768 99.7876 196.851 100.198 197.016C100.614 197.176 100.972 197.411 101.27 197.72C101.574 198.024 101.812 198.403 101.982 198.856C102.153 199.304 102.238 199.816 102.238 200.392C102.238 200.616 102.214 200.765 102.166 200.84C102.118 200.915 102.028 200.952 101.894 200.952H96.4783C96.4943 201.464 96.5636 201.909 96.6863 202.288C96.8143 202.667 96.9903 202.984 97.2143 203.24C97.4383 203.491 97.7049 203.68 98.0143 203.808C98.3236 203.931 98.6703 203.992 99.0543 203.992C99.4116 203.992 99.7183 203.952 99.9743 203.872C100.236 203.787 100.46 203.696 100.646 203.6C100.833 203.504 100.988 203.416 101.11 203.336C101.238 203.251 101.348 203.208 101.438 203.208C101.556 203.208 101.646 203.253 101.71 203.344L102.11 203.864ZM108.707 198.232C108.643 198.349 108.545 198.408 108.411 198.408C108.331 198.408 108.241 198.379 108.139 198.32C108.038 198.261 107.913 198.197 107.763 198.128C107.619 198.053 107.446 197.987 107.243 197.928C107.041 197.864 106.801 197.832 106.523 197.832C106.283 197.832 106.067 197.864 105.875 197.928C105.683 197.987 105.518 198.069 105.379 198.176C105.246 198.283 105.142 198.408 105.067 198.552C104.998 198.691 104.963 198.843 104.963 199.008C104.963 199.216 105.022 199.389 105.139 199.528C105.262 199.667 105.422 199.787 105.619 199.888C105.817 199.989 106.041 200.08 106.291 200.16C106.542 200.235 106.798 200.317 107.059 200.408C107.326 200.493 107.585 200.589 107.835 200.696C108.086 200.803 108.31 200.936 108.507 201.096C108.705 201.256 108.862 201.453 108.979 201.688C109.102 201.917 109.163 202.195 109.163 202.52C109.163 202.893 109.097 203.24 108.963 203.56C108.83 203.875 108.633 204.149 108.371 204.384C108.11 204.613 107.79 204.795 107.411 204.928C107.033 205.061 106.595 205.128 106.099 205.128C105.534 205.128 105.022 205.037 104.563 204.856C104.105 204.669 103.715 204.432 103.395 204.144L103.731 203.6C103.774 203.531 103.825 203.477 103.883 203.44C103.942 203.403 104.017 203.384 104.107 203.384C104.203 203.384 104.305 203.421 104.411 203.496C104.518 203.571 104.646 203.653 104.795 203.744C104.95 203.835 105.137 203.917 105.355 203.992C105.574 204.067 105.846 204.104 106.171 204.104C106.449 204.104 106.691 204.069 106.899 204C107.107 203.925 107.281 203.827 107.419 203.704C107.558 203.581 107.659 203.44 107.723 203.28C107.793 203.12 107.827 202.949 107.827 202.768C107.827 202.544 107.766 202.36 107.643 202.216C107.526 202.067 107.369 201.941 107.171 201.84C106.974 201.733 106.747 201.643 106.491 201.568C106.241 201.488 105.982 201.405 105.715 201.32C105.454 201.235 105.195 201.139 104.939 201.032C104.689 200.92 104.465 200.781 104.267 200.616C104.07 200.451 103.91 200.248 103.787 200.008C103.67 199.763 103.611 199.467 103.611 199.12C103.611 198.811 103.675 198.515 103.803 198.232C103.931 197.944 104.118 197.693 104.363 197.48C104.609 197.261 104.91 197.088 105.267 196.96C105.625 196.832 106.033 196.768 106.491 196.768C107.025 196.768 107.502 196.853 107.923 197.024C108.35 197.189 108.718 197.419 109.027 197.712L108.707 198.232ZM120.896 200.744L119.096 196.08C119.042 195.941 118.986 195.781 118.928 195.6C118.869 195.413 118.813 195.216 118.76 195.008C118.648 195.44 118.533 195.8 118.416 196.088L116.616 200.744H120.896ZM124.128 205H122.928C122.789 205 122.677 204.965 122.592 204.896C122.506 204.827 122.442 204.739 122.4 204.632L121.328 201.864H116.184L115.112 204.632C115.08 204.728 115.018 204.813 114.928 204.888C114.837 204.963 114.725 205 114.592 205H113.392L117.976 193.536H119.544L124.128 205ZM126.484 199.968C126.484 198.827 126.337 197.717 126.044 196.64C125.756 195.563 125.332 194.539 124.772 193.568C124.729 193.488 124.703 193.419 124.692 193.36C124.681 193.296 124.684 193.243 124.7 193.2C124.716 193.152 124.74 193.112 124.772 193.08C124.809 193.043 124.849 193.011 124.892 192.984L125.524 192.592C125.924 193.211 126.263 193.821 126.54 194.424C126.823 195.027 127.049 195.632 127.22 196.24C127.396 196.843 127.524 197.453 127.604 198.072C127.684 198.691 127.724 199.323 127.724 199.968C127.724 200.619 127.684 201.253 127.604 201.872C127.524 202.485 127.396 203.096 127.22 203.704C127.049 204.312 126.823 204.917 126.54 205.52C126.263 206.123 125.924 206.731 125.524 207.344L124.892 206.96C124.849 206.933 124.809 206.901 124.772 206.864C124.74 206.832 124.716 206.792 124.7 206.744C124.684 206.701 124.681 206.648 124.692 206.584C124.703 206.52 124.729 206.448 124.772 206.368C125.332 205.397 125.756 204.373 126.044 203.296C126.337 202.219 126.484 201.109 126.484 199.968Z" fill="white"/>
<path d="M48.47 174.226C48.47 175.082 48.578 175.914 48.794 176.722C49.014 177.53 49.334 178.298 49.754 179.026C49.818 179.15 49.834 179.244 49.802 179.308C49.77 179.376 49.724 179.43 49.664 179.47L49.19 179.758C48.89 179.298 48.634 178.842 48.422 178.39C48.214 177.938 48.044 177.484 47.912 177.028C47.784 176.572 47.69 176.114 47.63 175.654C47.57 175.19 47.54 174.714 47.54 174.226C47.54 173.742 47.57 173.268 47.63 172.804C47.69 172.34 47.784 171.882 47.912 171.43C48.044 170.974 48.214 170.52 48.422 170.068C48.634 169.616 48.89 169.158 49.19 168.694L49.664 168.988C49.724 169.028 49.77 169.082 49.802 169.15C49.834 169.214 49.818 169.306 49.754 169.426C49.334 170.154 49.014 170.922 48.794 171.73C48.578 172.538 48.47 173.37 48.47 174.226ZM56.1212 176.986C56.2372 176.986 56.3292 177.02 56.3972 177.088C56.4652 177.156 56.4992 177.244 56.4992 177.352V178H50.7632V177.634C50.7632 177.558 50.7792 177.48 50.8112 177.4C50.8432 177.32 50.8932 177.246 50.9612 177.178L53.7152 174.412C53.9432 174.18 54.1512 173.958 54.3392 173.746C54.5272 173.53 54.6872 173.314 54.8192 173.098C54.9512 172.882 55.0532 172.664 55.1252 172.444C55.1972 172.22 55.2332 171.982 55.2332 171.73C55.2332 171.478 55.1932 171.258 55.1132 171.07C55.0332 170.878 54.9232 170.72 54.7832 170.596C54.6472 170.472 54.4852 170.38 54.2972 170.32C54.1092 170.256 53.9072 170.224 53.6912 170.224C53.4712 170.224 53.2692 170.256 53.0852 170.32C52.9012 170.384 52.7372 170.474 52.5932 170.59C52.4532 170.702 52.3352 170.836 52.2392 170.992C52.1432 171.148 52.0752 171.32 52.0352 171.508C51.9872 171.648 51.9212 171.742 51.8372 171.79C51.7572 171.834 51.6432 171.846 51.4952 171.826L50.9372 171.73C50.9932 171.338 51.1012 170.992 51.2612 170.692C51.4252 170.388 51.6292 170.134 51.8732 169.93C52.1212 169.726 52.4032 169.572 52.7192 169.468C53.0352 169.36 53.3772 169.306 53.7452 169.306C54.1092 169.306 54.4492 169.36 54.7652 169.468C55.0812 169.576 55.3552 169.734 55.5872 169.942C55.8192 170.146 56.0012 170.396 56.1332 170.692C56.2652 170.988 56.3312 171.324 56.3312 171.7C56.3312 172.02 56.2832 172.318 56.1872 172.594C56.0912 172.866 55.9612 173.126 55.7972 173.374C55.6332 173.622 55.4432 173.864 55.2272 174.1C55.0152 174.336 54.7892 174.574 54.5492 174.814L52.2812 177.13C52.4412 177.086 52.6032 177.052 52.7672 177.028C52.9312 177 53.0892 176.986 53.2412 176.986H56.1212ZM63.7602 173.704C63.7602 174.456 63.6782 175.108 63.5142 175.66C63.3542 176.208 63.1342 176.662 62.8542 177.022C62.5742 177.382 62.2422 177.65 61.8582 177.826C61.4782 178.002 61.0702 178.09 60.6342 178.09C60.1942 178.09 59.7842 178.002 59.4042 177.826C59.0282 177.65 58.7002 177.382 58.4202 177.022C58.1402 176.662 57.9202 176.208 57.7602 175.66C57.6002 175.108 57.5202 174.456 57.5202 173.704C57.5202 172.952 57.6002 172.3 57.7602 171.748C57.9202 171.196 58.1402 170.74 58.4202 170.38C58.7002 170.016 59.0282 169.746 59.4042 169.57C59.7842 169.394 60.1942 169.306 60.6342 169.306C61.0702 169.306 61.4782 169.394 61.8582 169.57C62.2422 169.746 62.5742 170.016 62.8542 170.38C63.1342 170.74 63.3542 171.196 63.5142 171.748C63.6782 172.3 63.7602 172.952 63.7602 173.704ZM62.6502 173.704C62.6502 173.048 62.5942 172.498 62.4822 172.054C62.3742 171.606 62.2262 171.246 62.0382 170.974C61.8542 170.702 61.6402 170.508 61.3962 170.392C61.1522 170.272 60.8982 170.212 60.6342 170.212C60.3702 170.212 60.1162 170.272 59.8722 170.392C59.6282 170.508 59.4142 170.702 59.2302 170.974C59.0462 171.246 58.8982 171.606 58.7862 172.054C58.6782 172.498 58.6242 173.048 58.6242 173.704C58.6242 174.36 58.6782 174.91 58.7862 175.354C58.8982 175.798 59.0462 176.156 59.2302 176.428C59.4142 176.7 59.6282 176.896 59.8722 177.016C60.1162 177.132 60.3702 177.19 60.6342 177.19C60.8982 177.19 61.1522 177.132 61.3962 177.016C61.6402 176.896 61.8542 176.7 62.0382 176.428C62.2262 176.156 62.3742 175.798 62.4822 175.354C62.5942 174.91 62.6502 174.36 62.6502 173.704ZM70.2291 177.184V178H65.6211V177.184H67.4631V171.322C67.4631 171.146 67.4691 170.968 67.4811 170.788L65.9511 172.102C65.8991 172.146 65.8471 172.174 65.7951 172.186C65.7431 172.194 65.6951 172.194 65.6511 172.186C65.6071 172.178 65.5651 172.162 65.5251 172.138C65.4891 172.114 65.4611 172.088 65.4411 172.06L65.1051 171.598L67.6671 169.384H68.5371V177.184H70.2291ZM74.562 177.244C74.842 177.244 75.092 177.206 75.312 177.13C75.536 177.05 75.724 176.94 75.876 176.8C76.032 176.656 76.15 176.486 76.23 176.29C76.314 176.09 76.356 175.87 76.356 175.63C76.356 175.334 76.306 175.082 76.206 174.874C76.11 174.662 75.978 174.49 75.81 174.358C75.646 174.226 75.456 174.13 75.24 174.07C75.024 174.006 74.798 173.974 74.562 173.974C74.326 173.974 74.1 174.006 73.884 174.07C73.668 174.13 73.476 174.226 73.308 174.358C73.144 174.49 73.012 174.662 72.912 174.874C72.816 175.082 72.768 175.334 72.768 175.63C72.768 175.87 72.808 176.09 72.888 176.29C72.972 176.486 73.09 176.656 73.242 176.8C73.398 176.94 73.586 177.05 73.806 177.13C74.03 177.206 74.282 177.244 74.562 177.244ZM74.562 170.134C74.306 170.134 74.08 170.172 73.884 170.248C73.692 170.324 73.53 170.428 73.398 170.56C73.27 170.692 73.172 170.846 73.104 171.022C73.04 171.198 73.008 171.386 73.008 171.586C73.008 171.782 73.036 171.972 73.092 172.156C73.148 172.34 73.238 172.504 73.362 172.648C73.486 172.788 73.646 172.902 73.842 172.99C74.042 173.074 74.282 173.116 74.562 173.116C74.842 173.116 75.08 173.074 75.276 172.99C75.476 172.902 75.638 172.788 75.762 172.648C75.886 172.504 75.976 172.34 76.032 172.156C76.088 171.972 76.116 171.782 76.116 171.586C76.116 171.386 76.082 171.198 76.014 171.022C75.95 170.846 75.852 170.692 75.72 170.56C75.592 170.428 75.43 170.324 75.234 170.248C75.042 170.172 74.818 170.134 74.562 170.134ZM75.792 173.518C76.328 173.67 76.74 173.924 77.028 174.28C77.316 174.636 77.46 175.092 77.46 175.648C77.46 176.024 77.388 176.364 77.244 176.668C77.104 176.968 76.906 177.224 76.65 177.436C76.398 177.648 76.094 177.812 75.738 177.928C75.382 178.04 74.99 178.096 74.562 178.096C74.134 178.096 73.742 178.04 73.386 177.928C73.03 177.812 72.724 177.648 72.468 177.436C72.212 177.224 72.014 176.968 71.874 176.668C71.734 176.364 71.664 176.024 71.664 175.648C71.664 175.092 71.808 174.636 72.096 174.28C72.384 173.924 72.796 173.67 73.332 173.518C72.88 173.35 72.538 173.1 72.306 172.768C72.078 172.432 71.964 172.032 71.964 171.568C71.964 171.252 72.026 170.956 72.15 170.68C72.274 170.404 72.45 170.164 72.678 169.96C72.906 169.756 73.178 169.596 73.494 169.48C73.814 169.364 74.17 169.306 74.562 169.306C74.95 169.306 75.304 169.364 75.624 169.48C75.944 169.596 76.218 169.756 76.446 169.96C76.674 170.164 76.85 170.404 76.974 170.68C77.098 170.956 77.16 171.252 77.16 171.568C77.16 172.032 77.044 172.432 76.812 172.768C76.584 173.1 76.244 173.35 75.792 173.518ZM79.777 174.226C79.777 173.37 79.667 172.538 79.447 171.73C79.231 170.922 78.913 170.154 78.493 169.426C78.461 169.366 78.441 169.314 78.433 169.27C78.425 169.222 78.427 169.182 78.439 169.15C78.451 169.114 78.469 169.084 78.493 169.06C78.521 169.032 78.551 169.008 78.583 168.988L79.057 168.694C79.357 169.158 79.611 169.616 79.819 170.068C80.031 170.52 80.201 170.974 80.329 171.43C80.461 171.882 80.557 172.34 80.617 172.804C80.677 173.268 80.707 173.742 80.707 174.226C80.707 174.714 80.677 175.19 80.617 175.654C80.557 176.114 80.461 176.572 80.329 177.028C80.201 177.484 80.031 177.938 79.819 178.39C79.611 178.842 79.357 179.298 79.057 179.758L78.583 179.47C78.551 179.45 78.521 179.426 78.493 179.398C78.469 179.374 78.451 179.344 78.439 179.308C78.427 179.276 78.425 179.236 78.433 179.188C78.441 179.14 78.461 179.086 78.493 179.026C78.913 178.298 79.231 177.53 79.447 176.722C79.667 175.914 79.777 175.082 79.777 174.226Z" fill="white"/>
<path d="M373.47 174.226C373.47 175.082 373.578 175.914 373.794 176.722C374.014 177.53 374.334 178.298 374.754 179.026C374.818 179.15 374.834 179.244 374.802 179.308C374.77 179.376 374.724 179.43 374.664 179.47L374.19 179.758C373.89 179.298 373.634 178.842 373.422 178.39C373.214 177.938 373.044 177.484 372.912 177.028C372.784 176.572 372.69 176.114 372.63 175.654C372.57 175.19 372.54 174.714 372.54 174.226C372.54 173.742 372.57 173.268 372.63 172.804C372.69 172.34 372.784 171.882 372.912 171.43C373.044 170.974 373.214 170.52 373.422 170.068C373.634 169.616 373.89 169.158 374.19 168.694L374.664 168.988C374.724 169.028 374.77 169.082 374.802 169.15C374.834 169.214 374.818 169.306 374.754 169.426C374.334 170.154 374.014 170.922 373.794 171.73C373.578 172.538 373.47 173.37 373.47 174.226ZM381.121 176.986C381.237 176.986 381.329 177.02 381.397 177.088C381.465 177.156 381.499 177.244 381.499 177.352V178H375.763V177.634C375.763 177.558 375.779 177.48 375.811 177.4C375.843 177.32 375.893 177.246 375.961 177.178L378.715 174.412C378.943 174.18 379.151 173.958 379.339 173.746C379.527 173.53 379.687 173.314 379.819 173.098C379.951 172.882 380.053 172.664 380.125 172.444C380.197 172.22 380.233 171.982 380.233 171.73C380.233 171.478 380.193 171.258 380.113 171.07C380.033 170.878 379.923 170.72 379.783 170.596C379.647 170.472 379.485 170.38 379.297 170.32C379.109 170.256 378.907 170.224 378.691 170.224C378.471 170.224 378.269 170.256 378.085 170.32C377.901 170.384 377.737 170.474 377.593 170.59C377.453 170.702 377.335 170.836 377.239 170.992C377.143 171.148 377.075 171.32 377.035 171.508C376.987 171.648 376.921 171.742 376.837 171.79C376.757 171.834 376.643 171.846 376.495 171.826L375.937 171.73C375.993 171.338 376.101 170.992 376.261 170.692C376.425 170.388 376.629 170.134 376.873 169.93C377.121 169.726 377.403 169.572 377.719 169.468C378.035 169.36 378.377 169.306 378.745 169.306C379.109 169.306 379.449 169.36 379.765 169.468C380.081 169.576 380.355 169.734 380.587 169.942C380.819 170.146 381.001 170.396 381.133 170.692C381.265 170.988 381.331 171.324 381.331 171.7C381.331 172.02 381.283 172.318 381.187 172.594C381.091 172.866 380.961 173.126 380.797 173.374C380.633 173.622 380.443 173.864 380.227 174.1C380.015 174.336 379.789 174.574 379.549 174.814L377.281 177.13C377.441 177.086 377.603 177.052 377.767 177.028C377.931 177 378.089 176.986 378.241 176.986H381.121ZM388.76 173.704C388.76 174.456 388.678 175.108 388.514 175.66C388.354 176.208 388.134 176.662 387.854 177.022C387.574 177.382 387.242 177.65 386.858 177.826C386.478 178.002 386.07 178.09 385.634 178.09C385.194 178.09 384.784 178.002 384.404 177.826C384.028 177.65 383.7 177.382 383.42 177.022C383.14 176.662 382.92 176.208 382.76 175.66C382.6 175.108 382.52 174.456 382.52 173.704C382.52 172.952 382.6 172.3 382.76 171.748C382.92 171.196 383.14 170.74 383.42 170.38C383.7 170.016 384.028 169.746 384.404 169.57C384.784 169.394 385.194 169.306 385.634 169.306C386.07 169.306 386.478 169.394 386.858 169.57C387.242 169.746 387.574 170.016 387.854 170.38C388.134 170.74 388.354 171.196 388.514 171.748C388.678 172.3 388.76 172.952 388.76 173.704ZM387.65 173.704C387.65 173.048 387.594 172.498 387.482 172.054C387.374 171.606 387.226 171.246 387.038 170.974C386.854 170.702 386.64 170.508 386.396 170.392C386.152 170.272 385.898 170.212 385.634 170.212C385.37 170.212 385.116 170.272 384.872 170.392C384.628 170.508 384.414 170.702 384.23 170.974C384.046 171.246 383.898 171.606 383.786 172.054C383.678 172.498 383.624 173.048 383.624 173.704C383.624 174.36 383.678 174.91 383.786 175.354C383.898 175.798 384.046 176.156 384.23 176.428C384.414 176.7 384.628 176.896 384.872 177.016C385.116 177.132 385.37 177.19 385.634 177.19C385.898 177.19 386.152 177.132 386.396 177.016C386.64 176.896 386.854 176.7 387.038 176.428C387.226 176.156 387.374 175.798 387.482 175.354C387.594 174.91 387.65 174.36 387.65 173.704ZM395.043 176.986C395.159 176.986 395.251 177.02 395.319 177.088C395.387 177.156 395.421 177.244 395.421 177.352V178H389.685V177.634C389.685 177.558 389.701 177.48 389.733 177.4C389.765 177.32 389.815 177.246 389.883 177.178L392.637 174.412C392.865 174.18 393.073 173.958 393.261 173.746C393.449 173.53 393.609 173.314 393.741 173.098C393.873 172.882 393.975 172.664 394.047 172.444C394.119 172.22 394.155 171.982 394.155 171.73C394.155 171.478 394.115 171.258 394.035 171.07C393.955 170.878 393.845 170.72 393.705 170.596C393.569 170.472 393.407 170.38 393.219 170.32C393.031 170.256 392.829 170.224 392.613 170.224C392.393 170.224 392.191 170.256 392.007 170.32C391.823 170.384 391.659 170.474 391.515 170.59C391.375 170.702 391.257 170.836 391.161 170.992C391.065 171.148 390.997 171.32 390.957 171.508C390.909 171.648 390.843 171.742 390.759 171.79C390.679 171.834 390.565 171.846 390.417 171.826L389.859 171.73C389.915 171.338 390.023 170.992 390.183 170.692C390.347 170.388 390.551 170.134 390.795 169.93C391.043 169.726 391.325 169.572 391.641 169.468C391.957 169.36 392.299 169.306 392.667 169.306C393.031 169.306 393.371 169.36 393.687 169.468C394.003 169.576 394.277 169.734 394.509 169.942C394.741 170.146 394.923 170.396 395.055 170.692C395.187 170.988 395.253 171.324 395.253 171.7C395.253 172.02 395.205 172.318 395.109 172.594C395.013 172.866 394.883 173.126 394.719 173.374C394.555 173.622 394.365 173.864 394.149 174.1C393.937 174.336 393.711 174.574 393.471 174.814L391.203 177.13C391.363 177.086 391.525 177.052 391.689 177.028C391.853 177 392.011 176.986 392.163 176.986H395.043ZM402.19 177.184V178H397.582V177.184H399.424V171.322C399.424 171.146 399.43 170.968 399.442 170.788L397.912 172.102C397.86 172.146 397.808 172.174 397.756 172.186C397.704 172.194 397.656 172.194 397.612 172.186C397.568 172.178 397.526 172.162 397.486 172.138C397.45 172.114 397.422 172.088 397.402 172.06L397.066 171.598L399.628 169.384H400.498V177.184H402.19ZM404.777 174.226C404.777 173.37 404.667 172.538 404.447 171.73C404.231 170.922 403.913 170.154 403.493 169.426C403.461 169.366 403.441 169.314 403.433 169.27C403.425 169.222 403.427 169.182 403.439 169.15C403.451 169.114 403.469 169.084 403.493 169.06C403.521 169.032 403.551 169.008 403.583 168.988L404.057 168.694C404.357 169.158 404.611 169.616 404.819 170.068C405.031 170.52 405.201 170.974 405.329 171.43C405.461 171.882 405.557 172.34 405.617 172.804C405.677 173.268 405.707 173.742 405.707 174.226C405.707 174.714 405.677 175.19 405.617 175.654C405.557 176.114 405.461 176.572 405.329 177.028C405.201 177.484 405.031 177.938 404.819 178.39C404.611 178.842 404.357 179.298 404.057 179.758L403.583 179.47C403.551 179.45 403.521 179.426 403.493 179.398C403.469 179.374 403.451 179.344 403.439 179.308C403.427 179.276 403.425 179.236 403.433 179.188C403.441 179.14 403.461 179.086 403.493 179.026C403.913 178.298 404.231 177.53 404.447 176.722C404.667 175.914 404.777 175.082 404.777 174.226Z" fill="white"/>
<path d="M373.062 22.944C373.446 22.944 373.792 22.8827 374.102 22.76C374.416 22.6373 374.683 22.4667 374.902 22.248C375.126 22.0293 375.296 21.7707 375.414 21.472C375.536 21.1733 375.598 20.848 375.598 20.496C375.598 20.1227 375.539 19.7867 375.422 19.488C375.304 19.184 375.136 18.928 374.918 18.72C374.704 18.5067 374.448 18.344 374.15 18.232C373.851 18.12 373.523 18.064 373.166 18.064C372.782 18.064 372.435 18.1307 372.126 18.264C371.816 18.392 371.552 18.568 371.334 18.792C371.12 19.0107 370.955 19.2667 370.838 19.56C370.726 19.848 370.67 20.1493 370.67 20.464C370.67 20.832 370.723 21.168 370.83 21.472C370.936 21.776 371.091 22.0373 371.294 22.256C371.502 22.4747 371.752 22.6453 372.046 22.768C372.344 22.8853 372.683 22.944 373.062 22.944ZM372.23 16.832C372.128 16.96 372.03 17.0853 371.934 17.208C371.843 17.3253 371.755 17.4427 371.67 17.56C371.942 17.3733 372.24 17.2293 372.566 17.128C372.891 17.0267 373.246 16.976 373.63 16.976C374.094 16.976 374.531 17.0533 374.942 17.208C375.352 17.3573 375.71 17.5787 376.014 17.872C376.323 18.16 376.568 18.5173 376.75 18.944C376.931 19.3653 377.022 19.848 377.022 20.392C377.022 20.92 376.926 21.4107 376.734 21.864C376.542 22.3173 376.272 22.712 375.926 23.048C375.584 23.384 375.171 23.648 374.686 23.84C374.206 24.032 373.675 24.128 373.094 24.128C372.518 24.128 371.995 24.0373 371.526 23.856C371.056 23.6693 370.656 23.408 370.326 23.072C370 22.7307 369.747 22.32 369.566 21.84C369.39 21.3547 369.302 20.8133 369.302 20.216C369.302 19.7147 369.411 19.1813 369.63 18.616C369.854 18.0453 370.208 17.4373 370.694 16.792L373.606 12.88C373.68 12.784 373.782 12.704 373.91 12.64C374.043 12.5707 374.195 12.536 374.366 12.536H375.63L372.23 16.832ZM383.559 19.864V15.136C383.559 14.9973 383.564 14.8453 383.575 14.68C383.585 14.5147 383.601 14.3467 383.623 14.176L379.447 19.864H383.559ZM386.543 19.864V20.68C386.543 20.7653 386.516 20.8373 386.463 20.896C386.415 20.9547 386.337 20.984 386.231 20.984H384.807V24H383.559V20.984H378.471C378.364 20.984 378.271 20.9547 378.191 20.896C378.116 20.832 378.068 20.7547 378.047 20.664L377.903 19.936L383.479 12.536H384.807V19.864H386.543ZM394.896 22.648C395.051 22.648 395.173 22.6933 395.264 22.784C395.355 22.8747 395.4 22.992 395.4 23.136V24H387.752V23.512C387.752 23.4107 387.773 23.3067 387.816 23.2C387.859 23.0933 387.925 22.9947 388.016 22.904L391.688 19.216C391.992 18.9067 392.269 18.6107 392.52 18.328C392.771 18.04 392.984 17.752 393.16 17.464C393.336 17.176 393.472 16.8853 393.568 16.592C393.664 16.2933 393.712 15.976 393.712 15.64C393.712 15.304 393.659 15.0107 393.552 14.76C393.445 14.504 393.299 14.2933 393.112 14.128C392.931 13.9627 392.715 13.84 392.464 13.76C392.213 13.6747 391.944 13.632 391.656 13.632C391.363 13.632 391.093 13.6747 390.848 13.76C390.603 13.8453 390.384 13.9653 390.192 14.12C390.005 14.2693 389.848 14.448 389.72 14.656C389.592 14.864 389.501 15.0933 389.448 15.344C389.384 15.5307 389.296 15.656 389.184 15.72C389.077 15.7787 388.925 15.7947 388.728 15.768L387.984 15.64C388.059 15.1173 388.203 14.656 388.416 14.256C388.635 13.8507 388.907 13.512 389.232 13.24C389.563 12.968 389.939 12.7627 390.36 12.624C390.781 12.48 391.237 12.408 391.728 12.408C392.213 12.408 392.667 12.48 393.088 12.624C393.509 12.768 393.875 12.9787 394.184 13.256C394.493 13.528 394.736 13.8613 394.912 14.256C395.088 14.6507 395.176 15.0987 395.176 15.6C395.176 16.0267 395.112 16.424 394.984 16.792C394.856 17.1547 394.683 17.5013 394.464 17.832C394.245 18.1627 393.992 18.4853 393.704 18.8C393.421 19.1147 393.12 19.432 392.8 19.752L389.776 22.84C389.989 22.7813 390.205 22.736 390.424 22.704C390.643 22.6667 390.853 22.648 391.056 22.648H394.896ZM397.169 23.12C397.169 22.9813 397.193 22.8507 397.241 22.728C397.295 22.6053 397.364 22.4987 397.449 22.408C397.54 22.3173 397.647 22.2453 397.769 22.192C397.892 22.1387 398.023 22.112 398.161 22.112C398.3 22.112 398.431 22.1387 398.553 22.192C398.676 22.2453 398.783 22.3173 398.873 22.408C398.964 22.4987 399.036 22.6053 399.089 22.728C399.143 22.8507 399.169 22.9813 399.169 23.12C399.169 23.264 399.143 23.3973 399.089 23.52C399.036 23.6373 398.964 23.7413 398.873 23.832C398.783 23.9227 398.676 23.992 398.553 24.04C398.431 24.0933 398.3 24.12 398.161 24.12C398.023 24.12 397.892 24.0933 397.769 24.04C397.647 23.992 397.54 23.9227 397.449 23.832C397.364 23.7413 397.295 23.6373 397.241 23.52C397.193 23.3973 397.169 23.264 397.169 23.12ZM408.863 18.272C408.863 19.2747 408.753 20.144 408.535 20.88C408.321 21.6107 408.028 22.216 407.655 22.696C407.281 23.176 406.839 23.5333 406.327 23.768C405.82 24.0027 405.276 24.12 404.695 24.12C404.108 24.12 403.561 24.0027 403.055 23.768C402.553 23.5333 402.116 23.176 401.743 22.696C401.369 22.216 401.076 21.6107 400.863 20.88C400.649 20.144 400.543 19.2747 400.543 18.272C400.543 17.2693 400.649 16.4 400.863 15.664C401.076 14.928 401.369 14.32 401.743 13.84C402.116 13.3547 402.553 12.9947 403.055 12.76C403.561 12.5253 404.108 12.408 404.695 12.408C405.276 12.408 405.82 12.5253 406.327 12.76C406.839 12.9947 407.281 13.3547 407.655 13.84C408.028 14.32 408.321 14.928 408.535 15.664C408.753 16.4 408.863 17.2693 408.863 18.272ZM407.383 18.272C407.383 17.3973 407.308 16.664 407.159 16.072C407.015 15.4747 406.817 14.9947 406.567 14.632C406.321 14.2693 406.036 14.0107 405.711 13.856C405.385 13.696 405.047 13.616 404.695 13.616C404.343 13.616 404.004 13.696 403.679 13.856C403.353 14.0107 403.068 14.2693 402.823 14.632C402.577 14.9947 402.38 15.4747 402.231 16.072C402.087 16.664 402.015 17.3973 402.015 18.272C402.015 19.1467 402.087 19.88 402.231 20.472C402.38 21.064 402.577 21.5413 402.823 21.904C403.068 22.2667 403.353 22.528 403.679 22.688C404.004 22.8427 404.343 22.92 404.695 22.92C405.047 22.92 405.385 22.8427 405.711 22.688C406.036 22.528 406.321 22.2667 406.567 21.904C406.817 21.5413 407.015 21.064 407.159 20.472C407.308 19.88 407.383 19.1467 407.383 18.272ZM411.608 15.904C411.608 16.2667 411.658 16.592 411.76 16.88C411.866 17.1627 412.016 17.4027 412.208 17.6C412.405 17.7973 412.642 17.9467 412.92 18.048C413.202 18.1493 413.517 18.2 413.864 18.2C414.248 18.2 414.586 18.1387 414.88 18.016C415.178 17.888 415.429 17.72 415.632 17.512C415.834 17.304 415.989 17.064 416.096 16.792C416.202 16.52 416.256 16.2373 416.256 15.944C416.256 15.5867 416.197 15.264 416.08 14.976C415.968 14.6827 415.81 14.4347 415.608 14.232C415.405 14.0293 415.162 13.8747 414.88 13.768C414.602 13.656 414.296 13.6 413.96 13.6C413.608 13.6 413.288 13.6587 413 13.776C412.712 13.888 412.464 14.0453 412.256 14.248C412.048 14.4507 411.888 14.6933 411.776 14.976C411.664 15.2587 411.608 15.568 411.608 15.904ZM414.936 19.432C415.053 19.2773 415.162 19.1307 415.264 18.992C415.365 18.8533 415.461 18.7147 415.552 18.576C415.258 18.8107 414.928 18.9893 414.56 19.112C414.192 19.2347 413.802 19.296 413.392 19.296C412.96 19.296 412.549 19.224 412.16 19.08C411.776 18.936 411.437 18.7253 411.144 18.448C410.85 18.1653 410.616 17.8213 410.44 17.416C410.269 17.0053 410.184 16.536 410.184 16.008C410.184 15.5067 410.277 15.0373 410.464 14.6C410.65 14.1627 410.912 13.7813 411.248 13.456C411.584 13.1307 411.984 12.8747 412.448 12.688C412.912 12.5013 413.421 12.408 413.976 12.408C414.525 12.408 415.024 12.4987 415.472 12.68C415.92 12.8613 416.304 13.1147 416.624 13.44C416.944 13.7653 417.189 14.1547 417.36 14.608C417.536 15.0613 417.624 15.5627 417.624 16.112C417.624 16.4427 417.592 16.7573 417.528 17.056C417.469 17.3493 417.381 17.64 417.264 17.928C417.152 18.2107 417.013 18.4933 416.848 18.776C416.682 19.0533 416.496 19.3387 416.288 19.632L413.496 23.664C413.426 23.7653 413.328 23.848 413.2 23.912C413.072 23.9707 412.925 24 412.76 24H411.448L414.936 19.432ZM427.623 22.904C427.975 22.872 428.284 22.7973 428.551 22.68C428.817 22.5573 429.041 22.4027 429.223 22.216C429.409 22.0293 429.548 21.8133 429.639 21.568C429.735 21.3173 429.783 21.0427 429.783 20.744C429.783 20.4773 429.732 20.248 429.631 20.056C429.535 19.864 429.401 19.6987 429.231 19.56C429.06 19.416 428.86 19.296 428.631 19.2C428.401 19.0987 428.156 19.0053 427.895 18.92L427.623 22.904ZM427.359 13.656C427.012 13.688 426.711 13.7573 426.455 13.864C426.204 13.9707 425.996 14.104 425.831 14.264C425.665 14.424 425.543 14.6053 425.463 14.808C425.383 15.0053 425.343 15.2133 425.343 15.432C425.343 15.688 425.388 15.912 425.479 16.104C425.569 16.2907 425.695 16.456 425.855 16.6C426.015 16.744 426.201 16.8693 426.415 16.976C426.628 17.0827 426.86 17.1787 427.111 17.264L427.359 13.656ZM427.991 17.544C428.375 17.6667 428.753 17.7973 429.127 17.936C429.5 18.0747 429.836 18.2533 430.135 18.472C430.433 18.6907 430.673 18.9653 430.855 19.296C431.041 19.6213 431.135 20.0293 431.135 20.52C431.135 21 431.055 21.4507 430.895 21.872C430.735 22.2933 430.5 22.664 430.191 22.984C429.887 23.304 429.511 23.5653 429.063 23.768C428.62 23.9653 428.113 24.0827 427.543 24.12L427.447 25.52C427.441 25.6213 427.401 25.7093 427.327 25.784C427.252 25.864 427.159 25.904 427.047 25.904H426.519L426.639 24.104C425.993 24.04 425.404 23.88 424.871 23.624C424.343 23.3627 423.887 23.032 423.503 22.632L423.935 21.976C423.977 21.9173 424.031 21.8693 424.095 21.832C424.159 21.7947 424.228 21.776 424.303 21.776C424.404 21.776 424.519 21.8267 424.647 21.928C424.775 22.0293 424.932 22.144 425.119 22.272C425.311 22.4 425.535 22.5253 425.791 22.648C426.052 22.7707 426.364 22.8533 426.727 22.896L427.015 18.648C426.641 18.536 426.273 18.4107 425.911 18.272C425.553 18.1333 425.231 17.9493 424.943 17.72C424.66 17.4907 424.431 17.2053 424.255 16.864C424.084 16.5227 423.999 16.0933 423.999 15.576C423.999 15.1867 424.073 14.808 424.223 14.44C424.377 14.0667 424.601 13.736 424.895 13.448C425.188 13.16 425.548 12.9253 425.975 12.744C426.401 12.5573 426.889 12.4533 427.439 12.432L427.519 11.28C427.524 11.1787 427.561 11.088 427.631 11.008C427.705 10.928 427.801 10.888 427.919 10.888H428.447L428.343 12.464C428.897 12.5333 429.377 12.6773 429.783 12.896C430.193 13.1147 430.556 13.3813 430.871 13.696L430.527 14.224C430.42 14.384 430.297 14.464 430.159 14.464C430.084 14.464 429.991 14.432 429.879 14.368C429.772 14.2987 429.641 14.2187 429.487 14.128C429.337 14.0373 429.159 13.9493 428.951 13.864C428.748 13.7787 428.516 13.7147 428.255 13.672L427.991 17.544Z" fill="white"/>
<path d="M45.624 86.944C46.008 86.944 46.3547 86.8827 46.664 86.76C46.9787 86.6373 47.2453 86.4667 47.464 86.248C47.688 86.0293 47.8587 85.7707 47.976 85.472C48.0987 85.1733 48.16 84.848 48.16 84.496C48.16 84.1227 48.1013 83.7867 47.984 83.488C47.8667 83.184 47.6987 82.928 47.48 82.72C47.2667 82.5067 47.0107 82.344 46.712 82.232C46.4133 82.12 46.0853 82.064 45.728 82.064C45.344 82.064 44.9973 82.1307 44.688 82.264C44.3787 82.392 44.1147 82.568 43.896 82.792C43.6827 83.0107 43.5173 83.2667 43.4 83.56C43.288 83.848 43.232 84.1493 43.232 84.464C43.232 84.832 43.2853 85.168 43.392 85.472C43.4987 85.776 43.6533 86.0373 43.856 86.256C44.064 86.4747 44.3147 86.6453 44.608 86.768C44.9067 86.8853 45.2453 86.944 45.624 86.944ZM44.792 80.832C44.6907 80.96 44.592 81.0853 44.496 81.208C44.4053 81.3253 44.3173 81.4427 44.232 81.56C44.504 81.3733 44.8027 81.2293 45.128 81.128C45.4533 81.0267 45.808 80.976 46.192 80.976C46.656 80.976 47.0933 81.0533 47.504 81.208C47.9147 81.3573 48.272 81.5787 48.576 81.872C48.8853 82.16 49.1307 82.5173 49.312 82.944C49.4933 83.3653 49.584 83.848 49.584 84.392C49.584 84.92 49.488 85.4107 49.296 85.864C49.104 86.3173 48.8347 86.712 48.488 87.048C48.1467 87.384 47.7333 87.648 47.248 87.84C46.768 88.032 46.2373 88.128 45.656 88.128C45.08 88.128 44.5573 88.0373 44.088 87.856C43.6187 87.6693 43.2187 87.408 42.888 87.072C42.5627 86.7307 42.3093 86.32 42.128 85.84C41.952 85.3547 41.864 84.8133 41.864 84.216C41.864 83.7147 41.9733 83.1813 42.192 82.616C42.416 82.0453 42.7707 81.4373 43.256 80.792L46.168 76.88C46.2427 76.784 46.344 76.704 46.472 76.64C46.6053 76.5707 46.7573 76.536 46.928 76.536H48.192L44.792 80.832ZM51.1693 87.12C51.1693 86.9813 51.1933 86.8507 51.2413 86.728C51.2946 86.6053 51.3639 86.4987 51.4493 86.408C51.5399 86.3173 51.6466 86.2453 51.7693 86.192C51.8919 86.1387 52.0226 86.112 52.1613 86.112C52.2999 86.112 52.4306 86.1387 52.5533 86.192C52.6759 86.2453 52.7826 86.3173 52.8733 86.408C52.9639 86.4987 53.0359 86.6053 53.0893 86.728C53.1426 86.8507 53.1693 86.9813 53.1693 87.12C53.1693 87.264 53.1426 87.3973 53.0893 87.52C53.0359 87.6373 52.9639 87.7413 52.8733 87.832C52.7826 87.9227 52.6759 87.992 52.5533 88.04C52.4306 88.0933 52.2999 88.12 52.1613 88.12C52.0226 88.12 51.8919 88.0933 51.7693 88.04C51.6466 87.992 51.5399 87.9227 51.4493 87.832C51.3639 87.7413 51.2946 87.6373 51.2413 87.52C51.1933 87.3973 51.1693 87.264 51.1693 87.12ZM58.7025 86.992C59.0758 86.992 59.4092 86.9413 59.7025 86.84C60.0012 86.7333 60.2518 86.5867 60.4545 86.4C60.6625 86.208 60.8198 85.9813 60.9265 85.72C61.0385 85.4533 61.0945 85.16 61.0945 84.84C61.0945 84.4453 61.0278 84.1093 60.8945 83.832C60.7665 83.5493 60.5905 83.32 60.3665 83.144C60.1478 82.968 59.8945 82.84 59.6065 82.76C59.3185 82.6747 59.0172 82.632 58.7025 82.632C58.3878 82.632 58.0865 82.6747 57.7985 82.76C57.5105 82.84 57.2545 82.968 57.0305 83.144C56.8118 83.32 56.6358 83.5493 56.5025 83.832C56.3745 84.1093 56.3105 84.4453 56.3105 84.84C56.3105 85.16 56.3638 85.4533 56.4705 85.72C56.5825 85.9813 56.7398 86.208 56.9425 86.4C57.1505 86.5867 57.4012 86.7333 57.6945 86.84C57.9932 86.9413 58.3292 86.992 58.7025 86.992ZM58.7025 77.512C58.3612 77.512 58.0598 77.5627 57.7985 77.664C57.5425 77.7653 57.3265 77.904 57.1505 78.08C56.9798 78.256 56.8492 78.4613 56.7585 78.696C56.6732 78.9307 56.6305 79.1813 56.6305 79.448C56.6305 79.7093 56.6678 79.9627 56.7425 80.208C56.8172 80.4533 56.9372 80.672 57.1025 80.864C57.2678 81.0507 57.4812 81.2027 57.7425 81.32C58.0092 81.432 58.3292 81.488 58.7025 81.488C59.0758 81.488 59.3932 81.432 59.6545 81.32C59.9212 81.2027 60.1372 81.0507 60.3025 80.864C60.4678 80.672 60.5878 80.4533 60.6625 80.208C60.7372 79.9627 60.7745 79.7093 60.7745 79.448C60.7745 79.1813 60.7292 78.9307 60.6385 78.696C60.5532 78.4613 60.4225 78.256 60.2465 78.08C60.0758 77.904 59.8598 77.7653 59.5985 77.664C59.3425 77.5627 59.0438 77.512 58.7025 77.512ZM60.3425 82.024C61.0572 82.2267 61.6065 82.5653 61.9905 83.04C62.3745 83.5147 62.5665 84.1227 62.5665 84.864C62.5665 85.3653 62.4705 85.8187 62.2785 86.224C62.0918 86.624 61.8278 86.9653 61.4865 87.248C61.1505 87.5307 60.7452 87.7493 60.2705 87.904C59.7958 88.0533 59.2732 88.128 58.7025 88.128C58.1318 88.128 57.6092 88.0533 57.1345 87.904C56.6598 87.7493 56.2518 87.5307 55.9105 87.248C55.5692 86.9653 55.3052 86.624 55.1185 86.224C54.9318 85.8187 54.8385 85.3653 54.8385 84.864C54.8385 84.1227 55.0305 83.5147 55.4145 83.04C55.7985 82.5653 56.3478 82.2267 57.0625 82.024C56.4598 81.8 56.0038 81.4667 55.6945 81.024C55.3905 80.576 55.2385 80.0427 55.2385 79.424C55.2385 79.0027 55.3212 78.608 55.4865 78.24C55.6518 77.872 55.8865 77.552 56.1905 77.28C56.4945 77.008 56.8572 76.7947 57.2785 76.64C57.7052 76.4853 58.1798 76.408 58.7025 76.408C59.2198 76.408 59.6918 76.4853 60.1185 76.64C60.5452 76.7947 60.9105 77.008 61.2145 77.28C61.5185 77.552 61.7532 77.872 61.9185 78.24C62.0838 78.608 62.1665 79.0027 62.1665 79.424C62.1665 80.0427 62.0118 80.576 61.7025 81.024C61.3985 81.4667 60.9452 81.8 60.3425 82.024ZM71.4878 86.912V88H65.3438V86.912H67.7998V79.096C67.7998 78.8613 67.8078 78.624 67.8238 78.384L65.7838 80.136C65.7144 80.1947 65.6451 80.232 65.5758 80.248C65.5064 80.2587 65.4424 80.2587 65.3838 80.248C65.3251 80.2373 65.2691 80.216 65.2158 80.184C65.1678 80.152 65.1304 80.1173 65.1038 80.08L64.6558 79.464L68.0718 76.512H69.2318V86.912H71.4878ZM81.6228 86.904C81.9748 86.872 82.2841 86.7973 82.5508 86.68C82.8174 86.5573 83.0414 86.4027 83.2228 86.216C83.4094 86.0293 83.5481 85.8133 83.6388 85.568C83.7348 85.3173 83.7828 85.0427 83.7828 84.744C83.7828 84.4773 83.7321 84.248 83.6308 84.056C83.5348 83.864 83.4014 83.6987 83.2308 83.56C83.0601 83.416 82.8601 83.296 82.6308 83.2C82.4014 83.0987 82.1561 83.0053 81.8948 82.92L81.6228 86.904ZM81.3588 77.656C81.0121 77.688 80.7108 77.7573 80.4548 77.864C80.2041 77.9707 79.9961 78.104 79.8308 78.264C79.6654 78.424 79.5428 78.6053 79.4628 78.808C79.3828 79.0053 79.3428 79.2133 79.3428 79.432C79.3428 79.688 79.3881 79.912 79.4788 80.104C79.5694 80.2907 79.6948 80.456 79.8548 80.6C80.0148 80.744 80.2014 80.8693 80.4148 80.976C80.6281 81.0827 80.8601 81.1787 81.1108 81.264L81.3588 77.656ZM81.9908 81.544C82.3748 81.6667 82.7534 81.7973 83.1268 81.936C83.5001 82.0747 83.8361 82.2533 84.1348 82.472C84.4334 82.6907 84.6734 82.9653 84.8548 83.296C85.0414 83.6213 85.1348 84.0293 85.1348 84.52C85.1348 85 85.0548 85.4507 84.8948 85.872C84.7348 86.2933 84.5001 86.664 84.1908 86.984C83.8868 87.304 83.5108 87.5653 83.0628 87.768C82.6201 87.9653 82.1134 88.0827 81.5428 88.12L81.4468 89.52C81.4414 89.6213 81.4014 89.7093 81.3268 89.784C81.2521 89.864 81.1588 89.904 81.0468 89.904H80.5188L80.6388 88.104C79.9934 88.04 79.4041 87.88 78.8708 87.624C78.3428 87.3627 77.8868 87.032 77.5028 86.632L77.9348 85.976C77.9774 85.9173 78.0308 85.8693 78.0948 85.832C78.1588 85.7947 78.2281 85.776 78.3028 85.776C78.4041 85.776 78.5188 85.8267 78.6468 85.928C78.7748 86.0293 78.9321 86.144 79.1188 86.272C79.3108 86.4 79.5348 86.5253 79.7908 86.648C80.0521 86.7707 80.3641 86.8533 80.7268 86.896L81.0148 82.648C80.6414 82.536 80.2734 82.4107 79.9108 82.272C79.5534 82.1333 79.2308 81.9493 78.9428 81.72C78.6601 81.4907 78.4308 81.2053 78.2548 80.864C78.0841 80.5227 77.9988 80.0933 77.9988 79.576C77.9988 79.1867 78.0734 78.808 78.2228 78.44C78.3774 78.0667 78.6014 77.736 78.8948 77.448C79.1881 77.16 79.5481 76.9253 79.9748 76.744C80.4014 76.5573 80.8894 76.4533 81.4388 76.432L81.5188 75.28C81.5241 75.1787 81.5614 75.088 81.6308 75.008C81.7054 74.928 81.8014 74.888 81.9188 74.888H82.4468L82.3428 76.464C82.8974 76.5333 83.3774 76.6773 83.7828 76.896C84.1934 77.1147 84.5561 77.3813 84.8708 77.696L84.5268 78.224C84.4201 78.384 84.2974 78.464 84.1588 78.464C84.0841 78.464 83.9908 78.432 83.8788 78.368C83.7721 78.2987 83.6414 78.2187 83.4868 78.128C83.3374 78.0373 83.1588 77.9493 82.9508 77.864C82.7481 77.7787 82.5161 77.7147 82.2548 77.672L81.9908 81.544Z" fill="white"/>
<path d="M313.499 203.696V205H306.995V193.536H308.539V203.696H313.499ZM319.27 201.352C318.614 201.373 318.054 201.427 317.59 201.512C317.131 201.592 316.755 201.699 316.462 201.832C316.174 201.965 315.963 202.123 315.83 202.304C315.702 202.485 315.638 202.688 315.638 202.912C315.638 203.125 315.673 203.309 315.742 203.464C315.811 203.619 315.905 203.747 316.022 203.848C316.145 203.944 316.286 204.016 316.446 204.064C316.611 204.107 316.787 204.128 316.974 204.128C317.225 204.128 317.454 204.104 317.662 204.056C317.87 204.003 318.065 203.928 318.246 203.832C318.433 203.736 318.609 203.621 318.774 203.488C318.945 203.355 319.11 203.203 319.27 203.032V201.352ZM314.67 198.04C315.118 197.608 315.601 197.285 316.118 197.072C316.635 196.859 317.209 196.752 317.838 196.752C318.291 196.752 318.694 196.827 319.046 196.976C319.398 197.125 319.694 197.333 319.934 197.6C320.174 197.867 320.355 198.189 320.478 198.568C320.601 198.947 320.662 199.363 320.662 199.816V205H320.03C319.891 205 319.785 204.979 319.71 204.936C319.635 204.888 319.577 204.797 319.534 204.664L319.374 203.896C319.161 204.093 318.953 204.269 318.75 204.424C318.547 204.573 318.334 204.701 318.11 204.808C317.886 204.909 317.646 204.987 317.39 205.04C317.139 205.099 316.859 205.128 316.55 205.128C316.235 205.128 315.939 205.085 315.662 205C315.385 204.909 315.142 204.776 314.934 204.6C314.731 204.424 314.569 204.203 314.446 203.936C314.329 203.664 314.27 203.344 314.27 202.976C314.27 202.656 314.358 202.349 314.534 202.056C314.71 201.757 314.995 201.493 315.39 201.264C315.785 201.035 316.299 200.848 316.934 200.704C317.569 200.555 318.347 200.469 319.27 200.448V199.816C319.27 199.187 319.134 198.712 318.862 198.392C318.59 198.067 318.193 197.904 317.67 197.904C317.318 197.904 317.022 197.949 316.782 198.04C316.547 198.125 316.342 198.224 316.166 198.336C315.995 198.443 315.846 198.541 315.718 198.632C315.595 198.717 315.473 198.76 315.35 198.76C315.254 198.76 315.171 198.736 315.102 198.688C315.033 198.635 314.974 198.571 314.926 198.496L314.67 198.04ZM325.21 205.128C324.57 205.128 324.076 204.949 323.73 204.592C323.388 204.235 323.218 203.72 323.218 203.048V198.088H322.242C322.156 198.088 322.084 198.064 322.026 198.016C321.967 197.963 321.938 197.883 321.938 197.776V197.208L323.266 197.04L323.594 194.536C323.61 194.456 323.644 194.392 323.698 194.344C323.756 194.291 323.831 194.264 323.922 194.264H324.642V197.056H326.986V198.088H324.642V202.952C324.642 203.293 324.724 203.547 324.89 203.712C325.055 203.877 325.268 203.96 325.53 203.96C325.679 203.96 325.807 203.941 325.914 203.904C326.026 203.861 326.122 203.816 326.202 203.768C326.282 203.72 326.348 203.677 326.402 203.64C326.46 203.597 326.511 203.576 326.554 203.576C326.628 203.576 326.695 203.621 326.754 203.712L327.17 204.392C326.924 204.621 326.628 204.803 326.282 204.936C325.935 205.064 325.578 205.128 325.21 205.128ZM333.833 200.064C333.833 199.733 333.785 199.432 333.689 199.16C333.599 198.883 333.463 198.645 333.281 198.448C333.105 198.245 332.889 198.091 332.633 197.984C332.377 197.872 332.087 197.816 331.761 197.816C331.079 197.816 330.537 198.016 330.137 198.416C329.743 198.811 329.497 199.36 329.401 200.064H333.833ZM334.985 203.864C334.809 204.077 334.599 204.264 334.353 204.424C334.108 204.579 333.844 204.707 333.561 204.808C333.284 204.909 332.996 204.984 332.697 205.032C332.399 205.085 332.103 205.112 331.809 205.112C331.249 205.112 330.732 205.019 330.257 204.832C329.788 204.64 329.38 204.363 329.033 204C328.692 203.632 328.425 203.179 328.233 202.64C328.041 202.101 327.945 201.483 327.945 200.784C327.945 200.219 328.031 199.691 328.201 199.2C328.377 198.709 328.628 198.285 328.953 197.928C329.279 197.565 329.676 197.283 330.145 197.08C330.615 196.872 331.143 196.768 331.729 196.768C332.215 196.768 332.663 196.851 333.073 197.016C333.489 197.176 333.847 197.411 334.145 197.72C334.449 198.024 334.687 198.403 334.857 198.856C335.028 199.304 335.113 199.816 335.113 200.392C335.113 200.616 335.089 200.765 335.041 200.84C334.993 200.915 334.903 200.952 334.769 200.952H329.353C329.369 201.464 329.439 201.909 329.561 202.288C329.689 202.667 329.865 202.984 330.089 203.24C330.313 203.491 330.58 203.68 330.889 203.808C331.199 203.931 331.545 203.992 331.929 203.992C332.287 203.992 332.593 203.952 332.849 203.872C333.111 203.787 333.335 203.696 333.521 203.6C333.708 203.504 333.863 203.416 333.985 203.336C334.113 203.251 334.223 203.208 334.313 203.208C334.431 203.208 334.521 203.253 334.585 203.344L334.985 203.864ZM350.034 193.536L345.362 205H343.97L339.298 193.536H340.538C340.677 193.536 340.789 193.571 340.874 193.64C340.959 193.709 341.023 193.797 341.066 193.904L344.298 201.992C344.367 202.173 344.434 202.371 344.498 202.584C344.567 202.797 344.629 203.021 344.682 203.256C344.735 203.021 344.791 202.797 344.85 202.584C344.909 202.371 344.973 202.173 345.042 201.992L348.266 193.904C348.298 193.813 348.359 193.731 348.45 193.656C348.546 193.576 348.661 193.536 348.794 193.536H350.034ZM359.278 202.632C359.363 202.632 359.438 202.667 359.502 202.736L360.118 203.4C359.648 203.944 359.078 204.368 358.406 204.672C357.739 204.976 356.931 205.128 355.982 205.128C355.16 205.128 354.414 204.987 353.742 204.704C353.07 204.416 352.496 204.016 352.022 203.504C351.547 202.987 351.179 202.368 350.918 201.648C350.656 200.928 350.526 200.136 350.526 199.272C350.526 198.408 350.662 197.616 350.934 196.896C351.206 196.176 351.587 195.557 352.078 195.04C352.574 194.523 353.166 194.123 353.854 193.84C354.542 193.552 355.302 193.408 356.134 193.408C356.95 193.408 357.67 193.539 358.294 193.8C358.918 194.061 359.467 194.416 359.942 194.864L359.43 195.576C359.398 195.629 359.355 195.675 359.302 195.712C359.254 195.744 359.187 195.76 359.102 195.76C359.006 195.76 358.888 195.709 358.75 195.608C358.611 195.501 358.43 195.384 358.206 195.256C357.982 195.128 357.702 195.013 357.366 194.912C357.03 194.805 356.616 194.752 356.126 194.752C355.534 194.752 354.992 194.856 354.502 195.064C354.011 195.267 353.587 195.563 353.23 195.952C352.878 196.341 352.603 196.816 352.406 197.376C352.208 197.936 352.11 198.568 352.11 199.272C352.11 199.987 352.211 200.624 352.414 201.184C352.622 201.744 352.902 202.219 353.254 202.608C353.611 202.992 354.03 203.285 354.51 203.488C354.995 203.691 355.518 203.792 356.078 203.792C356.419 203.792 356.726 203.773 356.998 203.736C357.275 203.693 357.528 203.629 357.758 203.544C357.992 203.459 358.208 203.352 358.406 203.224C358.608 203.091 358.808 202.933 359.006 202.752C359.096 202.672 359.187 202.632 359.278 202.632ZM366.507 199.968C366.507 201.109 366.651 202.219 366.939 203.296C367.232 204.373 367.659 205.397 368.219 206.368C368.304 206.533 368.326 206.659 368.283 206.744C368.24 206.835 368.179 206.907 368.099 206.96L367.467 207.344C367.067 206.731 366.726 206.123 366.443 205.52C366.166 204.917 365.939 204.312 365.763 203.704C365.592 203.096 365.467 202.485 365.387 201.872C365.307 201.253 365.267 200.619 365.267 199.968C365.267 199.323 365.307 198.691 365.387 198.072C365.467 197.453 365.592 196.843 365.763 196.24C365.939 195.632 366.166 195.027 366.443 194.424C366.726 193.821 367.067 193.211 367.467 192.592L368.099 192.984C368.179 193.037 368.24 193.109 368.283 193.2C368.326 193.285 368.304 193.408 368.219 193.568C367.659 194.539 367.232 195.563 366.939 196.64C366.651 197.717 366.507 198.827 366.507 199.968ZM376.141 195.328C376.093 195.408 376.039 195.469 375.981 195.512C375.927 195.549 375.861 195.568 375.781 195.568C375.69 195.568 375.583 195.523 375.461 195.432C375.338 195.341 375.183 195.243 374.997 195.136C374.815 195.024 374.594 194.923 374.333 194.832C374.077 194.741 373.765 194.696 373.397 194.696C373.05 194.696 372.743 194.744 372.477 194.84C372.215 194.931 371.994 195.056 371.813 195.216C371.637 195.376 371.503 195.565 371.413 195.784C371.322 195.997 371.277 196.229 371.277 196.48C371.277 196.8 371.354 197.067 371.509 197.28C371.669 197.488 371.877 197.667 372.133 197.816C372.394 197.965 372.687 198.096 373.013 198.208C373.343 198.315 373.679 198.427 374.021 198.544C374.367 198.661 374.703 198.795 375.029 198.944C375.359 199.088 375.653 199.272 375.909 199.496C376.17 199.72 376.378 199.995 376.533 200.32C376.693 200.645 376.773 201.045 376.773 201.52C376.773 202.021 376.687 202.493 376.517 202.936C376.346 203.373 376.095 203.755 375.765 204.08C375.439 204.405 375.037 204.661 374.557 204.848C374.082 205.035 373.541 205.128 372.933 205.128C372.186 205.128 371.509 204.995 370.901 204.728C370.293 204.456 369.772 204.091 369.34 203.632L369.789 202.896C369.831 202.837 369.882 202.789 369.941 202.752C370.005 202.709 370.074 202.688 370.149 202.688C370.218 202.688 370.295 202.717 370.381 202.776C370.471 202.829 370.573 202.899 370.685 202.984C370.797 203.069 370.925 203.163 371.069 203.264C371.213 203.365 371.375 203.459 371.557 203.544C371.743 203.629 371.954 203.701 372.189 203.76C372.423 203.813 372.687 203.84 372.981 203.84C373.349 203.84 373.677 203.789 373.965 203.688C374.253 203.587 374.495 203.445 374.693 203.264C374.895 203.077 375.05 202.856 375.157 202.6C375.263 202.344 375.317 202.059 375.317 201.744C375.317 201.397 375.237 201.115 375.077 200.896C374.922 200.672 374.717 200.485 374.461 200.336C374.205 200.187 373.911 200.061 373.581 199.96C373.25 199.853 372.914 199.747 372.573 199.64C372.231 199.528 371.895 199.4 371.565 199.256C371.234 199.112 370.941 198.925 370.685 198.696C370.429 198.467 370.221 198.181 370.061 197.84C369.906 197.493 369.829 197.067 369.829 196.56C369.829 196.155 369.906 195.763 370.061 195.384C370.221 195.005 370.45 194.669 370.749 194.376C371.053 194.083 371.423 193.848 371.861 193.672C372.303 193.496 372.81 193.408 373.381 193.408C374.021 193.408 374.602 193.509 375.125 193.712C375.653 193.915 376.117 194.208 376.517 194.592L376.141 195.328ZM384.005 200.064C384.005 199.733 383.957 199.432 383.861 199.16C383.77 198.883 383.634 198.645 383.453 198.448C383.277 198.245 383.061 198.091 382.805 197.984C382.549 197.872 382.258 197.816 381.933 197.816C381.25 197.816 380.709 198.016 380.309 198.416C379.914 198.811 379.669 199.36 379.573 200.064H384.005ZM385.157 203.864C384.981 204.077 384.77 204.264 384.525 204.424C384.28 204.579 384.016 204.707 383.733 204.808C383.456 204.909 383.168 204.984 382.869 205.032C382.57 205.085 382.274 205.112 381.981 205.112C381.421 205.112 380.904 205.019 380.429 204.832C379.96 204.64 379.552 204.363 379.205 204C378.864 203.632 378.597 203.179 378.405 202.64C378.213 202.101 378.117 201.483 378.117 200.784C378.117 200.219 378.202 199.691 378.373 199.2C378.549 198.709 378.8 198.285 379.125 197.928C379.45 197.565 379.848 197.283 380.317 197.08C380.786 196.872 381.314 196.768 381.901 196.768C382.386 196.768 382.834 196.851 383.245 197.016C383.661 197.176 384.018 197.411 384.317 197.72C384.621 198.024 384.858 198.403 385.029 198.856C385.2 199.304 385.285 199.816 385.285 200.392C385.285 200.616 385.261 200.765 385.213 200.84C385.165 200.915 385.074 200.952 384.941 200.952H379.525C379.541 201.464 379.61 201.909 379.733 202.288C379.861 202.667 380.037 202.984 380.261 203.24C380.485 203.491 380.752 203.68 381.061 203.808C381.37 203.931 381.717 203.992 382.101 203.992C382.458 203.992 382.765 203.952 383.021 203.872C383.282 203.787 383.506 203.696 383.693 203.6C383.88 203.504 384.034 203.416 384.157 203.336C384.285 203.251 384.394 203.208 384.485 203.208C384.602 203.208 384.693 203.253 384.757 203.344L385.157 203.864ZM388.386 198.52C388.642 197.965 388.957 197.533 389.33 197.224C389.704 196.909 390.16 196.752 390.698 196.752C390.869 196.752 391.032 196.771 391.186 196.808C391.346 196.845 391.488 196.904 391.61 196.984L391.506 198.048C391.474 198.181 391.394 198.248 391.266 198.248C391.192 198.248 391.082 198.232 390.938 198.2C390.794 198.168 390.632 198.152 390.45 198.152C390.194 198.152 389.965 198.189 389.762 198.264C389.565 198.339 389.386 198.451 389.226 198.6C389.072 198.744 388.93 198.925 388.802 199.144C388.68 199.357 388.568 199.603 388.466 199.88V205H387.034V196.896H387.85C388.005 196.896 388.112 196.925 388.17 196.984C388.229 197.043 388.269 197.144 388.29 197.288L388.386 198.52ZM394.366 196.896V205H392.942V196.896H394.366ZM394.67 194.352C394.67 194.491 394.641 194.621 394.582 194.744C394.529 194.861 394.454 194.968 394.358 195.064C394.268 195.155 394.158 195.227 394.03 195.28C393.908 195.333 393.777 195.36 393.638 195.36C393.5 195.36 393.369 195.333 393.246 195.28C393.129 195.227 393.025 195.155 392.934 195.064C392.844 194.968 392.772 194.861 392.718 194.744C392.665 194.621 392.638 194.491 392.638 194.352C392.638 194.213 392.665 194.083 392.718 193.96C392.772 193.832 392.844 193.723 392.934 193.632C393.025 193.536 393.129 193.461 393.246 193.408C393.369 193.355 393.5 193.328 393.638 193.328C393.777 193.328 393.908 193.355 394.03 193.408C394.158 193.461 394.268 193.536 394.358 193.632C394.454 193.723 394.529 193.832 394.582 193.96C394.641 194.083 394.67 194.213 394.67 194.352ZM402.13 200.064C402.13 199.733 402.082 199.432 401.986 199.16C401.895 198.883 401.759 198.645 401.578 198.448C401.402 198.245 401.186 198.091 400.93 197.984C400.674 197.872 400.383 197.816 400.058 197.816C399.375 197.816 398.834 198.016 398.434 198.416C398.039 198.811 397.794 199.36 397.698 200.064H402.13ZM403.282 203.864C403.106 204.077 402.895 204.264 402.65 204.424C402.405 204.579 402.141 204.707 401.858 204.808C401.581 204.909 401.293 204.984 400.994 205.032C400.695 205.085 400.399 205.112 400.106 205.112C399.546 205.112 399.029 205.019 398.554 204.832C398.085 204.64 397.677 204.363 397.33 204C396.989 203.632 396.722 203.179 396.53 202.64C396.338 202.101 396.242 201.483 396.242 200.784C396.242 200.219 396.327 199.691 396.498 199.2C396.674 198.709 396.925 198.285 397.25 197.928C397.575 197.565 397.973 197.283 398.442 197.08C398.911 196.872 399.439 196.768 400.026 196.768C400.511 196.768 400.959 196.851 401.37 197.016C401.786 197.176 402.143 197.411 402.442 197.72C402.746 198.024 402.983 198.403 403.154 198.856C403.325 199.304 403.41 199.816 403.41 200.392C403.41 200.616 403.386 200.765 403.338 200.84C403.29 200.915 403.199 200.952 403.066 200.952H397.65C397.666 201.464 397.735 201.909 397.858 202.288C397.986 202.667 398.162 202.984 398.386 203.24C398.61 203.491 398.877 203.68 399.186 203.808C399.495 203.931 399.842 203.992 400.226 203.992C400.583 203.992 400.89 203.952 401.146 203.872C401.407 203.787 401.631 203.696 401.818 203.6C402.005 203.504 402.159 203.416 402.282 203.336C402.41 203.251 402.519 203.208 402.61 203.208C402.727 203.208 402.818 203.253 402.882 203.344L403.282 203.864ZM409.879 198.232C409.815 198.349 409.717 198.408 409.583 198.408C409.503 198.408 409.413 198.379 409.311 198.32C409.21 198.261 409.085 198.197 408.935 198.128C408.791 198.053 408.618 197.987 408.415 197.928C408.213 197.864 407.973 197.832 407.695 197.832C407.455 197.832 407.239 197.864 407.047 197.928C406.855 197.987 406.69 198.069 406.551 198.176C406.418 198.283 406.314 198.408 406.239 198.552C406.17 198.691 406.135 198.843 406.135 199.008C406.135 199.216 406.194 199.389 406.311 199.528C406.434 199.667 406.594 199.787 406.791 199.888C406.989 199.989 407.213 200.08 407.463 200.16C407.714 200.235 407.97 200.317 408.231 200.408C408.498 200.493 408.757 200.589 409.007 200.696C409.258 200.803 409.482 200.936 409.679 201.096C409.877 201.256 410.034 201.453 410.151 201.688C410.274 201.917 410.335 202.195 410.335 202.52C410.335 202.893 410.269 203.24 410.135 203.56C410.002 203.875 409.805 204.149 409.543 204.384C409.282 204.613 408.962 204.795 408.583 204.928C408.205 205.061 407.767 205.128 407.271 205.128C406.706 205.128 406.194 205.037 405.735 204.856C405.277 204.669 404.887 204.432 404.567 204.144L404.903 203.6C404.946 203.531 404.997 203.477 405.055 203.44C405.114 203.403 405.189 203.384 405.279 203.384C405.375 203.384 405.477 203.421 405.583 203.496C405.69 203.571 405.818 203.653 405.967 203.744C406.122 203.835 406.309 203.917 406.527 203.992C406.746 204.067 407.018 204.104 407.343 204.104C407.621 204.104 407.863 204.069 408.071 204C408.279 203.925 408.453 203.827 408.591 203.704C408.73 203.581 408.831 203.44 408.895 203.28C408.965 203.12 408.999 202.949 408.999 202.768C408.999 202.544 408.938 202.36 408.815 202.216C408.698 202.067 408.541 201.941 408.343 201.84C408.146 201.733 407.919 201.643 407.663 201.568C407.413 201.488 407.154 201.405 406.887 201.32C406.626 201.235 406.367 201.139 406.111 201.032C405.861 200.92 405.637 200.781 405.439 200.616C405.242 200.451 405.082 200.248 404.959 200.008C404.842 199.763 404.783 199.467 404.783 199.12C404.783 198.811 404.847 198.515 404.975 198.232C405.103 197.944 405.29 197.693 405.535 197.48C405.781 197.261 406.082 197.088 406.439 196.96C406.797 196.832 407.205 196.768 407.663 196.768C408.197 196.768 408.674 196.853 409.095 197.024C409.522 197.189 409.89 197.419 410.199 197.712L409.879 198.232ZM424.559 202.632C424.644 202.632 424.719 202.667 424.783 202.736L425.399 203.4C424.93 203.944 424.359 204.368 423.687 204.672C423.02 204.976 422.212 205.128 421.263 205.128C420.442 205.128 419.695 204.987 419.023 204.704C418.351 204.416 417.778 204.016 417.303 203.504C416.828 202.987 416.46 202.368 416.199 201.648C415.938 200.928 415.807 200.136 415.807 199.272C415.807 198.408 415.943 197.616 416.215 196.896C416.487 196.176 416.868 195.557 417.359 195.04C417.855 194.523 418.447 194.123 419.135 193.84C419.823 193.552 420.583 193.408 421.415 193.408C422.231 193.408 422.951 193.539 423.575 193.8C424.199 194.061 424.748 194.416 425.223 194.864L424.711 195.576C424.679 195.629 424.636 195.675 424.583 195.712C424.535 195.744 424.468 195.76 424.383 195.76C424.287 195.76 424.17 195.709 424.031 195.608C423.892 195.501 423.711 195.384 423.487 195.256C423.263 195.128 422.983 195.013 422.647 194.912C422.311 194.805 421.898 194.752 421.407 194.752C420.815 194.752 420.274 194.856 419.783 195.064C419.292 195.267 418.868 195.563 418.511 195.952C418.159 196.341 417.884 196.816 417.687 197.376C417.49 197.936 417.391 198.568 417.391 199.272C417.391 199.987 417.492 200.624 417.695 201.184C417.903 201.744 418.183 202.219 418.535 202.608C418.892 202.992 419.311 203.285 419.791 203.488C420.276 203.691 420.799 203.792 421.359 203.792C421.7 203.792 422.007 203.773 422.279 203.736C422.556 203.693 422.81 203.629 423.039 203.544C423.274 203.459 423.49 203.352 423.687 203.224C423.89 203.091 424.09 202.933 424.287 202.752C424.378 202.672 424.468 202.632 424.559 202.632ZM428.046 199.968C428.046 198.827 427.9 197.717 427.606 196.64C427.318 195.563 426.894 194.539 426.334 193.568C426.292 193.488 426.265 193.419 426.254 193.36C426.244 193.296 426.246 193.243 426.262 193.2C426.278 193.152 426.302 193.112 426.334 193.08C426.372 193.043 426.412 193.011 426.454 192.984L427.086 192.592C427.486 193.211 427.825 193.821 428.102 194.424C428.385 195.027 428.612 195.632 428.782 196.24C428.958 196.843 429.086 197.453 429.166 198.072C429.246 198.691 429.286 199.323 429.286 199.968C429.286 200.619 429.246 201.253 429.166 201.872C429.086 202.485 428.958 203.096 428.782 203.704C428.612 204.312 428.385 204.917 428.102 205.52C427.825 206.123 427.486 206.731 427.086 207.344L426.454 206.96C426.412 206.933 426.372 206.901 426.334 206.864C426.302 206.832 426.278 206.792 426.262 206.744C426.246 206.701 426.244 206.648 426.254 206.584C426.265 206.52 426.292 206.448 426.334 206.368C426.894 205.397 427.318 204.373 427.606 203.296C427.9 202.219 428.046 201.109 428.046 199.968Z" fill="white"/>
<path d="M390.05 55.5497V160.387" stroke="#16FF85" stroke-opacity="0.3" stroke-width="1.49767"/>
<g filter="url(#filter0_d_254_134109)">
<circle cx="389.743" cy="58.2569" r="13.2569" fill="#16FF85" fill-opacity="0.19"/>
<circle cx="389.742" cy="58.2554" r="5.68153" fill="#00FF79"/>
<circle cx="389.74" cy="58.2569" r="3.78768" fill="#ACFFD4"/>
</g>
<path d="M65 161V117.163L393 59" stroke="#16FF85" stroke-opacity="0.3" stroke-width="1.49767"/>
<g filter="url(#filter1_d_254_134109)">
<circle cx="64.2569" cy="120.05" r="13.2569" fill="#16FF85" fill-opacity="0.19"/>
<circle cx="64.2557" cy="120.049" r="5.68153" fill="#00FF79"/>
<circle cx="64.254" cy="120.05" r="3.78768" fill="#ACFFD4"/>
</g>
<path d="M183.72 126.752H178.824V131.912H177.084V126.752H172.212V125.132H177.084V120.008H178.824V125.132H183.72V126.752ZM188.318 121.856C188.318 122.4 188.394 122.888 188.546 123.32C188.706 123.744 188.93 124.104 189.218 124.4C189.514 124.696 189.87 124.92 190.286 125.072C190.71 125.224 191.182 125.3 191.702 125.3C192.278 125.3 192.786 125.208 193.226 125.024C193.674 124.832 194.05 124.58 194.354 124.268C194.658 123.956 194.89 123.596 195.05 123.188C195.21 122.78 195.29 122.356 195.29 121.916C195.29 121.38 195.202 120.896 195.026 120.464C194.858 120.024 194.622 119.652 194.318 119.348C194.014 119.044 193.65 118.812 193.226 118.652C192.81 118.484 192.35 118.4 191.846 118.4C191.318 118.4 190.838 118.488 190.406 118.664C189.974 118.832 189.602 119.068 189.29 119.372C188.978 119.676 188.738 120.04 188.57 120.464C188.402 120.888 188.318 121.352 188.318 121.856ZM193.31 127.148C193.486 126.916 193.65 126.696 193.802 126.488C193.954 126.28 194.098 126.072 194.234 125.864C193.794 126.216 193.298 126.484 192.746 126.668C192.194 126.852 191.61 126.944 190.994 126.944C190.346 126.944 189.73 126.836 189.146 126.62C188.57 126.404 188.062 126.088 187.622 125.672C187.182 125.248 186.83 124.732 186.566 124.124C186.31 123.508 186.182 122.804 186.182 122.012C186.182 121.26 186.322 120.556 186.602 119.9C186.882 119.244 187.274 118.672 187.778 118.184C188.282 117.696 188.882 117.312 189.578 117.032C190.274 116.752 191.038 116.612 191.87 116.612C192.694 116.612 193.442 116.748 194.114 117.02C194.786 117.292 195.362 117.672 195.842 118.16C196.322 118.648 196.69 119.232 196.946 119.912C197.21 120.592 197.342 121.344 197.342 122.168C197.342 122.664 197.294 123.136 197.198 123.584C197.11 124.024 196.978 124.46 196.802 124.892C196.634 125.316 196.426 125.74 196.178 126.164C195.93 126.58 195.65 127.008 195.338 127.448L191.15 133.496C191.046 133.648 190.898 133.772 190.706 133.868C190.514 133.956 190.294 134 190.046 134H188.078L193.31 127.148ZM206.544 121.46C206.656 120.676 206.872 119.984 207.192 119.384C207.512 118.776 207.916 118.268 208.404 117.86C208.9 117.452 209.464 117.144 210.096 116.936C210.736 116.72 211.424 116.612 212.16 116.612C212.888 116.612 213.56 116.716 214.176 116.924C214.792 117.132 215.32 117.428 215.76 117.812C216.208 118.196 216.556 118.66 216.804 119.204C217.052 119.748 217.176 120.352 217.176 121.016C217.176 121.56 217.104 122.048 216.96 122.48C216.824 122.904 216.624 123.276 216.36 123.596C216.104 123.916 215.792 124.188 215.424 124.412C215.056 124.636 214.644 124.82 214.188 124.964C215.308 125.252 216.148 125.748 216.708 126.452C217.276 127.148 217.56 128.02 217.56 129.068C217.56 129.86 217.408 130.572 217.104 131.204C216.808 131.836 216.4 132.376 215.88 132.824C215.36 133.264 214.752 133.604 214.056 133.844C213.368 134.076 212.628 134.192 211.836 134.192C210.924 134.192 210.144 134.08 209.496 133.856C208.848 133.624 208.3 133.308 207.852 132.908C207.404 132.508 207.036 132.036 206.748 131.492C206.46 130.94 206.216 130.344 206.016 129.704L206.94 129.32C207.18 129.216 207.412 129.188 207.636 129.236C207.868 129.284 208.036 129.416 208.14 129.632C208.244 129.856 208.372 130.124 208.524 130.436C208.684 130.748 208.9 131.048 209.172 131.336C209.444 131.624 209.788 131.868 210.204 132.068C210.628 132.268 211.164 132.368 211.812 132.368C212.412 132.368 212.936 132.272 213.384 132.08C213.84 131.88 214.216 131.624 214.512 131.312C214.816 131 215.044 130.652 215.196 130.268C215.348 129.884 215.424 129.504 215.424 129.128C215.424 128.664 215.364 128.24 215.244 127.856C215.124 127.472 214.9 127.14 214.572 126.86C214.244 126.58 213.792 126.36 213.216 126.2C212.648 126.04 211.916 125.96 211.02 125.96V124.412C211.756 124.404 212.38 124.324 212.892 124.172C213.412 124.02 213.832 123.812 214.152 123.548C214.48 123.284 214.716 122.968 214.86 122.6C215.012 122.232 215.088 121.824 215.088 121.376C215.088 120.88 215.008 120.448 214.848 120.08C214.696 119.712 214.484 119.408 214.212 119.168C213.94 118.928 213.616 118.748 213.24 118.628C212.872 118.508 212.472 118.448 212.04 118.448C211.608 118.448 211.204 118.512 210.828 118.64C210.46 118.768 210.132 118.948 209.844 119.18C209.564 119.404 209.328 119.672 209.136 119.984C208.944 120.296 208.808 120.64 208.728 121.016C208.624 121.296 208.492 121.484 208.332 121.58C208.18 121.668 207.956 121.692 207.66 121.652L206.544 121.46ZM230.75 131.972C230.982 131.972 231.166 132.04 231.302 132.176C231.438 132.312 231.506 132.488 231.506 132.704V134H220.034V133.268C220.034 133.116 220.066 132.96 220.13 132.8C220.194 132.64 220.294 132.492 220.43 132.356L225.938 126.824C226.394 126.36 226.81 125.916 227.186 125.492C227.562 125.06 227.882 124.628 228.146 124.196C228.41 123.764 228.614 123.328 228.758 122.888C228.902 122.44 228.974 121.964 228.974 121.46C228.974 120.956 228.894 120.516 228.734 120.14C228.574 119.756 228.354 119.44 228.074 119.192C227.802 118.944 227.478 118.76 227.102 118.64C226.726 118.512 226.322 118.448 225.89 118.448C225.45 118.448 225.046 118.512 224.678 118.64C224.31 118.768 223.982 118.948 223.694 119.18C223.414 119.404 223.178 119.672 222.986 119.984C222.794 120.296 222.658 120.64 222.578 121.016C222.482 121.296 222.35 121.484 222.182 121.58C222.022 121.668 221.794 121.692 221.498 121.652L220.382 121.46C220.494 120.676 220.71 119.984 221.03 119.384C221.358 118.776 221.766 118.268 222.254 117.86C222.75 117.452 223.314 117.144 223.946 116.936C224.578 116.72 225.262 116.612 225.998 116.612C226.726 116.612 227.406 116.72 228.038 116.936C228.67 117.152 229.218 117.468 229.682 117.884C230.146 118.292 230.51 118.792 230.774 119.384C231.038 119.976 231.17 120.648 231.17 121.4C231.17 122.04 231.074 122.636 230.882 123.188C230.69 123.732 230.43 124.252 230.102 124.748C229.774 125.244 229.394 125.728 228.962 126.2C228.538 126.672 228.086 127.148 227.606 127.628L223.07 132.26C223.39 132.172 223.714 132.104 224.042 132.056C224.37 132 224.686 131.972 224.99 131.972H230.75ZM239.788 132.488C240.348 132.488 240.848 132.412 241.288 132.26C241.736 132.1 242.112 131.88 242.416 131.6C242.728 131.312 242.964 130.972 243.124 130.58C243.292 130.18 243.376 129.74 243.376 129.26C243.376 128.668 243.276 128.164 243.076 127.748C242.884 127.324 242.62 126.98 242.284 126.716C241.956 126.452 241.576 126.26 241.144 126.14C240.712 126.012 240.26 125.948 239.788 125.948C239.316 125.948 238.864 126.012 238.432 126.14C238 126.26 237.616 126.452 237.28 126.716C236.952 126.98 236.688 127.324 236.488 127.748C236.296 128.164 236.2 128.668 236.2 129.26C236.2 129.74 236.28 130.18 236.44 130.58C236.608 130.972 236.844 131.312 237.148 131.6C237.46 131.88 237.836 132.1 238.276 132.26C238.724 132.412 239.228 132.488 239.788 132.488ZM239.788 118.268C239.276 118.268 238.824 118.344 238.432 118.496C238.048 118.648 237.724 118.856 237.46 119.12C237.204 119.384 237.008 119.692 236.872 120.044C236.744 120.396 236.68 120.772 236.68 121.172C236.68 121.564 236.736 121.944 236.848 122.312C236.96 122.68 237.14 123.008 237.388 123.296C237.636 123.576 237.956 123.804 238.348 123.98C238.748 124.148 239.228 124.232 239.788 124.232C240.348 124.232 240.824 124.148 241.216 123.98C241.616 123.804 241.94 123.576 242.188 123.296C242.436 123.008 242.616 122.68 242.728 122.312C242.84 121.944 242.896 121.564 242.896 121.172C242.896 120.772 242.828 120.396 242.692 120.044C242.564 119.692 242.368 119.384 242.104 119.12C241.848 118.856 241.524 118.648 241.132 118.496C240.748 118.344 240.3 118.268 239.788 118.268ZM242.248 125.036C243.32 125.34 244.144 125.848 244.72 126.56C245.296 127.272 245.584 128.184 245.584 129.296C245.584 130.048 245.44 130.728 245.152 131.336C244.872 131.936 244.476 132.448 243.964 132.872C243.46 133.296 242.852 133.624 242.14 133.856C241.428 134.08 240.644 134.192 239.788 134.192C238.932 134.192 238.148 134.08 237.436 133.856C236.724 133.624 236.112 133.296 235.6 132.872C235.088 132.448 234.692 131.936 234.412 131.336C234.132 130.728 233.992 130.048 233.992 129.296C233.992 128.184 234.28 127.272 234.856 126.56C235.432 125.848 236.256 125.34 237.328 125.036C236.424 124.7 235.74 124.2 235.276 123.536C234.82 122.864 234.592 122.064 234.592 121.136C234.592 120.504 234.716 119.912 234.964 119.36C235.212 118.808 235.564 118.328 236.02 117.92C236.476 117.512 237.02 117.192 237.652 116.96C238.292 116.728 239.004 116.612 239.788 116.612C240.564 116.612 241.272 116.728 241.912 116.96C242.552 117.192 243.1 117.512 243.556 117.92C244.012 118.328 244.364 118.808 244.612 119.36C244.86 119.912 244.984 120.504 244.984 121.136C244.984 122.064 244.752 122.864 244.288 123.536C243.832 124.2 243.152 124.7 242.248 125.036ZM248.31 136.904C248.246 136.848 248.202 136.796 248.178 136.748C248.154 136.7 248.142 136.64 248.142 136.568C248.142 136.512 248.158 136.456 248.19 136.4C248.23 136.344 248.274 136.292 248.322 136.244C248.402 136.156 248.502 136.04 248.622 135.896C248.75 135.752 248.878 135.58 249.006 135.38C249.134 135.188 249.25 134.972 249.354 134.732C249.466 134.5 249.546 134.252 249.594 133.988C249.57 133.996 249.542 134 249.51 134C249.486 134 249.462 134 249.438 134C249.022 134 248.682 133.864 248.418 133.592C248.162 133.312 248.034 132.956 248.034 132.524C248.034 132.148 248.162 131.828 248.418 131.564C248.682 131.3 249.03 131.168 249.462 131.168C249.702 131.168 249.914 131.212 250.098 131.3C250.282 131.388 250.434 131.512 250.554 131.672C250.682 131.824 250.778 132.004 250.842 132.212C250.906 132.412 250.938 132.632 250.938 132.872C250.938 133.232 250.886 133.608 250.782 134C250.686 134.384 250.538 134.764 250.338 135.14C250.146 135.524 249.91 135.896 249.63 136.256C249.35 136.616 249.03 136.948 248.67 137.252L248.31 136.904ZM259.124 132.416C259.7 132.416 260.22 132.324 260.684 132.14C261.156 131.956 261.556 131.7 261.884 131.372C262.22 131.044 262.476 130.656 262.652 130.208C262.836 129.76 262.928 129.272 262.928 128.744C262.928 128.184 262.84 127.68 262.664 127.232C262.488 126.776 262.236 126.392 261.908 126.08C261.588 125.76 261.204 125.516 260.756 125.348C260.308 125.18 259.816 125.096 259.28 125.096C258.704 125.096 258.184 125.196 257.72 125.396C257.256 125.588 256.86 125.852 256.532 126.188C256.212 126.516 255.964 126.9 255.788 127.34C255.62 127.772 255.536 128.224 255.536 128.696C255.536 129.248 255.616 129.752 255.776 130.208C255.936 130.664 256.168 131.056 256.472 131.384C256.784 131.712 257.16 131.968 257.6 132.152C258.048 132.328 258.556 132.416 259.124 132.416ZM257.876 123.248C257.724 123.44 257.576 123.628 257.432 123.812C257.296 123.988 257.164 124.164 257.036 124.34C257.444 124.06 257.892 123.844 258.38 123.692C258.868 123.54 259.4 123.464 259.976 123.464C260.672 123.464 261.328 123.58 261.944 123.812C262.56 124.036 263.096 124.368 263.552 124.808C264.016 125.24 264.384 125.776 264.656 126.416C264.928 127.048 265.064 127.772 265.064 128.588C265.064 129.38 264.92 130.116 264.632 130.796C264.344 131.476 263.94 132.068 263.42 132.572C262.908 133.076 262.288 133.472 261.56 133.76C260.84 134.048 260.044 134.192 259.172 134.192C258.308 134.192 257.524 134.056 256.82 133.784C256.116 133.504 255.516 133.112 255.02 132.608C254.532 132.096 254.152 131.48 253.88 130.76C253.616 130.032 253.484 129.22 253.484 128.324C253.484 127.572 253.648 126.772 253.976 125.924C254.312 125.068 254.844 124.156 255.572 123.188L259.94 117.32C260.052 117.176 260.204 117.056 260.396 116.96C260.596 116.856 260.824 116.804 261.08 116.804H262.976L257.876 123.248ZM267.669 121.46C267.781 120.676 267.997 119.984 268.317 119.384C268.637 118.776 269.041 118.268 269.529 117.86C270.025 117.452 270.589 117.144 271.221 116.936C271.861 116.72 272.549 116.612 273.285 116.612C274.013 116.612 274.685 116.716 275.301 116.924C275.917 117.132 276.445 117.428 276.885 117.812C277.333 118.196 277.681 118.66 277.929 119.204C278.177 119.748 278.301 120.352 278.301 121.016C278.301 121.56 278.229 122.048 278.085 122.48C277.949 122.904 277.749 123.276 277.485 123.596C277.229 123.916 276.917 124.188 276.549 124.412C276.181 124.636 275.769 124.82 275.313 124.964C276.433 125.252 277.273 125.748 277.833 126.452C278.401 127.148 278.685 128.02 278.685 129.068C278.685 129.86 278.533 130.572 278.229 131.204C277.933 131.836 277.525 132.376 277.005 132.824C276.485 133.264 275.877 133.604 275.181 133.844C274.493 134.076 273.753 134.192 272.961 134.192C272.049 134.192 271.269 134.08 270.621 133.856C269.973 133.624 269.425 133.308 268.977 132.908C268.529 132.508 268.161 132.036 267.873 131.492C267.585 130.94 267.341 130.344 267.141 129.704L268.065 129.32C268.305 129.216 268.537 129.188 268.761 129.236C268.993 129.284 269.161 129.416 269.265 129.632C269.369 129.856 269.497 130.124 269.649 130.436C269.809 130.748 270.025 131.048 270.297 131.336C270.569 131.624 270.913 131.868 271.329 132.068C271.753 132.268 272.289 132.368 272.937 132.368C273.537 132.368 274.061 132.272 274.509 132.08C274.965 131.88 275.341 131.624 275.637 131.312C275.941 131 276.169 130.652 276.321 130.268C276.473 129.884 276.549 129.504 276.549 129.128C276.549 128.664 276.489 128.24 276.369 127.856C276.249 127.472 276.025 127.14 275.697 126.86C275.369 126.58 274.917 126.36 274.341 126.2C273.773 126.04 273.041 125.96 272.145 125.96V124.412C272.881 124.404 273.505 124.324 274.017 124.172C274.537 124.02 274.957 123.812 275.277 123.548C275.605 123.284 275.841 122.968 275.985 122.6C276.137 122.232 276.213 121.824 276.213 121.376C276.213 120.88 276.133 120.448 275.973 120.08C275.821 119.712 275.609 119.408 275.337 119.168C275.065 118.928 274.741 118.748 274.365 118.628C273.997 118.508 273.597 118.448 273.165 118.448C272.733 118.448 272.329 118.512 271.953 118.64C271.585 118.768 271.257 118.948 270.969 119.18C270.689 119.404 270.453 119.672 270.261 119.984C270.069 120.296 269.933 120.64 269.853 121.016C269.749 121.296 269.617 121.484 269.457 121.58C269.305 121.668 269.081 121.692 268.785 121.652L267.669 121.46ZM288.695 120.956C288.695 121.628 288.591 122.232 288.383 122.768C288.175 123.296 287.895 123.744 287.543 124.112C287.199 124.472 286.795 124.748 286.331 124.94C285.875 125.132 285.391 125.228 284.879 125.228C284.343 125.228 283.843 125.132 283.379 124.94C282.915 124.748 282.511 124.472 282.167 124.112C281.831 123.744 281.567 123.296 281.375 122.768C281.183 122.232 281.087 121.628 281.087 120.956C281.087 120.268 281.183 119.656 281.375 119.12C281.567 118.584 281.831 118.132 282.167 117.764C282.511 117.396 282.915 117.116 283.379 116.924C283.843 116.732 284.343 116.636 284.879 116.636C285.423 116.636 285.927 116.732 286.391 116.924C286.855 117.116 287.259 117.396 287.603 117.764C287.947 118.132 288.215 118.584 288.407 119.12C288.599 119.656 288.695 120.268 288.695 120.956ZM287.039 120.956C287.039 120.428 286.983 119.98 286.871 119.612C286.759 119.244 286.603 118.944 286.403 118.712C286.211 118.472 285.983 118.3 285.719 118.196C285.455 118.092 285.175 118.04 284.879 118.04C284.583 118.04 284.307 118.092 284.051 118.196C283.795 118.3 283.571 118.472 283.379 118.712C283.187 118.944 283.035 119.244 282.923 119.612C282.811 119.98 282.755 120.428 282.755 120.956C282.755 121.476 282.811 121.92 282.923 122.288C283.035 122.648 283.187 122.944 283.379 123.176C283.571 123.4 283.795 123.564 284.051 123.668C284.307 123.764 284.583 123.812 284.879 123.812C285.175 123.812 285.455 123.764 285.719 123.668C285.983 123.564 286.211 123.4 286.403 123.176C286.603 122.944 286.759 122.648 286.871 122.288C286.983 121.92 287.039 121.476 287.039 120.956ZM294.779 117.164C294.859 117.068 294.951 116.984 295.055 116.912C295.167 116.84 295.315 116.804 295.499 116.804H297.047L284.471 133.652C284.399 133.756 284.307 133.84 284.195 133.904C284.083 133.968 283.947 134 283.787 134H282.215L294.779 117.164ZM298.211 129.944C298.211 130.616 298.107 131.216 297.899 131.744C297.691 132.272 297.411 132.72 297.059 133.088C296.715 133.448 296.311 133.724 295.847 133.916C295.391 134.108 294.907 134.204 294.395 134.204C293.851 134.204 293.347 134.108 292.883 133.916C292.427 133.724 292.027 133.448 291.683 133.088C291.347 132.72 291.083 132.272 290.891 131.744C290.699 131.216 290.603 130.616 290.603 129.944C290.603 129.256 290.699 128.644 290.891 128.108C291.083 127.564 291.347 127.108 291.683 126.74C292.027 126.372 292.427 126.092 292.883 125.9C293.347 125.708 293.851 125.612 294.395 125.612C294.931 125.612 295.431 125.708 295.895 125.9C296.367 126.092 296.771 126.372 297.107 126.74C297.451 127.108 297.719 127.564 297.911 128.108C298.111 128.644 298.211 129.256 298.211 129.944ZM296.555 129.944C296.555 129.416 296.499 128.968 296.387 128.6C296.275 128.224 296.119 127.92 295.919 127.688C295.727 127.456 295.499 127.288 295.235 127.184C294.971 127.08 294.691 127.028 294.395 127.028C294.099 127.028 293.819 127.08 293.555 127.184C293.299 127.288 293.075 127.456 292.883 127.688C292.691 127.92 292.539 128.224 292.427 128.6C292.323 128.968 292.271 129.416 292.271 129.944C292.271 130.464 292.323 130.904 292.427 131.264C292.539 131.624 292.691 131.92 292.883 132.152C293.075 132.376 293.299 132.54 293.555 132.644C293.819 132.74 294.099 132.788 294.395 132.788C294.691 132.788 294.971 132.74 295.235 132.644C295.499 132.54 295.727 132.376 295.919 132.152C296.119 131.92 296.275 131.624 296.387 131.264C296.499 130.904 296.555 130.464 296.555 129.944Z" fill="#16FF85"/>
<defs>
<filter id="filter0_d_254_134109" x="365.439" y="33.9526" width="48.6085" height="48.6086" filterUnits="userSpaceOnUse" color-interpolation-filters="sRGB">
<feFlood flood-opacity="0" result="BackgroundImageFix"/>
<feColorMatrix in="SourceAlpha" type="matrix" values="0 0 0 0 0 0 0 0 0 0 0 0 0 0 0 0 0 0 127 0" result="hardAlpha"/>
<feOffset/>
<feGaussianBlur stdDeviation="5.52371"/>
<feComposite in2="hardAlpha" operator="out"/>
<feColorMatrix type="matrix" values="0 0 0 0 0.0862745 0 0 0 0 1 0 0 0 0 0.521569 0 0 0 0.2 0"/>
<feBlend mode="normal" in2="BackgroundImageFix" result="effect1_dropShadow_254_134109"/>
<feBlend mode="normal" in="SourceGraphic" in2="effect1_dropShadow_254_134109" result="shape"/>
</filter>
<filter id="filter1_d_254_134109" x="39.9526" y="95.7453" width="48.6085" height="48.6086" filterUnits="userSpaceOnUse" color-interpolation-filters="sRGB">
<feFlood flood-opacity="0" result="BackgroundImageFix"/>
<feColorMatrix in="SourceAlpha" type="matrix" values="0 0 0 0 0 0 0 0 0 0 0 0 0 0 0 0 0 0 127 0" result="hardAlpha"/>
<feOffset/>
<feGaussianBlur stdDeviation="5.52371"/>
<feComposite in2="hardAlpha" operator="out"/>
<feColorMatrix type="matrix" values="0 0 0 0 0.0862745 0 0 0 0 1 0 0 0 0 0.521569 0 0 0 0.2 0"/>
<feBlend mode="normal" in2="BackgroundImageFix" result="effect1_dropShadow_254_134109"/>
<feBlend mode="normal" in="SourceGraphic" in2="effect1_dropShadow_254_134109" result="shape"/>
</filter>
</defs>
</svg>
