<svg width="438" height="239" viewBox="0 0 438 239" fill="none" xmlns="http://www.w3.org/2000/svg">
<path d="M8.536 203.736L8.528 205H1.464V193.536H8.528V194.8H3.016V198.608H7.48V199.824H3.016V203.736H8.536ZM14.6606 201.352C14.0046 201.373 13.4446 201.427 12.9806 201.512C12.522 201.592 12.146 201.699 11.8526 201.832C11.5646 201.965 11.354 202.123 11.2206 202.304C11.0926 202.485 11.0286 202.688 11.0286 202.912C11.0286 203.125 11.0633 203.309 11.1326 203.464C11.202 203.619 11.2953 203.747 11.4126 203.848C11.5353 203.944 11.6766 204.016 11.8366 204.064C12.002 204.107 12.178 204.128 12.3646 204.128C12.6153 204.128 12.8446 204.104 13.0526 204.056C13.2606 204.003 13.4553 203.928 13.6366 203.832C13.8233 203.736 13.9993 203.621 14.1646 203.488C14.3353 203.355 14.5006 203.203 14.6606 203.032V201.352ZM10.0606 198.04C10.5086 197.608 10.9913 197.285 11.5086 197.072C12.026 196.859 12.5993 196.752 13.2286 196.752C13.682 196.752 14.0846 196.827 14.4366 196.976C14.7886 197.125 15.0846 197.333 15.3246 197.6C15.5646 197.867 15.746 198.189 15.8686 198.568C15.9913 198.947 16.0526 199.363 16.0526 199.816V205H15.4206C15.282 205 15.1753 204.979 15.1006 204.936C15.026 204.888 14.9673 204.797 14.9246 204.664L14.7646 203.896C14.5513 204.093 14.3433 204.269 14.1406 204.424C13.938 204.573 13.7246 204.701 13.5006 204.808C13.2766 204.909 13.0366 204.987 12.7806 205.04C12.53 205.099 12.25 205.128 11.9406 205.128C11.626 205.128 11.33 205.085 11.0526 205C10.7753 204.909 10.5326 204.776 10.3246 204.6C10.122 204.424 9.95929 204.203 9.83663 203.936C9.71929 203.664 9.66063 203.344 9.66063 202.976C9.66063 202.656 9.74863 202.349 9.92463 202.056C10.1006 201.757 10.386 201.493 10.7806 201.264C11.1753 201.035 11.69 200.848 12.3246 200.704C12.9593 200.555 13.738 200.469 14.6606 200.448V199.816C14.6606 199.187 14.5246 198.712 14.2526 198.392C13.9806 198.067 13.5833 197.904 13.0606 197.904C12.7086 197.904 12.4126 197.949 12.1726 198.04C11.938 198.125 11.7326 198.224 11.5566 198.336C11.386 198.443 11.2366 198.541 11.1086 198.632C10.986 198.717 10.8633 198.76 10.7406 198.76C10.6446 198.76 10.562 198.736 10.4926 198.688C10.4233 198.635 10.3646 198.571 10.3166 198.496L10.0606 198.04ZM19.5738 198.52C19.8298 197.965 20.1444 197.533 20.5178 197.224C20.8911 196.909 21.3471 196.752 21.8858 196.752C22.0564 196.752 22.2191 196.771 22.3738 196.808C22.5338 196.845 22.6751 196.904 22.7978 196.984L22.6938 198.048C22.6618 198.181 22.5818 198.248 22.4538 198.248C22.3791 198.248 22.2698 198.232 22.1258 198.2C21.9818 198.168 21.8191 198.152 21.6378 198.152C21.3818 198.152 21.1524 198.189 20.9498 198.264C20.7524 198.339 20.5738 198.451 20.4138 198.6C20.2591 198.744 20.1178 198.925 19.9898 199.144C19.8671 199.357 19.7551 199.603 19.6538 199.88V205H18.2218V196.896H19.0378C19.1924 196.896 19.2991 196.925 19.3578 196.984C19.4164 197.043 19.4564 197.144 19.4778 197.288L19.5738 198.52ZM25.5219 193.216V205H24.0979V193.216H25.5219ZM34.8231 196.896L30.3031 207.392C30.2551 207.499 30.1938 207.584 30.1191 207.648C30.0498 207.712 29.9405 207.744 29.7911 207.744H28.7351L30.2151 204.528L26.8711 196.896H28.1031C28.2258 196.896 28.3218 196.928 28.3911 196.992C28.4658 197.051 28.5165 197.117 28.5431 197.192L30.7111 202.296C30.7965 202.52 30.8685 202.755 30.9271 203C31.0018 202.749 31.0818 202.512 31.1671 202.288L33.2711 197.192C33.3031 197.107 33.3565 197.037 33.4311 196.984C33.5111 196.925 33.5991 196.896 33.6951 196.896H34.8231ZM48.8621 193.536L44.1901 205H42.7981L38.1261 193.536H39.3661C39.5048 193.536 39.6168 193.571 39.7021 193.64C39.7875 193.709 39.8515 193.797 39.8941 193.904L43.1261 201.992C43.1955 202.173 43.2621 202.371 43.3261 202.584C43.3955 202.797 43.4568 203.021 43.5101 203.256C43.5635 203.021 43.6195 202.797 43.6781 202.584C43.7368 202.371 43.8008 202.173 43.8701 201.992L47.0941 193.904C47.1261 193.813 47.1875 193.731 47.2781 193.656C47.3741 193.576 47.4888 193.536 47.6221 193.536H48.8621ZM58.1058 202.632C58.1911 202.632 58.2658 202.667 58.3298 202.736L58.9458 203.4C58.4764 203.944 57.9058 204.368 57.2338 204.672C56.5671 204.976 55.7591 205.128 54.8098 205.128C53.9884 205.128 53.2418 204.987 52.5698 204.704C51.8978 204.416 51.3244 204.016 50.8498 203.504C50.3751 202.987 50.0071 202.368 49.7458 201.648C49.4844 200.928 49.3538 200.136 49.3538 199.272C49.3538 198.408 49.4898 197.616 49.7618 196.896C50.0338 196.176 50.4151 195.557 50.9058 195.04C51.4018 194.523 51.9938 194.123 52.6818 193.84C53.3698 193.552 54.1298 193.408 54.9618 193.408C55.7778 193.408 56.4978 193.539 57.1218 193.8C57.7458 194.061 58.2951 194.416 58.7698 194.864L58.2578 195.576C58.2258 195.629 58.1831 195.675 58.1298 195.712C58.0818 195.744 58.0151 195.76 57.9298 195.76C57.8338 195.76 57.7164 195.709 57.5778 195.608C57.4391 195.501 57.2578 195.384 57.0338 195.256C56.8098 195.128 56.5298 195.013 56.1938 194.912C55.8578 194.805 55.4444 194.752 54.9538 194.752C54.3618 194.752 53.8204 194.856 53.3298 195.064C52.8391 195.267 52.4151 195.563 52.0578 195.952C51.7058 196.341 51.4311 196.816 51.2338 197.376C51.0364 197.936 50.9378 198.568 50.9378 199.272C50.9378 199.987 51.0391 200.624 51.2418 201.184C51.4498 201.744 51.7298 202.219 52.0818 202.608C52.4391 202.992 52.8578 203.285 53.3378 203.488C53.8231 203.691 54.3458 203.792 54.9058 203.792C55.2471 203.792 55.5538 203.773 55.8258 203.736C56.1031 203.693 56.3564 203.629 56.5858 203.544C56.8204 203.459 57.0364 203.352 57.2338 203.224C57.4364 203.091 57.6364 202.933 57.8338 202.752C57.9244 202.672 58.0151 202.632 58.1058 202.632ZM65.335 199.968C65.335 201.109 65.479 202.219 65.767 203.296C66.0603 204.373 66.487 205.397 67.047 206.368C67.1323 206.533 67.1537 206.659 67.111 206.744C67.0683 206.835 67.007 206.907 66.927 206.96L66.295 207.344C65.895 206.731 65.5537 206.123 65.271 205.52C64.9937 204.917 64.767 204.312 64.591 203.704C64.4203 203.096 64.295 202.485 64.215 201.872C64.135 201.253 64.095 200.619 64.095 199.968C64.095 199.323 64.135 198.691 64.215 198.072C64.295 197.453 64.4203 196.843 64.591 196.24C64.767 195.632 64.9937 195.027 65.271 194.424C65.5537 193.821 65.895 193.211 66.295 192.592L66.927 192.984C67.007 193.037 67.0683 193.109 67.111 193.2C67.1537 193.285 67.1323 193.408 67.047 193.568C66.487 194.539 66.0603 195.563 65.767 196.64C65.479 197.717 65.335 198.827 65.335 199.968ZM74.9686 195.328C74.9206 195.408 74.8673 195.469 74.8086 195.512C74.7553 195.549 74.6886 195.568 74.6086 195.568C74.518 195.568 74.4113 195.523 74.2886 195.432C74.166 195.341 74.0113 195.243 73.8246 195.136C73.6433 195.024 73.422 194.923 73.1606 194.832C72.9046 194.741 72.5926 194.696 72.2246 194.696C71.878 194.696 71.5713 194.744 71.3046 194.84C71.0433 194.931 70.822 195.056 70.6406 195.216C70.4646 195.376 70.3313 195.565 70.2406 195.784C70.15 195.997 70.1046 196.229 70.1046 196.48C70.1046 196.8 70.182 197.067 70.3366 197.28C70.4966 197.488 70.7046 197.667 70.9606 197.816C71.222 197.965 71.5153 198.096 71.8406 198.208C72.1713 198.315 72.5073 198.427 72.8486 198.544C73.1953 198.661 73.5313 198.795 73.8566 198.944C74.1873 199.088 74.4806 199.272 74.7366 199.496C74.998 199.72 75.206 199.995 75.3606 200.32C75.5206 200.645 75.6006 201.045 75.6006 201.52C75.6006 202.021 75.5153 202.493 75.3446 202.936C75.174 203.373 74.9233 203.755 74.5926 204.08C74.2673 204.405 73.8646 204.661 73.3846 204.848C72.91 205.035 72.3686 205.128 71.7606 205.128C71.014 205.128 70.3366 204.995 69.7286 204.728C69.1206 204.456 68.6006 204.091 68.1686 203.632L68.6166 202.896C68.6593 202.837 68.71 202.789 68.7686 202.752C68.8326 202.709 68.902 202.688 68.9766 202.688C69.046 202.688 69.1233 202.717 69.2086 202.776C69.2993 202.829 69.4006 202.899 69.5126 202.984C69.6246 203.069 69.7526 203.163 69.8966 203.264C70.0406 203.365 70.2033 203.459 70.3846 203.544C70.5713 203.629 70.782 203.701 71.0166 203.76C71.2513 203.813 71.5153 203.84 71.8086 203.84C72.1766 203.84 72.5046 203.789 72.7926 203.688C73.0806 203.587 73.3233 203.445 73.5206 203.264C73.7233 203.077 73.878 202.856 73.9846 202.6C74.0913 202.344 74.1446 202.059 74.1446 201.744C74.1446 201.397 74.0646 201.115 73.9046 200.896C73.75 200.672 73.5446 200.485 73.2886 200.336C73.0326 200.187 72.7393 200.061 72.4086 199.96C72.078 199.853 71.742 199.747 71.4006 199.64C71.0593 199.528 70.7233 199.4 70.3926 199.256C70.062 199.112 69.7686 198.925 69.5126 198.696C69.2566 198.467 69.0486 198.181 68.8886 197.84C68.734 197.493 68.6566 197.067 68.6566 196.56C68.6566 196.155 68.734 195.763 68.8886 195.384C69.0486 195.005 69.278 194.669 69.5766 194.376C69.8806 194.083 70.2513 193.848 70.6886 193.672C71.1313 193.496 71.638 193.408 72.2086 193.408C72.8486 193.408 73.43 193.509 73.9526 193.712C74.4806 193.915 74.9446 194.208 75.3446 194.592L74.9686 195.328ZM82.8333 200.064C82.8333 199.733 82.7853 199.432 82.6893 199.16C82.5986 198.883 82.4626 198.645 82.2813 198.448C82.1053 198.245 81.8893 198.091 81.6333 197.984C81.3773 197.872 81.0866 197.816 80.7613 197.816C80.0786 197.816 79.5373 198.016 79.1373 198.416C78.7426 198.811 78.4973 199.36 78.4013 200.064H82.8333ZM83.9853 203.864C83.8093 204.077 83.5986 204.264 83.3533 204.424C83.1079 204.579 82.8439 204.707 82.5613 204.808C82.2839 204.909 81.9959 204.984 81.6973 205.032C81.3986 205.085 81.1026 205.112 80.8093 205.112C80.2493 205.112 79.7319 205.019 79.2573 204.832C78.7879 204.64 78.3799 204.363 78.0333 204C77.6919 203.632 77.4253 203.179 77.2333 202.64C77.0413 202.101 76.9453 201.483 76.9453 200.784C76.9453 200.219 77.0306 199.691 77.2013 199.2C77.3773 198.709 77.6279 198.285 77.9533 197.928C78.2786 197.565 78.6759 197.283 79.1453 197.08C79.6146 196.872 80.1426 196.768 80.7293 196.768C81.2146 196.768 81.6626 196.851 82.0733 197.016C82.4893 197.176 82.8466 197.411 83.1453 197.72C83.4493 198.024 83.6866 198.403 83.8573 198.856C84.0279 199.304 84.1133 199.816 84.1133 200.392C84.1133 200.616 84.0893 200.765 84.0413 200.84C83.9933 200.915 83.9026 200.952 83.7693 200.952H78.3533C78.3693 201.464 78.4386 201.909 78.5613 202.288C78.6893 202.667 78.8653 202.984 79.0893 203.24C79.3133 203.491 79.5799 203.68 79.8893 203.808C80.1986 203.931 80.5453 203.992 80.9293 203.992C81.2866 203.992 81.5933 203.952 81.8493 203.872C82.1106 203.787 82.3346 203.696 82.5213 203.6C82.7079 203.504 82.8626 203.416 82.9853 203.336C83.1133 203.251 83.2226 203.208 83.3133 203.208C83.4306 203.208 83.5213 203.253 83.5853 203.344L83.9853 203.864ZM87.2144 198.52C87.4704 197.965 87.785 197.533 88.1584 197.224C88.5317 196.909 88.9877 196.752 89.5264 196.752C89.697 196.752 89.8597 196.771 90.0144 196.808C90.1744 196.845 90.3157 196.904 90.4384 196.984L90.3344 198.048C90.3024 198.181 90.2224 198.248 90.0944 198.248C90.0197 198.248 89.9104 198.232 89.7664 198.2C89.6224 198.168 89.4597 198.152 89.2784 198.152C89.0224 198.152 88.793 198.189 88.5904 198.264C88.393 198.339 88.2144 198.451 88.0544 198.6C87.8997 198.744 87.7584 198.925 87.6304 199.144C87.5077 199.357 87.3957 199.603 87.2944 199.88V205H85.8624V196.896H86.6784C86.833 196.896 86.9397 196.925 86.9984 196.984C87.057 197.043 87.097 197.144 87.1184 197.288L87.2144 198.52ZM93.1945 196.896V205H91.7705V196.896H93.1945ZM93.4985 194.352C93.4985 194.491 93.4692 194.621 93.4105 194.744C93.3572 194.861 93.2825 194.968 93.1865 195.064C93.0958 195.155 92.9865 195.227 92.8585 195.28C92.7358 195.333 92.6052 195.36 92.4665 195.36C92.3278 195.36 92.1972 195.333 92.0745 195.28C91.9572 195.227 91.8532 195.155 91.7625 195.064C91.6718 194.968 91.5998 194.861 91.5465 194.744C91.4932 194.621 91.4665 194.491 91.4665 194.352C91.4665 194.213 91.4932 194.083 91.5465 193.96C91.5998 193.832 91.6718 193.723 91.7625 193.632C91.8532 193.536 91.9572 193.461 92.0745 193.408C92.1972 193.355 92.3278 193.328 92.4665 193.328C92.6052 193.328 92.7358 193.355 92.8585 193.408C92.9865 193.461 93.0958 193.536 93.1865 193.632C93.2825 193.723 93.3572 193.832 93.4105 193.96C93.4692 194.083 93.4985 194.213 93.4985 194.352ZM100.958 200.064C100.958 199.733 100.91 199.432 100.814 199.16C100.724 198.883 100.588 198.645 100.406 198.448C100.23 198.245 100.014 198.091 99.7583 197.984C99.5023 197.872 99.2116 197.816 98.8863 197.816C98.2036 197.816 97.6623 198.016 97.2623 198.416C96.8676 198.811 96.6223 199.36 96.5263 200.064H100.958ZM102.11 203.864C101.934 204.077 101.724 204.264 101.478 204.424C101.233 204.579 100.969 204.707 100.686 204.808C100.409 204.909 100.121 204.984 99.8223 205.032C99.5236 205.085 99.2276 205.112 98.9343 205.112C98.3743 205.112 97.8569 205.019 97.3823 204.832C96.9129 204.64 96.5049 204.363 96.1583 204C95.8169 203.632 95.5503 203.179 95.3583 202.64C95.1663 202.101 95.0703 201.483 95.0703 200.784C95.0703 200.219 95.1556 199.691 95.3263 199.2C95.5023 198.709 95.7529 198.285 96.0783 197.928C96.4036 197.565 96.8009 197.283 97.2703 197.08C97.7396 196.872 98.2676 196.768 98.8543 196.768C99.3396 196.768 99.7876 196.851 100.198 197.016C100.614 197.176 100.972 197.411 101.27 197.72C101.574 198.024 101.812 198.403 101.982 198.856C102.153 199.304 102.238 199.816 102.238 200.392C102.238 200.616 102.214 200.765 102.166 200.84C102.118 200.915 102.028 200.952 101.894 200.952H96.4783C96.4943 201.464 96.5636 201.909 96.6863 202.288C96.8143 202.667 96.9903 202.984 97.2143 203.24C97.4383 203.491 97.7049 203.68 98.0143 203.808C98.3236 203.931 98.6703 203.992 99.0543 203.992C99.4116 203.992 99.7183 203.952 99.9743 203.872C100.236 203.787 100.46 203.696 100.646 203.6C100.833 203.504 100.988 203.416 101.11 203.336C101.238 203.251 101.348 203.208 101.438 203.208C101.556 203.208 101.646 203.253 101.71 203.344L102.11 203.864ZM108.707 198.232C108.643 198.349 108.545 198.408 108.411 198.408C108.331 198.408 108.241 198.379 108.139 198.32C108.038 198.261 107.913 198.197 107.763 198.128C107.619 198.053 107.446 197.987 107.243 197.928C107.041 197.864 106.801 197.832 106.523 197.832C106.283 197.832 106.067 197.864 105.875 197.928C105.683 197.987 105.518 198.069 105.379 198.176C105.246 198.283 105.142 198.408 105.067 198.552C104.998 198.691 104.963 198.843 104.963 199.008C104.963 199.216 105.022 199.389 105.139 199.528C105.262 199.667 105.422 199.787 105.619 199.888C105.817 199.989 106.041 200.08 106.291 200.16C106.542 200.235 106.798 200.317 107.059 200.408C107.326 200.493 107.585 200.589 107.835 200.696C108.086 200.803 108.31 200.936 108.507 201.096C108.705 201.256 108.862 201.453 108.979 201.688C109.102 201.917 109.163 202.195 109.163 202.52C109.163 202.893 109.097 203.24 108.963 203.56C108.83 203.875 108.633 204.149 108.371 204.384C108.11 204.613 107.79 204.795 107.411 204.928C107.033 205.061 106.595 205.128 106.099 205.128C105.534 205.128 105.022 205.037 104.563 204.856C104.105 204.669 103.715 204.432 103.395 204.144L103.731 203.6C103.774 203.531 103.825 203.477 103.883 203.44C103.942 203.403 104.017 203.384 104.107 203.384C104.203 203.384 104.305 203.421 104.411 203.496C104.518 203.571 104.646 203.653 104.795 203.744C104.95 203.835 105.137 203.917 105.355 203.992C105.574 204.067 105.846 204.104 106.171 204.104C106.449 204.104 106.691 204.069 106.899 204C107.107 203.925 107.281 203.827 107.419 203.704C107.558 203.581 107.659 203.44 107.723 203.28C107.793 203.12 107.827 202.949 107.827 202.768C107.827 202.544 107.766 202.36 107.643 202.216C107.526 202.067 107.369 201.941 107.171 201.84C106.974 201.733 106.747 201.643 106.491 201.568C106.241 201.488 105.982 201.405 105.715 201.32C105.454 201.235 105.195 201.139 104.939 201.032C104.689 200.92 104.465 200.781 104.267 200.616C104.07 200.451 103.91 200.248 103.787 200.008C103.67 199.763 103.611 199.467 103.611 199.12C103.611 198.811 103.675 198.515 103.803 198.232C103.931 197.944 104.118 197.693 104.363 197.48C104.609 197.261 104.91 197.088 105.267 196.96C105.625 196.832 106.033 196.768 106.491 196.768C107.025 196.768 107.502 196.853 107.923 197.024C108.35 197.189 108.718 197.419 109.027 197.712L108.707 198.232ZM120.896 200.744L119.096 196.08C119.042 195.941 118.986 195.781 118.928 195.6C118.869 195.413 118.813 195.216 118.76 195.008C118.648 195.44 118.533 195.8 118.416 196.088L116.616 200.744H120.896ZM124.128 205H122.928C122.789 205 122.677 204.965 122.592 204.896C122.506 204.827 122.442 204.739 122.4 204.632L121.328 201.864H116.184L115.112 204.632C115.08 204.728 115.018 204.813 114.928 204.888C114.837 204.963 114.725 205 114.592 205H113.392L117.976 193.536H119.544L124.128 205ZM126.484 199.968C126.484 198.827 126.337 197.717 126.044 196.64C125.756 195.563 125.332 194.539 124.772 193.568C124.729 193.488 124.703 193.419 124.692 193.36C124.681 193.296 124.684 193.243 124.7 193.2C124.716 193.152 124.74 193.112 124.772 193.08C124.809 193.043 124.849 193.011 124.892 192.984L125.524 192.592C125.924 193.211 126.263 193.821 126.54 194.424C126.823 195.027 127.049 195.632 127.22 196.24C127.396 196.843 127.524 197.453 127.604 198.072C127.684 198.691 127.724 199.323 127.724 199.968C127.724 200.619 127.684 201.253 127.604 201.872C127.524 202.485 127.396 203.096 127.22 203.704C127.049 204.312 126.823 204.917 126.54 205.52C126.263 206.123 125.924 206.731 125.524 207.344L124.892 206.96C124.849 206.933 124.809 206.901 124.772 206.864C124.74 206.832 124.716 206.792 124.7 206.744C124.684 206.701 124.681 206.648 124.692 206.584C124.703 206.52 124.729 206.448 124.772 206.368C125.332 205.397 125.756 204.373 126.044 203.296C126.337 202.219 126.484 201.109 126.484 199.968Z" fill="white"/>
<path d="M48.47 174.226C48.47 175.082 48.578 175.914 48.794 176.722C49.014 177.53 49.334 178.298 49.754 179.026C49.818 179.15 49.834 179.244 49.802 179.308C49.77 179.376 49.724 179.43 49.664 179.47L49.19 179.758C48.89 179.298 48.634 178.842 48.422 178.39C48.214 177.938 48.044 177.484 47.912 177.028C47.784 176.572 47.69 176.114 47.63 175.654C47.57 175.19 47.54 174.714 47.54 174.226C47.54 173.742 47.57 173.268 47.63 172.804C47.69 172.34 47.784 171.882 47.912 171.43C48.044 170.974 48.214 170.52 48.422 170.068C48.634 169.616 48.89 169.158 49.19 168.694L49.664 168.988C49.724 169.028 49.77 169.082 49.802 169.15C49.834 169.214 49.818 169.306 49.754 169.426C49.334 170.154 49.014 170.922 48.794 171.73C48.578 172.538 48.47 173.37 48.47 174.226ZM56.1212 176.986C56.2372 176.986 56.3292 177.02 56.3972 177.088C56.4652 177.156 56.4992 177.244 56.4992 177.352V178H50.7632V177.634C50.7632 177.558 50.7792 177.48 50.8112 177.4C50.8432 177.32 50.8932 177.246 50.9612 177.178L53.7152 174.412C53.9432 174.18 54.1512 173.958 54.3392 173.746C54.5272 173.53 54.6872 173.314 54.8192 173.098C54.9512 172.882 55.0532 172.664 55.1252 172.444C55.1972 172.22 55.2332 171.982 55.2332 171.73C55.2332 171.478 55.1932 171.258 55.1132 171.07C55.0332 170.878 54.9232 170.72 54.7832 170.596C54.6472 170.472 54.4852 170.38 54.2972 170.32C54.1092 170.256 53.9072 170.224 53.6912 170.224C53.4712 170.224 53.2692 170.256 53.0852 170.32C52.9012 170.384 52.7372 170.474 52.5932 170.59C52.4532 170.702 52.3352 170.836 52.2392 170.992C52.1432 171.148 52.0752 171.32 52.0352 171.508C51.9872 171.648 51.9212 171.742 51.8372 171.79C51.7572 171.834 51.6432 171.846 51.4952 171.826L50.9372 171.73C50.9932 171.338 51.1012 170.992 51.2612 170.692C51.4252 170.388 51.6292 170.134 51.8732 169.93C52.1212 169.726 52.4032 169.572 52.7192 169.468C53.0352 169.36 53.3772 169.306 53.7452 169.306C54.1092 169.306 54.4492 169.36 54.7652 169.468C55.0812 169.576 55.3552 169.734 55.5872 169.942C55.8192 170.146 56.0012 170.396 56.1332 170.692C56.2652 170.988 56.3312 171.324 56.3312 171.7C56.3312 172.02 56.2832 172.318 56.1872 172.594C56.0912 172.866 55.9612 173.126 55.7972 173.374C55.6332 173.622 55.4432 173.864 55.2272 174.1C55.0152 174.336 54.7892 174.574 54.5492 174.814L52.2812 177.13C52.4412 177.086 52.6032 177.052 52.7672 177.028C52.9312 177 53.0892 176.986 53.2412 176.986H56.1212ZM63.7602 173.704C63.7602 174.456 63.6782 175.108 63.5142 175.66C63.3542 176.208 63.1342 176.662 62.8542 177.022C62.5742 177.382 62.2422 177.65 61.8582 177.826C61.4782 178.002 61.0702 178.09 60.6342 178.09C60.1942 178.09 59.7842 178.002 59.4042 177.826C59.0282 177.65 58.7002 177.382 58.4202 177.022C58.1402 176.662 57.9202 176.208 57.7602 175.66C57.6002 175.108 57.5202 174.456 57.5202 173.704C57.5202 172.952 57.6002 172.3 57.7602 171.748C57.9202 171.196 58.1402 170.74 58.4202 170.38C58.7002 170.016 59.0282 169.746 59.4042 169.57C59.7842 169.394 60.1942 169.306 60.6342 169.306C61.0702 169.306 61.4782 169.394 61.8582 169.57C62.2422 169.746 62.5742 170.016 62.8542 170.38C63.1342 170.74 63.3542 171.196 63.5142 171.748C63.6782 172.3 63.7602 172.952 63.7602 173.704ZM62.6502 173.704C62.6502 173.048 62.5942 172.498 62.4822 172.054C62.3742 171.606 62.2262 171.246 62.0382 170.974C61.8542 170.702 61.6402 170.508 61.3962 170.392C61.1522 170.272 60.8982 170.212 60.6342 170.212C60.3702 170.212 60.1162 170.272 59.8722 170.392C59.6282 170.508 59.4142 170.702 59.2302 170.974C59.0462 171.246 58.8982 171.606 58.7862 172.054C58.6782 172.498 58.6242 173.048 58.6242 173.704C58.6242 174.36 58.6782 174.91 58.7862 175.354C58.8982 175.798 59.0462 176.156 59.2302 176.428C59.4142 176.7 59.6282 176.896 59.8722 177.016C60.1162 177.132 60.3702 177.19 60.6342 177.19C60.8982 177.19 61.1522 177.132 61.3962 177.016C61.6402 176.896 61.8542 176.7 62.0382 176.428C62.2262 176.156 62.3742 175.798 62.4822 175.354C62.5942 174.91 62.6502 174.36 62.6502 173.704ZM70.7211 173.704C70.7211 174.456 70.6391 175.108 70.4751 175.66C70.3151 176.208 70.0951 176.662 69.8151 177.022C69.5351 177.382 69.2031 177.65 68.8191 177.826C68.4391 178.002 68.0311 178.09 67.5951 178.09C67.1551 178.09 66.7451 178.002 66.3651 177.826C65.9891 177.65 65.6611 177.382 65.3811 177.022C65.1011 176.662 64.8811 176.208 64.7211 175.66C64.5611 175.108 64.4811 174.456 64.4811 173.704C64.4811 172.952 64.5611 172.3 64.7211 171.748C64.8811 171.196 65.1011 170.74 65.3811 170.38C65.6611 170.016 65.9891 169.746 66.3651 169.57C66.7451 169.394 67.1551 169.306 67.5951 169.306C68.0311 169.306 68.4391 169.394 68.8191 169.57C69.2031 169.746 69.5351 170.016 69.8151 170.38C70.0951 170.74 70.3151 171.196 70.4751 171.748C70.6391 172.3 70.7211 172.952 70.7211 173.704ZM69.6111 173.704C69.6111 173.048 69.5551 172.498 69.4431 172.054C69.3351 171.606 69.1871 171.246 68.9991 170.974C68.8151 170.702 68.6011 170.508 68.3571 170.392C68.1131 170.272 67.8591 170.212 67.5951 170.212C67.3311 170.212 67.0771 170.272 66.8331 170.392C66.5891 170.508 66.3751 170.702 66.1911 170.974C66.0071 171.246 65.8591 171.606 65.7471 172.054C65.6391 172.498 65.5851 173.048 65.5851 173.704C65.5851 174.36 65.6391 174.91 65.7471 175.354C65.8591 175.798 66.0071 176.156 66.1911 176.428C66.3751 176.7 66.5891 176.896 66.8331 177.016C67.0771 177.132 67.3311 177.19 67.5951 177.19C67.8591 177.19 68.1131 177.132 68.3571 177.016C68.6011 176.896 68.8151 176.7 68.9991 176.428C69.1871 176.156 69.3351 175.798 69.4431 175.354C69.5551 174.91 69.6111 174.36 69.6111 173.704ZM77.004 176.986C77.12 176.986 77.212 177.02 77.28 177.088C77.348 177.156 77.382 177.244 77.382 177.352V178H71.646V177.634C71.646 177.558 71.662 177.48 71.694 177.4C71.726 177.32 71.776 177.246 71.844 177.178L74.598 174.412C74.826 174.18 75.034 173.958 75.222 173.746C75.41 173.53 75.57 173.314 75.702 173.098C75.834 172.882 75.936 172.664 76.008 172.444C76.08 172.22 76.116 171.982 76.116 171.73C76.116 171.478 76.076 171.258 75.996 171.07C75.916 170.878 75.806 170.72 75.666 170.596C75.53 170.472 75.368 170.38 75.18 170.32C74.992 170.256 74.79 170.224 74.574 170.224C74.354 170.224 74.152 170.256 73.968 170.32C73.784 170.384 73.62 170.474 73.476 170.59C73.336 170.702 73.218 170.836 73.122 170.992C73.026 171.148 72.958 171.32 72.918 171.508C72.87 171.648 72.804 171.742 72.72 171.79C72.64 171.834 72.526 171.846 72.378 171.826L71.82 171.73C71.876 171.338 71.984 170.992 72.144 170.692C72.308 170.388 72.512 170.134 72.756 169.93C73.004 169.726 73.286 169.572 73.602 169.468C73.918 169.36 74.26 169.306 74.628 169.306C74.992 169.306 75.332 169.36 75.648 169.468C75.964 169.576 76.238 169.734 76.47 169.942C76.702 170.146 76.884 170.396 77.016 170.692C77.148 170.988 77.214 171.324 77.214 171.7C77.214 172.02 77.166 172.318 77.07 172.594C76.974 172.866 76.844 173.126 76.68 173.374C76.516 173.622 76.326 173.864 76.11 174.1C75.898 174.336 75.672 174.574 75.432 174.814L73.164 177.13C73.324 177.086 73.486 177.052 73.65 177.028C73.814 177 73.972 176.986 74.124 176.986H77.004ZM79.777 174.226C79.777 173.37 79.667 172.538 79.447 171.73C79.231 170.922 78.913 170.154 78.493 169.426C78.461 169.366 78.441 169.314 78.433 169.27C78.425 169.222 78.427 169.182 78.439 169.15C78.451 169.114 78.469 169.084 78.493 169.06C78.521 169.032 78.551 169.008 78.583 168.988L79.057 168.694C79.357 169.158 79.611 169.616 79.819 170.068C80.031 170.52 80.201 170.974 80.329 171.43C80.461 171.882 80.557 172.34 80.617 172.804C80.677 173.268 80.707 173.742 80.707 174.226C80.707 174.714 80.677 175.19 80.617 175.654C80.557 176.114 80.461 176.572 80.329 177.028C80.201 177.484 80.031 177.938 79.819 178.39C79.611 178.842 79.357 179.298 79.057 179.758L78.583 179.47C78.551 179.45 78.521 179.426 78.493 179.398C78.469 179.374 78.451 179.344 78.439 179.308C78.427 179.276 78.425 179.236 78.433 179.188C78.441 179.14 78.461 179.086 78.493 179.026C78.913 178.298 79.231 177.53 79.447 176.722C79.667 175.914 79.777 175.082 79.777 174.226Z" fill="white"/>
<path d="M373.47 174.226C373.47 175.082 373.578 175.914 373.794 176.722C374.014 177.53 374.334 178.298 374.754 179.026C374.818 179.15 374.834 179.244 374.802 179.308C374.77 179.376 374.724 179.43 374.664 179.47L374.19 179.758C373.89 179.298 373.634 178.842 373.422 178.39C373.214 177.938 373.044 177.484 372.912 177.028C372.784 176.572 372.69 176.114 372.63 175.654C372.57 175.19 372.54 174.714 372.54 174.226C372.54 173.742 372.57 173.268 372.63 172.804C372.69 172.34 372.784 171.882 372.912 171.43C373.044 170.974 373.214 170.52 373.422 170.068C373.634 169.616 373.89 169.158 374.19 168.694L374.664 168.988C374.724 169.028 374.77 169.082 374.802 169.15C374.834 169.214 374.818 169.306 374.754 169.426C374.334 170.154 374.014 170.922 373.794 171.73C373.578 172.538 373.47 173.37 373.47 174.226ZM381.121 176.986C381.237 176.986 381.329 177.02 381.397 177.088C381.465 177.156 381.499 177.244 381.499 177.352V178H375.763V177.634C375.763 177.558 375.779 177.48 375.811 177.4C375.843 177.32 375.893 177.246 375.961 177.178L378.715 174.412C378.943 174.18 379.151 173.958 379.339 173.746C379.527 173.53 379.687 173.314 379.819 173.098C379.951 172.882 380.053 172.664 380.125 172.444C380.197 172.22 380.233 171.982 380.233 171.73C380.233 171.478 380.193 171.258 380.113 171.07C380.033 170.878 379.923 170.72 379.783 170.596C379.647 170.472 379.485 170.38 379.297 170.32C379.109 170.256 378.907 170.224 378.691 170.224C378.471 170.224 378.269 170.256 378.085 170.32C377.901 170.384 377.737 170.474 377.593 170.59C377.453 170.702 377.335 170.836 377.239 170.992C377.143 171.148 377.075 171.32 377.035 171.508C376.987 171.648 376.921 171.742 376.837 171.79C376.757 171.834 376.643 171.846 376.495 171.826L375.937 171.73C375.993 171.338 376.101 170.992 376.261 170.692C376.425 170.388 376.629 170.134 376.873 169.93C377.121 169.726 377.403 169.572 377.719 169.468C378.035 169.36 378.377 169.306 378.745 169.306C379.109 169.306 379.449 169.36 379.765 169.468C380.081 169.576 380.355 169.734 380.587 169.942C380.819 170.146 381.001 170.396 381.133 170.692C381.265 170.988 381.331 171.324 381.331 171.7C381.331 172.02 381.283 172.318 381.187 172.594C381.091 172.866 380.961 173.126 380.797 173.374C380.633 173.622 380.443 173.864 380.227 174.1C380.015 174.336 379.789 174.574 379.549 174.814L377.281 177.13C377.441 177.086 377.603 177.052 377.767 177.028C377.931 177 378.089 176.986 378.241 176.986H381.121ZM388.76 173.704C388.76 174.456 388.678 175.108 388.514 175.66C388.354 176.208 388.134 176.662 387.854 177.022C387.574 177.382 387.242 177.65 386.858 177.826C386.478 178.002 386.07 178.09 385.634 178.09C385.194 178.09 384.784 178.002 384.404 177.826C384.028 177.65 383.7 177.382 383.42 177.022C383.14 176.662 382.92 176.208 382.76 175.66C382.6 175.108 382.52 174.456 382.52 173.704C382.52 172.952 382.6 172.3 382.76 171.748C382.92 171.196 383.14 170.74 383.42 170.38C383.7 170.016 384.028 169.746 384.404 169.57C384.784 169.394 385.194 169.306 385.634 169.306C386.07 169.306 386.478 169.394 386.858 169.57C387.242 169.746 387.574 170.016 387.854 170.38C388.134 170.74 388.354 171.196 388.514 171.748C388.678 172.3 388.76 172.952 388.76 173.704ZM387.65 173.704C387.65 173.048 387.594 172.498 387.482 172.054C387.374 171.606 387.226 171.246 387.038 170.974C386.854 170.702 386.64 170.508 386.396 170.392C386.152 170.272 385.898 170.212 385.634 170.212C385.37 170.212 385.116 170.272 384.872 170.392C384.628 170.508 384.414 170.702 384.23 170.974C384.046 171.246 383.898 171.606 383.786 172.054C383.678 172.498 383.624 173.048 383.624 173.704C383.624 174.36 383.678 174.91 383.786 175.354C383.898 175.798 384.046 176.156 384.23 176.428C384.414 176.7 384.628 176.896 384.872 177.016C385.116 177.132 385.37 177.19 385.634 177.19C385.898 177.19 386.152 177.132 386.396 177.016C386.64 176.896 386.854 176.7 387.038 176.428C387.226 176.156 387.374 175.798 387.482 175.354C387.594 174.91 387.65 174.36 387.65 173.704ZM395.043 176.986C395.159 176.986 395.251 177.02 395.319 177.088C395.387 177.156 395.421 177.244 395.421 177.352V178H389.685V177.634C389.685 177.558 389.701 177.48 389.733 177.4C389.765 177.32 389.815 177.246 389.883 177.178L392.637 174.412C392.865 174.18 393.073 173.958 393.261 173.746C393.449 173.53 393.609 173.314 393.741 173.098C393.873 172.882 393.975 172.664 394.047 172.444C394.119 172.22 394.155 171.982 394.155 171.73C394.155 171.478 394.115 171.258 394.035 171.07C393.955 170.878 393.845 170.72 393.705 170.596C393.569 170.472 393.407 170.38 393.219 170.32C393.031 170.256 392.829 170.224 392.613 170.224C392.393 170.224 392.191 170.256 392.007 170.32C391.823 170.384 391.659 170.474 391.515 170.59C391.375 170.702 391.257 170.836 391.161 170.992C391.065 171.148 390.997 171.32 390.957 171.508C390.909 171.648 390.843 171.742 390.759 171.79C390.679 171.834 390.565 171.846 390.417 171.826L389.859 171.73C389.915 171.338 390.023 170.992 390.183 170.692C390.347 170.388 390.551 170.134 390.795 169.93C391.043 169.726 391.325 169.572 391.641 169.468C391.957 169.36 392.299 169.306 392.667 169.306C393.031 169.306 393.371 169.36 393.687 169.468C394.003 169.576 394.277 169.734 394.509 169.942C394.741 170.146 394.923 170.396 395.055 170.692C395.187 170.988 395.253 171.324 395.253 171.7C395.253 172.02 395.205 172.318 395.109 172.594C395.013 172.866 394.883 173.126 394.719 173.374C394.555 173.622 394.365 173.864 394.149 174.1C393.937 174.336 393.711 174.574 393.471 174.814L391.203 177.13C391.363 177.086 391.525 177.052 391.689 177.028C391.853 177 392.011 176.986 392.163 176.986H395.043ZM402.19 177.184V178H397.582V177.184H399.424V171.322C399.424 171.146 399.43 170.968 399.442 170.788L397.912 172.102C397.86 172.146 397.808 172.174 397.756 172.186C397.704 172.194 397.656 172.194 397.612 172.186C397.568 172.178 397.526 172.162 397.486 172.138C397.45 172.114 397.422 172.088 397.402 172.06L397.066 171.598L399.628 169.384H400.498V177.184H402.19ZM404.777 174.226C404.777 173.37 404.667 172.538 404.447 171.73C404.231 170.922 403.913 170.154 403.493 169.426C403.461 169.366 403.441 169.314 403.433 169.27C403.425 169.222 403.427 169.182 403.439 169.15C403.451 169.114 403.469 169.084 403.493 169.06C403.521 169.032 403.551 169.008 403.583 168.988L404.057 168.694C404.357 169.158 404.611 169.616 404.819 170.068C405.031 170.52 405.201 170.974 405.329 171.43C405.461 171.882 405.557 172.34 405.617 172.804C405.677 173.268 405.707 173.742 405.707 174.226C405.707 174.714 405.677 175.19 405.617 175.654C405.557 176.114 405.461 176.572 405.329 177.028C405.201 177.484 405.031 177.938 404.819 178.39C404.611 178.842 404.357 179.298 404.057 179.758L403.583 179.47C403.551 179.45 403.521 179.426 403.493 179.398C403.469 179.374 403.451 179.344 403.439 179.308C403.427 179.276 403.425 179.236 403.433 179.188C403.441 179.14 403.461 179.086 403.493 179.026C403.913 178.298 404.231 177.53 404.447 176.722C404.667 175.914 404.777 175.082 404.777 174.226Z" fill="white"/>
<path d="M371.334 16.864C371.931 16.736 372.48 16.672 372.982 16.672C373.579 16.672 374.107 16.76 374.566 16.936C375.024 17.112 375.406 17.3547 375.71 17.664C376.019 17.9733 376.251 18.3387 376.406 18.76C376.566 19.1813 376.646 19.64 376.646 20.136C376.646 20.744 376.539 21.2933 376.326 21.784C376.118 22.2747 375.827 22.696 375.454 23.048C375.086 23.3947 374.651 23.6613 374.15 23.848C373.648 24.0347 373.107 24.128 372.526 24.128C372.19 24.128 371.867 24.0933 371.558 24.024C371.248 23.96 370.958 23.872 370.686 23.76C370.419 23.648 370.171 23.52 369.942 23.376C369.712 23.232 369.51 23.08 369.334 22.92L369.774 22.312C369.87 22.1733 369.995 22.104 370.15 22.104C370.256 22.104 370.376 22.1467 370.51 22.232C370.643 22.312 370.806 22.4027 370.998 22.504C371.19 22.6053 371.414 22.6987 371.67 22.784C371.931 22.864 372.24 22.904 372.598 22.904C372.998 22.904 373.358 22.84 373.678 22.712C373.998 22.584 374.272 22.4027 374.502 22.168C374.731 21.928 374.907 21.6427 375.03 21.312C375.152 20.9813 375.214 20.6107 375.214 20.2C375.214 19.8427 375.16 19.52 375.054 19.232C374.952 18.944 374.795 18.6987 374.582 18.496C374.374 18.2933 374.112 18.136 373.798 18.024C373.483 17.912 373.115 17.856 372.694 17.856C372.406 17.856 372.104 17.88 371.79 17.928C371.48 17.976 371.163 18.0533 370.838 18.16L369.942 17.896L370.862 12.536H376.294V13.16C376.294 13.3627 376.23 13.5307 376.102 13.664C375.979 13.792 375.766 13.856 375.462 13.856H371.862L371.334 16.864ZM382.343 22.944C382.727 22.944 383.073 22.8827 383.383 22.76C383.697 22.6373 383.964 22.4667 384.183 22.248C384.407 22.0293 384.577 21.7707 384.695 21.472C384.817 21.1733 384.879 20.848 384.879 20.496C384.879 20.1227 384.82 19.7867 384.703 19.488C384.585 19.184 384.417 18.928 384.199 18.72C383.985 18.5067 383.729 18.344 383.431 18.232C383.132 18.12 382.804 18.064 382.447 18.064C382.063 18.064 381.716 18.1307 381.407 18.264C381.097 18.392 380.833 18.568 380.615 18.792C380.401 19.0107 380.236 19.2667 380.119 19.56C380.007 19.848 379.951 20.1493 379.951 20.464C379.951 20.832 380.004 21.168 380.111 21.472C380.217 21.776 380.372 22.0373 380.575 22.256C380.783 22.4747 381.033 22.6453 381.327 22.768C381.625 22.8853 381.964 22.944 382.343 22.944ZM381.511 16.832C381.409 16.96 381.311 17.0853 381.215 17.208C381.124 17.3253 381.036 17.4427 380.951 17.56C381.223 17.3733 381.521 17.2293 381.847 17.128C382.172 17.0267 382.527 16.976 382.911 16.976C383.375 16.976 383.812 17.0533 384.223 17.208C384.633 17.3573 384.991 17.5787 385.295 17.872C385.604 18.16 385.849 18.5173 386.031 18.944C386.212 19.3653 386.303 19.848 386.303 20.392C386.303 20.92 386.207 21.4107 386.015 21.864C385.823 22.3173 385.553 22.712 385.207 23.048C384.865 23.384 384.452 23.648 383.967 23.84C383.487 24.032 382.956 24.128 382.375 24.128C381.799 24.128 381.276 24.0373 380.807 23.856C380.337 23.6693 379.937 23.408 379.607 23.072C379.281 22.7307 379.028 22.32 378.847 21.84C378.671 21.3547 378.583 20.8133 378.583 20.216C378.583 19.7147 378.692 19.1813 378.911 18.616C379.135 18.0453 379.489 17.4373 379.975 16.792L382.887 12.88C382.961 12.784 383.063 12.704 383.191 12.64C383.324 12.5707 383.476 12.536 383.647 12.536H384.911L381.511 16.832ZM395.8 18.272C395.8 19.2747 395.691 20.144 395.472 20.88C395.259 21.6107 394.965 22.216 394.592 22.696C394.219 23.176 393.776 23.5333 393.264 23.768C392.757 24.0027 392.213 24.12 391.632 24.12C391.045 24.12 390.499 24.0027 389.992 23.768C389.491 23.5333 389.053 23.176 388.68 22.696C388.307 22.216 388.013 21.6107 387.8 20.88C387.587 20.144 387.48 19.2747 387.48 18.272C387.48 17.2693 387.587 16.4 387.8 15.664C388.013 14.928 388.307 14.32 388.68 13.84C389.053 13.3547 389.491 12.9947 389.992 12.76C390.499 12.5253 391.045 12.408 391.632 12.408C392.213 12.408 392.757 12.5253 393.264 12.76C393.776 12.9947 394.219 13.3547 394.592 13.84C394.965 14.32 395.259 14.928 395.472 15.664C395.691 16.4 395.8 17.2693 395.8 18.272ZM394.32 18.272C394.32 17.3973 394.245 16.664 394.096 16.072C393.952 15.4747 393.755 14.9947 393.504 14.632C393.259 14.2693 392.973 14.0107 392.648 13.856C392.323 13.696 391.984 13.616 391.632 13.616C391.28 13.616 390.941 13.696 390.616 13.856C390.291 14.0107 390.005 14.2693 389.76 14.632C389.515 14.9947 389.317 15.4747 389.168 16.072C389.024 16.664 388.952 17.3973 388.952 18.272C388.952 19.1467 389.024 19.88 389.168 20.472C389.317 21.064 389.515 21.5413 389.76 21.904C390.005 22.2667 390.291 22.528 390.616 22.688C390.941 22.8427 391.28 22.92 391.632 22.92C391.984 22.92 392.323 22.8427 392.648 22.688C392.973 22.528 393.259 22.2667 393.504 21.904C393.755 21.5413 393.952 21.064 394.096 20.472C394.245 19.88 394.32 19.1467 394.32 18.272ZM397.169 23.12C397.169 22.9813 397.193 22.8507 397.241 22.728C397.295 22.6053 397.364 22.4987 397.449 22.408C397.54 22.3173 397.647 22.2453 397.769 22.192C397.892 22.1387 398.023 22.112 398.161 22.112C398.3 22.112 398.431 22.1387 398.553 22.192C398.676 22.2453 398.783 22.3173 398.873 22.408C398.964 22.4987 399.036 22.6053 399.089 22.728C399.143 22.8507 399.169 22.9813 399.169 23.12C399.169 23.264 399.143 23.3973 399.089 23.52C399.036 23.6373 398.964 23.7413 398.873 23.832C398.783 23.9227 398.676 23.992 398.553 24.04C398.431 24.0933 398.3 24.12 398.161 24.12C398.023 24.12 397.892 24.0933 397.769 24.04C397.647 23.992 397.54 23.9227 397.449 23.832C397.364 23.7413 397.295 23.6373 397.241 23.52C397.193 23.3973 397.169 23.264 397.169 23.12ZM408.863 18.272C408.863 19.2747 408.753 20.144 408.535 20.88C408.321 21.6107 408.028 22.216 407.655 22.696C407.281 23.176 406.839 23.5333 406.327 23.768C405.82 24.0027 405.276 24.12 404.695 24.12C404.108 24.12 403.561 24.0027 403.055 23.768C402.553 23.5333 402.116 23.176 401.743 22.696C401.369 22.216 401.076 21.6107 400.863 20.88C400.649 20.144 400.543 19.2747 400.543 18.272C400.543 17.2693 400.649 16.4 400.863 15.664C401.076 14.928 401.369 14.32 401.743 13.84C402.116 13.3547 402.553 12.9947 403.055 12.76C403.561 12.5253 404.108 12.408 404.695 12.408C405.276 12.408 405.82 12.5253 406.327 12.76C406.839 12.9947 407.281 13.3547 407.655 13.84C408.028 14.32 408.321 14.928 408.535 15.664C408.753 16.4 408.863 17.2693 408.863 18.272ZM407.383 18.272C407.383 17.3973 407.308 16.664 407.159 16.072C407.015 15.4747 406.817 14.9947 406.567 14.632C406.321 14.2693 406.036 14.0107 405.711 13.856C405.385 13.696 405.047 13.616 404.695 13.616C404.343 13.616 404.004 13.696 403.679 13.856C403.353 14.0107 403.068 14.2693 402.823 14.632C402.577 14.9947 402.38 15.4747 402.231 16.072C402.087 16.664 402.015 17.3973 402.015 18.272C402.015 19.1467 402.087 19.88 402.231 20.472C402.38 21.064 402.577 21.5413 402.823 21.904C403.068 22.2667 403.353 22.528 403.679 22.688C404.004 22.8427 404.343 22.92 404.695 22.92C405.047 22.92 405.385 22.8427 405.711 22.688C406.036 22.528 406.321 22.2667 406.567 21.904C406.817 21.5413 407.015 21.064 407.159 20.472C407.308 19.88 407.383 19.1467 407.383 18.272ZM418.144 18.272C418.144 19.2747 418.034 20.144 417.816 20.88C417.602 21.6107 417.309 22.216 416.936 22.696C416.562 23.176 416.12 23.5333 415.608 23.768C415.101 24.0027 414.557 24.12 413.976 24.12C413.389 24.12 412.842 24.0027 412.336 23.768C411.834 23.5333 411.397 23.176 411.024 22.696C410.65 22.216 410.357 21.6107 410.144 20.88C409.93 20.144 409.824 19.2747 409.824 18.272C409.824 17.2693 409.93 16.4 410.144 15.664C410.357 14.928 410.65 14.32 411.024 13.84C411.397 13.3547 411.834 12.9947 412.336 12.76C412.842 12.5253 413.389 12.408 413.976 12.408C414.557 12.408 415.101 12.5253 415.608 12.76C416.12 12.9947 416.562 13.3547 416.936 13.84C417.309 14.32 417.602 14.928 417.816 15.664C418.034 16.4 418.144 17.2693 418.144 18.272ZM416.664 18.272C416.664 17.3973 416.589 16.664 416.44 16.072C416.296 15.4747 416.098 14.9947 415.848 14.632C415.602 14.2693 415.317 14.0107 414.992 13.856C414.666 13.696 414.328 13.616 413.976 13.616C413.624 13.616 413.285 13.696 412.96 13.856C412.634 14.0107 412.349 14.2693 412.104 14.632C411.858 14.9947 411.661 15.4747 411.512 16.072C411.368 16.664 411.296 17.3973 411.296 18.272C411.296 19.1467 411.368 19.88 411.512 20.472C411.661 21.064 411.858 21.5413 412.104 21.904C412.349 22.2667 412.634 22.528 412.96 22.688C413.285 22.8427 413.624 22.92 413.976 22.92C414.328 22.92 414.666 22.8427 414.992 22.688C415.317 22.528 415.602 22.2667 415.848 21.904C416.098 21.5413 416.296 21.064 416.44 20.472C416.589 19.88 416.664 19.1467 416.664 18.272ZM427.623 22.904C427.975 22.872 428.284 22.7973 428.551 22.68C428.817 22.5573 429.041 22.4027 429.223 22.216C429.409 22.0293 429.548 21.8133 429.639 21.568C429.735 21.3173 429.783 21.0427 429.783 20.744C429.783 20.4773 429.732 20.248 429.631 20.056C429.535 19.864 429.401 19.6987 429.231 19.56C429.06 19.416 428.86 19.296 428.631 19.2C428.401 19.0987 428.156 19.0053 427.895 18.92L427.623 22.904ZM427.359 13.656C427.012 13.688 426.711 13.7573 426.455 13.864C426.204 13.9707 425.996 14.104 425.831 14.264C425.665 14.424 425.543 14.6053 425.463 14.808C425.383 15.0053 425.343 15.2133 425.343 15.432C425.343 15.688 425.388 15.912 425.479 16.104C425.569 16.2907 425.695 16.456 425.855 16.6C426.015 16.744 426.201 16.8693 426.415 16.976C426.628 17.0827 426.86 17.1787 427.111 17.264L427.359 13.656ZM427.991 17.544C428.375 17.6667 428.753 17.7973 429.127 17.936C429.5 18.0747 429.836 18.2533 430.135 18.472C430.433 18.6907 430.673 18.9653 430.855 19.296C431.041 19.6213 431.135 20.0293 431.135 20.52C431.135 21 431.055 21.4507 430.895 21.872C430.735 22.2933 430.5 22.664 430.191 22.984C429.887 23.304 429.511 23.5653 429.063 23.768C428.62 23.9653 428.113 24.0827 427.543 24.12L427.447 25.52C427.441 25.6213 427.401 25.7093 427.327 25.784C427.252 25.864 427.159 25.904 427.047 25.904H426.519L426.639 24.104C425.993 24.04 425.404 23.88 424.871 23.624C424.343 23.3627 423.887 23.032 423.503 22.632L423.935 21.976C423.977 21.9173 424.031 21.8693 424.095 21.832C424.159 21.7947 424.228 21.776 424.303 21.776C424.404 21.776 424.519 21.8267 424.647 21.928C424.775 22.0293 424.932 22.144 425.119 22.272C425.311 22.4 425.535 22.5253 425.791 22.648C426.052 22.7707 426.364 22.8533 426.727 22.896L427.015 18.648C426.641 18.536 426.273 18.4107 425.911 18.272C425.553 18.1333 425.231 17.9493 424.943 17.72C424.66 17.4907 424.431 17.2053 424.255 16.864C424.084 16.5227 423.999 16.0933 423.999 15.576C423.999 15.1867 424.073 14.808 424.223 14.44C424.377 14.0667 424.601 13.736 424.895 13.448C425.188 13.16 425.548 12.9253 425.975 12.744C426.401 12.5573 426.889 12.4533 427.439 12.432L427.519 11.28C427.524 11.1787 427.561 11.088 427.631 11.008C427.705 10.928 427.801 10.888 427.919 10.888H428.447L428.343 12.464C428.897 12.5333 429.377 12.6773 429.783 12.896C430.193 13.1147 430.556 13.3813 430.871 13.696L430.527 14.224C430.42 14.384 430.297 14.464 430.159 14.464C430.084 14.464 429.991 14.432 429.879 14.368C429.772 14.2987 429.641 14.2187 429.487 14.128C429.337 14.0373 429.159 13.9493 428.951 13.864C428.748 13.7787 428.516 13.7147 428.255 13.672L427.991 17.544Z" fill="white"/>
<path d="M49.144 86.912V88H43V86.912H45.456V79.096C45.456 78.8613 45.464 78.624 45.48 78.384L43.44 80.136C43.3707 80.1947 43.3013 80.232 43.232 80.248C43.1627 80.2587 43.0987 80.2587 43.04 80.248C42.9813 80.2373 42.9253 80.216 42.872 80.184C42.824 80.152 42.7867 80.1173 42.76 80.08L42.312 79.464L45.728 76.512H46.888V86.912H49.144ZM51.1693 87.12C51.1693 86.9813 51.1933 86.8507 51.2413 86.728C51.2946 86.6053 51.3639 86.4987 51.4493 86.408C51.5399 86.3173 51.6466 86.2453 51.7693 86.192C51.8919 86.1387 52.0226 86.112 52.1613 86.112C52.2999 86.112 52.4306 86.1387 52.5533 86.192C52.6759 86.2453 52.7826 86.3173 52.8733 86.408C52.9639 86.4987 53.0359 86.6053 53.0893 86.728C53.1426 86.8507 53.1693 86.9813 53.1693 87.12C53.1693 87.264 53.1426 87.3973 53.0893 87.52C53.0359 87.6373 52.9639 87.7413 52.8733 87.832C52.7826 87.9227 52.6759 87.992 52.5533 88.04C52.4306 88.0933 52.2999 88.12 52.1613 88.12C52.0226 88.12 51.8919 88.0933 51.7693 88.04C51.6466 87.992 51.5399 87.9227 51.4493 87.832C51.3639 87.7413 51.2946 87.6373 51.2413 87.52C51.1933 87.3973 51.1693 87.264 51.1693 87.12ZM62.8625 82.272C62.8625 83.2747 62.7532 84.144 62.5345 84.88C62.3212 85.6107 62.0278 86.216 61.6545 86.696C61.2812 87.176 60.8385 87.5333 60.3265 87.768C59.8198 88.0027 59.2758 88.12 58.6945 88.12C58.1078 88.12 57.5612 88.0027 57.0545 87.768C56.5532 87.5333 56.1158 87.176 55.7425 86.696C55.3692 86.216 55.0758 85.6107 54.8625 84.88C54.6492 84.144 54.5425 83.2747 54.5425 82.272C54.5425 81.2693 54.6492 80.4 54.8625 79.664C55.0758 78.928 55.3692 78.32 55.7425 77.84C56.1158 77.3547 56.5532 76.9947 57.0545 76.76C57.5612 76.5253 58.1078 76.408 58.6945 76.408C59.2758 76.408 59.8198 76.5253 60.3265 76.76C60.8385 76.9947 61.2812 77.3547 61.6545 77.84C62.0278 78.32 62.3212 78.928 62.5345 79.664C62.7532 80.4 62.8625 81.2693 62.8625 82.272ZM61.3825 82.272C61.3825 81.3973 61.3078 80.664 61.1585 80.072C61.0145 79.4747 60.8172 78.9947 60.5665 78.632C60.3212 78.2693 60.0358 78.0107 59.7105 77.856C59.3852 77.696 59.0465 77.616 58.6945 77.616C58.3425 77.616 58.0038 77.696 57.6785 77.856C57.3532 78.0107 57.0678 78.2693 56.8225 78.632C56.5772 78.9947 56.3798 79.4747 56.2305 80.072C56.0865 80.664 56.0145 81.3973 56.0145 82.272C56.0145 83.1467 56.0865 83.88 56.2305 84.472C56.3798 85.064 56.5772 85.5413 56.8225 85.904C57.0678 86.2667 57.3532 86.528 57.6785 86.688C58.0038 86.8427 58.3425 86.92 58.6945 86.92C59.0465 86.92 59.3852 86.8427 59.7105 86.688C60.0358 86.528 60.3212 86.2667 60.5665 85.904C60.8172 85.5413 61.0145 85.064 61.1585 84.472C61.3078 83.88 61.3825 83.1467 61.3825 82.272ZM72.1438 82.272C72.1438 83.2747 72.0344 84.144 71.8158 84.88C71.6024 85.6107 71.3091 86.216 70.9358 86.696C70.5624 87.176 70.1198 87.5333 69.6078 87.768C69.1011 88.0027 68.5571 88.12 67.9758 88.12C67.3891 88.12 66.8424 88.0027 66.3358 87.768C65.8344 87.5333 65.3971 87.176 65.0238 86.696C64.6504 86.216 64.3571 85.6107 64.1438 84.88C63.9304 84.144 63.8238 83.2747 63.8238 82.272C63.8238 81.2693 63.9304 80.4 64.1438 79.664C64.3571 78.928 64.6504 78.32 65.0238 77.84C65.3971 77.3547 65.8344 76.9947 66.3358 76.76C66.8424 76.5253 67.3891 76.408 67.9758 76.408C68.5571 76.408 69.1011 76.5253 69.6078 76.76C70.1198 76.9947 70.5624 77.3547 70.9358 77.84C71.3091 78.32 71.6024 78.928 71.8158 79.664C72.0344 80.4 72.1438 81.2693 72.1438 82.272ZM70.6638 82.272C70.6638 81.3973 70.5891 80.664 70.4398 80.072C70.2958 79.4747 70.0984 78.9947 69.8478 78.632C69.6024 78.2693 69.3171 78.0107 68.9918 77.856C68.6664 77.696 68.3278 77.616 67.9758 77.616C67.6238 77.616 67.2851 77.696 66.9598 77.856C66.6344 78.0107 66.3491 78.2693 66.1038 78.632C65.8584 78.9947 65.6611 79.4747 65.5118 80.072C65.3678 80.664 65.2958 81.3973 65.2958 82.272C65.2958 83.1467 65.3678 83.88 65.5118 84.472C65.6611 85.064 65.8584 85.5413 66.1038 85.904C66.3491 86.2667 66.6344 86.528 66.9598 86.688C67.2851 86.8427 67.6238 86.92 67.9758 86.92C68.3278 86.92 68.6664 86.8427 68.9918 86.688C69.3171 86.528 69.6024 86.2667 69.8478 85.904C70.0984 85.5413 70.2958 85.064 70.4398 84.472C70.5891 83.88 70.6638 83.1467 70.6638 82.272ZM81.6228 86.904C81.9748 86.872 82.2841 86.7973 82.5508 86.68C82.8174 86.5573 83.0414 86.4027 83.2228 86.216C83.4094 86.0293 83.5481 85.8133 83.6388 85.568C83.7348 85.3173 83.7828 85.0427 83.7828 84.744C83.7828 84.4773 83.7321 84.248 83.6308 84.056C83.5348 83.864 83.4014 83.6987 83.2308 83.56C83.0601 83.416 82.8601 83.296 82.6308 83.2C82.4014 83.0987 82.1561 83.0053 81.8948 82.92L81.6228 86.904ZM81.3588 77.656C81.0121 77.688 80.7108 77.7573 80.4548 77.864C80.2041 77.9707 79.9961 78.104 79.8308 78.264C79.6654 78.424 79.5428 78.6053 79.4628 78.808C79.3828 79.0053 79.3428 79.2133 79.3428 79.432C79.3428 79.688 79.3881 79.912 79.4788 80.104C79.5694 80.2907 79.6948 80.456 79.8548 80.6C80.0148 80.744 80.2014 80.8693 80.4148 80.976C80.6281 81.0827 80.8601 81.1787 81.1108 81.264L81.3588 77.656ZM81.9908 81.544C82.3748 81.6667 82.7534 81.7973 83.1268 81.936C83.5001 82.0747 83.8361 82.2533 84.1348 82.472C84.4334 82.6907 84.6734 82.9653 84.8548 83.296C85.0414 83.6213 85.1348 84.0293 85.1348 84.52C85.1348 85 85.0548 85.4507 84.8948 85.872C84.7348 86.2933 84.5001 86.664 84.1908 86.984C83.8868 87.304 83.5108 87.5653 83.0628 87.768C82.6201 87.9653 82.1134 88.0827 81.5428 88.12L81.4468 89.52C81.4414 89.6213 81.4014 89.7093 81.3268 89.784C81.2521 89.864 81.1588 89.904 81.0468 89.904H80.5188L80.6388 88.104C79.9934 88.04 79.4041 87.88 78.8708 87.624C78.3428 87.3627 77.8868 87.032 77.5028 86.632L77.9348 85.976C77.9774 85.9173 78.0308 85.8693 78.0948 85.832C78.1588 85.7947 78.2281 85.776 78.3028 85.776C78.4041 85.776 78.5188 85.8267 78.6468 85.928C78.7748 86.0293 78.9321 86.144 79.1188 86.272C79.3108 86.4 79.5348 86.5253 79.7908 86.648C80.0521 86.7707 80.3641 86.8533 80.7268 86.896L81.0148 82.648C80.6414 82.536 80.2734 82.4107 79.9108 82.272C79.5534 82.1333 79.2308 81.9493 78.9428 81.72C78.6601 81.4907 78.4308 81.2053 78.2548 80.864C78.0841 80.5227 77.9988 80.0933 77.9988 79.576C77.9988 79.1867 78.0734 78.808 78.2228 78.44C78.3774 78.0667 78.6014 77.736 78.8948 77.448C79.1881 77.16 79.5481 76.9253 79.9748 76.744C80.4014 76.5573 80.8894 76.4533 81.4388 76.432L81.5188 75.28C81.5241 75.1787 81.5614 75.088 81.6308 75.008C81.7054 74.928 81.8014 74.888 81.9188 74.888H82.4468L82.3428 76.464C82.8974 76.5333 83.3774 76.6773 83.7828 76.896C84.1934 77.1147 84.5561 77.3813 84.8708 77.696L84.5268 78.224C84.4201 78.384 84.2974 78.464 84.1588 78.464C84.0841 78.464 83.9908 78.432 83.8788 78.368C83.7721 78.2987 83.6414 78.2187 83.4868 78.128C83.3374 78.0373 83.1588 77.9493 82.9508 77.864C82.7481 77.7787 82.5161 77.7147 82.2548 77.672L81.9908 81.544Z" fill="white"/>
<path d="M183.72 126.752H178.824V131.912H177.084V126.752H172.212V125.132H177.084V120.008H178.824V125.132H183.72V126.752ZM195.407 123.296C196.303 123.104 197.127 123.008 197.879 123.008C198.775 123.008 199.567 123.14 200.255 123.404C200.943 123.668 201.515 124.032 201.971 124.496C202.435 124.96 202.783 125.508 203.015 126.14C203.255 126.772 203.375 127.46 203.375 128.204C203.375 129.116 203.215 129.94 202.895 130.676C202.583 131.412 202.147 132.044 201.587 132.572C201.035 133.092 200.383 133.492 199.631 133.772C198.879 134.052 198.067 134.192 197.195 134.192C196.691 134.192 196.207 134.14 195.743 134.036C195.279 133.94 194.843 133.808 194.435 133.64C194.035 133.472 193.663 133.28 193.319 133.064C192.975 132.848 192.671 132.62 192.407 132.38L193.067 131.468C193.211 131.26 193.399 131.156 193.631 131.156C193.791 131.156 193.971 131.22 194.171 131.348C194.371 131.468 194.615 131.604 194.903 131.756C195.191 131.908 195.527 132.048 195.911 132.176C196.303 132.296 196.767 132.356 197.303 132.356C197.903 132.356 198.443 132.26 198.923 132.068C199.403 131.876 199.815 131.604 200.159 131.252C200.503 130.892 200.767 130.464 200.951 129.968C201.135 129.472 201.227 128.916 201.227 128.3C201.227 127.764 201.147 127.28 200.987 126.848C200.835 126.416 200.599 126.048 200.279 125.744C199.967 125.44 199.575 125.204 199.103 125.036C198.631 124.868 198.079 124.784 197.447 124.784C197.015 124.784 196.563 124.82 196.091 124.892C195.627 124.964 195.151 125.08 194.663 125.24L193.319 124.844L194.699 116.804H202.847V117.74C202.847 118.044 202.751 118.296 202.559 118.496C202.375 118.688 202.055 118.784 201.599 118.784H196.199L195.407 123.296ZM209.328 123.296C210.224 123.104 211.048 123.008 211.8 123.008C212.696 123.008 213.488 123.14 214.176 123.404C214.864 123.668 215.436 124.032 215.892 124.496C216.356 124.96 216.704 125.508 216.936 126.14C217.176 126.772 217.296 127.46 217.296 128.204C217.296 129.116 217.136 129.94 216.816 130.676C216.504 131.412 216.068 132.044 215.508 132.572C214.956 133.092 214.304 133.492 213.552 133.772C212.8 134.052 211.988 134.192 211.116 134.192C210.612 134.192 210.128 134.14 209.664 134.036C209.2 133.94 208.764 133.808 208.356 133.64C207.956 133.472 207.584 133.28 207.24 133.064C206.896 132.848 206.592 132.62 206.328 132.38L206.988 131.468C207.132 131.26 207.32 131.156 207.552 131.156C207.712 131.156 207.892 131.22 208.092 131.348C208.292 131.468 208.536 131.604 208.824 131.756C209.112 131.908 209.448 132.048 209.832 132.176C210.224 132.296 210.688 132.356 211.224 132.356C211.824 132.356 212.364 132.26 212.844 132.068C213.324 131.876 213.736 131.604 214.08 131.252C214.424 130.892 214.688 130.464 214.872 129.968C215.056 129.472 215.148 128.916 215.148 128.3C215.148 127.764 215.068 127.28 214.908 126.848C214.756 126.416 214.52 126.048 214.2 125.744C213.888 125.44 213.496 125.204 213.024 125.036C212.552 124.868 212 124.784 211.368 124.784C210.936 124.784 210.484 124.82 210.012 124.892C209.548 124.964 209.072 125.08 208.584 125.24L207.24 124.844L208.62 116.804H216.768V117.74C216.768 118.044 216.672 118.296 216.48 118.496C216.296 118.688 215.976 118.784 215.52 118.784H210.12L209.328 123.296ZM228.443 121.856C228.443 122.4 228.519 122.888 228.671 123.32C228.831 123.744 229.055 124.104 229.343 124.4C229.639 124.696 229.995 124.92 230.411 125.072C230.835 125.224 231.307 125.3 231.827 125.3C232.403 125.3 232.911 125.208 233.351 125.024C233.799 124.832 234.175 124.58 234.479 124.268C234.783 123.956 235.015 123.596 235.175 123.188C235.335 122.78 235.415 122.356 235.415 121.916C235.415 121.38 235.327 120.896 235.151 120.464C234.983 120.024 234.747 119.652 234.443 119.348C234.139 119.044 233.775 118.812 233.351 118.652C232.935 118.484 232.475 118.4 231.971 118.4C231.443 118.4 230.963 118.488 230.531 118.664C230.099 118.832 229.727 119.068 229.415 119.372C229.103 119.676 228.863 120.04 228.695 120.464C228.527 120.888 228.443 121.352 228.443 121.856ZM233.435 127.148C233.611 126.916 233.775 126.696 233.927 126.488C234.079 126.28 234.223 126.072 234.359 125.864C233.919 126.216 233.423 126.484 232.871 126.668C232.319 126.852 231.735 126.944 231.119 126.944C230.471 126.944 229.855 126.836 229.271 126.62C228.695 126.404 228.187 126.088 227.747 125.672C227.307 125.248 226.955 124.732 226.691 124.124C226.435 123.508 226.307 122.804 226.307 122.012C226.307 121.26 226.447 120.556 226.727 119.9C227.007 119.244 227.399 118.672 227.903 118.184C228.407 117.696 229.007 117.312 229.703 117.032C230.399 116.752 231.163 116.612 231.995 116.612C232.819 116.612 233.567 116.748 234.239 117.02C234.911 117.292 235.487 117.672 235.967 118.16C236.447 118.648 236.815 119.232 237.071 119.912C237.335 120.592 237.467 121.344 237.467 122.168C237.467 122.664 237.419 123.136 237.323 123.584C237.235 124.024 237.103 124.46 236.927 124.892C236.759 125.316 236.551 125.74 236.303 126.164C236.055 126.58 235.775 127.008 235.463 127.448L231.275 133.496C231.171 133.648 231.023 133.772 230.831 133.868C230.639 133.956 230.419 134 230.171 134H228.203L233.435 127.148ZM252.169 125.408C252.169 126.912 252.005 128.216 251.677 129.32C251.357 130.416 250.917 131.324 250.357 132.044C249.797 132.764 249.133 133.3 248.365 133.652C247.605 134.004 246.789 134.18 245.917 134.18C245.037 134.18 244.217 134.004 243.457 133.652C242.705 133.3 242.049 132.764 241.489 132.044C240.929 131.324 240.489 130.416 240.169 129.32C239.849 128.216 239.689 126.912 239.689 125.408C239.689 123.904 239.849 122.6 240.169 121.496C240.489 120.392 240.929 119.48 241.489 118.76C242.049 118.032 242.705 117.492 243.457 117.14C244.217 116.788 245.037 116.612 245.917 116.612C246.789 116.612 247.605 116.788 248.365 117.14C249.133 117.492 249.797 118.032 250.357 118.76C250.917 119.48 251.357 120.392 251.677 121.496C252.005 122.6 252.169 123.904 252.169 125.408ZM249.949 125.408C249.949 124.096 249.837 122.996 249.613 122.108C249.397 121.212 249.101 120.492 248.725 119.948C248.357 119.404 247.929 119.016 247.441 118.784C246.953 118.544 246.445 118.424 245.917 118.424C245.389 118.424 244.881 118.544 244.393 118.784C243.905 119.016 243.477 119.404 243.109 119.948C242.741 120.492 242.445 121.212 242.221 122.108C242.005 122.996 241.897 124.096 241.897 125.408C241.897 126.72 242.005 127.82 242.221 128.708C242.445 129.596 242.741 130.312 243.109 130.856C243.477 131.4 243.905 131.792 244.393 132.032C244.881 132.264 245.389 132.38 245.917 132.38C246.445 132.38 246.953 132.264 247.441 132.032C247.929 131.792 248.357 131.4 248.725 130.856C249.101 130.312 249.397 129.596 249.613 128.708C249.837 127.82 249.949 126.72 249.949 125.408ZM266.091 125.408C266.091 126.912 265.927 128.216 265.599 129.32C265.279 130.416 264.839 131.324 264.279 132.044C263.719 132.764 263.055 133.3 262.287 133.652C261.527 134.004 260.711 134.18 259.839 134.18C258.959 134.18 258.139 134.004 257.379 133.652C256.627 133.3 255.971 132.764 255.411 132.044C254.851 131.324 254.411 130.416 254.091 129.32C253.771 128.216 253.611 126.912 253.611 125.408C253.611 123.904 253.771 122.6 254.091 121.496C254.411 120.392 254.851 119.48 255.411 118.76C255.971 118.032 256.627 117.492 257.379 117.14C258.139 116.788 258.959 116.612 259.839 116.612C260.711 116.612 261.527 116.788 262.287 117.14C263.055 117.492 263.719 118.032 264.279 118.76C264.839 119.48 265.279 120.392 265.599 121.496C265.927 122.6 266.091 123.904 266.091 125.408ZM263.871 125.408C263.871 124.096 263.759 122.996 263.535 122.108C263.319 121.212 263.023 120.492 262.647 119.948C262.279 119.404 261.851 119.016 261.363 118.784C260.875 118.544 260.367 118.424 259.839 118.424C259.311 118.424 258.803 118.544 258.315 118.784C257.827 119.016 257.399 119.404 257.031 119.948C256.663 120.492 256.367 121.212 256.143 122.108C255.927 122.996 255.819 124.096 255.819 125.408C255.819 126.72 255.927 127.82 256.143 128.708C256.367 129.596 256.663 130.312 257.031 130.856C257.399 131.4 257.827 131.792 258.315 132.032C258.803 132.264 259.311 132.38 259.839 132.38C260.367 132.38 260.875 132.264 261.363 132.032C261.851 131.792 262.279 131.4 262.647 130.856C263.023 130.312 263.319 129.596 263.535 128.708C263.759 127.82 263.871 126.72 263.871 125.408ZM275.477 120.956C275.477 121.628 275.373 122.232 275.165 122.768C274.957 123.296 274.677 123.744 274.325 124.112C273.981 124.472 273.577 124.748 273.113 124.94C272.657 125.132 272.173 125.228 271.661 125.228C271.125 125.228 270.625 125.132 270.161 124.94C269.697 124.748 269.293 124.472 268.949 124.112C268.613 123.744 268.349 123.296 268.157 122.768C267.965 122.232 267.869 121.628 267.869 120.956C267.869 120.268 267.965 119.656 268.157 119.12C268.349 118.584 268.613 118.132 268.949 117.764C269.293 117.396 269.697 117.116 270.161 116.924C270.625 116.732 271.125 116.636 271.661 116.636C272.205 116.636 272.709 116.732 273.173 116.924C273.637 117.116 274.041 117.396 274.385 117.764C274.729 118.132 274.997 118.584 275.189 119.12C275.381 119.656 275.477 120.268 275.477 120.956ZM273.821 120.956C273.821 120.428 273.765 119.98 273.653 119.612C273.541 119.244 273.385 118.944 273.185 118.712C272.993 118.472 272.765 118.3 272.501 118.196C272.237 118.092 271.957 118.04 271.661 118.04C271.365 118.04 271.089 118.092 270.833 118.196C270.577 118.3 270.353 118.472 270.161 118.712C269.969 118.944 269.817 119.244 269.705 119.612C269.593 119.98 269.537 120.428 269.537 120.956C269.537 121.476 269.593 121.92 269.705 122.288C269.817 122.648 269.969 122.944 270.161 123.176C270.353 123.4 270.577 123.564 270.833 123.668C271.089 123.764 271.365 123.812 271.661 123.812C271.957 123.812 272.237 123.764 272.501 123.668C272.765 123.564 272.993 123.4 273.185 123.176C273.385 122.944 273.541 122.648 273.653 122.288C273.765 121.92 273.821 121.476 273.821 120.956ZM281.561 117.164C281.641 117.068 281.733 116.984 281.837 116.912C281.949 116.84 282.097 116.804 282.281 116.804H283.829L271.253 133.652C271.181 133.756 271.089 133.84 270.977 133.904C270.865 133.968 270.729 134 270.569 134H268.997L281.561 117.164ZM284.993 129.944C284.993 130.616 284.889 131.216 284.681 131.744C284.473 132.272 284.193 132.72 283.841 133.088C283.497 133.448 283.093 133.724 282.629 133.916C282.173 134.108 281.689 134.204 281.177 134.204C280.633 134.204 280.129 134.108 279.665 133.916C279.209 133.724 278.809 133.448 278.465 133.088C278.129 132.72 277.865 132.272 277.673 131.744C277.481 131.216 277.385 130.616 277.385 129.944C277.385 129.256 277.481 128.644 277.673 128.108C277.865 127.564 278.129 127.108 278.465 126.74C278.809 126.372 279.209 126.092 279.665 125.9C280.129 125.708 280.633 125.612 281.177 125.612C281.713 125.612 282.213 125.708 282.677 125.9C283.149 126.092 283.553 126.372 283.889 126.74C284.233 127.108 284.501 127.564 284.693 128.108C284.893 128.644 284.993 129.256 284.993 129.944ZM283.337 129.944C283.337 129.416 283.281 128.968 283.169 128.6C283.057 128.224 282.901 127.92 282.701 127.688C282.509 127.456 282.281 127.288 282.017 127.184C281.753 127.08 281.473 127.028 281.177 127.028C280.881 127.028 280.601 127.08 280.337 127.184C280.081 127.288 279.857 127.456 279.665 127.688C279.473 127.92 279.321 128.224 279.208 128.6C279.105 128.968 279.053 129.416 279.053 129.944C279.053 130.464 279.105 130.904 279.208 131.264C279.321 131.624 279.473 131.92 279.665 132.152C279.857 132.376 280.081 132.54 280.337 132.644C280.601 132.74 280.881 132.788 281.177 132.788C281.473 132.788 281.753 132.74 282.017 132.644C282.281 132.54 282.509 132.376 282.701 132.152C282.901 131.92 283.057 131.624 283.169 131.264C283.281 130.904 283.337 130.464 283.337 129.944Z" fill="#16FF85"/>
<path d="M363.75 195.328C363.702 195.408 363.649 195.469 363.59 195.512C363.537 195.549 363.47 195.568 363.39 195.568C363.299 195.568 363.193 195.523 363.07 195.432C362.947 195.341 362.793 195.243 362.606 195.136C362.425 195.024 362.203 194.923 361.942 194.832C361.686 194.741 361.374 194.696 361.006 194.696C360.659 194.696 360.353 194.744 360.086 194.84C359.825 194.931 359.603 195.056 359.422 195.216C359.246 195.376 359.113 195.565 359.022 195.784C358.931 195.997 358.886 196.229 358.886 196.48C358.886 196.8 358.963 197.067 359.118 197.28C359.278 197.488 359.486 197.667 359.742 197.816C360.003 197.965 360.297 198.096 360.622 198.208C360.953 198.315 361.289 198.427 361.63 198.544C361.977 198.661 362.313 198.795 362.638 198.944C362.969 199.088 363.262 199.272 363.518 199.496C363.779 199.72 363.987 199.995 364.142 200.32C364.302 200.645 364.382 201.045 364.382 201.52C364.382 202.021 364.297 202.493 364.126 202.936C363.955 203.373 363.705 203.755 363.374 204.08C363.049 204.405 362.646 204.661 362.166 204.848C361.691 205.035 361.15 205.128 360.542 205.128C359.795 205.128 359.118 204.995 358.51 204.728C357.902 204.456 357.382 204.091 356.95 203.632L357.398 202.896C357.441 202.837 357.491 202.789 357.55 202.752C357.614 202.709 357.683 202.688 357.758 202.688C357.827 202.688 357.905 202.717 357.99 202.776C358.081 202.829 358.182 202.899 358.294 202.984C358.406 203.069 358.534 203.163 358.678 203.264C358.822 203.365 358.985 203.459 359.166 203.544C359.353 203.629 359.563 203.701 359.798 203.76C360.033 203.813 360.297 203.84 360.59 203.84C360.958 203.84 361.286 203.789 361.574 203.688C361.862 203.587 362.105 203.445 362.302 203.264C362.505 203.077 362.659 202.856 362.766 202.6C362.873 202.344 362.926 202.059 362.926 201.744C362.926 201.397 362.846 201.115 362.686 200.896C362.531 200.672 362.326 200.485 362.07 200.336C361.814 200.187 361.521 200.061 361.19 199.96C360.859 199.853 360.523 199.747 360.182 199.64C359.841 199.528 359.505 199.4 359.174 199.256C358.843 199.112 358.55 198.925 358.294 198.696C358.038 198.467 357.83 198.181 357.67 197.84C357.515 197.493 357.438 197.067 357.438 196.56C357.438 196.155 357.515 195.763 357.67 195.384C357.83 195.005 358.059 194.669 358.358 194.376C358.662 194.083 359.033 193.848 359.47 193.672C359.913 193.496 360.419 193.408 360.99 193.408C361.63 193.408 362.211 193.509 362.734 193.712C363.262 193.915 363.726 194.208 364.126 194.592L363.75 195.328ZM371.615 200.064C371.615 199.733 371.567 199.432 371.471 199.16C371.38 198.883 371.244 198.645 371.063 198.448C370.887 198.245 370.671 198.091 370.415 197.984C370.159 197.872 369.868 197.816 369.543 197.816C368.86 197.816 368.319 198.016 367.919 198.416C367.524 198.811 367.279 199.36 367.183 200.064H371.615ZM372.767 203.864C372.591 204.077 372.38 204.264 372.135 204.424C371.889 204.579 371.625 204.707 371.343 204.808C371.065 204.909 370.777 204.984 370.479 205.032C370.18 205.085 369.884 205.112 369.591 205.112C369.031 205.112 368.513 205.019 368.039 204.832C367.569 204.64 367.161 204.363 366.815 204C366.473 203.632 366.207 203.179 366.015 202.64C365.823 202.101 365.727 201.483 365.727 200.784C365.727 200.219 365.812 199.691 365.983 199.2C366.159 198.709 366.409 198.285 366.735 197.928C367.06 197.565 367.457 197.283 367.927 197.08C368.396 196.872 368.924 196.768 369.511 196.768C369.996 196.768 370.444 196.851 370.855 197.016C371.271 197.176 371.628 197.411 371.927 197.72C372.231 198.024 372.468 198.403 372.639 198.856C372.809 199.304 372.895 199.816 372.895 200.392C372.895 200.616 372.871 200.765 372.823 200.84C372.775 200.915 372.684 200.952 372.551 200.952H367.135C367.151 201.464 367.22 201.909 367.343 202.288C367.471 202.667 367.647 202.984 367.871 203.24C368.095 203.491 368.361 203.68 368.671 203.808C368.98 203.931 369.327 203.992 369.711 203.992C370.068 203.992 370.375 203.952 370.631 203.872C370.892 203.787 371.116 203.696 371.303 203.6C371.489 203.504 371.644 203.416 371.767 203.336C371.895 203.251 372.004 203.208 372.095 203.208C372.212 203.208 372.303 203.253 372.367 203.344L372.767 203.864ZM380.284 198.336C380.241 198.395 380.198 198.44 380.156 198.472C380.113 198.504 380.054 198.52 379.98 198.52C379.9 198.52 379.812 198.488 379.716 198.424C379.62 198.355 379.5 198.28 379.356 198.2C379.217 198.12 379.044 198.048 378.836 197.984C378.633 197.915 378.382 197.88 378.084 197.88C377.684 197.88 377.332 197.952 377.028 198.096C376.724 198.235 376.468 198.437 376.26 198.704C376.057 198.971 375.902 199.293 375.796 199.672C375.694 200.051 375.644 200.475 375.644 200.944C375.644 201.435 375.7 201.872 375.812 202.256C375.924 202.635 376.081 202.955 376.284 203.216C376.492 203.472 376.74 203.669 377.028 203.808C377.321 203.941 377.649 204.008 378.012 204.008C378.358 204.008 378.644 203.968 378.868 203.888C379.092 203.803 379.276 203.709 379.42 203.608C379.569 203.507 379.692 203.416 379.788 203.336C379.889 203.251 379.988 203.208 380.084 203.208C380.201 203.208 380.292 203.253 380.356 203.344L380.756 203.864C380.58 204.083 380.38 204.269 380.156 204.424C379.932 204.579 379.689 204.709 379.428 204.816C379.172 204.917 378.902 204.992 378.62 205.04C378.337 205.088 378.049 205.112 377.756 205.112C377.249 205.112 376.777 205.019 376.34 204.832C375.908 204.645 375.532 204.376 375.212 204.024C374.892 203.667 374.641 203.229 374.46 202.712C374.278 202.195 374.188 201.605 374.188 200.944C374.188 200.341 374.27 199.784 374.436 199.272C374.606 198.76 374.852 198.32 375.172 197.952C375.497 197.579 375.894 197.288 376.364 197.08C376.838 196.872 377.382 196.768 377.996 196.768C378.566 196.768 379.068 196.861 379.5 197.048C379.937 197.229 380.324 197.488 380.66 197.824L380.284 198.336ZM385.56 196.768C386.152 196.768 386.685 196.867 387.16 197.064C387.634 197.261 388.04 197.541 388.376 197.904C388.712 198.267 388.968 198.707 389.144 199.224C389.325 199.736 389.416 200.309 389.416 200.944C389.416 201.584 389.325 202.16 389.144 202.672C388.968 203.184 388.712 203.621 388.376 203.984C388.04 204.347 387.634 204.627 387.16 204.824C386.685 205.016 386.152 205.112 385.56 205.112C384.962 205.112 384.424 205.016 383.944 204.824C383.469 204.627 383.064 204.347 382.728 203.984C382.392 203.621 382.133 203.184 381.952 202.672C381.776 202.16 381.688 201.584 381.688 200.944C381.688 200.309 381.776 199.736 381.952 199.224C382.133 198.707 382.392 198.267 382.728 197.904C383.064 197.541 383.469 197.261 383.944 197.064C384.424 196.867 384.962 196.768 385.56 196.768ZM385.56 204C386.36 204 386.957 203.733 387.352 203.2C387.746 202.661 387.944 201.912 387.944 200.952C387.944 199.987 387.746 199.235 387.352 198.696C386.957 198.157 386.36 197.888 385.56 197.888C385.154 197.888 384.8 197.957 384.496 198.096C384.197 198.235 383.946 198.435 383.744 198.696C383.546 198.957 383.397 199.28 383.296 199.664C383.2 200.043 383.152 200.472 383.152 200.952C383.152 201.912 383.349 202.661 383.744 203.2C384.144 203.733 384.749 204 385.56 204ZM392.566 198.072C392.742 197.875 392.928 197.696 393.126 197.536C393.323 197.376 393.531 197.24 393.75 197.128C393.974 197.011 394.208 196.923 394.454 196.864C394.704 196.8 394.974 196.768 395.262 196.768C395.704 196.768 396.094 196.843 396.43 196.992C396.771 197.136 397.054 197.344 397.278 197.616C397.507 197.883 397.68 198.205 397.798 198.584C397.915 198.963 397.974 199.381 397.974 199.84V205H396.542V199.84C396.542 199.227 396.4 198.752 396.118 198.416C395.84 198.075 395.416 197.904 394.846 197.904C394.424 197.904 394.03 198.005 393.662 198.208C393.299 198.411 392.963 198.685 392.654 199.032V205H391.222V196.896H392.078C392.28 196.896 392.406 196.995 392.454 197.192L392.566 198.072ZM405.424 198.824C405.157 198.467 404.869 198.219 404.56 198.08C404.25 197.936 403.904 197.864 403.52 197.864C402.768 197.864 402.189 198.133 401.784 198.672C401.378 199.211 401.176 199.979 401.176 200.976C401.176 201.504 401.221 201.957 401.312 202.336C401.402 202.709 401.536 203.019 401.712 203.264C401.888 203.504 402.104 203.68 402.36 203.792C402.616 203.904 402.906 203.96 403.232 203.96C403.701 203.96 404.109 203.853 404.456 203.64C404.808 203.427 405.13 203.125 405.424 202.736V198.824ZM406.848 193.216V205H406C405.797 205 405.669 204.901 405.616 204.704L405.488 203.72C405.141 204.136 404.746 204.472 404.304 204.728C403.861 204.984 403.349 205.112 402.768 205.112C402.304 205.112 401.882 205.024 401.504 204.848C401.125 204.667 400.802 204.403 400.536 204.056C400.269 203.709 400.064 203.277 399.92 202.76C399.776 202.243 399.704 201.648 399.704 200.976C399.704 200.379 399.784 199.824 399.944 199.312C400.104 198.795 400.333 198.347 400.632 197.968C400.93 197.589 401.296 197.293 401.728 197.08C402.165 196.861 402.656 196.752 403.2 196.752C403.696 196.752 404.12 196.837 404.472 197.008C404.829 197.173 405.146 197.405 405.424 197.704V193.216H406.848ZM413.489 201.352C412.833 201.373 412.273 201.427 411.809 201.512C411.35 201.592 410.974 201.699 410.681 201.832C410.393 201.965 410.182 202.123 410.049 202.304C409.921 202.485 409.857 202.688 409.857 202.912C409.857 203.125 409.891 203.309 409.961 203.464C410.03 203.619 410.123 203.747 410.241 203.848C410.363 203.944 410.505 204.016 410.665 204.064C410.83 204.107 411.006 204.128 411.193 204.128C411.443 204.128 411.673 204.104 411.881 204.056C412.089 204.003 412.283 203.928 412.465 203.832C412.651 203.736 412.827 203.621 412.993 203.488C413.163 203.355 413.329 203.203 413.489 203.032V201.352ZM408.889 198.04C409.337 197.608 409.819 197.285 410.337 197.072C410.854 196.859 411.427 196.752 412.057 196.752C412.51 196.752 412.913 196.827 413.265 196.976C413.617 197.125 413.913 197.333 414.153 197.6C414.393 197.867 414.574 198.189 414.697 198.568C414.819 198.947 414.881 199.363 414.881 199.816V205H414.249C414.11 205 414.003 204.979 413.929 204.936C413.854 204.888 413.795 204.797 413.753 204.664L413.593 203.896C413.379 204.093 413.171 204.269 412.969 204.424C412.766 204.573 412.553 204.701 412.329 204.808C412.105 204.909 411.865 204.987 411.609 205.04C411.358 205.099 411.078 205.128 410.769 205.128C410.454 205.128 410.158 205.085 409.881 205C409.603 204.909 409.361 204.776 409.153 204.6C408.95 204.424 408.787 204.203 408.665 203.936C408.547 203.664 408.489 203.344 408.489 202.976C408.489 202.656 408.577 202.349 408.753 202.056C408.929 201.757 409.214 201.493 409.609 201.264C410.003 201.035 410.518 200.848 411.153 200.704C411.787 200.555 412.566 200.469 413.489 200.448V199.816C413.489 199.187 413.353 198.712 413.081 198.392C412.809 198.067 412.411 197.904 411.889 197.904C411.537 197.904 411.241 197.949 411.001 198.04C410.766 198.125 410.561 198.224 410.385 198.336C410.214 198.443 410.065 198.541 409.937 198.632C409.814 198.717 409.691 198.76 409.569 198.76C409.473 198.76 409.39 198.736 409.321 198.688C409.251 198.635 409.193 198.571 409.145 198.496L408.889 198.04ZM418.402 198.52C418.658 197.965 418.973 197.533 419.346 197.224C419.719 196.909 420.175 196.752 420.714 196.752C420.885 196.752 421.047 196.771 421.202 196.808C421.362 196.845 421.503 196.904 421.626 196.984L421.522 198.048C421.49 198.181 421.41 198.248 421.282 198.248C421.207 198.248 421.098 198.232 420.954 198.2C420.81 198.168 420.647 198.152 420.466 198.152C420.21 198.152 419.981 198.189 419.778 198.264C419.581 198.339 419.402 198.451 419.242 198.6C419.087 198.744 418.946 198.925 418.818 199.144C418.695 199.357 418.583 199.603 418.482 199.88V205H417.05V196.896H417.866C418.021 196.896 418.127 196.925 418.186 196.984C418.245 197.043 418.285 197.144 418.306 197.288L418.402 198.52ZM429.87 196.896L425.35 207.392C425.302 207.499 425.241 207.584 425.166 207.648C425.097 207.712 424.987 207.744 424.838 207.744H423.782L425.262 204.528L421.918 196.896H423.15C423.273 196.896 423.369 196.928 423.438 196.992C423.513 197.051 423.563 197.117 423.59 197.192L425.758 202.296C425.843 202.52 425.915 202.755 425.974 203C426.049 202.749 426.129 202.512 426.214 202.288L428.318 197.192C428.35 197.107 428.403 197.037 428.478 196.984C428.558 196.925 428.646 196.896 428.742 196.896H429.87Z" fill="white"/>
<path d="M16 161H437.501" stroke="#5D5E60"/>
<path d="M390.05 55.5497V160.387" stroke="#16FF85" stroke-opacity="0.3" stroke-width="1.49767"/>
<g filter="url(#filter0_d_254_134078)">
<circle cx="389.743" cy="58.2569" r="13.2569" fill="#16FF85" fill-opacity="0.19"/>
<circle cx="389.742" cy="58.2554" r="5.68153" fill="#00FF79"/>
<circle cx="389.74" cy="58.2569" r="3.78768" fill="#ACFFD4"/>
</g>
<path d="M65 161V117.163L393 59" stroke="#16FF85" stroke-opacity="0.3" stroke-width="1.49767"/>
<g filter="url(#filter1_d_254_134078)">
<circle cx="64.2569" cy="120.05" r="13.2569" fill="#16FF85" fill-opacity="0.19"/>
<circle cx="64.2557" cy="120.049" r="5.68153" fill="#00FF79"/>
<circle cx="64.254" cy="120.05" r="3.78768" fill="#ACFFD4"/>
</g>
<defs>
<filter id="filter0_d_254_134078" x="365.439" y="33.9526" width="48.6085" height="48.6086" filterUnits="userSpaceOnUse" color-interpolation-filters="sRGB">
<feFlood flood-opacity="0" result="BackgroundImageFix"/>
<feColorMatrix in="SourceAlpha" type="matrix" values="0 0 0 0 0 0 0 0 0 0 0 0 0 0 0 0 0 0 127 0" result="hardAlpha"/>
<feOffset/>
<feGaussianBlur stdDeviation="5.52371"/>
<feComposite in2="hardAlpha" operator="out"/>
<feColorMatrix type="matrix" values="0 0 0 0 0.0862745 0 0 0 0 1 0 0 0 0 0.521569 0 0 0 0.2 0"/>
<feBlend mode="normal" in2="BackgroundImageFix" result="effect1_dropShadow_254_134078"/>
<feBlend mode="normal" in="SourceGraphic" in2="effect1_dropShadow_254_134078" result="shape"/>
</filter>
<filter id="filter1_d_254_134078" x="39.9526" y="95.7453" width="48.6085" height="48.6086" filterUnits="userSpaceOnUse" color-interpolation-filters="sRGB">
<feFlood flood-opacity="0" result="BackgroundImageFix"/>
<feColorMatrix in="SourceAlpha" type="matrix" values="0 0 0 0 0 0 0 0 0 0 0 0 0 0 0 0 0 0 127 0" result="hardAlpha"/>
<feOffset/>
<feGaussianBlur stdDeviation="5.52371"/>
<feComposite in2="hardAlpha" operator="out"/>
<feColorMatrix type="matrix" values="0 0 0 0 0.0862745 0 0 0 0 1 0 0 0 0 0.521569 0 0 0 0.2 0"/>
<feBlend mode="normal" in2="BackgroundImageFix" result="effect1_dropShadow_254_134078"/>
<feBlend mode="normal" in="SourceGraphic" in2="effect1_dropShadow_254_134078" result="shape"/>
</filter>
</defs>
</svg>
